mtllib ./Track2_trackCollider_4_1.mtl
# Unity Asset Buildr OBJ Exporter
 http://buildr.jasperstocker.com
g Track2_trackCollider_4_1
v -31.6017 9.877238 35.97092
v -29.57974 10.07257 35.56187
v -29.7697 19.20751 35.07269
v -31.77489 19.01202 35.47265
v -32.73378 9.225892 20.97589
v -34.44486 9.029603 21.41959
v -32.92374 18.36083 20.48671
v -34.61806 18.16439 20.92131
v -33.81937 9.505583 36.27378
v -31.6017 9.877238 35.97092
v -31.77489 19.01202 35.47265
v -33.96 18.64005 35.75969
v -34.44486 9.029603 21.41959
v -35.89864 8.657667 21.77686
v -34.61806 18.16439 20.92131
v -36.03926 17.79213 21.26276
v -36.00999 9.061303 36.50322
v -33.81937 9.505583 36.27378
v -33.96 18.64005 35.75969
v -36.11024 18.19535 35.97261
v -35.89864 8.657667 21.77686
v -37.38153 8.205865 22.03667
v -36.03926 17.79213 21.26276
v -37.48177 17.33992 21.50605
v -38.19719 8.575751 36.64761
v -36.00999 9.061303 36.50322
v -36.11024 18.19535 35.97261
v -38.25198 17.70932 36.10221
v -37.38153 8.205865 22.03667
v -38.86945 7.709638 22.21078
v -37.48177 17.33992 21.50605
v -38.92424 16.8432 21.66538
v -40.38279 8.066341 36.69926
v -38.19719 8.575751 36.64761
v -38.25198 17.70932 36.10221
v -40.38878 17.19936 36.14215
v -38.86945 7.709638 22.21078
v -40.34626 7.18819 22.30305
v -38.92424 16.8432 21.66538
v -40.35225 16.32121 21.74593
v -42.56974 7.543086 36.65209
v -40.38279 8.066341 36.69926
v -40.38878 17.19936 36.14215
v -42.52477 16.67551 36.08707
v -40.34626 7.18819 22.30305
v -41.80451 6.65231 22.31525
v -40.35225 16.32121 21.74593
v -41.75954 15.78474 21.75023
v -44.76619 7.01069 36.49908
v -42.56974 7.543086 36.65209
v -42.52477 16.67551 36.08707
v -44.66888 16.14248 35.9304
v -41.80451 6.65231 22.31525
v -43.24676 6.106961 22.24722
v -41.75954 15.78474 21.75023
v -43.14944 15.23875 21.67853
v -46.96828 6.474945 36.23269
v -44.76619 7.01069 36.49908
v -44.66888 16.14248 35.9304
v -46.81816 15.60607 35.66478
v -43.24676 6.106961 22.24722
v -44.66875 5.558011 22.09747
v -43.14944 15.23875 21.67853
v -44.51863 14.68914 21.52957
v -49.15432 5.946567 35.84875
v -46.96828 6.474945 36.23269
v -46.81816 15.60607 35.66478
v -48.95235 15.07701 35.28601
v -44.66875 5.558011 22.09747
v -46.04517 5.016126 21.86823
v -44.51863 14.68914 21.52957
v -45.8432 14.14657 21.30549
v -51.33274 5.425882 35.33894
v -49.15432 5.946567 35.84875
v -48.95235 15.07701 35.28601
v -51.08025 14.55564 34.78553
v -46.04517 5.016126 21.86823
v -47.38599 4.481368 21.55778
v -45.8432 14.14657 21.30549
v -47.1335 13.61112 21.00437
v -53.51245 4.911323 34.69091
v -51.33274 5.425882 35.33894
v -51.08025 14.55564 34.78553
v -53.21091 14.04039 34.1508
v -47.38599 4.481368 21.55778
v -48.71014 3.952078 21.15862
v -47.1335 13.61112 21.00437
v -48.40859 13.08114 20.61852
v -55.65427 4.417503 33.90795
v -53.51245 4.911323 34.69091
v -53.21091 14.04039 34.1508
v -55.30676 13.5459 33.38436
v -48.71014 3.952078 21.15862
v -49.97414 3.44264 20.68178
v -48.40859 13.08114 20.61852
v -49.62663 12.57104 20.1582
v -57.76655 3.940981 32.97895
v -55.65427 4.417503 33.90795
v -55.30676 13.5459 33.38436
v -57.37599 13.06872 32.47472
v -49.97414 3.44264 20.68178
v -51.20544 2.949743 20.11738
v -49.62663 12.57104 20.1582
v -50.81488 12.07749 19.61314
v -59.83282 3.486225 31.90239
v -57.76655 3.940981 32.97895
v -57.37599 13.06872 32.47472
v -59.40261 12.61335 31.41965
v -51.20544 2.949743 20.11738
v -52.40152 2.478042 19.46356
v -50.81488 12.07749 19.61314
v -51.9713 11.60516 18.98082
v -61.81399 3.064773 30.69573
v -59.83282 3.486225 31.90239
v -59.40261 12.61335 31.41965
v -61.34843 12.19132 30.23548
v -52.40152 2.478042 19.46356
v -53.52892 2.039178 18.73925
v -51.9713 11.60516 18.98082
v -53.06336 11.16573 18.279
v -63.72166 2.67122 29.34982
v -61.81399 3.064773 30.69573
v -61.34843 12.19132 30.23548
v -63.2245 11.79724 28.91271
v -53.52892 2.039178 18.73925
v -54.62043 1.628273 17.92665
v -53.06336 11.16573 18.279
v -54.12327 10.75429 17.48954
v -65.54436 2.307918 27.87021
v -63.72166 2.67122 29.34982
v -63.2245 11.79724 28.91271
v -65.01934 11.43346 27.45622
v -54.62043 1.628273 17.92665
v -55.67669 1.248094 17.02279
v -54.12327 10.75429 17.48954
v -55.15167 10.37363 16.6088
v -67.25076 1.983032 26.28703
v -65.54436 2.307918 27.87021
v -65.01934 11.43346 27.45622
v -66.70197 11.10814 25.8951
v -55.67669 1.248094 17.02279
v -56.66835 0.9070663 16.05385
v -55.15167 10.37363 16.6088
v -56.11956 10.03218 15.66191
v -68.85518 1.690408 24.59271
v -67.25076 1.983032 26.28703
v -66.70197 11.10814 25.8951
v -68.28598 10.81515 24.22168
v -56.66835 0.9070663 16.05385
v -57.63002 0.5997038 14.98959
v -56.11956 10.03218 15.66191
v -57.06082 9.724442 14.61855
v -70.33318 1.436138 22.82423
v -68.85518 1.690408 24.59271
v -68.28598 10.81515 24.22168
v -69.74705 10.56055 22.47214
v -57.63002 0.5997038 14.98959
v -58.53299 0.3322772 13.86139
v -57.06082 9.724442 14.61855
v -57.94687 9.456693 13.5093
v -71.68609 1.218969 20.99732
v -70.33318 1.436138 22.82423
v -69.74705 10.56055 22.47214
v -71.08613 10.34312 20.66195
v -58.53299 0.3322772 13.86139
v -59.37855 0.1037827 12.67498
v -57.94687 9.456693 13.5093
v -58.77858 9.22793 12.33961
v -72.93716 1.033343 19.09444
v -71.68609 1.218969 20.99732
v -71.08613 10.34312 20.66195
v -72.32584 10.15726 18.77372
v -59.37855 0.1037827 12.67498
v -60.19254 -0.09114075 11.39673
v -58.77858 9.22793 12.33961
v -59.58123 9.03278 11.07602
v -74.06953 0.8825343 17.15865
v -72.93716 1.033343 19.09444
v -72.32584 10.15726 18.77372
v -73.44933 10.00627 16.85007
v -60.19254 -0.09114075 11.39673
v -60.94845 -0.2491674 10.06905
v -59.58123 9.03278 11.07602
v -60.32825 8.874571 9.760471
v -75.08889 0.7643737 15.20427
v -74.06953 0.8825343 17.15865
v -73.44933 10.00627 16.85007
v -74.46196 9.887974 14.90532
v -60.94845 -0.2491674 10.06905
v -61.64688 -0.372399 8.700809
v -60.32825 8.874571 9.760471
v -61.01994 8.751201 8.401858
v -76.01936 0.6745427 13.20432
v -75.08889 0.7643737 15.20427
v -74.46196 9.887974 14.90532
v -75.38744 9.798038 12.91274
v -61.64688 -0.372399 8.700809
v -62.30969 -0.4651851 7.253855
v -61.01994 8.751201 8.401858
v -61.67778 8.658311 6.962274
v -76.84964 0.6137114 11.20441
v -76.01936 0.6745427 13.20432
v -75.38744 9.798038 12.91274
v -76.21445 9.737137 10.91781
v -62.30969 -0.4651851 7.253855
v -62.91312 -0.5268108 5.785019
v -61.67778 8.658311 6.962274
v -62.27794 8.596615 5.498422
v -77.59541 0.5786723 9.190844
v -76.84964 0.6137114 11.20441
v -76.21445 9.737137 10.91781
v -76.9584 9.702058 8.907068
v -62.91312 -0.5268108 5.785019
v -63.48446 -0.560771 4.2336
v -62.27794 8.596615 5.498422
v -62.84745 8.562614 3.949824
v -78.17949 0.568172 7.435262
v -77.59541 0.5786723 9.190844
v -76.9584 9.702058 8.907068
v -77.54201 9.691548 7.152219
v -63.48446 -0.560771 4.2336
v -63.91893 -0.568172 2.925608
v -62.84745 8.562614 3.949824
v -63.28144 8.555203 2.642566

vn -0.1913403 -0.05676463 -0.979881
vn -0.192729 -0.05646739 -0.9796259
vn -0.1913403 -0.05676463 -0.979881
vn -0.1899385 -0.05706443 -0.9801362
vn 0.2444744 0.05692003 0.9679836
vn 0.2431448 0.05716879 0.9683038
vn 0.2431448 0.05716879 0.9683038
vn 0.2418004 0.05742011 0.9686255
vn -0.1231128 -0.05701637 -0.9907534
vn -0.1258083 -0.05641106 -0.9904495
vn -0.1231128 -0.05701637 -0.9907534
vn -0.120373 -0.057631 -0.9910546
vn 0.2244081 0.05731849 0.9728081
vn 0.2216266 0.05774824 0.9734203
vn 0.2216266 0.05774824 0.9734203
vn 0.2187735 0.05818827 0.9740391
vn -0.08943845 -0.05803978 -0.9942998
vn -0.0924779 -0.05737072 -0.9940605
vn -0.08943845 -0.05803978 -0.9942998
vn -0.08633678 -0.05872176 -0.9945339
vn 0.1551459 0.05789277 0.9861938
vn 0.1516362 0.05842573 0.9867081
vn 0.1516362 0.05842573 0.9867081
vn 0.1480177 0.0589741 0.9872248
vn -0.04982953 -0.05914936 -0.9970047
vn -0.05282767 -0.05849081 -0.9968891
vn -0.04982953 -0.05914936 -0.9970047
vn -0.04676313 -0.05982221 -0.9971131
vn 0.09666259 0.05877967 0.99358
vn 0.0929872 0.05933254 0.993898
vn 0.0929872 0.05933254 0.993898
vn 0.08918599 0.05990326 0.994212
vn -0.006936425 -0.06026911 -0.998158
vn -0.009683186 -0.05966299 -0.9981716
vn -0.006936425 -0.06026911 -0.998158
vn -0.004123313 -0.06088934 -0.998136
vn 0.04119555 0.05980334 0.9973598
vn 0.0376709 0.06032957 0.9974674
vn 0.0376709 0.06032957 0.9974674
vn 0.03401746 0.06087415 0.9975656
vn 0.03845214 -0.06135545 -0.997375
vn 0.03607072 -0.060824 -0.9974965
vn 0.03845214 -0.06135545 -0.997375
vn 0.04089302 -0.06189985 -0.9972443
vn -0.01401861 0.06087204 0.9980472
vn -0.0172095 0.06134666 0.9979681
vn -0.0172095 0.06134666 0.9979681
vn -0.02052241 0.06183878 0.9978752
vn 0.08625412 -0.06239128 -0.9943177
vn 0.08429212 -0.06194463 -0.9945138
vn 0.08625412 -0.06239128 -0.9943177
vn 0.0882659 -0.06284909 -0.9941122
vn -0.07038359 0.06194324 0.995595
vn -0.07313509 0.06235456 0.9953709
vn -0.07313509 0.06235456 0.9953709
vn -0.07599512 0.06278169 0.9951297
vn 0.1364881 -0.06337526 -0.9886125
vn 0.1349582 -0.06301867 -0.9888452
vn 0.1364881 -0.06337526 -0.9886125
vn 0.1380569 -0.06374086 -0.9883711
vn -0.1285462 0.06300357 0.9897001
vn -0.130817 0.06334613 0.9893807
vn -0.130817 0.06334613 0.9893807
vn -0.1331792 0.06370223 0.9890426
vn 0.1887362 -0.06430952 -0.9799199
vn 0.1876221 -0.06404448 -0.9801511
vn 0.1887362 -0.06430952 -0.9799199
vn 0.1898784 -0.06458121 -0.9796813
vn -0.1884339 0.06404792 0.9799951
vn -0.1902411 0.06432026 0.9796281
vn -0.1902411 0.06432026 0.9796281
vn -0.1921218 0.06460357 0.9792423
vn 0.2428507 -0.06520484 -0.9678697
vn 0.2420997 -0.06502071 -0.9680703
vn 0.2428507 -0.06520484 -0.9678697
vn 0.2436204 -0.06539354 -0.9676636
vn -0.2496458 0.06506898 0.9661485
vn -0.2510315 0.06528042 0.9657751
vn -0.2510315 0.06528042 0.9657751
vn -0.2524737 0.06550043 0.9653842
vn 0.2990815 -0.06608652 -0.9519364
vn 0.2986279 -0.06597064 -0.9520868
vn 0.2990815 -0.06608652 -0.9519364
vn 0.2995459 -0.06620516 -0.951782
vn -0.3121074 0.06608051 0.9477459
vn -0.3131244 0.06624097 0.9473991
vn -0.3131244 0.06624097 0.9473991
vn -0.3141824 0.06640788 0.9470372
vn 0.3563607 -0.06696457 -0.9319457
vn 0.3561396 -0.06690617 -0.9320344
vn 0.3563607 -0.06696457 -0.9319457
vn 0.356587 -0.06702432 -0.9318549
vn -0.37573 0.06709549 0.9242972
vn -0.3764844 0.06721595 0.9239813
vn -0.3764844 0.06721595 0.9239813
vn -0.3772685 0.06734116 0.9236523
vn 0.4145151 -0.06785108 -0.9075095
vn 0.4144477 -0.06783246 -0.9075417
vn 0.4145151 -0.06785108 -0.9075095
vn 0.4145839 -0.0678701 -0.9074767
vn -0.4381213 0.06809083 0.8963334
vn -0.4386762 0.06818308 0.8960548
vn -0.4386762 0.06818308 0.8960548
vn -0.4392523 0.06827885 0.8957652
vn 0.4728117 -0.0687547 -0.878477
vn 0.4728292 -0.06875978 -0.8784672
vn 0.4728117 -0.0687547 -0.878477
vn 0.4727939 -0.06874953 -0.878487
vn -0.4993411 0.06907569 0.8636475
vn -0.4997752 0.06915145 0.8633904
vn -0.4997752 0.06915145 0.8633904
vn -0.5002249 0.06922994 0.8631235
vn 0.5296332 -0.0696627 -0.8453614
vn 0.5296814 -0.06967726 -0.8453298
vn 0.5296332 -0.0696627 -0.8453614
vn 0.5295841 -0.06964786 -0.8453934
vn -0.5583502 0.07004025 0.8266435
vn -0.558738 0.07011016 0.8263755
vn -0.558738 0.07011016 0.8263755
vn -0.5591388 0.07018243 0.8260982
vn 0.5846997 -0.07057221 -0.8081744
vn 0.5847331 -0.07058287 -0.8081493
vn 0.5846997 -0.07057221 -0.8081744
vn 0.5846657 -0.07056136 -0.8081999
vn -0.6126999 0.07094921 0.7871245
vn -0.6130626 0.07101908 0.7868357
vn -0.6130626 0.07101908 0.7868357
vn -0.6134364 0.07109113 0.7865378
vn 0.6371942 -0.07147034 -0.7673821
vn 0.6371868 -0.0714678 -0.7673886
vn 0.6371942 -0.07147034 -0.7673821
vn 0.6372019 -0.07147294 -0.7673756
vn -0.6632848 0.07181303 0.7449136
vn -0.6636482 0.0718887 0.7445824
vn -0.6636482 0.0718887 0.7445824
vn -0.6640218 0.07196647 0.7442418
vn 0.6857833 -0.07232928 -0.7242028
vn 0.6857256 -0.07230862 -0.7242596
vn 0.6857833 -0.07232928 -0.7242028
vn 0.685842 -0.07235023 -0.7241452
vn -0.709687 0.07262129 0.7007642
vn -0.7100688 0.07270565 0.7003685
vn -0.7100688 0.07270565 0.7003685
vn -0.7104599 0.07279209 0.6999629
vn 0.7305472 -0.07313765 -0.6789343
vn 0.7304374 -0.07309561 -0.6790568
vn 0.7305472 -0.07313765 -0.6789343
vn 0.7306583 -0.07318024 -0.6788101
vn -0.7504097 0.07334469 0.6568909
vn -0.7507902 0.07343737 0.6564456
vn -0.7507902 0.07343737 0.6564456
vn -0.7511787 0.07353202 0.6559905
vn 0.7705641 -0.07386854 -0.6330674
vn 0.7704151 -0.07380791 -0.6332558
vn 0.7705641 -0.07386854 -0.6330674
vn 0.7707149 -0.07392985 -0.6328766
vn -0.7870718 0.07399879 0.6124068
vn -0.7874519 0.07409875 0.6119059
vn -0.7874519 0.07409875 0.6119059
vn -0.7878387 0.07420053 0.6113956
vn 0.8057871 -0.07450539 -0.5874998
vn 0.8056134 -0.0744302 -0.5877476
vn 0.8057871 -0.07450539 -0.5874998
vn 0.8059626 -0.07458131 -0.5872496
vn -0.8188068 0.07456187 0.5692065
vn -0.819172 0.0746659 0.5686671
vn -0.819172 0.0746659 0.5686671
vn -0.8195425 0.0747715 0.568119
vn 0.8367596 -0.07504406 -0.5424038
vn 0.8365736 -0.07495677 -0.5427026
vn 0.8367596 -0.07504406 -0.5424038
vn 0.8369469 -0.07513204 -0.5421024
vn -0.8462592 0.07503386 0.5274613
vn -0.8465912 0.07513971 0.5269129
vn -0.8465912 0.07513971 0.5269129
vn -0.8469272 0.07524687 0.5263575
vn 0.8634363 -0.07547325 -0.4987801
vn 0.8632575 -0.07538339 -0.4991031
vn 0.8634363 -0.07547325 -0.4987801
vn 0.8636161 -0.07556371 -0.4984549
vn -0.8703811 0.07541966 0.4865683
vn -0.870675 0.07552174 0.4860264
vn -0.870675 0.07552174 0.4860264
vn -0.8709715 0.07562481 0.4854788
vn 0.8861287 -0.07578513 -0.4572007
vn 0.8859683 -0.07569882 -0.4575257
vn 0.8861287 -0.07578513 -0.4572007
vn 0.8862898 -0.07587191 -0.456874
vn -0.8908594 0.07570662 0.4479264
vn -0.891106 0.07579984 0.4474198
vn -0.891106 0.07579984 0.4474198
vn -0.8913542 0.07589375 0.4469091
vn 0.9054936 -0.07598042 -0.4175026
vn 0.9053606 -0.07590218 -0.4178047
vn 0.9054936 -0.07598042 -0.4175026
vn 0.9056268 -0.07605897 -0.4171992
vn -0.908366 0.07589369 0.4112315
vn -0.9085565 0.07597468 0.4107954
vn -0.9085565 0.07597468 0.4107954
vn -0.908748 0.07605611 0.4103567
vn 0.9218113 -0.07605626 -0.3801043
vn 0.9217156 -0.07599559 -0.3803485
vn 0.9218113 -0.07605626 -0.3801043
vn 0.9219072 -0.07611708 -0.3798594
vn -0.9234271 0.07598045 0.3761774
vn -0.9235612 0.07604232 0.3758354
vn -0.9235612 0.07604232 0.3758354
vn -0.9236957 0.07610441 0.3754922
vn 0.9355252 -0.07600998 -0.3449856
vn 0.9354685 -0.07597084 -0.3451479
vn 0.9355252 -0.07600998 -0.3449856
vn 0.935582 -0.07604919 -0.344823
vn -0.9362159 0.07595911 0.3431183
vn -0.9362909 0.07599851 0.3429045
vn -0.9362909 0.07599851 0.3429045
vn -0.9363661 0.076038 0.3426903
vn 0.9462834 -0.07585935 -0.3143135
vn 0.9462656 -0.07584792 -0.3143697
vn 0.9462834 -0.07585935 -0.3143135
vn 0.9463013 -0.0758708 -0.3142572
vn -0.9464114 0.07584488 0.3139317
vn -0.946435 0.07585598 0.3138574
vn -0.946435 0.07585598 0.3138574
vn -0.9464589 0.0758671 0.3137831

vt 0 0
vt 0 0
vt 0 0
vt 0 0
vt 0 0
vt 0 0
vt 0 0
vt 0 0
vt 0 0
vt 0 0
vt 0 0
vt 0 0
vt 0 0
vt 0 0
vt 0 0
vt 0 0
vt 0 0
vt 0 0
vt 0 0
vt 0 0
vt 0 0
vt 0 0
vt 0 0
vt 0 0
vt 0 0
vt 0 0
vt 0 0
vt 0 0
vt 0 0
vt 0 0
vt 0 0
vt 0 0
vt 0 0
vt 0 0
vt 0 0
vt 0 0
vt 0 0
vt 0 0
vt 0 0
vt 0 0
vt 0 0
vt 0 0
vt 0 0
vt 0 0
vt 0 0
vt 0 0
vt 0 0
vt 0 0
vt 0 0
vt 0 0
vt 0 0
vt 0 0
vt 0 0
vt 0 0
vt 0 0
vt 0 0
vt 0 0
vt 0 0
vt 0 0
vt 0 0
vt 0 0
vt 0 0
vt 0 0
vt 0 0
vt 0 0
vt 0 0
vt 0 0
vt 0 0
vt 0 0
vt 0 0
vt 0 0
vt 0 0
vt 0 0
vt 0 0
vt 0 0
vt 0 0
vt 0 0
vt 0 0
vt 0 0
vt 0 0
vt 0 0
vt 0 0
vt 0 0
vt 0 0
vt 0 0
vt 0 0
vt 0 0
vt 0 0
vt 0 0
vt 0 0
vt 0 0
vt 0 0
vt 0 0
vt 0 0
vt 0 0
vt 0 0
vt 0 0
vt 0 0
vt 0 0
vt 0 0
vt 0 0
vt 0 0
vt 0 0
vt 0 0
vt 0 0
vt 0 0
vt 0 0
vt 0 0
vt 0 0
vt 0 0
vt 0 0
vt 0 0
vt 0 0
vt 0 0
vt 0 0
vt 0 0
vt 0 0
vt 0 0
vt 0 0
vt 0 0
vt 0 0
vt 0 0
vt 0 0
vt 0 0
vt 0 0
vt 0 0
vt 0 0
vt 0 0
vt 0 0
vt 0 0
vt 0 0
vt 0 0
vt 0 0
vt 0 0
vt 0 0
vt 0 0
vt 0 0
vt 0 0
vt 0 0
vt 0 0
vt 0 0
vt 0 0
vt 0 0
vt 0 0
vt 0 0
vt 0 0
vt 0 0
vt 0 0
vt 0 0
vt 0 0
vt 0 0
vt 0 0
vt 0 0
vt 0 0
vt 0 0
vt 0 0
vt 0 0
vt 0 0
vt 0 0
vt 0 0
vt 0 0
vt 0 0
vt 0 0
vt 0 0
vt 0 0
vt 0 0
vt 0 0
vt 0 0
vt 0 0
vt 0 0
vt 0 0
vt 0 0
vt 0 0
vt 0 0
vt 0 0
vt 0 0
vt 0 0
vt 0 0
vt 0 0
vt 0 0
vt 0 0
vt 0 0
vt 0 0
vt 0 0
vt 0 0
vt 0 0
vt 0 0
vt 0 0
vt 0 0
vt 0 0
vt 0 0
vt 0 0
vt 0 0
vt 0 0
vt 0 0
vt 0 0
vt 0 0
vt 0 0
vt 0 0
vt 0 0
vt 0 0
vt 0 0
vt 0 0
vt 0 0
vt 0 0
vt 0 0
vt 0 0
vt 0 0
vt 0 0
vt 0 0
vt 0 0
vt 0 0
vt 0 0
vt 0 0
vt 0 0
vt 0 0
vt 0 0
vt 0 0
vt 0 0
vt 0 0
vt 0 0
vt 0 0
vt 0 0
vt 0 0

g Track Texture
usemtl Track Texture
usemap Track Texture
f 2/2/2 1/1/1 3/3/3
f 3/3/3 1/1/1 4/4/4
f 6/6/6 5/5/5 7/7/7
f 6/6/6 7/7/7 8/8/8
f 10/10/10 9/9/9 11/11/11
f 11/11/11 9/9/9 12/12/12
f 14/14/14 13/13/13 15/15/15
f 14/14/14 15/15/15 16/16/16
f 18/18/18 17/17/17 19/19/19
f 19/19/19 17/17/17 20/20/20
f 22/22/22 21/21/21 23/23/23
f 22/22/22 23/23/23 24/24/24
f 26/26/26 25/25/25 27/27/27
f 27/27/27 25/25/25 28/28/28
f 30/30/30 29/29/29 31/31/31
f 30/30/30 31/31/31 32/32/32
f 34/34/34 33/33/33 35/35/35
f 35/35/35 33/33/33 36/36/36
f 38/38/38 37/37/37 39/39/39
f 38/38/38 39/39/39 40/40/40
f 42/42/42 41/41/41 43/43/43
f 43/43/43 41/41/41 44/44/44
f 46/46/46 45/45/45 47/47/47
f 46/46/46 47/47/47 48/48/48
f 50/50/50 49/49/49 51/51/51
f 51/51/51 49/49/49 52/52/52
f 54/54/54 53/53/53 55/55/55
f 54/54/54 55/55/55 56/56/56
f 58/58/58 57/57/57 59/59/59
f 59/59/59 57/57/57 60/60/60
f 62/62/62 61/61/61 63/63/63
f 62/62/62 63/63/63 64/64/64
f 66/66/66 65/65/65 67/67/67
f 67/67/67 65/65/65 68/68/68
f 70/70/70 69/69/69 71/71/71
f 70/70/70 71/71/71 72/72/72
f 74/74/74 73/73/73 75/75/75
f 75/75/75 73/73/73 76/76/76
f 78/78/78 77/77/77 79/79/79
f 78/78/78 79/79/79 80/80/80
f 82/82/82 81/81/81 83/83/83
f 83/83/83 81/81/81 84/84/84
f 86/86/86 85/85/85 87/87/87
f 86/86/86 87/87/87 88/88/88
f 90/90/90 89/89/89 91/91/91
f 91/91/91 89/89/89 92/92/92
f 94/94/94 93/93/93 95/95/95
f 94/94/94 95/95/95 96/96/96
f 98/98/98 97/97/97 99/99/99
f 99/99/99 97/97/97 100/100/100
f 102/102/102 101/101/101 103/103/103
f 102/102/102 103/103/103 104/104/104
f 106/106/106 105/105/105 107/107/107
f 107/107/107 105/105/105 108/108/108
f 110/110/110 109/109/109 111/111/111
f 110/110/110 111/111/111 112/112/112
f 114/114/114 113/113/113 115/115/115
f 115/115/115 113/113/113 116/116/116
f 118/118/118 117/117/117 119/119/119
f 118/118/118 119/119/119 120/120/120
f 122/122/122 121/121/121 123/123/123
f 123/123/123 121/121/121 124/124/124
f 126/126/126 125/125/125 127/127/127
f 126/126/126 127/127/127 128/128/128
f 130/130/130 129/129/129 131/131/131
f 131/131/131 129/129/129 132/132/132
f 134/134/134 133/133/133 135/135/135
f 134/134/134 135/135/135 136/136/136
f 138/138/138 137/137/137 139/139/139
f 139/139/139 137/137/137 140/140/140
f 142/142/142 141/141/141 143/143/143
f 142/142/142 143/143/143 144/144/144
f 146/146/146 145/145/145 147/147/147
f 147/147/147 145/145/145 148/148/148
f 150/150/150 149/149/149 151/151/151
f 150/150/150 151/151/151 152/152/152
f 154/154/154 153/153/153 155/155/155
f 155/155/155 153/153/153 156/156/156
f 158/158/158 157/157/157 159/159/159
f 158/158/158 159/159/159 160/160/160
f 162/162/162 161/161/161 163/163/163
f 163/163/163 161/161/161 164/164/164
f 166/166/166 165/165/165 167/167/167
f 166/166/166 167/167/167 168/168/168
f 170/170/170 169/169/169 171/171/171
f 171/171/171 169/169/169 172/172/172
f 174/174/174 173/173/173 175/175/175
f 174/174/174 175/175/175 176/176/176
f 178/178/178 177/177/177 179/179/179
f 179/179/179 177/177/177 180/180/180
f 182/182/182 181/181/181 183/183/183
f 182/182/182 183/183/183 184/184/184
f 186/186/186 185/185/185 187/187/187
f 187/187/187 185/185/185 188/188/188
f 190/190/190 189/189/189 191/191/191
f 190/190/190 191/191/191 192/192/192
f 194/194/194 193/193/193 195/195/195
f 195/195/195 193/193/193 196/196/196
f 198/198/198 197/197/197 199/199/199
f 198/198/198 199/199/199 200/200/200
f 202/202/202 201/201/201 203/203/203
f 203/203/203 201/201/201 204/204/204
f 206/206/206 205/205/205 207/207/207
f 206/206/206 207/207/207 208/208/208
f 210/210/210 209/209/209 211/211/211
f 211/211/211 209/209/209 212/212/212
f 214/214/214 213/213/213 215/215/215
f 214/214/214 215/215/215 216/216/216
f 218/218/218 217/217/217 219/219/219
f 219/219/219 217/217/217 220/220/220
f 222/222/222 221/221/221 223/223/223
f 222/222/222 223/223/223 224/224/224
