mtllib ./Track2_trackCollider_5_1.mtl
# Unity Asset Buildr OBJ Exporter
 http://buildr.jasperstocker.com
g Track2_trackCollider_5_1
v -78.79931 0.5659876 5.391379
v -78.17949 0.568172 7.435262
v -77.54201 9.691548 7.152219
v -78.16214 9.689417 5.109369
v -63.91893 -0.568172 2.925608
v -64.43472 -0.5659876 1.225625
v -63.28144 8.555203 2.642566
v -63.79754 8.557442 0.943615
v -79.35332 0.5624582 3.386541
v -78.79931 0.5659876 5.391379
v -78.16214 9.689417 5.109369
v -78.71707 9.686044 3.107557
v -64.43472 -0.5659876 1.225625
v -64.88576 -0.5624582 -0.4072042
v -63.79754 8.557442 0.943615
v -64.24951 8.561128 -0.6861883
v -79.85318 0.5575639 1.372349
v -79.35332 0.5624582 3.386541
v -78.71707 9.686044 3.107557
v -79.21854 9.681416 1.098428
v -64.88576 -0.5624582 -0.4072042
v -65.28596 -0.5575639 -2.020581
v -64.24951 8.561128 -0.6861883
v -64.65133 8.566288 -2.294501
v -80.30362 0.551155 -0.6933417
v -79.85318 0.5575639 1.372349
v -79.21854 9.681416 1.098428
v -79.67142 9.675392 -0.9599371
v -65.28596 -0.5575639 -2.020581
v -65.64073 -0.551155 -3.648763
v -64.65133 8.566288 -2.294501
v -65.00854 8.573082 -3.915359
v -80.69537 0.5431288 -2.80528
v -80.30362 0.551155 -0.6933417
v -79.67142 9.675392 -0.9599371
v -80.06661 9.667885 -3.062167
v -65.64073 -0.551155 -3.648763
v -65.94341 -0.5431288 -5.283163
v -65.00854 8.573082 -3.915359
v -65.31466 8.581627 -5.540051
v -81.01405 0.5334457 -4.921887
v -80.69537 0.5431288 -2.80528
v -80.06661 9.667885 -3.062167
v -80.38986 9.658841 -5.166855
v -65.94341 -0.5431288 -5.283163
v -66.18221 -0.5334457 -6.873387
v -65.31466 8.581627 -5.540051
v -65.55803 8.59195 -7.118355
v -81.25766 0.5219526 -7.076184
v -81.01405 0.5334457 -4.921887
v -80.38986 9.658841 -5.166855
v -80.6395 9.648132 -7.306802
v -66.18221 -0.5334457 -6.873387
v -66.36034 -0.5219526 -8.454527
v -65.55803 8.59195 -7.118355
v -65.74217 8.604227 -8.685144
v -81.41638 0.5084074 -9.268453
v -81.25766 0.5219526 -7.076184
v -80.6395 9.648132 -7.306802
v -80.80598 9.635519 -9.482306
v -66.36034 -0.5219526 -8.454527
v -66.47235 -0.5084074 -10.01118
v -65.74217 8.604227 -8.685144
v -65.86195 8.618704 -10.22504
v -81.4791 0.4925646 -11.52434
v -81.41638 0.5084074 -9.268453
v -80.80598 9.635519 -9.482306
v -80.87878 9.620778 -11.71875
v -66.47235 -0.5084074 -10.01118
v -66.51488 -0.4925646 -11.57149
v -65.86195 8.618704 -10.22504
v -65.91457 8.63565 -11.7659
v -81.43092 0.4743655 -13.80295
v -81.4791 0.4925646 -11.52434
v -80.87878 9.620778 -11.71875
v -80.84322 9.603835 -13.97575
v -66.51488 -0.4925646 -11.57149
v -66.48179 -0.4743655 -13.0852
v -65.91457 8.63565 -11.7659
v -65.8941 8.655105 -13.258
v -81.2598 0.4537032 -16.09666
v -81.43092 0.4743655 -13.80295
v -80.84322 9.603835 -13.97575
v -80.6877 9.584579 -16.24605
v -66.48179 -0.4743655 -13.0852
v -66.37197 -0.4537032 -14.54328
v -65.8941 8.655105 -13.258
v -65.79987 8.677173 -14.69266
v -80.94873 0.4302992 -18.42648
v -81.2598 0.4537032 -16.09666
v -80.6877 9.584579 -16.24605
v -80.39587 9.562735 -18.55065
v -66.37197 -0.4537032 -14.54328
v -66.18079 -0.4302992 -15.96784
v -65.79987 8.677173 -14.69266
v -65.62792 8.702137 -16.09202
v -80.48004 0.4040264 -20.78037
v -80.94873 0.4302992 -18.42648
v -80.39587 9.562735 -18.55065
v -79.95055 9.538168 -20.87816
v -66.18079 -0.4302992 -15.96784
v -65.90572 -0.4040264 -17.34385
v -65.62792 8.702137 -16.09202
v -65.37623 8.730116 -17.44164
v -79.8373 0.374945 -23.14022
v -80.48004 0.4040264 -20.78037
v -79.95055 9.538168 -20.87816
v -79.33569 9.510907 -23.21122
v -65.90572 -0.4040264 -17.34385
v -65.54548 -0.374945 -18.66203
v -65.37623 8.730116 -17.44164
v -65.04387 8.761018 -18.73304
v -79.00761 0.3433569 -25.48111
v -79.8373 0.374945 -23.14022
v -79.33569 9.510907 -23.21122
v -78.53857 9.481215 -25.52589
v -65.54548 -0.374945 -18.66203
v -65.09809 -0.3433569 -19.91977
v -65.04387 8.761018 -18.73304
v -64.62905 8.794501 -19.96455
v -77.99062 0.3098127 -27.76011
v -79.00761 0.3433569 -25.48111
v -78.53857 9.481215 -25.52589
v -77.55827 9.449569 -27.78062
v -65.09809 -0.3433569 -19.91977
v -64.57545 -0.3098127 -21.08704
v -64.62905 8.794501 -19.96455
v -64.1431 8.829944 -21.10755
v -76.77366 0.2746854 -29.97473
v -77.99062 0.3098127 -27.76011
v -77.55827 9.449569 -27.78062
v -76.38224 9.416308 -29.9736
v -64.57545 -0.3098127 -21.08704
v -63.96554 -0.2746854 -22.19396
v -64.1431 8.829944 -21.10755
v -63.57412 8.866939 -22.19283
v -75.35616 0.2386242 -32.1
v -76.77366 0.2746854 -29.97473
v -76.38224 9.416308 -29.9736
v -75.00928 9.382026 -32.08089
v -63.96554 -0.2746854 -22.19396
v -63.26443 -0.2386242 -23.24191
v -63.57412 8.866939 -22.19283
v -62.91755 8.904777 -23.2228
v -73.7583 0.2026572 -34.09458
v -75.35616 0.2386242 -32.1
v -75.00928 9.382026 -32.08089
v -73.45802 9.347669 -34.06213
v -63.26443 -0.2386242 -23.24191
v -62.48204 -0.2026572 -24.21527
v -62.91755 8.904777 -23.2228
v -62.18177 8.942355 -24.18281
v -71.99819 0.1676869 -35.93784
v -73.7583 0.2026572 -34.09458
v -73.45802 9.347669 -34.06213
v -71.74538 9.3141 -35.89706
v -62.48204 -0.2026572 -24.21527
v -61.60903 -0.1676869 -25.12632
v -62.18177 8.942355 -24.18281
v -61.35622 8.978727 -25.08554
v -70.10894 0.1346665 -37.60626
v -71.99819 0.1676869 -35.93784
v -71.74538 9.3141 -35.89706
v -69.90257 9.282231 -37.56217
v -61.60903 -0.1676869 -25.12632
v -60.65757 -0.1346665 -25.96358
v -61.35622 8.978727 -25.08554
v -60.4512 9.012898 -25.9195
v -68.11206 0.1042245 -39.0974
v -70.10894 0.1346665 -37.60626
v -69.90257 9.282231 -37.56217
v -67.94985 9.252686 -39.05453
v -60.65757 -0.1346665 -25.96358
v -59.62272 -0.1042245 -26.73393
v -60.4512 9.012898 -25.9195
v -59.46051 9.044237 -26.69106
v -66.02496 0.07685775 -40.41473
v -68.11206 0.1042245 -39.0974
v -67.94985 9.252686 -39.05453
v -65.90346 9.225971 -40.37677
v -59.62272 -0.1042245 -26.73393
v -58.50374 -0.07685775 -27.43829
v -59.46051 9.044237 -26.69106
v -58.38224 9.072256 -27.40034
v -63.86581 0.0530367 -41.56233
v -66.02496 0.07685775 -40.41473
v -65.90346 9.225971 -40.37677
v -63.78053 9.202587 -41.53189
v -58.50374 -0.07685775 -27.43829
v -57.29916 -0.0530367 -28.0769
v -58.38224 9.072256 -27.40034
v -57.21388 9.096514 -28.04646
v -61.66593 0.03333582 -42.54015
v -63.86581 0.0530367 -41.56233
v -63.78053 9.202587 -41.53189
v -61.61115 9.183146 -42.51846
v -57.29916 -0.0530367 -28.0769
v -56.03611 -0.03333582 -28.63707
v -57.21388 9.096514 -28.04646
v -55.98133 9.116474 -28.61537
v -59.42313 0.0179291 -43.36394
v -61.66593 0.03333582 -42.54015
v -61.61115 9.183146 -42.51846
v -59.39283 9.16787 -43.35095
v -56.03611 -0.03333582 -28.63707
v -54.69627 -0.0179291 -29.12828
v -55.98133 9.116474 -28.61537
v -54.66596 9.132011 -29.1153
v -57.16394 0.007226442 -44.03669
v -59.42313 0.0179291 -43.36394
v -59.39283 9.16787 -43.35095
v -57.15122 9.157215 -44.03094
v -54.69627 -0.0179291 -29.12828
v -53.31485 -0.007226442 -29.53897
v -54.66596 9.132011 -29.1153
v -53.30212 9.142763 -29.53322
v -54.93246 0.001298317 -44.56062
v -57.16394 0.007226442 -44.03669
v -57.15122 9.157215 -44.03094
v -54.93003 9.151297 -44.55951
v -53.31485 -0.007226442 -29.53897
v -51.82759 -0.001298317 -29.88548
v -53.30212 9.142763 -29.53322
v -51.82517 9.148701 -29.88437
v -53.02457 -2.829056E-05 -44.90459
v -54.93246 0.001298317 -44.56062
v -54.93003 9.151297 -44.55951
v -53.02457 9.149971 -44.90462
v -51.82759 -0.001298317 -29.88548
v -50.91216 2.829056E-05 -30.05519
v -51.82517 9.148701 -29.88437
v -50.91216 9.150028 -30.05523

vn 0.9542059 -0.07562009 -0.289435
vn 0.9542445 -0.07565154 -0.2892995
vn 0.9542059 -0.07562009 -0.289435
vn 0.9541674 -0.07558864 -0.2895705
vn -0.9541546 0.07565444 0.2895956
vn -0.9541079 0.07562342 0.2897573
vn -0.9541079 0.07562342 0.2897573
vn -0.9540612 0.0755924 0.289919
vn 0.9610679 -0.07524459 -0.2658698
vn 0.9611706 -0.07533286 -0.2654732
vn 0.9610679 -0.07524459 -0.2658698
vn 0.9609649 -0.0751562 -0.2662669
vn -0.9611199 0.0753354 0.2656563
vn -0.9609918 0.07524791 0.2661438
vn -0.9609918 0.07524791 0.2661438
vn -0.9608633 0.07516027 0.266632
vn 0.9677278 -0.07469199 -0.240674
vn 0.9678798 -0.07483575 -0.2400172
vn 0.9677278 -0.07469199 -0.240674
vn 0.9675751 -0.07454789 -0.2413321
vn -0.9678098 0.07483945 0.240298
vn -0.9676171 0.0746977 0.241117
vn -0.9676171 0.0746977 0.241117
vn -0.9674231 0.0745555 0.241938
vn 0.9742137 -0.07394654 -0.2131658
vn 0.9743993 -0.0741493 -0.212245
vn 0.9742137 -0.07394654 -0.2131658
vn 0.9740265 -0.07374308 -0.2140892
vn -0.974324 0.07415437 0.2125886
vn -0.9740839 0.073955 0.2137554
vn -0.9740839 0.073955 0.2137554
vn -0.9738414 0.07375473 0.2149266
vn 0.9804347 -0.07298905 -0.1828127
vn 0.9806365 -0.07325241 -0.1816213
vn 0.9804347 -0.07298905 -0.1828127
vn 0.9802306 -0.07272448 -0.1840088
vn -0.980574 0.07325787 0.1819561
vn -0.9803066 0.07299974 0.1834938
vn -0.9803066 0.07299974 0.1834938
vn -0.9800354 0.07274004 0.1850393
vn 0.9861288 -0.07181615 -0.1496413
vn 0.9863271 -0.07213568 -0.148173
vn 0.9861288 -0.07181615 -0.1496413
vn 0.985927 -0.0714948 -0.151117
vn -0.9862706 0.07214227 0.1485451
vn -0.9859973 0.07183068 0.1504974
vn -0.9859973 0.07183068 0.1504974
vn -0.9857183 0.07151665 0.1524627
vn 0.991043 -0.07041499 -0.1134697
vn 0.9912155 -0.07079872 -0.1117118
vn 0.991043 -0.07041499 -0.1134697
vn 0.9908664 -0.07002864 -0.1152383
vn -0.9911626 0.07080752 0.1121742
vn -0.9909153 0.0704349 0.1145673
vn -0.9909153 0.0704349 0.1145673
vn -0.9906601 0.07005868 0.1169802
vn 0.9949099 -0.06875748 -0.07366607
vn 0.9950286 -0.06920816 -0.07161322
vn 0.9949099 -0.06875748 -0.07366607
vn 0.994786 -0.06830318 -0.07573371
vn -0.9949852 0.06922007 0.0722001
vn -0.9948016 0.06878486 0.07508972
vn -0.9948016 0.06878486 0.07508972
vn -0.9946073 0.06834453 0.07800873
vn 0.9973259 -0.06680659 -0.02963167
vn 0.9973577 -0.06733932 -0.02725694
vn 0.9973259 -0.06680659 -0.02963167
vn 0.9972877 -0.06626891 -0.03202647
vn -0.99734 0.06735253 0.02787129
vn -0.9972726 0.06684045 0.03130379
vn -0.9972726 0.06684045 0.03130379
vn -0.997192 0.06632123 0.03477826
vn 0.9977357 -0.06454118 0.01892279
vn 0.9976413 -0.06514968 0.02161817
vn 0.9977357 -0.06454118 0.01892279
vn 0.9978231 -0.06392631 0.01620127
vn -0.9976531 0.06516299 -0.02102961
vn -0.997768 0.06458253 -0.01697197
vn -0.997768 0.06458253 -0.01697197
vn -0.9978676 0.06399251 -0.01285501
vn 0.9954935 -0.06196171 0.07178744
vn 0.9952279 -0.06264993 0.07480872
vn 0.9954935 -0.06196171 0.07178744
vn 0.9957522 -0.06126551 0.06873305
vn -0.9952819 0.06266732 -0.07407299
vn -0.9956653 0.06201623 -0.06931613
vn -0.9956653 0.06201623 -0.06931613
vn -0.9960315 0.06135264 -0.06447714
vn 0.9898405 -0.05903402 0.1293475
vn 0.98935 -0.05981791 0.1326973
vn 0.9898405 -0.05903402 0.1293475
vn 0.9903247 -0.05824018 0.1259566
vn -0.9894673 0.0598398 -0.1318094
vn -0.990227 0.05910318 -0.1263214
vn -0.990227 0.05910318 -0.1263214
vn -0.9909698 0.0583504 -0.1207231
vn 0.9798295 -0.05572608 0.1919084
vn 0.9790537 -0.05661127 0.1955736
vn 0.9798295 -0.05572608 0.1919084
vn 0.9806004 -0.05482873 0.1881933
vn -0.979232 0.05663436 -0.1946715
vn -0.9805081 0.05580911 -0.1883854
vn -0.9805081 0.05580911 -0.1883854
vn -0.9817699 0.05496334 -0.181953
vn 0.9644537 -0.05203678 0.2590776
vn 0.9633292 -0.05302642 0.2630302
vn 0.9644537 -0.05203678 0.2590776
vn 0.9655761 -0.05103265 0.2550663
vn -0.9635662 0.0530495 -0.2621562
vn -0.96552 0.0521341 -0.2550557
vn -0.96552 0.0521341 -0.2550557
vn -0.9674665 0.05119319 -0.2477658
vn 0.9427399 -0.04798424 0.3300588
vn 0.9412028 -0.049079 0.3342581
vn 0.9427399 -0.04798424 0.3300588
vn 0.944279 -0.04687262 0.3257917
vn -0.9414212 0.04909579 -0.3336402
vn -0.944217 0.04808972 -0.325794
vn -0.944217 0.04808972 -0.325794
vn -0.9470192 0.04705287 -0.3177115
vn 0.9140291 -0.04363619 0.4032945
vn 0.9120373 -0.04481651 0.4076512
vn 0.9140291 -0.04363619 0.4032945
vn 0.9160283 -0.04243707 0.3988624
vn -0.9122533 0.04482998 -0.407166
vn -0.9160725 0.04375367 -0.3986186
vn -0.9160725 0.04375367 -0.3986186
vn -0.9199194 0.04264151 -0.3897818
vn 0.877905 -0.03905288 0.4772397
vn 0.8754137 -0.04032995 0.4816891
vn 0.877905 -0.03905288 0.4772397
vn 0.88041 -0.03775495 0.472708
vn -0.8756732 0.04034329 -0.481216
vn -0.8805865 0.03917917 -0.4722632
vn -0.8805865 0.03917917 -0.4722632
vn -0.8855553 0.03797444 -0.4629792
vn 0.83413 -0.03428909 0.5505011
vn 0.831123 -0.03565477 0.5549445
vn 0.83413 -0.03428909 0.5505011
vn 0.837158 -0.0329009 0.5459707
vn -0.8311801 0.03565754 -0.5548586
vn -0.8372101 0.03440854 -0.5457978
vn -0.8372101 0.03440854 -0.5457978
vn -0.8433281 0.03311517 -0.5363778
vn 0.7833 -0.02946866 0.620945
vn 0.7798067 -0.03089086 0.6252578
vn 0.7833 -0.02946866 0.620945
vn 0.7868217 -0.02802324 0.6165439
vn -0.7796077 0.03088402 -0.6255062
vn -0.7867012 0.029577 -0.6166249
vn -0.7867012 0.029577 -0.6166249
vn -0.7939156 0.02822375 -0.6073726
vn 0.7266684 -0.02472177 0.6865433
vn 0.7227357 -0.02618186 0.6906285
vn 0.7266684 -0.02472177 0.6865433
vn 0.7306361 -0.02323836 0.6823714
vn -0.7222732 0.02616854 -0.6911125
vn -0.7301702 0.02481265 -0.6828145
vn -0.7301702 0.02481265 -0.6828145
vn -0.7382128 0.02341087 -0.6741616
vn 0.6658338 -0.02017276 0.7458273
vn 0.6615729 -0.02162904 0.7495689
vn 0.6658338 -0.02017276 0.7458273
vn 0.6701346 -0.01869419 0.7420042
vn -0.6608872 0.02161251 -0.7501738
vn -0.6693211 0.02024564 -0.7426975
vn -0.6693211 0.02024564 -0.7426975
vn -0.677915 0.01883547 -0.734899
vn 0.6025206 -0.01593011 0.7979444
vn 0.598065 -0.01735389 0.8012597
vn 0.6025206 -0.01593011 0.7979444
vn 0.6070185 -0.01448581 0.7945557
vn -0.5973613 0.01734055 -0.8017847
vn -0.6059376 0.01598654 -0.7953514
vn -0.6059376 0.01598654 -0.7953514
vn -0.6146739 0.01459368 -0.7886462
vn 0.5380518 -0.01206541 0.8428255
vn 0.533574 -0.01342298 0.8456469
vn 0.5380518 -0.01206541 0.8428255
vn 0.5425712 -0.01068982 0.8399417
vn -0.5329024 0.01341287 -0.8460705
vn -0.5412347 0.01210577 -0.8407843
vn -0.5412347 0.01210577 -0.8407843
vn -0.5497146 0.01076559 -0.8352832
vn 0.4735299 -0.008642969 0.8807353
vn 0.4692263 -0.009894542 0.8830225
vn 0.4735299 -0.008642969 0.8807353
vn 0.4778717 -0.007376494 0.8783987
vn -0.4685256 0.00988698 -0.8833945
vn -0.4762248 0.00866818 -0.8792808
vn -0.4762248 0.00866818 -0.8792808
vn -0.4840482 0.007422977 -0.8750099
vn 0.4100045 -0.005736596 0.9120655
vn 0.4061099 -0.006825351 0.9137988
vn 0.4100045 -0.005736596 0.9120655
vn 0.4139306 -0.004636648 0.9102966
vn -0.4054998 0.006820755 -0.9140697
vn -0.412273 0.005751139 -0.9110422
vn -0.412273 0.005751139 -0.9110422
vn -0.4191428 0.004662193 -0.9079084
vn 0.3480344 -0.003394812 0.9374756
vn 0.3447525 -0.004289759 0.9386839
vn 0.3480344 -0.003394812 0.9374756
vn 0.3513393 -0.002492292 0.9362449
vn -0.3442571 0.004287228 -0.9388657
vn -0.3497438 0.003401555 -0.9368392
vn -0.3497438 0.003401555 -0.9368392
vn -0.3552953 0.002503272 -0.9347507
vn 0.2878295 -0.001656927 0.9576803
vn 0.2853888 -0.002305323 0.9584091
vn 0.2878295 -0.001656927 0.9576803
vn 0.2902835 -0.001004433 0.9569402
vn -0.2849809 0.002304144 -0.9585304
vn -0.2889689 0.001659255 -0.9573371
vn -0.2889689 0.001659255 -0.9573371
vn -0.2929928 0.001007681 -0.9561141
vn 0.230034 -0.0005547592 0.9731824
vn 0.2285717 -0.0009290469 0.9735267
vn 0.230034 -0.0005547592 0.9731824
vn 0.2315016 -0.0001790019 0.9728345
vn -0.2269153 0.000926984 -0.9739141
vn -0.2291054 0.0005540696 -0.9734015
vn -0.2291054 0.0005540696 -0.9734015
vn -0.2313073 0.0001789534 -0.9728807
vn 0.1778211 -8.121638E-05 0.9840629
vn 0.1774266 -0.0001660291 0.984134
vn 0.1778211 -8.121638E-05 0.9840629
vn 0.1782159 3.692095E-06 0.9839914
vn -0.1822848 0.0001672107 -0.9832457
vn -0.1831113 8.18609E-05 -0.9830922
vn -0.1831113 8.18609E-05 -0.9830922
vn -0.1839396 -3.688871E-06 -0.9829375

vt 0 0
vt 0 0
vt 0 0
vt 0 0
vt 0 0
vt 0 0
vt 0 0
vt 0 0
vt 0 0
vt 0 0
vt 0 0
vt 0 0
vt 0 0
vt 0 0
vt 0 0
vt 0 0
vt 0 0
vt 0 0
vt 0 0
vt 0 0
vt 0 0
vt 0 0
vt 0 0
vt 0 0
vt 0 0
vt 0 0
vt 0 0
vt 0 0
vt 0 0
vt 0 0
vt 0 0
vt 0 0
vt 0 0
vt 0 0
vt 0 0
vt 0 0
vt 0 0
vt 0 0
vt 0 0
vt 0 0
vt 0 0
vt 0 0
vt 0 0
vt 0 0
vt 0 0
vt 0 0
vt 0 0
vt 0 0
vt 0 0
vt 0 0
vt 0 0
vt 0 0
vt 0 0
vt 0 0
vt 0 0
vt 0 0
vt 0 0
vt 0 0
vt 0 0
vt 0 0
vt 0 0
vt 0 0
vt 0 0
vt 0 0
vt 0 0
vt 0 0
vt 0 0
vt 0 0
vt 0 0
vt 0 0
vt 0 0
vt 0 0
vt 0 0
vt 0 0
vt 0 0
vt 0 0
vt 0 0
vt 0 0
vt 0 0
vt 0 0
vt 0 0
vt 0 0
vt 0 0
vt 0 0
vt 0 0
vt 0 0
vt 0 0
vt 0 0
vt 0 0
vt 0 0
vt 0 0
vt 0 0
vt 0 0
vt 0 0
vt 0 0
vt 0 0
vt 0 0
vt 0 0
vt 0 0
vt 0 0
vt 0 0
vt 0 0
vt 0 0
vt 0 0
vt 0 0
vt 0 0
vt 0 0
vt 0 0
vt 0 0
vt 0 0
vt 0 0
vt 0 0
vt 0 0
vt 0 0
vt 0 0
vt 0 0
vt 0 0
vt 0 0
vt 0 0
vt 0 0
vt 0 0
vt 0 0
vt 0 0
vt 0 0
vt 0 0
vt 0 0
vt 0 0
vt 0 0
vt 0 0
vt 0 0
vt 0 0
vt 0 0
vt 0 0
vt 0 0
vt 0 0
vt 0 0
vt 0 0
vt 0 0
vt 0 0
vt 0 0
vt 0 0
vt 0 0
vt 0 0
vt 0 0
vt 0 0
vt 0 0
vt 0 0
vt 0 0
vt 0 0
vt 0 0
vt 0 0
vt 0 0
vt 0 0
vt 0 0
vt 0 0
vt 0 0
vt 0 0
vt 0 0
vt 0 0
vt 0 0
vt 0 0
vt 0 0
vt 0 0
vt 0 0
vt 0 0
vt 0 0
vt 0 0
vt 0 0
vt 0 0
vt 0 0
vt 0 0
vt 0 0
vt 0 0
vt 0 0
vt 0 0
vt 0 0
vt 0 0
vt 0 0
vt 0 0
vt 0 0
vt 0 0
vt 0 0
vt 0 0
vt 0 0
vt 0 0
vt 0 0
vt 0 0
vt 0 0
vt 0 0
vt 0 0
vt 0 0
vt 0 0
vt 0 0
vt 0 0
vt 0 0
vt 0 0
vt 0 0
vt 0 0
vt 0 0
vt 0 0
vt 0 0
vt 0 0
vt 0 0
vt 0 0
vt 0 0
vt 0 0
vt 0 0
vt 0 0
vt 0 0
vt 0 0
vt 0 0
vt 0 0
vt 0 0
vt 0 0
vt 0 0
vt 0 0
vt 0 0
vt 0 0
vt 0 0
vt 0 0
vt 0 0
vt 0 0
vt 0 0
vt 0 0
vt 0 0
vt 0 0
vt 0 0
vt 0 0
vt 0 0
vt 0 0
vt 0 0
vt 0 0

g Track Texture
usemtl Track Texture
usemap Track Texture
f 2/2/2 1/1/1 3/3/3
f 3/3/3 1/1/1 4/4/4
f 6/6/6 5/5/5 7/7/7
f 6/6/6 7/7/7 8/8/8
f 10/10/10 9/9/9 11/11/11
f 11/11/11 9/9/9 12/12/12
f 14/14/14 13/13/13 15/15/15
f 14/14/14 15/15/15 16/16/16
f 18/18/18 17/17/17 19/19/19
f 19/19/19 17/17/17 20/20/20
f 22/22/22 21/21/21 23/23/23
f 22/22/22 23/23/23 24/24/24
f 26/26/26 25/25/25 27/27/27
f 27/27/27 25/25/25 28/28/28
f 30/30/30 29/29/29 31/31/31
f 30/30/30 31/31/31 32/32/32
f 34/34/34 33/33/33 35/35/35
f 35/35/35 33/33/33 36/36/36
f 38/38/38 37/37/37 39/39/39
f 38/38/38 39/39/39 40/40/40
f 42/42/42 41/41/41 43/43/43
f 43/43/43 41/41/41 44/44/44
f 46/46/46 45/45/45 47/47/47
f 46/46/46 47/47/47 48/48/48
f 50/50/50 49/49/49 51/51/51
f 51/51/51 49/49/49 52/52/52
f 54/54/54 53/53/53 55/55/55
f 54/54/54 55/55/55 56/56/56
f 58/58/58 57/57/57 59/59/59
f 59/59/59 57/57/57 60/60/60
f 62/62/62 61/61/61 63/63/63
f 62/62/62 63/63/63 64/64/64
f 66/66/66 65/65/65 67/67/67
f 67/67/67 65/65/65 68/68/68
f 70/70/70 69/69/69 71/71/71
f 70/70/70 71/71/71 72/72/72
f 74/74/74 73/73/73 75/75/75
f 75/75/75 73/73/73 76/76/76
f 78/78/78 77/77/77 79/79/79
f 78/78/78 79/79/79 80/80/80
f 82/82/82 81/81/81 83/83/83
f 83/83/83 81/81/81 84/84/84
f 86/86/86 85/85/85 87/87/87
f 86/86/86 87/87/87 88/88/88
f 90/90/90 89/89/89 91/91/91
f 91/91/91 89/89/89 92/92/92
f 94/94/94 93/93/93 95/95/95
f 94/94/94 95/95/95 96/96/96
f 98/98/98 97/97/97 99/99/99
f 99/99/99 97/97/97 100/100/100
f 102/102/102 101/101/101 103/103/103
f 102/102/102 103/103/103 104/104/104
f 106/106/106 105/105/105 107/107/107
f 107/107/107 105/105/105 108/108/108
f 110/110/110 109/109/109 111/111/111
f 110/110/110 111/111/111 112/112/112
f 114/114/114 113/113/113 115/115/115
f 115/115/115 113/113/113 116/116/116
f 118/118/118 117/117/117 119/119/119
f 118/118/118 119/119/119 120/120/120
f 122/122/122 121/121/121 123/123/123
f 123/123/123 121/121/121 124/124/124
f 126/126/126 125/125/125 127/127/127
f 126/126/126 127/127/127 128/128/128
f 130/130/130 129/129/129 131/131/131
f 131/131/131 129/129/129 132/132/132
f 134/134/134 133/133/133 135/135/135
f 134/134/134 135/135/135 136/136/136
f 138/138/138 137/137/137 139/139/139
f 139/139/139 137/137/137 140/140/140
f 142/142/142 141/141/141 143/143/143
f 142/142/142 143/143/143 144/144/144
f 146/146/146 145/145/145 147/147/147
f 147/147/147 145/145/145 148/148/148
f 150/150/150 149/149/149 151/151/151
f 150/150/150 151/151/151 152/152/152
f 154/154/154 153/153/153 155/155/155
f 155/155/155 153/153/153 156/156/156
f 158/158/158 157/157/157 159/159/159
f 158/158/158 159/159/159 160/160/160
f 162/162/162 161/161/161 163/163/163
f 163/163/163 161/161/161 164/164/164
f 166/166/166 165/165/165 167/167/167
f 166/166/166 167/167/167 168/168/168
f 170/170/170 169/169/169 171/171/171
f 171/171/171 169/169/169 172/172/172
f 174/174/174 173/173/173 175/175/175
f 174/174/174 175/175/175 176/176/176
f 178/178/178 177/177/177 179/179/179
f 179/179/179 177/177/177 180/180/180
f 182/182/182 181/181/181 183/183/183
f 182/182/182 183/183/183 184/184/184
f 186/186/186 185/185/185 187/187/187
f 187/187/187 185/185/185 188/188/188
f 190/190/190 189/189/189 191/191/191
f 190/190/190 191/191/191 192/192/192
f 194/194/194 193/193/193 195/195/195
f 195/195/195 193/193/193 196/196/196
f 198/198/198 197/197/197 199/199/199
f 198/198/198 199/199/199 200/200/200
f 202/202/202 201/201/201 203/203/203
f 203/203/203 201/201/201 204/204/204
f 206/206/206 205/205/205 207/207/207
f 206/206/206 207/207/207 208/208/208
f 210/210/210 209/209/209 211/211/211
f 211/211/211 209/209/209 212/212/212
f 214/214/214 213/213/213 215/215/215
f 214/214/214 215/215/215 216/216/216
f 218/218/218 217/217/217 219/219/219
f 219/219/219 217/217/217 220/220/220
f 222/222/222 221/221/221 223/223/223
f 222/222/222 223/223/223 224/224/224
f 226/226/226 225/225/225 227/227/227
f 227/227/227 225/225/225 228/228/228
f 230/230/230 229/229/229 231/231/231
f 230/230/230 231/231/231 232/232/232
