mtllib ./Track1_trackCollider_17.mtl
# Unity Asset Buildr OBJ Exporter
 http://buildr.jasperstocker.com
g Track1_trackCollider_17
v -133.7042 2.283133 -9.880576
v -135.7346 2.341066 -8.627835
v -134.4428 7.062994 -7.61062
v -132.4157 7.006509 -8.865973
v -127.9269 -2.341066 3.191592
v -126.7099 -2.268187 2.424932
v -126.6351 2.380861 4.208807
v -125.4214 2.455189 3.439535
v -131.4462 2.19209 -11.02579
v -133.7042 2.283133 -9.880576
v -132.4157 7.006509 -8.865973
v -130.1681 6.920109 -10.01962
v -126.7099 -2.268187 2.424932
v -125.5945 -2.129716 1.849444
v -125.4214 2.455189 3.439535
v -124.3164 2.598303 2.855623
v -128.9753 2.066497 -11.98139
v -131.4462 2.19209 -11.02579
v -130.1681 6.920109 -10.01962
v -127.7163 6.802852 -10.99053
v -125.5945 -2.129716 1.849444
v -124.537 -1.919691 1.433226
v -124.3164 2.598303 2.855623
v -123.278 2.816664 2.424092
v -126.2964 1.903346 -12.67185
v -128.9753 2.066497 -11.98139
v -127.7163 6.802852 -10.99053
v -125.0663 6.652112 -11.70427
v -124.537 -1.919691 1.433226
v -123.5419 -1.631437 1.174826
v -123.278 2.816664 2.424092
v -122.3119 3.117329 2.142406
v -123.4757 1.710597 -13.01946
v -126.2964 1.903346 -12.67185
v -125.0663 6.652112 -11.70427
v -122.2852 6.475788 -12.08365
v -123.5419 -1.631437 1.174826
v -122.605 -1.273309 1.067095
v -122.3119 3.117329 2.142406
v -121.4145 3.491882 2.002908
v -120.6209 1.512808 -12.98663
v -123.4757 1.710597 -13.01946
v -122.2852 6.475788 -12.08365
v -119.4806 6.297979 -12.09107
v -122.605 -1.273309 1.067095
v -121.6698 -0.8737723 1.100866
v -121.4145 3.491882 2.002908
v -120.5295 3.911399 1.996425
v -117.8613 1.340148 -12.59926
v -120.6209 1.512808 -12.98663
v -119.4806 6.297979 -12.09107
v -116.7807 6.147793 -11.7514
v -121.6698 -0.8737723 1.100866
v -120.6867 -0.4726454 1.280638
v -120.5295 3.911399 1.996425
v -119.6061 4.335 2.128506
v -115.2877 1.216981 -11.93771
v -117.8613 1.340148 -12.59926
v -116.7807 6.147793 -11.7514
v -114.2744 6.048408 -11.14358
v -120.6867 -0.4726454 1.280638
v -119.6074 -0.1053941 1.619078
v -119.6061 4.335 2.128506
v -118.5942 4.726033 2.413212
v -112.936 1.151601 -11.09957
v -115.2877 1.216981 -11.93771
v -114.2744 6.048408 -11.14358
v -111.9959 6.006974 -10.36366
v -119.6074 -0.1053941 1.619078
v -118.4148 0.2084236 2.122283
v -118.5942 4.726033 2.413212
v -117.4748 5.063797 2.858193
v -110.799 1.139467 -10.17033
v -112.936 1.151601 -11.09957
v -111.9959 6.006974 -10.36366
v -109.9362 6.018068 -9.495843
v -118.4148 0.2084236 2.122283
v -117.1059 0.4638676 2.783385
v -117.4748 5.063797 2.858193
v -116.2431 5.342469 3.457875
v -108.8534 1.168683 -9.216867
v -110.799 1.139467 -10.17033
v -109.9362 6.018068 -9.495843
v -108.0708 6.069096 -8.60579
v -117.1059 0.4638676 2.783385
v -115.6867 0.6642399 3.580263
v -116.2431 5.342469 3.457875
v -114.9041 5.564653 4.19134
v -107.0699 1.225729 -8.287625
v -108.8534 1.168683 -9.216867
v -108.0708 6.069096 -8.60579
v -106.369 6.1461 -7.741098
v -115.6867 0.6642399 3.580263
v -114.1539 0.8160851 4.485419
v -114.9041 5.564653 4.19134
v -113.453 5.736456 5.031945
v -105.4238 1.297391 -7.419586
v -107.0699 1.225729 -8.287625
v -106.369 6.1461 -7.741098
v -104.8054 6.235588 -6.93807
v -114.1539 0.8160851 4.485419
v -112.4944 0.9261 5.468122
v -113.453 5.736456 5.031945
v -111.876 5.864297 5.949639
v -103.8961 1.371198 -6.641838
v -105.4238 1.297391 -7.419586
v -104.8054 6.235588 -6.93807
v -103.3604 6.324941 -6.225286
v -112.4944 0.9261 5.468122
v -110.6812 1.000148 6.495649
v -111.876 5.864297 5.949639
v -110.1455 5.953891 6.912201
v -102.4837 1.434422 -5.982369
v -103.8961 1.371198 -6.641838
v -103.3604 6.324941 -6.225286
v -102.0299 6.401293 -5.629903
v -110.6812 1.000148 6.495649
v -108.6862 1.042745 7.523279
v -110.1455 5.953891 6.912201
v -108.2324 6.009617 7.875745
v -101.198 1.474317 -5.465336
v -102.4837 1.434422 -5.982369
v -102.0299 6.401293 -5.629903
v -100.8236 6.451811 -5.174897
v -108.6862 1.042745 7.523279
v -106.4824 1.057474 8.491179
v -108.2324 6.009617 7.875745
v -106.1079 6.034967 8.781618
v -100.0329 1.477582 -5.095794
v -101.198 1.474317 -5.465336
v -100.8236 6.451811 -5.174897
v -99.7343 6.463292 -4.864442
v -106.4824 1.057474 8.491179
v -104.0403 1.048435 9.325194
v -106.1079 6.034967 8.781618
v -103.7417 6.034144 9.556546
v -98.99567 1.433499 -4.873065
v -100.0329 1.477582 -5.095794
v -99.7343 6.463292 -4.864442
v -98.76694 6.425128 -4.696071
v -104.0403 1.048435 9.325194
v -101.375 1.017716 9.92776
v -103.7417 6.034144 9.556546
v -101.1463 6.009345 10.10475
v -98.04646 1.335773 -4.779723
v -98.99567 1.433499 -4.873065
v -98.76694 6.425128 -4.696071
v -97.87989 6.331338 -4.650968
v -101.375 1.017716 9.92776
v -98.5436 0.9661131 10.20581
v -101.1463 6.009345 10.10475
v -98.37704 5.961679 10.33456
v -97.14208 1.188146 -4.80544
v -98.04646 1.335773 -4.779723
v -97.87989 6.331338 -4.650968
v -97.02789 6.186065 -4.717257
v -98.5436 0.9661131 10.20581
v -95.66117 0.8912866 10.10201
v -98.37704 5.961679 10.33456
v -95.54698 5.889205 10.1902
v -96.21155 1.000952 -4.954719
v -97.14208 1.188146 -4.80544
v -97.02789 6.186065 -4.717257
v -96.13919 6.000117 -4.898891
v -95.66117 0.8912866 10.10201
v -92.85062 0.7895143 9.622797
v -95.54698 5.889205 10.1902
v -92.77826 5.788679 9.678625
v -95.22888 0.7895198 -5.24035
v -96.21155 1.000952 -4.954719
v -96.13919 6.000117 -4.898891
v -95.18769 5.78925 -5.2086
v -92.85062 0.7895143 9.622797
v -90.21158 0.6588323 8.830231
v -92.77826 5.788679 9.678625
v -90.17039 5.658562 8.86198
v -94.17593 0.5653544 -5.676296
v -95.22888 0.7895198 -5.24035
v -95.18769 5.78925 -5.2086
v -94.15626 5.565292 -5.661153
v -90.21158 0.6588323 8.830231
v -87.78123 0.4993646 7.804123
v -90.17039 5.658562 8.86198
v -87.76156 5.499302 7.819266
v -93.06702 0.3368297 -6.262212
v -94.17593 0.5653544 -5.676296
v -94.15626 5.565292 -5.661153
v -93.06043 5.336823 -6.257165
v -87.78123 0.4993646 7.804123
v -85.55837 0.3139364 6.615333
v -87.76156 5.499302 7.819266
v -85.55178 5.31393 6.62038
v -91.81667 0.1082749 -7.058801
v -93.06702 0.3368297 -6.262212
v -93.06043 5.336823 -6.257165
v -91.81602 5.108275 -7.058334
v -85.55837 0.3139364 6.615333
v -83.62032 0.1060451 5.383321
v -85.55178 5.31393 6.62038
v -83.61967 5.106045 5.383788
v -91.41822 -3.494585E-05 -7.342753
v -91.81667 0.1082749 -7.058801
v -91.81602 5.108275 -7.058334
v -91.41822 4.999965 -7.342785
v -83.62032 0.1060451 5.383321
v -82.54517 3.494585E-05 4.624623
v -83.61967 5.106045 5.383788
v -82.54517 5.000034 4.624591

vn 0.4936229 -0.309668 0.8126758
vn 0.4928169 -0.3099701 0.8130498
vn 0.4936229 -0.309668 0.8126758
vn 0.4944289 -0.3093655 0.812301
vn -0.5195443 0.313372 -0.7949036
vn -0.5208051 0.3131145 -0.7941797
vn -0.5208051 0.3131145 -0.7941797
vn -0.5220658 0.3128561 -0.7934534
vn 0.4244814 -0.2980696 0.8549678
vn 0.4220183 -0.2989712 0.855872
vn 0.4244814 -0.2980696 0.8549678
vn 0.4269466 -0.2971638 0.8540553
vn -0.466272 0.3055303 -0.8302059
vn -0.4709277 0.3048768 -0.8278147
vn -0.4709277 0.3048768 -0.8278147
vn -0.475588 0.3042123 -0.8253914
vn 0.3378303 -0.2801595 0.898544
vn 0.3336246 -0.2816408 0.8996517
vn 0.3378303 -0.2801595 0.898544
vn 0.3420478 -0.2786657 0.8974122
vn -0.4000018 0.2929409 -0.8684378
vn -0.409328 0.2921129 -0.8643613
vn -0.409328 0.2921129 -0.8643613
vn -0.4186968 0.2912464 -0.860156
vn 0.2323363 -0.2547821 0.9386725
vn 0.2265159 -0.2567709 0.9395527
vn 0.2323363 -0.2547821 0.9386725
vn 0.2381929 -0.2527677 0.9377487
vn -0.3152813 0.2738942 -0.9086141
vn -0.330809 0.2733099 -0.9032536
vn -0.330809 0.2733099 -0.9032536
vn -0.3465362 0.2726388 -0.8975415
vn 0.1110824 -0.2220594 0.9686849
vn 0.1040731 -0.2243805 0.9689283
vn 0.1110824 -0.2220594 0.9686849
vn 0.1181698 -0.2196981 0.9683846
vn -0.2028954 0.2456885 -0.9478769
vn -0.2252922 0.2459262 -0.9427427
vn -0.2252922 0.2459262 -0.9427427
vn -0.2483369 0.2460354 -0.9369074
vn -0.01664708 -0.1843821 0.9827136
vn -0.02423559 -0.1868145 0.9820963
vn -0.01664708 -0.1843821 0.9827136
vn -0.008927869 -0.1818959 0.9832771
vn -0.05228606 0.2050022 -0.9773639
vn -0.07812054 0.206108 -0.9754059
vn -0.07812054 0.206108 -0.9754059
vn -0.1053087 0.207124 -0.9726303
vn -0.1390648 -0.1458205 0.9794883
vn -0.1465618 -0.1481215 0.9780489
vn -0.1390648 -0.1458205 0.9794883
vn -0.1313886 -0.1434576 0.9808959
vn 0.1157255 0.1560127 -0.9809524
vn 0.09282131 0.1571999 -0.9831949
vn 0.09282131 0.1571999 -0.9831949
vn 0.06823689 0.1583788 -0.9850176
vn -0.245497 -0.1107269 0.9630528
vn -0.2524256 -0.1127483 0.961025
vn -0.245497 -0.1107269 0.9630528
vn -0.2383557 -0.1086412 0.9650822
vn 0.2631676 0.1098837 -0.958472
vn 0.2468586 0.1103787 -0.9627447
vn 0.2468586 0.1103787 -0.9627447
vn 0.2292302 0.1108763 -0.9670366
vn -0.3304723 -0.08187545 0.9402577
vn -0.3366066 -0.08357302 0.9379295
vn -0.3304723 -0.08187545 0.9402577
vn -0.3241101 -0.0801153 0.9426209
vn 0.3710139 0.07433831 -0.9256471
vn 0.3604302 0.07418764 -0.9298313
vn 0.3604302 0.07418764 -0.9298313
vn 0.3490159 0.07401519 -0.9341892
vn -0.3929274 -0.06018099 0.9175982
vn -0.398289 -0.06159516 0.9151896
vn -0.3929274 -0.06018099 0.9175982
vn -0.3873346 -0.05870754 0.9200681
vn 0.4424509 0.05004451 -0.8953952
vn 0.4356008 0.04955012 -0.898775
vn 0.4356008 0.04955012 -0.898775
vn 0.4282538 0.0490187 -0.902328
vn -0.4342461 -0.04520634 0.8996592
vn -0.4390348 -0.04641301 0.8972704
vn -0.4342461 -0.04520634 0.8996592
vn -0.4292246 -0.04394305 0.9021282
vn 0.4855632 0.03489915 -0.8735046
vn 0.480856 0.03427063 -0.8761296
vn 0.480856 0.03427063 -0.8761296
vn 0.4758354 0.03360123 -0.8788922
vn -0.4562629 -0.03587917 0.8891215
vn -0.4608146 -0.03697714 0.8867258
vn -0.4562629 -0.03587917 0.8891215
vn -0.4514656 -0.03472418 0.8916126
vn 0.5063499 0.026611 -0.8619175
vn 0.5027258 0.02590594 -0.8640577
vn 0.5027258 0.02590594 -0.8640577
vn 0.4988796 0.02515909 -0.8663061
vn -0.4603487 -0.03091323 0.8871997
vn -0.4651123 -0.0320094 0.8846729
vn -0.4603487 -0.03091323 0.8871997
vn -0.4553027 -0.02975451 0.8898394
vn 0.5082406 0.02322535 -0.860902
vn 0.5049816 0.0224002 -0.8628393
vn 0.5049816 0.0224002 -0.8628393
vn 0.501538 0.02153001 -0.8648677
vn -0.4467619 -0.02906159 0.8941807
vn -0.4523226 -0.03027404 0.8913404
vn -0.4467619 -0.02906159 0.8941807
vn -0.4408396 -0.02777331 0.8971562
vn 0.4921783 0.02322048 -0.8701846
vn 0.4887581 0.02216109 -0.8721378
vn 0.4887581 0.02216109 -0.8721378
vn 0.4851589 0.02104854 -0.8741727
vn -0.4146181 -0.02915081 0.9095286
vn -0.4217577 -0.03059643 0.9061922
vn -0.4146181 -0.02915081 0.9095286
vn -0.4069701 -0.02760613 0.9130242
vn 0.4573609 0.02529446 -0.8889215
vn 0.4533704 0.0238497 -0.8910032
vn 0.4533704 0.0238497 -0.8910032
vn 0.449188 0.02233886 -0.8931578
vn -0.362289 -0.03005173 0.9315812
vn -0.3720678 -0.03183376 0.9276595
vn -0.362289 -0.03005173 0.9315812
vn -0.3517496 -0.0281357 0.9356712
vn 0.4017956 0.02823999 -0.9152938
vn 0.396939 0.02625334 -0.9174694
vn 0.396939 0.02625334 -0.9174694
vn 0.3918724 0.02418547 -0.9197016
vn -0.2884589 -0.03063284 0.9570021
vn -0.3020825 -0.03286654 0.952715
vn -0.2884589 -0.03063284 0.9570021
vn -0.2737048 -0.02821769 0.9613997
vn 0.323137 0.0308819 -0.9458482
vn 0.3172453 0.02821266 -0.9479238
vn 0.3172453 0.02821266 -0.9479238
vn 0.311131 0.0254482 -0.9500263
vn -0.1925882 -0.02996308 0.9808221
vn -0.211159 -0.0326835 0.9769052
vn -0.1925882 -0.02996308 0.9808221
vn -0.1724471 -0.02701192 0.9846483
vn 0.2207552 0.03201121 -0.9748037
vn 0.2139013 0.02865701 -0.9764349
vn 0.2139013 0.02865701 -0.9764349
vn 0.2068323 0.02520239 -0.9780518
vn -0.07799616 -0.02742224 0.9965764
vn -0.1009408 -0.03063503 0.9944206
vn -0.07799616 -0.02742224 0.9965764
vn -0.05329107 -0.02395299 0.9982917
vn 0.09823921 0.03076826 -0.994687
vn 0.09074663 0.026885 -0.9955109
vn 0.09074663 0.026885 -0.9955109
vn 0.08307092 0.0229083 -0.9962803
vn 0.0484671 -0.02303829 0.9985591
vn 0.02408268 -0.02656028 0.999357
vn 0.0484671 -0.02303829 0.9985591
vn 0.07428625 -0.01928913 0.9970504
vn -0.03527512 0.02692474 -0.9990149
vn -0.04280095 0.0228848 -0.9988215
vn -0.04280095 0.0228848 -0.9988215
vn -0.05045781 0.01877107 -0.9985498
vn 0.175466 -0.01745379 0.9843307
vn 0.1542518 -0.02095308 0.9878094
vn 0.175466 -0.01745379 0.9843307
vn 0.1974487 -0.01380439 0.980216
vn -0.1672956 0.02121341 -0.9856785
vn -0.1742082 0.0174335 -0.9845545
vn -0.1742082 0.0174335 -0.9845545
vn -0.1811977 0.0136042 -0.9833525
vn 0.2918286 -0.01169094 0.9563992
vn 0.2761633 -0.01472908 0.9609979
vn 0.2918286 -0.01169094 0.9563992
vn 0.3077812 -0.008577578 0.9514185
vn -0.2869262 0.01484957 -0.9578376
vn -0.2926648 0.01169815 -0.9561436
vn -0.2926648 0.01169815 -0.9561436
vn -0.2984386 0.008519389 -0.9543908
vn 0.3908993 -0.006695609 0.920409
vn 0.380881 -0.009009392 0.9245802
vn 0.3908993 -0.006695609 0.920409
vn 0.4009922 -0.004352454 0.9160711
vn -0.38844 0.00905157 -0.9214296
vn -0.3927169 0.006702992 -0.9196349
vn -0.3927169 0.006702992 -0.9196349
vn -0.3970055 0.00434201 -0.917806
vn 0.4719877 -0.003019768 0.8816
vn 0.4664368 -0.00451451 0.884543
vn 0.4719877 -0.003019768 0.8816
vn 0.4775503 -0.001516419 0.8786031
vn -0.4712974 0.004525824 -0.8819628
vn -0.4740355 0.003022933 -0.8805005
vn -0.4740355 0.003022933 -0.8805005
vn -0.4767756 0.001515835 -0.8790237
vn 0.5392064 -0.0008547454 0.8421732
vn 0.5371071 -0.001559512 0.8435127
vn 0.5392064 -0.0008547454 0.8421732
vn 0.5413059 -0.0001487107 0.8408257
vn -0.5363536 0.001559008 -0.8439919
vn -0.5377041 0.000854194 -0.8431332
vn -0.5377041 0.000854194 -0.8431332
vn -0.5390545 0.0001485617 -0.8422709
vn 0.5809942 -7.307197E-05 0.8139076
vn 0.580329 -0.0001513025 0.8143821
vn 0.5809942 -7.307197E-05 0.8139076
vn 0.5816596 5.197523E-06 0.8134323
vn -0.5765588 0.0001510637 -0.8170557
vn -0.5768064 7.292963E-05 -0.8168808
vn -0.5768064 7.292963E-05 -0.8168808
vn -0.5770542 -5.219087E-06 -0.8167058

vt 0 0
vt 0 0
vt 0 0
vt 0 0
vt 0 0
vt 0 0
vt 0 0
vt 0 0
vt 0 0
vt 0 0
vt 0 0
vt 0 0
vt 0 0
vt 0 0
vt 0 0
vt 0 0
vt 0 0
vt 0 0
vt 0 0
vt 0 0
vt 0 0
vt 0 0
vt 0 0
vt 0 0
vt 0 0
vt 0 0
vt 0 0
vt 0 0
vt 0 0
vt 0 0
vt 0 0
vt 0 0
vt 0 0
vt 0 0
vt 0 0
vt 0 0
vt 0 0
vt 0 0
vt 0 0
vt 0 0
vt 0 0
vt 0 0
vt 0 0
vt 0 0
vt 0 0
vt 0 0
vt 0 0
vt 0 0
vt 0 0
vt 0 0
vt 0 0
vt 0 0
vt 0 0
vt 0 0
vt 0 0
vt 0 0
vt 0 0
vt 0 0
vt 0 0
vt 0 0
vt 0 0
vt 0 0
vt 0 0
vt 0 0
vt 0 0
vt 0 0
vt 0 0
vt 0 0
vt 0 0
vt 0 0
vt 0 0
vt 0 0
vt 0 0
vt 0 0
vt 0 0
vt 0 0
vt 0 0
vt 0 0
vt 0 0
vt 0 0
vt 0 0
vt 0 0
vt 0 0
vt 0 0
vt 0 0
vt 0 0
vt 0 0
vt 0 0
vt 0 0
vt 0 0
vt 0 0
vt 0 0
vt 0 0
vt 0 0
vt 0 0
vt 0 0
vt 0 0
vt 0 0
vt 0 0
vt 0 0
vt 0 0
vt 0 0
vt 0 0
vt 0 0
vt 0 0
vt 0 0
vt 0 0
vt 0 0
vt 0 0
vt 0 0
vt 0 0
vt 0 0
vt 0 0
vt 0 0
vt 0 0
vt 0 0
vt 0 0
vt 0 0
vt 0 0
vt 0 0
vt 0 0
vt 0 0
vt 0 0
vt 0 0
vt 0 0
vt 0 0
vt 0 0
vt 0 0
vt 0 0
vt 0 0
vt 0 0
vt 0 0
vt 0 0
vt 0 0
vt 0 0
vt 0 0
vt 0 0
vt 0 0
vt 0 0
vt 0 0
vt 0 0
vt 0 0
vt 0 0
vt 0 0
vt 0 0
vt 0 0
vt 0 0
vt 0 0
vt 0 0
vt 0 0
vt 0 0
vt 0 0
vt 0 0
vt 0 0
vt 0 0
vt 0 0
vt 0 0
vt 0 0
vt 0 0
vt 0 0
vt 0 0
vt 0 0
vt 0 0
vt 0 0
vt 0 0
vt 0 0
vt 0 0
vt 0 0
vt 0 0
vt 0 0
vt 0 0
vt 0 0
vt 0 0
vt 0 0
vt 0 0
vt 0 0
vt 0 0
vt 0 0
vt 0 0
vt 0 0
vt 0 0
vt 0 0
vt 0 0
vt 0 0
vt 0 0
vt 0 0
vt 0 0
vt 0 0
vt 0 0
vt 0 0
vt 0 0
vt 0 0
vt 0 0
vt 0 0
vt 0 0
vt 0 0
vt 0 0
vt 0 0
vt 0 0
vt 0 0
vt 0 0
vt 0 0
vt 0 0
vt 0 0
vt 0 0
vt 0 0
vt 0 0
vt 0 0

g Track Texture
usemtl Track Texture
usemap Track Texture
f 2/2/2 1/1/1 3/3/3
f 3/3/3 1/1/1 4/4/4
f 6/6/6 5/5/5 7/7/7
f 6/6/6 7/7/7 8/8/8
f 10/10/10 9/9/9 11/11/11
f 11/11/11 9/9/9 12/12/12
f 14/14/14 13/13/13 15/15/15
f 14/14/14 15/15/15 16/16/16
f 18/18/18 17/17/17 19/19/19
f 19/19/19 17/17/17 20/20/20
f 22/22/22 21/21/21 23/23/23
f 22/22/22 23/23/23 24/24/24
f 26/26/26 25/25/25 27/27/27
f 27/27/27 25/25/25 28/28/28
f 30/30/30 29/29/29 31/31/31
f 30/30/30 31/31/31 32/32/32
f 34/34/34 33/33/33 35/35/35
f 35/35/35 33/33/33 36/36/36
f 38/38/38 37/37/37 39/39/39
f 38/38/38 39/39/39 40/40/40
f 42/42/42 41/41/41 43/43/43
f 43/43/43 41/41/41 44/44/44
f 46/46/46 45/45/45 47/47/47
f 46/46/46 47/47/47 48/48/48
f 50/50/50 49/49/49 51/51/51
f 51/51/51 49/49/49 52/52/52
f 54/54/54 53/53/53 55/55/55
f 54/54/54 55/55/55 56/56/56
f 58/58/58 57/57/57 59/59/59
f 59/59/59 57/57/57 60/60/60
f 62/62/62 61/61/61 63/63/63
f 62/62/62 63/63/63 64/64/64
f 66/66/66 65/65/65 67/67/67
f 67/67/67 65/65/65 68/68/68
f 70/70/70 69/69/69 71/71/71
f 70/70/70 71/71/71 72/72/72
f 74/74/74 73/73/73 75/75/75
f 75/75/75 73/73/73 76/76/76
f 78/78/78 77/77/77 79/79/79
f 78/78/78 79/79/79 80/80/80
f 82/82/82 81/81/81 83/83/83
f 83/83/83 81/81/81 84/84/84
f 86/86/86 85/85/85 87/87/87
f 86/86/86 87/87/87 88/88/88
f 90/90/90 89/89/89 91/91/91
f 91/91/91 89/89/89 92/92/92
f 94/94/94 93/93/93 95/95/95
f 94/94/94 95/95/95 96/96/96
f 98/98/98 97/97/97 99/99/99
f 99/99/99 97/97/97 100/100/100
f 102/102/102 101/101/101 103/103/103
f 102/102/102 103/103/103 104/104/104
f 106/106/106 105/105/105 107/107/107
f 107/107/107 105/105/105 108/108/108
f 110/110/110 109/109/109 111/111/111
f 110/110/110 111/111/111 112/112/112
f 114/114/114 113/113/113 115/115/115
f 115/115/115 113/113/113 116/116/116
f 118/118/118 117/117/117 119/119/119
f 118/118/118 119/119/119 120/120/120
f 122/122/122 121/121/121 123/123/123
f 123/123/123 121/121/121 124/124/124
f 126/126/126 125/125/125 127/127/127
f 126/126/126 127/127/127 128/128/128
f 130/130/130 129/129/129 131/131/131
f 131/131/131 129/129/129 132/132/132
f 134/134/134 133/133/133 135/135/135
f 134/134/134 135/135/135 136/136/136
f 138/138/138 137/137/137 139/139/139
f 139/139/139 137/137/137 140/140/140
f 142/142/142 141/141/141 143/143/143
f 142/142/142 143/143/143 144/144/144
f 146/146/146 145/145/145 147/147/147
f 147/147/147 145/145/145 148/148/148
f 150/150/150 149/149/149 151/151/151
f 150/150/150 151/151/151 152/152/152
f 154/154/154 153/153/153 155/155/155
f 155/155/155 153/153/153 156/156/156
f 158/158/158 157/157/157 159/159/159
f 158/158/158 159/159/159 160/160/160
f 162/162/162 161/161/161 163/163/163
f 163/163/163 161/161/161 164/164/164
f 166/166/166 165/165/165 167/167/167
f 166/166/166 167/167/167 168/168/168
f 170/170/170 169/169/169 171/171/171
f 171/171/171 169/169/169 172/172/172
f 174/174/174 173/173/173 175/175/175
f 174/174/174 175/175/175 176/176/176
f 178/178/178 177/177/177 179/179/179
f 179/179/179 177/177/177 180/180/180
f 182/182/182 181/181/181 183/183/183
f 182/182/182 183/183/183 184/184/184
f 186/186/186 185/185/185 187/187/187
f 187/187/187 185/185/185 188/188/188
f 190/190/190 189/189/189 191/191/191
f 190/190/190 191/191/191 192/192/192
f 194/194/194 193/193/193 195/195/195
f 195/195/195 193/193/193 196/196/196
f 198/198/198 197/197/197 199/199/199
f 198/198/198 199/199/199 200/200/200
f 202/202/202 201/201/201 203/203/203
f 203/203/203 201/201/201 204/204/204
f 206/206/206 205/205/205 207/207/207
f 206/206/206 207/207/207 208/208/208
