mtllib ./Track1_trackCollider_14.mtl
# Unity Asset Buildr OBJ Exporter
 http://buildr.jasperstocker.com
g Track1_trackCollider_14
v -35.07609 0.2493829 81.98294
v -33.21593 2.474709E-05 81.54551
v -33.21593 5.000025 81.54549
v -35.07644 5.249383 81.98115
v -36.5528 -2.474709E-05 67.04511
v -38.39759 0.2439543 67.48555
v -36.5528 4.999975 67.0451
v -38.39793 5.243954 67.48376
v -37.02659 0.5057833 82.41111
v -35.07609 0.2493829 81.98294
v -35.07644 5.249383 81.98115
v -37.02803 5.505777 82.40362
v -38.39759 0.2439543 67.48555
v -40.10231 0.4831018 67.86543
v -38.39793 5.243954 67.48376
v -40.10374 5.483096 67.85793
v -39.02561 0.7767791 82.81045
v -37.02659 0.5057833 82.41111
v -37.02803 5.505777 82.40362
v -39.02908 5.776745 82.79234
v -40.10231 0.4831018 67.86543
v -41.79342 0.721971 68.20966
v -40.10374 5.483096 67.85793
v -41.79689 5.721937 68.19155
v -41.07369 1.062168 83.16792
v -39.02561 0.7767791 82.81045
v -39.02908 5.776745 82.79234
v -41.08034 6.062042 83.13305
v -41.79342 0.721971 68.20966
v -43.43593 0.956757 68.50388
v -41.79689 5.721937 68.19155
v -43.44257 5.956631 68.469
v -43.21162 1.367238 83.46988
v -41.07369 1.062168 83.16792
v -41.08034 6.062042 83.13305
v -43.22293 6.366867 83.41004
v -43.43593 0.956757 68.50388
v -45.01874 1.186817 68.73654
v -43.44257 5.956631 68.469
v -45.03006 6.186445 68.6767
v -45.48511 1.694881 83.68604
v -43.21162 1.367238 83.46988
v -43.22293 6.366867 83.41004
v -45.50306 6.693927 83.59003
v -45.01874 1.186817 68.73654
v -46.48392 1.40709 68.88743
v -45.03006 6.186445 68.6767
v -46.50187 6.406136 68.79142
v -47.99346 2.048912 83.75385
v -45.48511 1.694881 83.68604
v -45.50306 6.693927 83.59003
v -48.02075 7.046633 83.60539
v -46.48392 1.40709 68.88743
v -47.73081 1.610229 68.93687
v -46.50187 6.406136 68.79142
v -47.7581 6.60795 68.78842
v -50.90903 2.42554 83.51589
v -47.99346 2.048912 83.75385
v -48.02075 7.046633 83.60539
v -50.94952 7.420274 83.29005
v -47.73081 1.610229 68.93687
v -48.55956 1.783364 68.89187
v -47.7581 6.60795 68.78842
v -48.60006 6.778097 68.66603
v -54.30314 2.786958 82.61795
v -50.90903 2.42554 83.51589
v -50.94952 7.420274 83.29005
v -54.36213 7.774898 82.27592
v -48.55956 1.783364 68.89187
v -48.80501 1.907295 68.84103
v -48.60006 6.778097 68.66603
v -48.864 6.895235 68.49901
v -57.44435 3.031136 80.91463
v -54.30314 2.786958 82.61795
v -54.36213 7.774898 82.27592
v -57.52657 8.004931 80.41006
v -48.80501 1.907295 68.84103
v -48.94633 1.930709 68.68256
v -48.864 6.895235 68.49901
v -49.02855 6.904505 68.17799
v -59.34753 3.134974 79.3688
v -57.44435 3.031136 80.91463
v -57.52657 8.004931 80.41006
v -59.45213 8.086433 78.6817
v -48.94633 1.930709 68.68256
v -49.94563 1.725231 67.77833
v -49.02855 6.904505 68.17799
v -50.05023 6.676691 67.09123
v -60.18446 3.20173 78.67836
v -59.34753 3.134974 79.3688
v -59.45213 8.086433 78.6817
v -60.30561 8.127678 77.82963
v -49.94563 1.725231 67.77833
v -52.11656 1.247877 66.18681
v -50.05023 6.676691 67.09123
v -52.23771 6.173825 65.33808
v -60.73103 3.218554 78.38146
v -60.18446 3.20173 78.67836
v -60.30561 8.127678 77.82963
v -60.86264 8.121577 77.41036
v -52.11656 1.247877 66.18681
v -54.93273 0.6843835 64.80082
v -52.23771 6.173825 65.33808
v -55.06434 5.587407 63.82972
v -61.52201 3.152153 78.13766
v -60.73103 3.218554 78.38146
v -60.86264 8.121577 77.41036
v -61.65992 8.037112 77.08022
v -54.93273 0.6843835 64.80082
v -57.73916 0.190482 63.96243
v -55.06434 5.587407 63.82972
v -57.87707 5.075441 62.90499
v -62.64251 3.026471 77.93907
v -61.52201 3.152153 78.13766
v -61.65992 8.037112 77.08022
v -62.7843 7.897809 76.82105
v -57.73916 0.190482 63.96243
v -60.32531 -0.2149302 63.52205
v -57.87707 5.075441 62.90499
v -60.4671 4.656408 62.40403
v -63.99684 2.871015 77.81512
v -62.64251 3.026471 77.93907
v -62.7843 7.897809 76.82105
v -64.14111 7.732232 76.6542
v -60.32531 -0.2149302 63.52205
v -62.72076 -0.5534776 63.31698
v -60.4671 4.656408 62.40403
v -62.86503 4.307739 62.15606
v -65.50672 2.701656 77.76803
v -63.99684 2.871015 77.81512
v -64.14111 7.732232 76.6542
v -65.65261 7.555424 76.57654
v -62.72076 -0.5534776 63.31698
v -64.98956 -0.8451726 63.25605
v -62.86503 4.307739 62.15606
v -65.13544 4.008595 62.06455
v -67.10889 2.527377 77.78961
v -65.50672 2.701656 77.76803
v -65.65261 7.555424 76.57654
v -67.25585 7.375811 76.57673
v -64.98956 -0.8451726 63.25605
v -67.16653 -1.101336 63.29105
v -65.13544 4.008595 62.06455
v -67.3135 3.747097 62.07816
v -68.76797 2.352434 77.86885
v -67.10889 2.527377 77.78961
v -67.25585 7.375811 76.57673
v -68.91563 7.197217 76.64155
v -67.16653 -1.101336 63.29105
v -69.27518 -1.329873 63.39395
v -67.3135 3.747097 62.07816
v -69.42283 3.51491 62.16665
v -70.46536 2.178626 77.99612
v -68.76797 2.352434 77.86885
v -68.91563 7.197217 76.64155
v -70.61343 7.021113 76.75983
v -69.27518 -1.329873 63.39395
v -71.33507 -1.536644 63.54768
v -69.42283 3.51491 62.16665
v -71.48313 3.305843 62.31139
v -72.21169 2.005845 78.16571
v -70.46536 2.178626 77.99612
v -70.61343 7.021113 76.75983
v -72.35996 6.847141 76.9248
v -71.33507 -1.536644 63.54768
v -73.35493 -1.72646 63.74106
v -71.48313 3.305843 62.31139
v -73.50321 3.114836 62.50015
v -73.52868 1.86827 78.31464
v -72.21169 2.005845 78.16571
v -72.35996 6.847141 76.9248
v -73.677 6.709293 77.07266
v -73.35493 -1.72646 63.74106
v -75.06554 -1.86827 63.93372
v -73.50321 3.114836 62.50015
v -75.21387 2.972753 62.69174

vn -0.2284766 -0.0001838774 -0.9735494
vn -0.2289144 -2.969474E-06 -0.9734466
vn -0.2284766 -0.0001838774 -0.9735494
vn -0.2280387 -0.0003647918 -0.973652
vn 0.2322212 2.968332E-06 0.972663
vn 0.2317799 0.0001838499 0.9727682
vn 0.2317799 0.0001838499 0.9727682
vn 0.2313387 0.0003647385 0.9728732
vn -0.2131118 -0.000945132 -0.9770274
vn -0.2144581 -0.0003649623 -0.9767331
vn -0.2131118 -0.000945132 -0.9770274
vn -0.2117649 -0.00152534 -0.9773195
vn 0.2175513 0.0003649312 0.9760488
vn 0.2160075 0.0009450575 0.9763912
vn 0.2160075 0.0009450575 0.9763912
vn 0.214463 0.001525233 0.9767309
vn -0.1936343 -0.002606958 -0.9810703
vn -0.1960949 -0.001525724 -0.9805838
vn -0.1936343 -0.002606958 -0.9810703
vn -0.1911722 -0.003688206 -0.9815496
vn 0.1996734 0.001525671 0.9798614
vn 0.1967494 0.002606899 0.9804503
vn 0.1967494 0.002606899 0.9804503
vn 0.1938232 0.003688161 0.9810296
vn -0.1686268 -0.005393275 -0.9856653
vn -0.1724396 -0.003687763 -0.9850131
vn -0.1686268 -0.005393275 -0.9856653
vn -0.1648114 -0.007098455 -0.9862996
vn 0.176827 0.003687986 0.9842351
vn 0.1720287 0.005393599 0.9850773
vn 0.1720287 0.005393599 0.9850773
vn 0.1672266 0.007098827 0.9858929
vn -0.1353722 -0.009627105 -0.990748
vn -0.1408384 -0.00709245 -0.9900072
vn -0.1353722 -0.009627105 -0.990748
vn -0.1299039 -0.01216003 -0.991452
vn 0.146438 0.007094226 0.9891944
vn 0.1389474 0.009628837 0.9902529
vn 0.1389474 0.009628837 0.9902529
vn 0.1314532 0.01216109 0.9912478
vn -0.08891199 -0.01578316 -0.9959143
vn -0.09637849 -0.01212987 -0.9952708
vn -0.08891199 -0.01578316 -0.9959143
vn -0.08144968 -0.01943031 -0.9964882
vn 0.1042378 0.01213817 0.9944783
vn 0.09240028 0.01578842 0.9955968
vn 0.09240028 0.01578842 0.9955968
vn 0.08057349 0.01942853 0.9965593
vn -0.01998723 -0.02453222 -0.9994992
vn -0.02973776 -0.01930002 -0.9993713
vn -0.01998723 -0.02453222 -0.9994992
vn -0.01026407 -0.02974544 -0.9995048
vn 0.04276239 0.01933769 0.9988981
vn 0.0225161 0.02454235 0.9994453
vn 0.0225161 0.02454235 0.9994453
vn 0.002386236 0.02970393 0.9995559
vn 0.08951923 -0.03667434 -0.9953096
vn 0.07756472 -0.02917831 -0.9965603
vn 0.08951923 -0.03667434 -0.9953096
vn 0.1013809 -0.04411604 -0.993869
vn -0.04807831 0.02939432 0.9984109
vn -0.09217095 0.03664732 0.9950687
vn -0.09217095 0.03664732 0.9950687
vn -0.1350697 0.04366228 0.9898736
vn 0.264987 -0.05213041 -0.9628418
vn 0.2513863 -0.04168453 -0.9669889
vn 0.264987 -0.05213041 -0.9628418
vn 0.2783369 -0.06242982 -0.9584524
vn -0.1817798 0.04294571 0.982401
vn -0.3730657 0.04898665 0.9265109
vn -0.3730657 0.04898665 0.9265109
vn -0.5172609 0.05245679 0.8542187
vn 0.487659 -0.06706278 -0.8704547
vn 0.472674 -0.05472019 -0.8795368
vn 0.487659 -0.06706278 -0.8704547
vn 0.5020539 -0.07906739 -0.8612145
vn -0.7431133 0.03702623 0.6681404
vn -0.8415448 0.03388828 0.5391234
vn -0.8415448 0.03388828 0.5391234
vn -0.8890909 0.03162691 0.4566368
vn 0.6456779 -0.07903617 -0.7595087
vn 0.6267444 -0.06838376 -0.7762185
vn 0.6456779 -0.07903617 -0.7595087
vn 0.663224 -0.08910584 -0.7430976
vn -0.6767306 0.06322496 0.7335109
vn -0.7077179 0.07107309 0.7029112
vn -0.7077179 0.07107309 0.7029112
vn -0.7344736 0.07803115 0.6741362
vn 0.6672282 -0.09952798 -0.7381738
vn 0.629098 -0.09378847 -0.7716471
vn 0.6672282 -0.09952798 -0.7381738
vn 0.7001228 -0.1044814 -0.7063368
vn -0.6022583 0.09722947 0.792358
vn -0.6203126 0.1066482 0.7770703
vn -0.6203126 0.1066482 0.7770703
vn -0.6372372 0.1156096 0.761947
vn 0.5380412 -0.1400604 -0.8312008
vn 0.4694173 -0.1387015 -0.8720146
vn 0.5380412 -0.1400604 -0.8312008
vn 0.5963905 -0.140519 -0.7902992
vn -0.4596168 0.1398091 0.8770438
vn -0.4751125 0.1483676 0.8673265
vn -0.4751125 0.1483676 0.8673265
vn -0.4900799 0.1566794 0.8574808
vn 0.349402 -0.1809102 -0.9193421
vn 0.3034497 -0.1772817 -0.9362102
vn 0.349402 -0.1809102 -0.9193421
vn 0.3926226 -0.1839767 -0.9011104
vn -0.3101558 0.1766889 0.9341223
vn -0.3240401 0.1834219 0.9280918
vn -0.3240401 0.1834219 0.9280918
vn -0.3376694 0.1900242 0.9218841
vn 0.2188291 -0.2063794 -0.9536883
vn 0.1928642 -0.202391 -0.9601256
vn 0.2188291 -0.2063794 -0.9536883
vn 0.2442453 -0.2101599 -0.9466663
vn -0.1951247 0.2022347 0.9597018
vn -0.2069012 0.2072708 0.9561541
vn -0.2069012 0.2072708 0.9561541
vn -0.2185645 0.2122376 0.9524624
vn 0.1299801 -0.2224327 -0.9662448
vn 0.1138339 -0.219091 -0.9690412
vn 0.1299801 -0.2224327 -0.9662448
vn 0.1459925 -0.2256925 -0.9631974
vn -0.1139173 0.2190866 0.9690325
vn -0.1233398 0.2228112 0.9670276
vn -0.1233398 0.2228112 0.9670276
vn -0.1327173 0.2264995 0.964927
vn 0.06674813 -0.2329336 -0.9701992
vn 0.05613915 -0.2303393 -0.9714897
vn 0.06674813 -0.2329336 -0.9701992
vn 0.07732252 -0.2354932 -0.9687952
vn -0.0557098 0.230357 0.9715102
vn -0.06293035 0.2331001 0.9704144
vn -0.06293035 0.2331001 0.9704144
vn -0.07013521 0.2358245 0.9692615
vn 0.01989595 -0.2399277 -0.9705869
vn 0.01280761 -0.2380169 -0.9711766
vn 0.01989595 -0.2399277 -0.9705869
vn 0.02697637 -0.2418235 -0.9699451
vn -0.01239503 0.2380306 0.9711787
vn -0.01769466 0.240001 0.9706114
vn -0.01769466 0.240001 0.9706114
vn -0.02299001 0.2419622 0.9700132
vn -0.01603169 -0.2445516 -0.9695037
vn -0.02066945 -0.2432192 -0.969751
vn -0.01603169 -0.2445516 -0.9695037
vn -0.01139483 -0.245878 -0.9692339
vn 0.02096396 0.2432268 0.9697428
vn 0.01727551 0.2445825 0.9694747
vn 0.01727551 0.2445825 0.9694747
vn 0.01358756 0.2459341 0.9691913
vn -0.0444921 -0.2474978 -0.9678664
vn -0.04731832 -0.2466474 -0.9679493
vn -0.0444921 -0.2474978 -0.9678664
vn -0.04166548 -0.2483459 -0.9677749
vn 0.04747639 0.2466502 0.967941
vn 0.04513018 0.247509 0.967834
vn 0.04513018 0.247509 0.967834
vn 0.04278368 0.2483663 0.9677209
vn -0.06779598 -0.2492042 -0.966075
vn -0.06920958 -0.2487579 -0.9660898
vn -0.06779598 -0.2492042 -0.966075
vn -0.06638215 -0.2496501 -0.9660581
vn 0.06911919 0.2487569 0.9660965
vn 0.06789067 0.2492057 0.966068
vn 0.06789067 0.2492057 0.966068
vn 0.06666198 0.2496542 0.9660377
vn -0.08256709 -0.2499216 -0.9647393
vn -0.08299531 -0.2498183 -0.9647292
vn -0.08256709 -0.2499216 -0.9647393
vn -0.08213882 -0.2500249 -0.964749
vn 0.08788766 0.2498554 0.9642863
vn 0.08755819 0.2499595 0.9642892
vn 0.08755819 0.2499595 0.9642892
vn 0.08722872 0.2500636 0.9642922

vt 0 0
vt 0 0
vt 0 0
vt 0 0
vt 0 0
vt 0 0
vt 0 0
vt 0 0
vt 0 0
vt 0 0
vt 0 0
vt 0 0
vt 0 0
vt 0 0
vt 0 0
vt 0 0
vt 0 0
vt 0 0
vt 0 0
vt 0 0
vt 0 0
vt 0 0
vt 0 0
vt 0 0
vt 0 0
vt 0 0
vt 0 0
vt 0 0
vt 0 0
vt 0 0
vt 0 0
vt 0 0
vt 0 0
vt 0 0
vt 0 0
vt 0 0
vt 0 0
vt 0 0
vt 0 0
vt 0 0
vt 0 0
vt 0 0
vt 0 0
vt 0 0
vt 0 0
vt 0 0
vt 0 0
vt 0 0
vt 0 0
vt 0 0
vt 0 0
vt 0 0
vt 0 0
vt 0 0
vt 0 0
vt 0 0
vt 0 0
vt 0 0
vt 0 0
vt 0 0
vt 0 0
vt 0 0
vt 0 0
vt 0 0
vt 0 0
vt 0 0
vt 0 0
vt 0 0
vt 0 0
vt 0 0
vt 0 0
vt 0 0
vt 0 0
vt 0 0
vt 0 0
vt 0 0
vt 0 0
vt 0 0
vt 0 0
vt 0 0
vt 0 0
vt 0 0
vt 0 0
vt 0 0
vt 0 0
vt 0 0
vt 0 0
vt 0 0
vt 0 0
vt 0 0
vt 0 0
vt 0 0
vt 0 0
vt 0 0
vt 0 0
vt 0 0
vt 0 0
vt 0 0
vt 0 0
vt 0 0
vt 0 0
vt 0 0
vt 0 0
vt 0 0
vt 0 0
vt 0 0
vt 0 0
vt 0 0
vt 0 0
vt 0 0
vt 0 0
vt 0 0
vt 0 0
vt 0 0
vt 0 0
vt 0 0
vt 0 0
vt 0 0
vt 0 0
vt 0 0
vt 0 0
vt 0 0
vt 0 0
vt 0 0
vt 0 0
vt 0 0
vt 0 0
vt 0 0
vt 0 0
vt 0 0
vt 0 0
vt 0 0
vt 0 0
vt 0 0
vt 0 0
vt 0 0
vt 0 0
vt 0 0
vt 0 0
vt 0 0
vt 0 0
vt 0 0
vt 0 0
vt 0 0
vt 0 0
vt 0 0
vt 0 0
vt 0 0
vt 0 0
vt 0 0
vt 0 0
vt 0 0
vt 0 0
vt 0 0
vt 0 0
vt 0 0
vt 0 0
vt 0 0
vt 0 0
vt 0 0
vt 0 0
vt 0 0
vt 0 0
vt 0 0
vt 0 0
vt 0 0
vt 0 0
vt 0 0
vt 0 0
vt 0 0
vt 0 0
vt 0 0
vt 0 0
vt 0 0
vt 0 0
vt 0 0

g Track Texture
usemtl Track Texture
usemap Track Texture
f 2/2/2 1/1/1 3/3/3
f 3/3/3 1/1/1 4/4/4
f 6/6/6 5/5/5 7/7/7
f 6/6/6 7/7/7 8/8/8
f 10/10/10 9/9/9 11/11/11
f 11/11/11 9/9/9 12/12/12
f 14/14/14 13/13/13 15/15/15
f 14/14/14 15/15/15 16/16/16
f 18/18/18 17/17/17 19/19/19
f 19/19/19 17/17/17 20/20/20
f 22/22/22 21/21/21 23/23/23
f 22/22/22 23/23/23 24/24/24
f 26/26/26 25/25/25 27/27/27
f 27/27/27 25/25/25 28/28/28
f 30/30/30 29/29/29 31/31/31
f 30/30/30 31/31/31 32/32/32
f 34/34/34 33/33/33 35/35/35
f 35/35/35 33/33/33 36/36/36
f 38/38/38 37/37/37 39/39/39
f 38/38/38 39/39/39 40/40/40
f 42/42/42 41/41/41 43/43/43
f 43/43/43 41/41/41 44/44/44
f 46/46/46 45/45/45 47/47/47
f 46/46/46 47/47/47 48/48/48
f 50/50/50 49/49/49 51/51/51
f 51/51/51 49/49/49 52/52/52
f 54/54/54 53/53/53 55/55/55
f 54/54/54 55/55/55 56/56/56
f 58/58/58 57/57/57 59/59/59
f 59/59/59 57/57/57 60/60/60
f 62/62/62 61/61/61 63/63/63
f 62/62/62 63/63/63 64/64/64
f 66/66/66 65/65/65 67/67/67
f 67/67/67 65/65/65 68/68/68
f 70/70/70 69/69/69 71/71/71
f 70/70/70 71/71/71 72/72/72
f 74/74/74 73/73/73 75/75/75
f 75/75/75 73/73/73 76/76/76
f 78/78/78 77/77/77 79/79/79
f 78/78/78 79/79/79 80/80/80
f 82/82/82 81/81/81 83/83/83
f 83/83/83 81/81/81 84/84/84
f 86/86/86 85/85/85 87/87/87
f 86/86/86 87/87/87 88/88/88
f 90/90/90 89/89/89 91/91/91
f 91/91/91 89/89/89 92/92/92
f 94/94/94 93/93/93 95/95/95
f 94/94/94 95/95/95 96/96/96
f 98/98/98 97/97/97 99/99/99
f 99/99/99 97/97/97 100/100/100
f 102/102/102 101/101/101 103/103/103
f 102/102/102 103/103/103 104/104/104
f 106/106/106 105/105/105 107/107/107
f 107/107/107 105/105/105 108/108/108
f 110/110/110 109/109/109 111/111/111
f 110/110/110 111/111/111 112/112/112
f 114/114/114 113/113/113 115/115/115
f 115/115/115 113/113/113 116/116/116
f 118/118/118 117/117/117 119/119/119
f 118/118/118 119/119/119 120/120/120
f 122/122/122 121/121/121 123/123/123
f 123/123/123 121/121/121 124/124/124
f 126/126/126 125/125/125 127/127/127
f 126/126/126 127/127/127 128/128/128
f 130/130/130 129/129/129 131/131/131
f 131/131/131 129/129/129 132/132/132
f 134/134/134 133/133/133 135/135/135
f 134/134/134 135/135/135 136/136/136
f 138/138/138 137/137/137 139/139/139
f 139/139/139 137/137/137 140/140/140
f 142/142/142 141/141/141 143/143/143
f 142/142/142 143/143/143 144/144/144
f 146/146/146 145/145/145 147/147/147
f 147/147/147 145/145/145 148/148/148
f 150/150/150 149/149/149 151/151/151
f 150/150/150 151/151/151 152/152/152
f 154/154/154 153/153/153 155/155/155
f 155/155/155 153/153/153 156/156/156
f 158/158/158 157/157/157 159/159/159
f 158/158/158 159/159/159 160/160/160
f 162/162/162 161/161/161 163/163/163
f 163/163/163 161/161/161 164/164/164
f 166/166/166 165/165/165 167/167/167
f 166/166/166 167/167/167 168/168/168
f 170/170/170 169/169/169 171/171/171
f 171/171/171 169/169/169 172/172/172
f 174/174/174 173/173/173 175/175/175
f 174/174/174 175/175/175 176/176/176
