mtllib ./Track1_track_5.mtl
# Unity Asset Buildr OBJ Exporter
 http://buildr.jasperstocker.com
g Track1_track_5
v 47.64695 4.495735 -86.21629
v 49.3053 4.382051 -84.76224
v 46.6974 1.456025 -82.05367
v 45.17643 1.498578 -83.40321
v 44.0895 -1.470001 -79.34509
v 42.7059 -1.498579 -80.59013
v 41.48159 -4.396026 -76.63652
v 40.23538 -4.495735 -77.77704
v 49.3053 4.382051 -84.76224
v 50.97341 4.148877 -83.14919
v 48.13683 1.364024 -80.61853
v 46.6974 1.456025 -82.05367
v 45.30025 -1.420829 -78.08788
v 44.0895 -1.470001 -79.34509
v 42.46367 -4.205681 -75.55722
v 41.48159 -4.396026 -76.63652
v 50.97341 4.148877 -83.14919
v 52.59046 3.818213 -81.37918
v 49.49187 1.228553 -79.06462
v 48.13683 1.364024 -80.61853
v 46.39328 -1.361106 -76.75006
v 45.30025 -1.420829 -78.08788
v 43.29469 -3.950766 -74.4355
v 42.46367 -4.205681 -75.55722
v 52.59046 3.818213 -81.37918
v 54.12954 3.375584 -79.4175
v 50.73858 1.043361 -77.37036
v 49.49187 1.228553 -79.06462
v 47.34761 -1.288862 -75.32321
v 46.39328 -1.361106 -76.75006
v 43.95665 -3.621085 -73.27607
v 43.29469 -3.950766 -74.4355
v 54.12954 3.375584 -79.4175
v 55.5274 2.823712 -77.2655
v 51.82896 0.8089737 -75.54411
v 50.73858 1.043361 -77.37036
v 48.13053 -1.205765 -73.82272
v 47.34761 -1.288862 -75.32321
v 44.4321 -3.220503 -72.10133
v 43.95665 -3.621085 -73.27607
v 55.5274 2.823712 -77.2655
v 56.71795 2.191566 -74.94959
v 52.72253 0.5358061 -73.60436
v 51.82896 0.8089737 -75.54411
v 48.72711 -1.119954 -72.25913
v 48.13053 -1.205765 -73.82272
v 44.73169 -2.775714 -70.9139
v 44.4321 -3.220503 -72.10133
v 56.71795 2.191566 -74.94959
v 57.6513 1.53454 -72.52692
v 52.72253 0.5358061 -73.60436
v 53.39589 0.2442921 -71.57952
v 48.72711 -1.119954 -72.25913
v 49.14049 -1.045956 -70.63212
v 44.73169 -2.775714 -70.9139
v 44.88509 -2.336205 -69.68472
v 57.6513 1.53454 -72.52692
v 58.31028 0.9196223 -70.0916
v 53.39589 0.2442921 -71.57952
v 53.84782 -0.03934112 -69.52055
v 49.14049 -1.045956 -70.63212
v 49.38536 -0.9983045 -68.94951
v 44.88509 -2.336205 -69.68472
v 44.92289 -1.957268 -68.37846
v 58.31028 0.9196223 -70.0916
v 58.72708 0.4016337 -67.73899
v 53.84782 -0.03934112 -69.52055
v 54.11001 -0.2921713 -67.47203
v 49.38536 -0.9983045 -68.94951
v 49.49294 -0.9859764 -67.20506
v 44.92289 -1.957268 -68.37846
v 44.87587 -1.679781 -66.9381
v 58.72708 0.4016337 -67.73899
v 58.96678 0.005579114 -65.56003
v 54.11001 -0.2921713 -67.47203
v 54.23611 -0.5000166 -65.48476
v 49.49294 -0.9859764 -67.20506
v 49.50543 -1.005612 -65.40951
v 44.87587 -1.679781 -66.9381
v 44.77476 -1.511208 -65.33424
v 58.96678 0.005579114 -65.56003
v 59.11044 -0.2752499 -63.59362
v 54.23611 -0.5000166 -65.48476
v 54.29324 -0.6605945 -63.56449
v 49.50543 -1.005612 -65.40951
v 49.47604 -1.045939 -63.53535
v 44.77476 -1.511208 -65.33424
v 44.65884 -1.431283 -63.50621
v 59.11044 -0.2752499 -63.59362
v 59.22918 -0.4664498 -61.86713
v 54.29324 -0.6605945 -63.56449
v 54.34851 -0.7772357 -61.71539
v 49.47604 -1.045939 -63.53535
v 49.46785 -1.088022 -61.56365
v 44.65884 -1.431283 -63.50621
v 44.58719 -1.398808 -61.41191
v 59.22918 -0.4664498 -61.86713
v 59.37341 -0.5995829 -60.41958
v 54.34851 -0.7772357 -61.71539
v 54.46546 -0.8543299 -59.96193
v 49.46785 -1.088022 -61.56365
v 49.55751 -1.109077 -59.50428
v 44.58719 -1.398808 -61.41191
v 44.64956 -1.363824 -59.04664
v 59.37341 -0.5995829 -60.41958
v 59.57188 -0.7097634 -59.23657
v 54.46546 -0.8543299 -59.96193
v 54.70123 -0.8980977 -58.3031
v 49.55751 -1.109077 -59.50428
v 49.83059 -1.086432 -57.36963
v 44.64956 -1.363824 -59.04664
v 44.95994 -1.274766 -56.43616
v 59.57188 -0.7097634 -59.23657
v 59.82774 -0.813433 -58.29617
v 54.70123 -0.8980977 -58.3031
v 55.09369 -0.9099275 -56.76321
v 49.83059 -1.086432 -57.36963
v 50.35963 -1.006422 -55.23026
v 44.95994 -1.274766 -56.43616
v 45.62558 -1.102917 -53.6973
v 59.82774 -0.813433 -58.29617
v 60.16793 -0.9085207 -57.46531
v 55.09369 -0.9099275 -56.76321
v 55.67851 -0.8874789 -55.3034
v 50.35963 -1.006422 -55.23026
v 51.18908 -0.8664371 -53.1415
v 45.62558 -1.102917 -53.6973
v 46.69966 -0.8453953 -50.97959
v 60.16793 -0.9085207 -57.46531
v 60.62906 -0.9671765 -56.66145
v 55.67851 -0.8874789 -55.3034
v 56.46409 -0.8239305 -53.92852
v 51.18908 -0.8664371 -53.1415
v 52.29913 -0.6806844 -51.1956
v 46.69966 -0.8453953 -50.97959
v 48.13416 -0.5374385 -48.46267
v 60.62906 -0.9671765 -56.66145
v 61.24493 -0.9644262 -55.84281
v 57.43238 -0.7171751 -52.6467
v 56.46409 -0.8239305 -53.92852
v 53.61982 -0.469924 -49.45059
v 52.29913 -0.6806844 -51.1956
v 49.80727 -0.2226729 -46.25448
v 48.13416 -0.5374385 -48.46267
v 61.24493 -0.9644262 -55.84281
v 62.03231 -0.8916875 -55.00216
v 58.55805 -0.5704592 -51.45323
v 57.43238 -0.7171751 -52.6467
v 55.08379 -0.2492309 -47.9043
v 53.61982 -0.469924 -49.45059
v 51.60954 0.07199728 -44.35537
v 49.80727 -0.2226729 -46.25448
v 62.03231 -0.8916875 -55.00216
v 63.01313 -0.7508869 -54.13025
v 59.83402 -0.3876203 -50.32512
v 58.55805 -0.5704592 -51.45323
v 56.65491 -0.02435366 -46.51999
v 55.08379 -0.2492309 -47.9043
v 53.4758 0.3389129 -42.71486
v 51.60954 0.07199728 -44.35537
v 63.01313 -0.7508869 -54.13025
v 64.08783 -0.5632191 -53.31187
v 61.14828 -0.1877397 -49.32425
v 59.83402 -0.3876203 -50.32512
v 58.20874 0.1877397 -45.33662
v 56.65491 -0.02435366 -46.51999
v 55.2692 0.5632191 -41.349
v 53.4758 0.3389129 -42.71486

vn -0.3883094 0.7841642 0.4840478
vn -0.3750961 0.7872984 0.4893507
vn -0.390709 0.7855909 0.4797848
vn -0.4079289 0.7833782 0.4689484
vn -0.4136838 0.786235 0.459021
vn -0.4336371 0.7832437 0.44552
vn -0.4371035 0.7846246 0.4396644
vn -0.4558511 0.7793131 0.4299662
vn -0.3799411 0.7954119 0.4721914
vn -0.3550603 0.8004681 0.4828901
vn -0.3840019 0.7984245 0.4637466
vn -0.4179975 0.7947145 0.4401215
vn -0.4290687 0.8006546 0.4181532
vn -0.4724072 0.7934926 0.3836676
vn -0.4799696 0.7959737 0.3688562
vn -0.5241672 0.7811552 0.3391834
vn -0.3720447 0.8136231 0.4467662
vn -0.3389722 0.8191445 0.4627096
vn -0.3764914 0.8180077 0.4348766
vn -0.4215512 0.8141547 0.3993076
vn -0.4344517 0.8225996 0.3668537
vn -0.4932165 0.8121032 0.3118106
vn -0.502351 0.8150378 0.2887157
vn -0.5639316 0.7907577 0.2380827
vn -0.356022 0.8372407 0.4150617
vn -0.3152285 0.8422282 0.4373587
vn -0.3599474 0.8431495 0.3994205
vn -0.4150385 0.8401293 0.3491789
vn -0.4275877 0.8512244 0.304279
vn -0.5008432 0.8365914 0.2219704
vn -0.5100049 0.8393096 0.1882931
vn -0.5886433 0.8011078 0.1082849
vn -0.329952 0.8652818 0.3773845
vn -0.2836297 0.8683193 0.4069101
vn -0.3322233 0.8725186 0.3582442
vn -0.3937039 0.8717342 0.2916791
vn -0.4027016 0.8848917 0.2340899
vn -0.4854564 0.8660182 0.1197683
vn -0.4921168 0.8673208 0.07467054
vn -0.5828347 0.8115634 -0.04084935
vn -0.2938908 0.8954301 0.3344146
vn -0.2461745 0.8954228 0.3709665
vn -0.2934999 0.9033035 0.3128907
vn -0.3545678 0.9058124 0.2319168
vn -0.3565985 0.9195203 0.1652879
vn -0.4385262 0.8984145 0.02336738
vn -0.4400268 0.8974915 -0.02975907
vn -0.5327401 0.8278427 -0.1756821
vn -0.2581711 0.9026785 0.3442664
vn -0.2501976 0.9245058 0.2875592
vn -0.2669328 0.9247653 0.2712122
vn -0.2762289 0.9458544 0.1704615
vn -0.3189379 0.9406245 0.116207
vn -0.3321925 0.9418428 -0.05079812
vn -0.3582379 0.9286941 -0.09588006
vn -0.3350874 0.8996608 -0.2798693
vn -0.2168693 0.9309557 0.2937502
vn -0.2031141 0.9492866 0.2399991
vn -0.2168658 0.9503521 0.2231591
vn -0.2151146 0.9679896 0.1293134
vn -0.248833 0.965503 0.0767209
vn -0.2464235 0.9666092 -0.07030044
vn -0.2664189 0.9573925 -0.1114479
vn -0.2348527 0.9353414 -0.2645386
vn -0.1743138 0.9547203 0.241089
vn -0.158329 0.9681429 0.193988
vn -0.1684002 0.9694337 0.1784367
vn -0.160151 0.9819878 0.100258
vn -0.1834256 0.9814228 0.05625268
vn -0.1728756 0.9834411 -0.05438393
vn -0.1860688 0.9788067 -0.08553249
vn -0.1566772 0.9688541 -0.1917654
vn -0.1350093 0.9721523 0.1915529
vn -0.120269 0.9809201 0.1527451
vn -0.1270369 0.9820112 0.1396979
vn -0.1175022 0.9898396 0.0800688
vn -0.1321571 0.9900929 0.04743947
vn -0.1209601 0.9923044 -0.02647069
vn -0.1288105 0.9905663 -0.04675724
vn -0.1073586 0.9880476 -0.1106167
vn -0.1027727 0.9836352 0.147985
vn -0.09100254 0.9889518 0.117016
vn -0.09545338 0.9896842 0.1068367
vn -0.08772334 0.994075 0.06418297
vn -0.09672796 0.994412 0.04228999
vn -0.08852186 0.9960707 -0.002642975
vn -0.09305486 0.9955583 -0.01430054
vn -0.07993661 0.9956145 -0.04859876
vn -0.07851758 0.9902501 0.1150643
vn -0.06966362 0.9935983 0.08893403
vn -0.07289421 0.994056 0.08086576
vn -0.06769276 0.9964717 0.04961676
vn -0.07375123 0.9966607 0.03504603
vn -0.06873119 0.9976068 0.007538481
vn -0.07157995 0.9974344 0.0009510589
vn -0.06408535 0.997788 -0.01766503
vn -0.06023115 0.9934242 0.09736823
vn -0.05320868 0.9961435 0.06976368
vn -0.05630684 0.9964812 0.06208585
vn -0.05319636 0.9979876 0.03451189
vn -0.05841615 0.9980226 0.02320693
vn -0.05549823 0.9984537 0.003166041
vn -0.05775023 0.9983303 -0.001158462
vn -0.05307376 0.9985011 -0.01336893
vn -0.04230448 0.9941192 0.09968545
vn -0.0367143 0.9975439 0.05964896
vn -0.04112609 0.9979042 0.04996059
vn -0.04030062 0.9990361 0.01739378
vn -0.04671866 0.9988906 0.005905709
vn -0.04525516 0.9988791 -0.01387171
vn -0.04776166 0.9987031 -0.01763721
vn -0.0441369 0.9986097 -0.02882024
vn -0.01655926 0.9933415 0.1140109
vn -0.01656018 0.99857 0.050829
vn -0.02377742 0.9990025 0.03779671
vn -0.02765208 0.9996102 -0.003830934
vn -0.03650115 0.9991999 -0.0163482
vn -0.03718064 0.9985824 -0.03809116
vn -0.04030619 0.998318 -0.04167127
vn -0.03765065 0.99786 -0.05346015
vn 0.01463638 0.9940677 0.1077732
vn 0.003891089 0.9995385 0.03012488
vn -0.006348603 0.9998529 0.01593615
vn -0.01684979 0.9994028 -0.03016698
vn -0.02817088 0.998705 -0.04236398
vn -0.03178251 0.9973693 -0.06514898
vn -0.03554805 0.997026 -0.06837822
vn -0.03426443 0.9961372 -0.08084898
vn 0.0311427 0.9980028 0.05495745
vn 0.01338024 0.9998615 -0.009901719
vn 0.00287604 0.9997775 -0.02090007
vn -0.01166212 0.9981397 -0.0598423
vn -0.02309306 0.9973351 -0.06920571
vn -0.02906221 0.995609 -0.08898314
vn -0.03280237 0.9952738 -0.09140158
vn -0.0332059 0.9941565 -0.1027141
vn 0.006527186 0.9983545 -0.05697108
vn 0.03799589 0.9987673 -0.03194032
vn 0.00290062 0.9978161 -0.06598867
vn -0.01701315 0.9962155 -0.08523526
vn -0.01983141 0.9952624 -0.09518099
vn -0.03112057 0.9939984 -0.1048747
vn -0.03169482 0.9936359 -0.108088
vn -0.03922324 0.9929539 -0.1118215
vn -0.01162595 0.9952707 -0.09644225
vn 0.002073563 0.9961066 -0.08813175
vn -0.01352965 0.9948823 -0.1001313
vn -0.02346328 0.9939008 -0.1077524
vn -0.02533479 0.9933469 -0.1123393
vn -0.03145261 0.9926841 -0.1165726
vn -0.03195157 0.9924799 -0.1181652
vn -0.03603913 0.9921506 -0.1197429
vn -0.03353635 0.9918816 -0.1226625
vn -0.03340264 0.9918938 -0.1226009
vn -0.03355753 0.9918766 -0.1226974
vn -0.03366821 0.9918644 -0.1227663
vn -0.03369331 0.9918574 -0.1228153
vn -0.03376864 0.9918495 -0.1228582
vn -0.03377663 0.991847 -0.1228766
vn -0.03382826 0.9918433 -0.1228922
vn -0.05571985 0.9889333 -0.1374997
vn -0.06511723 0.9878628 -0.1410207
vn -0.0540353 0.9893541 -0.1351252
vn -0.04546477 0.9903982 -0.1305541
vn -0.04318558 0.9909704 -0.1269355
vn -0.03691252 0.9916186 -0.123814
vn -0.03610963 0.9918266 -0.1223766
vn -0.03174955 0.9921153 -0.121241

vt 0 191.8768
vt 0 193.691
vt 0.3333333 193.691
vt 0.3333333 191.8768
vt 0.6666667 193.691
vt 0.6666667 191.8768
vt 1 193.691
vt 1 191.8768
vt 0 193.691
vt 0 195.5051
vt 0.3333333 195.5051
vt 0.3333333 193.691
vt 0.6666667 195.5051
vt 0.6666667 193.691
vt 1 195.5051
vt 1 193.691
vt 0 195.5051
vt 0 197.3192
vt 0.3333333 197.3192
vt 0.3333333 195.5051
vt 0.6666667 197.3192
vt 0.6666667 195.5051
vt 1 197.3192
vt 1 195.5051
vt 0 197.3192
vt 0 199.1333
vt 0.3333333 199.1333
vt 0.3333333 197.3192
vt 0.6666667 199.1333
vt 0.6666667 197.3192
vt 1 199.1333
vt 1 197.3192
vt 0 199.1333
vt 0 200.9474
vt 0.3333333 200.9474
vt 0.3333333 199.1333
vt 0.6666667 200.9474
vt 0.6666667 199.1333
vt 1 200.9474
vt 1 199.1333
vt 0 200.9474
vt 0 202.7615
vt 0.3333333 202.7615
vt 0.3333333 200.9474
vt 0.6666667 202.7615
vt 0.6666667 200.9474
vt 1 202.7615
vt 1 200.9474
vt 0 202.7615
vt 0 204.5756
vt 0.3333333 202.7615
vt 0.3333333 204.5756
vt 0.6666667 202.7615
vt 0.6666667 204.5756
vt 1 202.7615
vt 1 204.5756
vt 0 204.5756
vt 0 206.3898
vt 0.3333333 204.5756
vt 0.3333333 206.3898
vt 0.6666667 204.5756
vt 0.6666667 206.3898
vt 1 204.5756
vt 1 206.3898
vt 0 206.3898
vt 0 208.2039
vt 0.3333333 206.3898
vt 0.3333333 208.2039
vt 0.6666667 206.3898
vt 0.6666667 208.2039
vt 1 206.3898
vt 1 208.2039
vt 0 208.2039
vt 0 210.018
vt 0.3333333 208.2039
vt 0.3333333 210.018
vt 0.6666667 208.2039
vt 0.6666667 210.018
vt 1 208.2039
vt 1 210.018
vt 0 210.018
vt 0 211.8321
vt 0.3333333 210.018
vt 0.3333333 211.8321
vt 0.6666667 210.018
vt 0.6666667 211.8321
vt 1 210.018
vt 1 211.8321
vt 0 211.8321
vt 0 213.6462
vt 0.3333333 211.8321
vt 0.3333333 213.6462
vt 0.6666667 211.8321
vt 0.6666667 213.6462
vt 1 211.8321
vt 1 213.6462
vt 0 213.6462
vt 0 215.4603
vt 0.3333333 213.6462
vt 0.3333333 215.4603
vt 0.6666667 213.6462
vt 0.6666667 215.4603
vt 1 213.6462
vt 1 215.4603
vt 0 215.4603
vt 0 217.2744
vt 0.3333333 215.4603
vt 0.3333333 217.2744
vt 0.6666667 215.4603
vt 0.6666667 217.2744
vt 1 215.4603
vt 1 217.2744
vt 0 217.2744
vt 0 219.0885
vt 0.3333333 217.2744
vt 0.3333333 219.0885
vt 0.6666667 217.2744
vt 0.6666667 219.0885
vt 1 217.2744
vt 1 219.0885
vt 0 219.0885
vt 0 220.9027
vt 0.3333333 219.0885
vt 0.3333333 220.9027
vt 0.6666667 219.0885
vt 0.6666667 220.9027
vt 1 219.0885
vt 1 220.9027
vt 0 220.9027
vt 0 222.7168
vt 0.3333333 220.9027
vt 0.3333333 222.7168
vt 0.6666667 220.9027
vt 0.6666667 222.7168
vt 1 220.9027
vt 1 222.7168
vt 0 222.7168
vt 0 224.5309
vt 0.3333333 224.5309
vt 0.3333333 222.7168
vt 0.6666667 224.5309
vt 0.6666667 222.7168
vt 1 224.5309
vt 1 222.7168
vt 0 224.5309
vt 0 226.345
vt 0.3333333 226.345
vt 0.3333333 224.5309
vt 0.6666667 226.345
vt 0.6666667 224.5309
vt 1 226.345
vt 1 224.5309
vt 0 226.345
vt 0 228.1591
vt 0.3333333 228.1591
vt 0.3333333 226.345
vt 0.6666667 228.1591
vt 0.6666667 226.345
vt 1 228.1591
vt 1 226.345
vt 0 228.1591
vt 0 229.9732
vt 0.3333333 229.9732
vt 0.3333333 228.1591
vt 0.6666667 229.9732
vt 0.6666667 228.1591
vt 1 229.9732
vt 1 228.1591

g Track Texture
usemtl Track Texture
usemap Track Texture
f 2/2/2 1/1/1 3/3/3
f 3/3/3 1/1/1 4/4/4
f 3/3/3 4/4/4 5/5/5
f 5/5/5 4/4/4 6/6/6
f 5/5/5 6/6/6 7/7/7
f 7/7/7 6/6/6 8/8/8
f 10/10/10 9/9/9 11/11/11
f 11/11/11 9/9/9 12/12/12
f 11/11/11 12/12/12 13/13/13
f 13/13/13 12/12/12 14/14/14
f 13/13/13 14/14/14 15/15/15
f 15/15/15 14/14/14 16/16/16
f 18/18/18 17/17/17 19/19/19
f 19/19/19 17/17/17 20/20/20
f 19/19/19 20/20/20 21/21/21
f 21/21/21 20/20/20 22/22/22
f 21/21/21 22/22/22 23/23/23
f 23/23/23 22/22/22 24/24/24
f 26/26/26 25/25/25 27/27/27
f 27/27/27 25/25/25 28/28/28
f 27/27/27 28/28/28 29/29/29
f 29/29/29 28/28/28 30/30/30
f 29/29/29 30/30/30 31/31/31
f 31/31/31 30/30/30 32/32/32
f 34/34/34 33/33/33 35/35/35
f 35/35/35 33/33/33 36/36/36
f 35/35/35 36/36/36 37/37/37
f 37/37/37 36/36/36 38/38/38
f 37/37/37 38/38/38 39/39/39
f 39/39/39 38/38/38 40/40/40
f 42/42/42 41/41/41 43/43/43
f 43/43/43 41/41/41 44/44/44
f 43/43/43 44/44/44 45/45/45
f 45/45/45 44/44/44 46/46/46
f 45/45/45 46/46/46 47/47/47
f 47/47/47 46/46/46 48/48/48
f 50/50/50 49/49/49 51/51/51
f 50/50/50 51/51/51 52/52/52
f 52/52/52 51/51/51 53/53/53
f 52/52/52 53/53/53 54/54/54
f 54/54/54 53/53/53 55/55/55
f 54/54/54 55/55/55 56/56/56
f 58/58/58 57/57/57 59/59/59
f 58/58/58 59/59/59 60/60/60
f 60/60/60 59/59/59 61/61/61
f 60/60/60 61/61/61 62/62/62
f 62/62/62 61/61/61 63/63/63
f 62/62/62 63/63/63 64/64/64
f 66/66/66 65/65/65 67/67/67
f 66/66/66 67/67/67 68/68/68
f 68/68/68 67/67/67 69/69/69
f 68/68/68 69/69/69 70/70/70
f 70/70/70 69/69/69 71/71/71
f 70/70/70 71/71/71 72/72/72
f 74/74/74 73/73/73 75/75/75
f 74/74/74 75/75/75 76/76/76
f 76/76/76 75/75/75 77/77/77
f 76/76/76 77/77/77 78/78/78
f 78/78/78 77/77/77 79/79/79
f 78/78/78 79/79/79 80/80/80
f 82/82/82 81/81/81 83/83/83
f 82/82/82 83/83/83 84/84/84
f 84/84/84 83/83/83 85/85/85
f 84/84/84 85/85/85 86/86/86
f 86/86/86 85/85/85 87/87/87
f 86/86/86 87/87/87 88/88/88
f 90/90/90 89/89/89 91/91/91
f 90/90/90 91/91/91 92/92/92
f 92/92/92 91/91/91 93/93/93
f 92/92/92 93/93/93 94/94/94
f 94/94/94 93/93/93 95/95/95
f 94/94/94 95/95/95 96/96/96
f 98/98/98 97/97/97 99/99/99
f 98/98/98 99/99/99 100/100/100
f 100/100/100 99/99/99 101/101/101
f 100/100/100 101/101/101 102/102/102
f 102/102/102 101/101/101 103/103/103
f 102/102/102 103/103/103 104/104/104
f 106/106/106 105/105/105 107/107/107
f 106/106/106 107/107/107 108/108/108
f 108/108/108 107/107/107 109/109/109
f 108/108/108 109/109/109 110/110/110
f 110/110/110 109/109/109 111/111/111
f 110/110/110 111/111/111 112/112/112
f 114/114/114 113/113/113 115/115/115
f 114/114/114 115/115/115 116/116/116
f 116/116/116 115/115/115 117/117/117
f 116/116/116 117/117/117 118/118/118
f 118/118/118 117/117/117 119/119/119
f 118/118/118 119/119/119 120/120/120
f 122/122/122 121/121/121 123/123/123
f 122/122/122 123/123/123 124/124/124
f 124/124/124 123/123/123 125/125/125
f 124/124/124 125/125/125 126/126/126
f 126/126/126 125/125/125 127/127/127
f 126/126/126 127/127/127 128/128/128
f 130/130/130 129/129/129 131/131/131
f 130/130/130 131/131/131 132/132/132
f 132/132/132 131/131/131 133/133/133
f 132/132/132 133/133/133 134/134/134
f 134/134/134 133/133/133 135/135/135
f 134/134/134 135/135/135 136/136/136
f 138/138/138 137/137/137 139/139/139
f 139/139/139 137/137/137 140/140/140
f 139/139/139 140/140/140 141/141/141
f 141/141/141 140/140/140 142/142/142
f 141/141/141 142/142/142 143/143/143
f 143/143/143 142/142/142 144/144/144
f 146/146/146 145/145/145 147/147/147
f 147/147/147 145/145/145 148/148/148
f 147/147/147 148/148/148 149/149/149
f 149/149/149 148/148/148 150/150/150
f 149/149/149 150/150/150 151/151/151
f 151/151/151 150/150/150 152/152/152
f 154/154/154 153/153/153 155/155/155
f 155/155/155 153/153/153 156/156/156
f 155/155/155 156/156/156 157/157/157
f 157/157/157 156/156/156 158/158/158
f 157/157/157 158/158/158 159/159/159
f 159/159/159 158/158/158 160/160/160
f 162/162/162 161/161/161 163/163/163
f 163/163/163 161/161/161 164/164/164
f 163/163/163 164/164/164 165/165/165
f 165/165/165 164/164/164 166/166/166
f 165/165/165 166/166/166 167/167/167
f 167/167/167 166/166/166 168/168/168
