mtllib ./Track1_track_0.mtl
# Unity Asset Buildr OBJ Exporter
 http://buildr.jasperstocker.com
g Track1_track_0
v -86.68003 9.360485E-08 -34.08393
v -86.91831 -1.213596E-07 -36.3479
v -81.70846 3.120162E-08 -34.61634
v -81.94432 -4.045321E-08 -36.85724
v -76.97034 4.045322E-08 -37.36658
v -76.73689 -3.120162E-08 -35.14876
v -71.99635 1.213596E-07 -37.87592
v -71.76531 -9.360485E-08 -35.68118
v -86.91831 -1.213596E-07 -36.3479
v -87.11709 -1.052516E-06 -38.35445
v -82.13859 -3.508387E-07 -38.81761
v -81.94432 -4.045321E-08 -36.85724
v -76.97034 4.045322E-08 -37.36658
v -77.16009 3.508387E-07 -39.28078
v -72.18159 1.052516E-06 -39.74394
v -71.99635 1.213596E-07 -37.87592
v -87.11709 -1.052516E-06 -38.35445
v -87.28937 -2.154102E-06 -40.34247
v -82.30433 -7.180338E-07 -40.72892
v -82.13859 -3.508387E-07 -38.81761
v -77.16009 3.508387E-07 -39.28078
v -77.31928 7.18034E-07 -41.11538
v -72.33424 2.154102E-06 -41.50183
v -72.18159 1.052516E-06 -39.74394
v -87.28937 -2.154102E-06 -40.34247
v -87.43379 -3.145569E-06 -42.45045
v -82.30433 -7.180338E-07 -40.72892
v -82.44163 -1.048523E-06 -42.73027
v -77.44947 1.048523E-06 -43.01009
v -77.31928 7.18034E-07 -41.11538
v -72.45731 3.145569E-06 -43.28991
v -72.33424 2.154102E-06 -41.50183
v -87.43379 -3.145569E-06 -42.45045
v -87.5299 -4.390627E-06 -44.65884
v -82.53175 -1.463542E-06 -44.79463
v -82.44163 -1.048523E-06 -42.73027
v -77.44947 1.048523E-06 -43.01009
v -77.53359 1.463542E-06 -44.93042
v -72.53544 4.390627E-06 -45.0662
v -72.45731 3.145569E-06 -43.28991
v -87.5299 -4.390627E-06 -44.65884
v -87.55373 -5.485855E-06 -46.94899
v -82.53175 -1.463542E-06 -44.79463
v -82.55402 -1.828618E-06 -46.89507
v -77.53359 1.463542E-06 -44.93042
v -77.55431 1.828619E-06 -46.84113
v -72.53544 4.390627E-06 -45.0662
v -72.5546 5.485855E-06 -46.7872
v -87.55373 -5.485855E-06 -46.94899
v -87.47589 -7.145323E-06 -49.30846
v -82.48503 -2.381774E-06 -49.0063
v -82.55402 -1.828618E-06 -46.89507
v -77.49417 2.381775E-06 -48.70413
v -77.55431 1.828619E-06 -46.84113
v -72.50331 7.145323E-06 -48.40196
v -72.5546 5.485855E-06 -46.7872
v -87.47589 -7.145323E-06 -49.30846
v -87.25731 -8.795439E-06 -51.73248
v -82.48503 -2.381774E-06 -49.0063
v -82.29688 -2.931813E-06 -51.10461
v -77.49417 2.381775E-06 -48.70413
v -77.33646 2.931813E-06 -50.47673
v -72.50331 7.145323E-06 -48.40196
v -72.37604 8.795439E-06 -49.84886
v -87.25731 -8.795439E-06 -51.73248
v -86.83222 -1.047129E-05 -54.26532
v -81.95117 -3.490429E-06 -53.18116
v -82.29688 -2.931813E-06 -51.10461
v -77.07013 3.490429E-06 -52.097
v -77.33646 2.931813E-06 -50.47673
v -72.18908 1.047129E-05 -51.01285
v -72.37604 8.795439E-06 -49.84886
v -86.83222 -1.047129E-05 -54.26532
v -86.02465 -1.363797E-05 -57.11736
v -81.33334 -4.545989E-06 -55.38774
v -81.95117 -3.490429E-06 -53.18116
v -76.64202 4.54599E-06 -53.65813
v -77.07013 3.490429E-06 -52.097
v -71.95071 1.363797E-05 -51.92851
v -72.18908 1.047129E-05 -51.01285
v -86.02465 -1.363797E-05 -57.11736
v -84.51058 -1.918966E-05 -60.30101
v -81.33334 -4.545989E-06 -55.38774
v -80.2718 -6.396552E-06 -57.64909
v -76.64202 4.54599E-06 -53.65813
v -76.03301 6.396554E-06 -54.99715
v -71.95071 1.363797E-05 -51.92851
v -71.79423 1.918966E-05 -52.34523
v -84.51058 -1.918966E-05 -60.30101
v -82.30246 -2.368019E-05 -63.05842
v -78.70518 -7.893397E-06 -59.58574
v -80.2718 -6.396552E-06 -57.64909
v -75.10789 7.893399E-06 -56.11305
v -76.03301 6.396554E-06 -54.99715
v -71.5106 2.368019E-05 -52.64037
v -71.79423 1.918966E-05 -52.34523
v -82.30246 -2.368019E-05 -63.05842
v -81.21436 -2.493743E-05 -63.93393
v -78.70518 -7.893397E-06 -59.58574
v -77.81093 -8.312476E-06 -60.27106
v -74.4075 8.312478E-06 -56.60818
v -75.10789 7.893399E-06 -56.11305
v -71.5106 2.368019E-05 -52.64037
v -71.00407 2.493743E-05 -52.94531

vn 2.357071E-09 1 -9.519835E-08
vn -8.431852E-09 1 -6.273695E-08
vn -5.152976E-09 1 -3.143364E-08
vn -1.93319E-08 0.9999999 -2.994124E-08
vn -5.48722E-09 1 1.130995E-08
vn 8.550159E-09 1 5.313529E-08
vn 4.88942E-09 1 6.444073E-08
vn 2.278427E-08 1 9.554687E-08
vn -1.081667E-07 1 -3.022564E-07
vn -1.824326E-07 1 -4.45986E-07
vn -9.320058E-08 1 -1.49094E-07
vn -3.215267E-08 1 -1.551436E-07
vn -6.218536E-08 1 1.683134E-07
vn -1.247063E-07 1 1.745108E-07
vn -4.610983E-08 1 3.328288E-07
vn 3.442816E-08 1 4.950575E-07
vn -2.448667E-07 1 -3.554481E-07
vn -3.288225E-07 1 -5.256161E-07
vn -2.292439E-07 1 -1.72238E-07
vn -1.575437E-07 0.9999999 -1.784553E-07
vn -1.960389E-07 1 2.171612E-07
vn -2.70738E-07 1 2.236431E-07
vn -1.78373E-07 1 4.243318E-07
vn -8.198023E-08 1 6.337718E-07
vn -3.228228E-07 0.9999999 -4.482228E-07
vn -3.738896E-07 1 -2.96064E-07
vn -3.63481E-07 1 -1.401969E-07
vn -4.276792E-07 1 -1.357933E-07
vn -3.708952E-07 1 8.254266E-08
vn -3.097711E-07 1 3.17566E-07
vn -3.286387E-07 1 3.815545E-07
vn -2.437896E-07 1 5.712663E-07
vn -5.181235E-07 1 -3.659442E-07
vn -6.002397E-07 1 -5.376623E-07
vn -5.103367E-07 1 -1.787622E-07
vn -4.302836E-07 1 -1.822565E-07
vn -4.93011E-07 1 2.377162E-07
vn -5.790726E-07 1 2.414854E-07
vn -4.833353E-07 0.9999999 4.702937E-07
vn -3.798427E-07 1 7.176372E-07
vn -5.984562E-07 0.9999999 -4.720082E-07
vn -6.612391E-07 1 -3.256566E-07
vn -6.382459E-07 1 -2.744938E-07
vn -6.829786E-07 1 -5.244275E-08
vn -6.332685E-07 1 6.846047E-08
vn -6.822539E-07 1 3.368039E-07
vn -6.552217E-07 1 4.092905E-07
vn -7.384427E-07 1 6.446091E-07
vn -8.242682E-07 1 -5.219857E-07
vn -9.100551E-07 1 -7.333436E-07
vn -8.603424E-07 1 -4.484162E-07
vn -8.025227E-07 1 -1.170232E-07
vn -8.82951E-07 1 6.613648E-08
vn -8.191689E-07 1 4.915507E-07
vn -8.645629E-07 1 6.085237E-07
vn -7.423204E-07 1 1.004113E-06
vn -9.082814E-07 1 -7.626394E-07
vn -1.013928E-06 1 -5.777007E-07
vn -9.884411E-07 1 -5.04211E-07
vn -1.086118E-06 1 -1.893096E-07
vn -1.030476E-06 0.9999999 5.515863E-09
vn -1.152773E-06 0.9999999 4.486838E-07
vn -1.122502E-06 1 5.840236E-07
vn -1.311829E-06 1 1.02506E-06
vn -1.186299E-06 0.9999999 -6.831391E-07
vn -1.237117E-06 1 -8.692729E-07
vn -1.2283E-06 1 -6.22871E-07
vn -1.216698E-06 1 -2.985969E-07
vn -1.324982E-06 1 -1.138253E-07
vn -1.329799E-06 1 4.168702E-07
vn -1.404956E-06 0.9999999 5.737988E-07
vn -1.337134E-06 1 1.224976E-06
vn -1.32407E-06 1 -1.207758E-06
vn -1.384184E-06 1 -1.502263E-06
vn -1.406836E-06 1 -1.122106E-06
vn -1.439287E-06 1 -5.775121E-07
vn -1.679383E-06 1 -2.664636E-07
vn -1.814857E-06 1 8.150947E-07
vn -2.020377E-06 1 1.16106E-06
vn -2.07818E-06 1 2.917333E-06
vn -1.101922E-06 1 -2.267855E-06
vn -1.4477E-06 1 -2.044252E-06
vn -1.432207E-06 1 -1.87663E-06
vn -1.973459E-06 1 -1.235512E-06
vn -2.023303E-06 1 -5.591103E-07
vn -3.419141E-06 1 1.471263E-06
vn -3.722901E-06 1 2.592876E-06
vn -9.193354E-06 1 9.870384E-06
vn -1.627419E-06 1 -2.58422E-06
vn -1.588443E-06 1 -2.900558E-06
vn -1.749802E-06 0.9999999 -2.538276E-06
vn -2.016235E-06 1 -1.940086E-06
vn -2.477322E-06 1 -1.671572E-06
vn -3.457173E-06 1 4.236793E-08
vn -4.171035E-06 1 6.701835E-07
vn -7.829717E-06 1 7.690774E-06
vn -1.36482E-06 1 -3.132205E-06
vn -1.540676E-06 1 -3.030725E-06
vn -1.719537E-06 1 -2.855243E-06
vn -1.757929E-06 1 -2.905358E-06
vn -2.249362E-06 1 -2.33543E-06
vn -2.200602E-06 0.9999999 -2.266431E-06
vn -2.66607E-06 0.9999999 -1.926596E-06
vn -3.343919E-06 0.9999999 -1.4317E-06

vt 0 0
vt 0 1.757605
vt 0.3333333 0
vt 0.3333333 1.757605
vt 0.6666667 1.757605
vt 0.6666667 0
vt 1 1.757605
vt 1 0
vt 0 1.757605
vt 0 3.515209
vt 0.3333333 3.515209
vt 0.3333333 1.757605
vt 0.6666667 1.757605
vt 0.6666667 3.515209
vt 1 3.515209
vt 1 1.757605
vt 0 3.515209
vt 0 5.272814
vt 0.3333333 5.272814
vt 0.3333333 3.515209
vt 0.6666667 3.515209
vt 0.6666667 5.272814
vt 1 5.272814
vt 1 3.515209
vt 0 5.272814
vt 0 7.030419
vt 0.3333333 5.272814
vt 0.3333333 7.030419
vt 0.6666667 7.030419
vt 0.6666667 5.272814
vt 1 7.030419
vt 1 5.272814
vt 0 7.030419
vt 0 8.788023
vt 0.3333333 8.788023
vt 0.3333333 7.030419
vt 0.6666667 7.030419
vt 0.6666667 8.788023
vt 1 8.788023
vt 1 7.030419
vt 0 8.788023
vt 0 10.54563
vt 0.3333333 8.788023
vt 0.3333333 10.54563
vt 0.6666667 8.788023
vt 0.6666667 10.54563
vt 1 8.788023
vt 1 10.54563
vt 0 10.54563
vt 0 12.30323
vt 0.3333333 12.30323
vt 0.3333333 10.54563
vt 0.6666667 12.30323
vt 0.6666667 10.54563
vt 1 12.30323
vt 1 10.54563
vt 0 12.30323
vt 0 14.06084
vt 0.3333333 12.30323
vt 0.3333333 14.06084
vt 0.6666667 12.30323
vt 0.6666667 14.06084
vt 1 12.30323
vt 1 14.06084
vt 0 14.06084
vt 0 15.81844
vt 0.3333333 15.81844
vt 0.3333333 14.06084
vt 0.6666667 15.81844
vt 0.6666667 14.06084
vt 1 15.81844
vt 1 14.06084
vt 0 15.81844
vt 0 17.57605
vt 0.3333333 17.57605
vt 0.3333333 15.81844
vt 0.6666667 17.57605
vt 0.6666667 15.81844
vt 1 17.57605
vt 1 15.81844
vt 0 17.57605
vt 0 19.33365
vt 0.3333333 17.57605
vt 0.3333333 19.33365
vt 0.6666667 17.57605
vt 0.6666667 19.33365
vt 1 17.57605
vt 1 19.33365
vt 0 19.33365
vt 0 21.09126
vt 0.3333333 21.09126
vt 0.3333333 19.33365
vt 0.6666667 21.09126
vt 0.6666667 19.33365
vt 1 21.09126
vt 1 19.33365
vt 0 21.09126
vt 0 22.84886
vt 0.3333333 21.09126
vt 0.3333333 22.84886
vt 0.6666667 22.84886
vt 0.6666667 21.09126
vt 1 21.09126
vt 1 22.84886

g Track Texture
usemtl Track Texture
usemap Track Texture
f 2/2/2 1/1/1 3/3/3
f 2/2/2 3/3/3 4/4/4
f 4/4/4 3/3/3 5/5/5
f 5/5/5 3/3/3 6/6/6
f 5/5/5 6/6/6 7/7/7
f 7/7/7 6/6/6 8/8/8
f 10/10/10 9/9/9 11/11/11
f 11/11/11 9/9/9 12/12/12
f 11/11/11 12/12/12 13/13/13
f 11/11/11 13/13/13 14/14/14
f 14/14/14 13/13/13 15/15/15
f 15/15/15 13/13/13 16/16/16
f 18/18/18 17/17/17 19/19/19
f 19/19/19 17/17/17 20/20/20
f 19/19/19 20/20/20 21/21/21
f 19/19/19 21/21/21 22/22/22
f 22/22/22 21/21/21 23/23/23
f 23/23/23 21/21/21 24/24/24
f 26/26/26 25/25/25 27/27/27
f 26/26/26 27/27/27 28/28/28
f 28/28/28 27/27/27 29/29/29
f 29/29/29 27/27/27 30/30/30
f 29/29/29 30/30/30 31/31/31
f 31/31/31 30/30/30 32/32/32
f 34/34/34 33/33/33 35/35/35
f 35/35/35 33/33/33 36/36/36
f 35/35/35 36/36/36 37/37/37
f 35/35/35 37/37/37 38/38/38
f 38/38/38 37/37/37 39/39/39
f 39/39/39 37/37/37 40/40/40
f 42/42/42 41/41/41 43/43/43
f 42/42/42 43/43/43 44/44/44
f 44/44/44 43/43/43 45/45/45
f 44/44/44 45/45/45 46/46/46
f 46/46/46 45/45/45 47/47/47
f 46/46/46 47/47/47 48/48/48
f 50/50/50 49/49/49 51/51/51
f 51/51/51 49/49/49 52/52/52
f 51/51/51 52/52/52 53/53/53
f 53/53/53 52/52/52 54/54/54
f 53/53/53 54/54/54 55/55/55
f 55/55/55 54/54/54 56/56/56
f 58/58/58 57/57/57 59/59/59
f 58/58/58 59/59/59 60/60/60
f 60/60/60 59/59/59 61/61/61
f 60/60/60 61/61/61 62/62/62
f 62/62/62 61/61/61 63/63/63
f 62/62/62 63/63/63 64/64/64
f 66/66/66 65/65/65 67/67/67
f 67/67/67 65/65/65 68/68/68
f 67/67/67 68/68/68 69/69/69
f 69/69/69 68/68/68 70/70/70
f 69/69/69 70/70/70 71/71/71
f 71/71/71 70/70/70 72/72/72
f 74/74/74 73/73/73 75/75/75
f 75/75/75 73/73/73 76/76/76
f 75/75/75 76/76/76 77/77/77
f 77/77/77 76/76/76 78/78/78
f 77/77/77 78/78/78 79/79/79
f 79/79/79 78/78/78 80/80/80
f 82/82/82 81/81/81 83/83/83
f 82/82/82 83/83/83 84/84/84
f 84/84/84 83/83/83 85/85/85
f 84/84/84 85/85/85 86/86/86
f 86/86/86 85/85/85 87/87/87
f 86/86/86 87/87/87 88/88/88
f 90/90/90 89/89/89 91/91/91
f 91/91/91 89/89/89 92/92/92
f 91/91/91 92/92/92 93/93/93
f 93/93/93 92/92/92 94/94/94
f 93/93/93 94/94/94 95/95/95
f 95/95/95 94/94/94 96/96/96
f 98/98/98 97/97/97 99/99/99
f 98/98/98 99/99/99 100/100/100
f 100/100/100 99/99/99 101/101/101
f 101/101/101 99/99/99 102/102/102
f 101/101/101 102/102/102 103/103/103
f 101/101/101 103/103/103 104/104/104
