mtllib ./Track1_trackCollider_4.mtl
# Unity Asset Buildr OBJ Exporter
 http://buildr.jasperstocker.com
g Track1_trackCollider_4
v -8.401651 0.009442247 -84.0714
v -10.22452 -2.264204E-06 -83.48041
v -10.22452 4.999997 -83.48041
v -8.400521 5.009438 -84.06515
v -5.604715 2.264204E-06 -69.20955
v -3.694784 -0.009442247 -69.82903
v -5.604716 5.000002 -69.20955
v -3.693654 4.990553 -69.82278
v -6.711263 0.03626591 -84.64103
v -8.401651 0.009442247 -84.0714
v -8.400521 5.009438 -84.06515
v -6.706964 5.036206 -84.61694
v -3.694784 -0.009442247 -69.82903
v -1.844315 -0.03626591 -70.45275
v -3.693654 4.990553 -69.82278
v -1.840016 4.963674 -70.42867
v -5.01484 0.08103614 -85.23277
v -6.711263 0.03626591 -84.64103
v -6.706964 5.036206 -84.61694
v -5.005401 5.080736 -85.17879
v -1.844315 -0.03626591 -70.45275
v -0.0001823902 -0.08103614 -71.09678
v -1.840016 4.963674 -70.42867
v 0.009257048 4.918664 -71.04281
v -3.315986 0.1441494 -85.84412
v -5.01484 0.08103614 -85.23277
v -5.005401 5.080736 -85.17879
v -3.299629 5.143194 -85.74777
v -0.0001823902 -0.08103614 -71.09678
v 1.836004 -0.1441494 -71.75969
v 0.009257048 4.918664 -71.04281
v 1.852361 4.854895 -71.66335
v -1.615568 0.2258199 -86.47298
v -3.315986 0.1441494 -85.84412
v -3.299629 5.143194 -85.74777
v -1.590847 5.223463 -86.32143
v 1.836004 -0.1441494 -71.75969
v 3.660344 -0.2258199 -72.439
v 1.852361 4.854895 -71.66335
v 3.685066 4.771822 -72.28745
v 0.08598804 0.3260803 -87.11671
v -1.615568 0.2258199 -86.47298
v -1.590847 5.223463 -86.32143
v 0.1200515 5.321129 -86.89689
v 3.660344 -0.2258199 -72.439
v 5.468915 -0.3260803 -73.13177
v 3.685066 4.771822 -72.28745
v 5.502978 4.668968 -72.91195
v 1.788846 0.4447573 -87.77232
v 0.08598804 0.3260803 -87.11671
v 0.1200515 5.321129 -86.89689
v 1.83261 5.435476 -87.47098
v 5.468915 -0.3260803 -73.13177
v 7.257808 -0.4447573 -73.83474
v 5.502978 4.668968 -72.91195
v 7.301572 4.545961 -73.5334
v 3.493495 0.581476 -88.43607
v 1.788846 0.4447573 -87.77232
v 1.83261 5.435476 -87.47098
v 3.546558 5.565479 -88.03996
v 7.257808 -0.4447573 -73.83474
v 9.023275 -0.581476 -74.54419
v 7.301572 4.545961 -73.5334
v 9.076339 4.402526 -74.14808
v 5.243412 0.7396138 -89.12031
v 3.493495 0.581476 -88.43607
v 3.546558 5.565479 -88.03996
v 5.304647 5.713492 -88.61357
v 9.023275 -0.581476 -74.54419
v 10.80189 -0.7396138 -75.27262
v 9.076339 4.402526 -74.14808
v 10.86312 4.234264 -74.76588
v 6.996802 0.915067 -89.80293
v 5.243412 0.7396138 -89.12031
v 5.304647 5.713492 -88.61357
v 7.063754 5.874695 -89.17237
v 10.80189 -0.7396138 -75.27262
v 12.54557 -0.915067 -75.99741
v 10.86312 4.234264 -74.76588
v 12.61252 4.04456 -75.36684
v 8.757638 1.106878 -90.47853
v 6.996802 0.915067 -89.80293
v 7.063754 5.874695 -89.17237
v 8.826672 6.047227 -89.7116
v 12.54557 -0.915067 -75.99741
v 14.24938 -1.106878 -76.71248
v 12.61252 4.04456 -75.36684
v 14.31842 3.833472 -75.94555
v 10.56848 1.318668 -91.15481
v 8.757638 1.106878 -90.47853
v 8.826672 6.047227 -89.7116
v 10.6346 6.233182 -90.23656
v 14.24938 -1.106878 -76.71248
v 15.94559 -1.318668 -77.42678
v 14.31842 3.833472 -75.94555
v 16.01172 3.595847 -76.50854
v 12.43273 1.549924 -91.82184
v 10.56848 1.318668 -91.15481
v 10.6346 6.233182 -90.23656
v 12.48927 6.430758 -90.7382
v 15.94559 -1.318668 -77.42678
v 17.62435 -1.549924 -78.1306
v 16.01172 3.595847 -76.50854
v 17.6809 3.33091 -77.04697
v 14.35387 1.799861 -92.46697
v 12.43273 1.549924 -91.82184
v 12.48927 6.430758 -90.7382
v 14.39243 6.637919 -91.20535
v 17.62435 -1.549924 -78.1306
v 19.27724 -1.799861 -78.81335
v 17.6809 3.33091 -77.04697
v 19.3158 3.038196 -77.55172
v 16.30598 2.06301 -93.06654
v 14.35387 1.799861 -92.46697
v 14.39243 6.637919 -91.20535
v 16.31712 6.849209 -91.6201
v 19.27724 -1.799861 -78.81335
v 20.85847 -2.06301 -79.44875
v 19.3158 3.038196 -77.55172
v 20.86961 2.72319 -78.00232
v 18.36371 2.347906 -93.62302
v 16.30598 2.06301 -93.06654
v 16.31712 6.849209 -91.6201
v 18.33548 7.070349 -91.98055
v 20.85847 -2.06301 -79.44875
v 22.42998 -2.347906 -80.05178
v 20.86961 2.72319 -78.00232
v 22.40176 2.374536 -78.4093
v 20.50266 2.648631 -94.10406
v 18.36371 2.347906 -93.62302
v 18.33548 7.070349 -91.98055
v 20.42256 7.296048 -92.26148
v 22.42998 -2.347906 -80.05178
v 23.94509 -2.648631 -80.59348
v 22.40176 2.374536 -78.4093
v 23.86499 1.998786 -78.75089
v 22.72742 2.962377 -94.48216
v 20.50266 2.648631 -94.10406
v 20.42256 7.296048 -92.26148
v 22.5826 7.523862 -92.43964
v 23.94509 -2.648631 -80.59348
v 25.39956 -2.962377 -81.06113
v 23.86499 1.998786 -78.75089
v 25.25474 1.599108 -79.01861
v 25.04425 3.284555 -94.72571
v 22.72742 2.962377 -94.48216
v 22.5826 7.523862 -92.43964
v 24.82244 7.750417 -92.48811
v 25.39956 -2.962377 -81.06113
v 26.78792 -3.284555 -81.44208
v 25.25474 1.599108 -79.01861
v 26.5661 1.181307 -79.20448
v 27.47016 3.609417 -94.79631
v 25.04425 3.284555 -94.72571
v 24.82244 7.750417 -92.48811
v 27.1593 7.970465 -92.37048
v 26.78792 -3.284555 -81.44208
v 28.15345 -3.609417 -81.73102
v 26.5661 1.181307 -79.20448
v 27.84259 0.7516315 -79.30519
v 29.93709 3.915431 -94.65694
v 27.47016 3.609417 -94.79631
v 27.1593 7.970465 -92.37048
v 29.53088 8.169003 -92.06038
v 28.15345 -3.609417 -81.73102
v 29.44532 -3.915431 -81.90571
v 27.84259 0.7516315 -79.30519
v 29.03911 0.33814 -79.30914
v 32.43211 4.188436 -94.27893
v 29.93709 3.915431 -94.65694
v 29.53088 8.169003 -92.06038
v 31.92683 8.33416 -91.52981
v 29.44532 -3.915431 -81.90571
v 30.74127 -4.188436 -81.95723
v 29.03911 0.33814 -79.30914
v 30.23599 -0.04271269 -79.20811
v 34.87244 4.406827 -93.66332
v 32.43211 4.188436 -94.27893
v 31.92683 8.33416 -91.52981
v 34.27179 8.45162 -90.78602
v 30.74127 -4.188436 -81.95723
v 32.0219 -4.406827 -81.86851
v 30.23599 -0.04271269 -79.20811
v 31.42125 -0.3620334 -78.9912
v 37.20352 4.561172 -92.83572
v 34.87244 4.406827 -93.66332
v 34.27179 8.45162 -90.78602
v 36.51652 8.516588 -89.85532
v 32.0219 -4.406827 -81.86851
v 33.30928 -4.561172 -81.62667
v 31.42125 -0.3620334 -78.9912
v 32.62229 -0.6057553 -78.64628
v 39.39788 4.652017 -91.83613
v 37.20352 4.561172 -92.83572
v 36.51652 8.516588 -89.85532
v 38.63755 8.53281 -88.7765
v 33.30928 -4.561172 -81.62667
v 34.605 -4.652017 -81.22607
v 32.62229 -0.6057553 -78.64628
v 33.84467 -0.7712243 -78.16644
v 41.46555 4.689042 -90.69678
v 39.39788 4.652017 -91.83613
v 38.63755 8.53281 -88.7765
v 40.64647 8.510811 -87.57858
v 34.605 -4.652017 -81.22607
v 35.92847 -4.689042 -80.65716
v 33.84467 -0.7712243 -78.16644
v 35.10939 -0.8672726 -77.53896
v 43.4003 4.681577 -89.46065
v 41.46555 4.689042 -90.69678
v 40.64647 8.510811 -87.57858
v 42.5386 8.460901 -86.30246
v 35.92847 -4.689042 -80.65716
v 37.25447 -4.681577 -79.93288
v 35.10939 -0.8672726 -77.53896
v 36.39277 -0.9022527 -76.77469
v 45.19627 4.638613 -88.17233
v 43.4003 4.681577 -89.46065
v 42.5386 8.460901 -86.30246
v 44.30808 8.391727 -84.9903
v 37.25447 -4.681577 -79.93288
v 38.54703 -4.638613 -79.08605
v 36.39277 -0.9022527 -76.77469
v 37.65884 -0.885499 -75.90403
v 46.83724 4.596179 -86.88239
v 45.19627 4.638613 -88.17233
v 44.30808 8.391727 -84.9903
v 45.93703 8.337429 -83.68979
v 38.54703 -4.638613 -79.08605
v 39.88594 -4.596179 -78.07034
v 37.65884 -0.885499 -75.90403
v 38.98573 -0.8549285 -74.87775
v 47.64695 4.495735 -86.21629
v 46.83724 4.596179 -86.88239
v 45.93703 8.337429 -83.68979
v 46.74572 8.235975 -83.0228
v 39.88594 -4.596179 -78.07034
v 40.23538 -4.495735 -77.77704
v 38.98573 -0.8549285 -74.87775
v 39.33414 -0.7554948 -74.58355

vn 0.3068468 -0.0006301073 0.9517587
vn 0.3084083 0 0.9512541
vn 0.3068468 -0.0006301073 0.9517587
vn 0.3052837 -0.00126049 0.9522606
vn -0.3085257 -2.942331E-08 -0.9512159
vn -0.3070299 0.0006300708 -0.9516996
vn -0.3070299 0.0006300708 -0.9516996
vn -0.3055326 0.001260435 -0.9521807
vn 0.3146131 -0.003050952 0.9492151
vn 0.3193533 -0.001257887 0.947635
vn 0.3146131 -0.003050952 0.9492151
vn 0.3098572 -0.004846536 0.9507707
vn -0.3193873 0.00125786 -0.9476234
vn -0.3150111 0.003050748 -0.9490831
vn -0.3150111 0.003050748 -0.9490831
vn -0.3106214 0.004845972 -0.9505213
vn 0.3216458 -0.007832768 0.9468277
vn 0.3294624 -0.004831528 0.9441563
vn 0.3216458 -0.007832768 0.9468277
vn 0.3137838 -0.01084128 0.9494326
vn -0.329595 0.004831405 -0.94411
vn -0.3222766 0.007831949 -0.9466131
vn -0.3222766 0.007831949 -0.9466131
vn -0.3149179 0.01083936 -0.949057
vn 0.3280159 -0.01504603 0.9445524
vn 0.3389388 -0.01079501 0.9407465
vn 0.3280159 -0.01504603 0.9445524
vn 0.3169986 -0.01931196 0.9482294
vn -0.3392254 0.01079443 -0.9406433
vn -0.3288664 0.01504377 -0.9442565
vn -0.3288664 0.01504377 -0.9442565
vn -0.3184216 0.01930741 -0.9477524
vn 0.3335848 -0.02473925 0.9423954
vn 0.3476135 -0.01920423 0.9374412
vn 0.3335848 -0.02473925 0.9423954
vn 0.3193907 -0.03029985 0.9471385
vn -0.3481316 0.0192022 -0.937249
vn -0.3346338 0.02473433 -0.9420236
vn -0.3346338 0.02473433 -0.9420236
vn -0.3209814 0.03029141 -0.946601
vn 0.3381183 -0.03693733 0.9403785
vn 0.3552369 -0.03008763 0.934292
vn 0.3381183 -0.03693733 0.9403785
vn 0.3207374 -0.04382628 0.9461537
vn -0.3560918 0.03008199 -0.9339666
vn -0.3393516 0.03692807 -0.9399344
vn -0.3393516 0.03692807 -0.9399344
vn -0.3223586 0.04381309 -0.9456033
vn 0.3414189 -0.05164146 0.9384915
vn 0.3615888 -0.04345224 0.9313245
vn 0.3414189 -0.05164146 0.9384915
vn 0.3208617 -0.05988643 0.9452308
vn -0.362893 0.04343883 -0.9308178
vn -0.3428051 0.05162593 -0.9379869
vn -0.3428051 0.05162593 -0.9379869
vn -0.3223304 0.0598692 -0.9447321
vn 0.343158 -0.06883038 0.9367523
vn 0.3663277 -0.05928071 0.9285957
vn 0.343158 -0.06883038 0.9367523
vn 0.319446 -0.07845469 0.9443511
vn -0.3682595 0.0592516 -0.9278331
vn -0.3447091 0.06880572 -0.9361845
vn -0.3447091 0.06880572 -0.9361845
vn -0.3205955 0.07843608 -0.9439631
vn 0.3430465 -0.08872163 0.935119
vn 0.3691385 -0.07753595 0.9261345
vn 0.3430465 -0.08872163 0.935119
vn 0.3162245 -0.1000062 0.9433985
vn -0.3719509 0.07747679 -0.9250135
vn -0.3447339 0.08868503 -0.9345016
vn -0.3447339 0.08868503 -0.9345016
vn -0.3167192 0.09999552 -0.9432337
vn 0.3406253 -0.1112834 0.93359
vn 0.3695814 -0.09868106 0.9239435
vn 0.3406253 -0.1112834 0.93359
vn 0.3107204 -0.1240074 0.9423773
vn -0.3734841 0.09857029 -0.9223847
vn -0.3424514 0.1112312 -0.932928
vn -0.3424514 0.1112312 -0.932928
vn -0.3103254 0.1240184 -0.9425061
vn 0.3354485 -0.1361927 0.9321619
vn 0.367109 -0.1221927 0.9221172
vn 0.3354485 -0.1361927 0.9321619
vn 0.3025976 -0.1503363 0.9411873
vn -0.3723891 0.1219978 -0.9200234
vn -0.337356 0.1361231 -0.9314835
vn -0.337356 0.1361231 -0.9314835
vn -0.3008613 0.1503969 -0.9417342
vn 0.3269509 -0.1636441 0.9307652
vn 0.3611484 -0.147973 0.9206931
vn 0.3269509 -0.1636441 0.9307652
vn 0.291302 -0.1794851 0.9396425
vn -0.3681382 0.1476483 -0.9179728
vn -0.3288177 0.1635597 -0.9301222
vn -0.3288177 0.1635597 -0.9301222
vn -0.2875742 0.1796438 -0.9407599
vn 0.3143837 -0.1938564 0.9292915
vn 0.3509361 -0.1765439 0.9196066
vn 0.3143837 -0.1938564 0.9292915
vn 0.2761119 -0.2113622 0.937597
vn -0.3598836 0.1760352 -0.9162398
vn -0.3159081 0.1937734 -0.9287917
vn -0.3159081 0.1937734 -0.9287917
vn -0.2694413 0.2116985 -0.93946
vn 0.2968888 -0.2267442 0.9276013
vn 0.3355808 -0.2078755 0.918789
vn 0.2968888 -0.2267442 0.9276013
vn 0.2562191 -0.2458214 0.9348388
vn -0.3465775 0.2071319 -0.9148664
vn -0.2975463 0.2267022 -0.9274008
vn -0.2975463 0.2267022 -0.9274008
vn -0.2453422 0.2464513 -0.9375867
vn 0.2741496 -0.2617945 0.9253678
vn 0.3145293 -0.241873 0.9179154
vn 0.2741496 -0.2617945 0.9253678
vn 0.231587 -0.2819168 0.9310694
vn -0.3271014 0.2408922 -0.9137701
vn -0.2724171 0.2619196 -0.925844
vn -0.2724171 0.2619196 -0.925844
vn -0.2137556 0.2830571 -0.9349798
vn 0.2446191 -0.2991757 0.9223098
vn 0.2864368 -0.2777769 0.9169481
vn 0.2446191 -0.2991757 0.9223098
vn 0.2004584 -0.3207641 0.9257035
vn -0.3001635 0.2765879 -0.912908
vn -0.2393917 0.299587 -0.9235471
vn -0.2393917 0.299587 -0.9235471
vn -0.1737519 0.3225777 -0.9304589
vn 0.2076678 -0.3389009 0.9176165
vn 0.2502861 -0.3167106 0.914905
vn 0.2076678 -0.3389009 0.9176165
vn 0.1626585 -0.3612314 0.9181798
vn -0.2633217 0.3155032 -0.9116575
vn -0.1956145 0.3398885 -0.9198972
vn -0.1956145 0.3398885 -0.9198972
vn -0.1220898 0.3639873 -0.9233674
vn 0.1624656 -0.380173 0.9105347
vn 0.2052649 -0.3576563 0.911015
vn 0.1624656 -0.380173 0.9105347
vn 0.1173491 -0.4027456 0.9077584
vn -0.215341 0.3567071 -0.909059
vn -0.1403685 0.3819477 -0.9134619
vn -0.1403685 0.3819477 -0.9134619
vn -0.05876425 0.4064142 -0.9117972
vn 0.1085246 -0.4222816 0.8999449
vn 0.1506595 -0.4000221 0.9040377
vn 0.1085246 -0.4222816 0.8999449
vn 0.06428996 -0.4444805 0.8934785
vn -0.155164 0.3996178 -0.9034544
vn -0.07299621 0.424849 -0.9023164
vn -0.07299621 0.424849 -0.9023164
vn 0.01625062 0.4485475 -0.8936112
vn 0.04442076 -0.4645751 0.8844189
vn 0.08529021 -0.4429398 0.8924853
vn 0.04442076 -0.4645751 0.8844189
vn 0.00177513 -0.4860083 0.8739523
vn -0.08345778 0.4430822 -0.8925878
vn 0.003058001 0.4672753 -0.8841066
vn 0.003058001 0.4672753 -0.8841066
vn 0.0962278 0.4890795 -0.8669149
vn -0.02744984 -0.5051758 0.8625798
vn 0.01083749 -0.4854871 0.8741767
vn -0.02744984 -0.5051758 0.8625798
vn -0.06707092 -0.5245203 0.848752
vn -0.003076191 0.4859359 -0.873989
vn 0.0850561 0.5071107 -0.8576738
vn 0.0850561 0.5071107 -0.8576738
vn 0.1786889 0.525025 -0.8321173
vn -0.1062921 -0.5420664 0.8335863
vn -0.07112176 -0.5246549 0.8483389
vn -0.1062921 -0.5420664 0.8335863
vn -0.1423523 -0.5590178 0.8168445
vn 0.07685893 0.5248309 -0.8477295
vn 0.1586365 0.5423202 -0.8250597
vn 0.1586365 0.5423202 -0.8250597
vn 0.244104 0.5564247 -0.7942322
vn -0.186425 -0.5732692 0.7978773
vn -0.1554285 -0.5590253 0.8144524
vn -0.186425 -0.5732692 0.7978773
vn -0.2179073 -0.5870088 0.7797032
vn 0.1518058 0.5590332 -0.8151299
vn 0.2226096 0.572253 -0.7892854
vn 0.2226096 0.572253 -0.7892854
vn 0.2955035 0.5825215 -0.7571965
vn -0.2626058 -0.5971906 0.7578928
vn -0.2362837 -0.5862994 0.7748697
vn -0.2626058 -0.5971906 0.7578928
vn -0.2891215 -0.6076096 0.7397427
vn 0.2168975 0.5870416 -0.77996
vn 0.2733592 0.5965193 -0.7546121
vn 0.2733592 0.5965193 -0.7546121
vn 0.3308088 0.603881 -0.7251851
vn -0.3301715 -0.6137475 0.7171477
vn -0.3088409 -0.6060008 0.7330623
vn -0.3301715 -0.6137475 0.7171477
vn -0.3515269 -0.6211162 0.7004596
vn 0.2729955 0.6087223 -0.7449365
vn 0.3152726 0.6151931 -0.7225931
vn 0.3152726 0.6151931 -0.7225931
vn 0.3579294 0.6203476 -0.6978936
vn -0.3869737 -0.6239089 0.6789616
vn -0.3706124 -0.6187299 0.6926902
vn -0.3869737 -0.6239089 0.6789616
vn -0.4032915 -0.6288288 0.6647784
vn 0.3232304 0.6241353 -0.7113208
vn 0.3527853 0.6283963 -0.6932969
vn 0.3527853 0.6283963 -0.6932969
vn 0.3824323 0.6319489 -0.6740817
vn -0.4332495 -0.6288861 0.6455984
vn -0.4216709 -0.6257718 0.6562038
vn -0.4332495 -0.6288861 0.6455984
vn -0.4447794 -0.6318549 0.6347682
vn 0.3679985 0.6338959 -0.6802595
vn 0.3872477 0.6364424 -0.6670685
vn 0.3872477 0.6364424 -0.6670685
vn 0.4064915 0.6386603 -0.6533588
vn -0.4706344 -0.6296229 0.6181246
vn -0.4634478 -0.6280473 0.6251181
vn -0.4706344 -0.6296229 0.6181246
vn -0.477793 -0.6311381 0.6110471
vn 0.4067461 0.6386194 -0.6532404
vn 0.417937 0.6398959 -0.6448737
vn 0.417937 0.6398959 -0.6448737
vn 0.4291105 0.6410527 -0.6363297
vn -0.4942542 -0.6286556 0.6004206
vn -0.4908696 -0.62808 0.6037901
vn -0.4942542 -0.6286556 0.6004206
vn -0.4976313 -0.6292173 0.5970332
vn 0.4532838 0.6364127 -0.6241094
vn 0.4577443 0.6368952 -0.6203504
vn 0.4577443 0.6368952 -0.6203504
vn 0.4621979 0.6373568 -0.6165625
vn -0.5450402 -0.6163707 0.568347
vn -0.5444292 -0.6164367 0.5688608
vn -0.5450402 -0.6163707 0.568347
vn -0.545651 -0.6163045 0.5678326
vn 0.3677407 0.6532585 -0.6618309
vn 0.369398 0.6531653 -0.6609995
vn 0.369398 0.6531653 -0.6609995
vn 0.3710556 0.6530696 -0.6601649

vt 0 0
vt 0 0
vt 0 0
vt 0 0
vt 0 0
vt 0 0
vt 0 0
vt 0 0
vt 0 0
vt 0 0
vt 0 0
vt 0 0
vt 0 0
vt 0 0
vt 0 0
vt 0 0
vt 0 0
vt 0 0
vt 0 0
vt 0 0
vt 0 0
vt 0 0
vt 0 0
vt 0 0
vt 0 0
vt 0 0
vt 0 0
vt 0 0
vt 0 0
vt 0 0
vt 0 0
vt 0 0
vt 0 0
vt 0 0
vt 0 0
vt 0 0
vt 0 0
vt 0 0
vt 0 0
vt 0 0
vt 0 0
vt 0 0
vt 0 0
vt 0 0
vt 0 0
vt 0 0
vt 0 0
vt 0 0
vt 0 0
vt 0 0
vt 0 0
vt 0 0
vt 0 0
vt 0 0
vt 0 0
vt 0 0
vt 0 0
vt 0 0
vt 0 0
vt 0 0
vt 0 0
vt 0 0
vt 0 0
vt 0 0
vt 0 0
vt 0 0
vt 0 0
vt 0 0
vt 0 0
vt 0 0
vt 0 0
vt 0 0
vt 0 0
vt 0 0
vt 0 0
vt 0 0
vt 0 0
vt 0 0
vt 0 0
vt 0 0
vt 0 0
vt 0 0
vt 0 0
vt 0 0
vt 0 0
vt 0 0
vt 0 0
vt 0 0
vt 0 0
vt 0 0
vt 0 0
vt 0 0
vt 0 0
vt 0 0
vt 0 0
vt 0 0
vt 0 0
vt 0 0
vt 0 0
vt 0 0
vt 0 0
vt 0 0
vt 0 0
vt 0 0
vt 0 0
vt 0 0
vt 0 0
vt 0 0
vt 0 0
vt 0 0
vt 0 0
vt 0 0
vt 0 0
vt 0 0
vt 0 0
vt 0 0
vt 0 0
vt 0 0
vt 0 0
vt 0 0
vt 0 0
vt 0 0
vt 0 0
vt 0 0
vt 0 0
vt 0 0
vt 0 0
vt 0 0
vt 0 0
vt 0 0
vt 0 0
vt 0 0
vt 0 0
vt 0 0
vt 0 0
vt 0 0
vt 0 0
vt 0 0
vt 0 0
vt 0 0
vt 0 0
vt 0 0
vt 0 0
vt 0 0
vt 0 0
vt 0 0
vt 0 0
vt 0 0
vt 0 0
vt 0 0
vt 0 0
vt 0 0
vt 0 0
vt 0 0
vt 0 0
vt 0 0
vt 0 0
vt 0 0
vt 0 0
vt 0 0
vt 0 0
vt 0 0
vt 0 0
vt 0 0
vt 0 0
vt 0 0
vt 0 0
vt 0 0
vt 0 0
vt 0 0
vt 0 0
vt 0 0
vt 0 0
vt 0 0
vt 0 0
vt 0 0
vt 0 0
vt 0 0
vt 0 0
vt 0 0
vt 0 0
vt 0 0
vt 0 0
vt 0 0
vt 0 0
vt 0 0
vt 0 0
vt 0 0
vt 0 0
vt 0 0
vt 0 0
vt 0 0
vt 0 0
vt 0 0
vt 0 0
vt 0 0
vt 0 0
vt 0 0
vt 0 0
vt 0 0
vt 0 0
vt 0 0
vt 0 0
vt 0 0
vt 0 0
vt 0 0
vt 0 0
vt 0 0
vt 0 0
vt 0 0
vt 0 0
vt 0 0
vt 0 0
vt 0 0
vt 0 0
vt 0 0
vt 0 0
vt 0 0
vt 0 0
vt 0 0
vt 0 0
vt 0 0
vt 0 0
vt 0 0
vt 0 0
vt 0 0
vt 0 0
vt 0 0
vt 0 0
vt 0 0
vt 0 0
vt 0 0
vt 0 0
vt 0 0
vt 0 0
vt 0 0
vt 0 0
vt 0 0
vt 0 0
vt 0 0

g Track Texture
usemtl Track Texture
usemap Track Texture
f 2/2/2 1/1/1 3/3/3
f 3/3/3 1/1/1 4/4/4
f 6/6/6 5/5/5 7/7/7
f 6/6/6 7/7/7 8/8/8
f 10/10/10 9/9/9 11/11/11
f 11/11/11 9/9/9 12/12/12
f 14/14/14 13/13/13 15/15/15
f 14/14/14 15/15/15 16/16/16
f 18/18/18 17/17/17 19/19/19
f 19/19/19 17/17/17 20/20/20
f 22/22/22 21/21/21 23/23/23
f 22/22/22 23/23/23 24/24/24
f 26/26/26 25/25/25 27/27/27
f 27/27/27 25/25/25 28/28/28
f 30/30/30 29/29/29 31/31/31
f 30/30/30 31/31/31 32/32/32
f 34/34/34 33/33/33 35/35/35
f 35/35/35 33/33/33 36/36/36
f 38/38/38 37/37/37 39/39/39
f 38/38/38 39/39/39 40/40/40
f 42/42/42 41/41/41 43/43/43
f 43/43/43 41/41/41 44/44/44
f 46/46/46 45/45/45 47/47/47
f 46/46/46 47/47/47 48/48/48
f 50/50/50 49/49/49 51/51/51
f 51/51/51 49/49/49 52/52/52
f 54/54/54 53/53/53 55/55/55
f 54/54/54 55/55/55 56/56/56
f 58/58/58 57/57/57 59/59/59
f 59/59/59 57/57/57 60/60/60
f 62/62/62 61/61/61 63/63/63
f 62/62/62 63/63/63 64/64/64
f 66/66/66 65/65/65 67/67/67
f 67/67/67 65/65/65 68/68/68
f 70/70/70 69/69/69 71/71/71
f 70/70/70 71/71/71 72/72/72
f 74/74/74 73/73/73 75/75/75
f 75/75/75 73/73/73 76/76/76
f 78/78/78 77/77/77 79/79/79
f 78/78/78 79/79/79 80/80/80
f 82/82/82 81/81/81 83/83/83
f 83/83/83 81/81/81 84/84/84
f 86/86/86 85/85/85 87/87/87
f 86/86/86 87/87/87 88/88/88
f 90/90/90 89/89/89 91/91/91
f 91/91/91 89/89/89 92/92/92
f 94/94/94 93/93/93 95/95/95
f 94/94/94 95/95/95 96/96/96
f 98/98/98 97/97/97 99/99/99
f 99/99/99 97/97/97 100/100/100
f 102/102/102 101/101/101 103/103/103
f 102/102/102 103/103/103 104/104/104
f 106/106/106 105/105/105 107/107/107
f 107/107/107 105/105/105 108/108/108
f 110/110/110 109/109/109 111/111/111
f 110/110/110 111/111/111 112/112/112
f 114/114/114 113/113/113 115/115/115
f 115/115/115 113/113/113 116/116/116
f 118/118/118 117/117/117 119/119/119
f 118/118/118 119/119/119 120/120/120
f 122/122/122 121/121/121 123/123/123
f 123/123/123 121/121/121 124/124/124
f 126/126/126 125/125/125 127/127/127
f 126/126/126 127/127/127 128/128/128
f 130/130/130 129/129/129 131/131/131
f 131/131/131 129/129/129 132/132/132
f 134/134/134 133/133/133 135/135/135
f 134/134/134 135/135/135 136/136/136
f 138/138/138 137/137/137 139/139/139
f 139/139/139 137/137/137 140/140/140
f 142/142/142 141/141/141 143/143/143
f 142/142/142 143/143/143 144/144/144
f 146/146/146 145/145/145 147/147/147
f 147/147/147 145/145/145 148/148/148
f 150/150/150 149/149/149 151/151/151
f 150/150/150 151/151/151 152/152/152
f 154/154/154 153/153/153 155/155/155
f 155/155/155 153/153/153 156/156/156
f 158/158/158 157/157/157 159/159/159
f 158/158/158 159/159/159 160/160/160
f 162/162/162 161/161/161 163/163/163
f 163/163/163 161/161/161 164/164/164
f 166/166/166 165/165/165 167/167/167
f 166/166/166 167/167/167 168/168/168
f 170/170/170 169/169/169 171/171/171
f 171/171/171 169/169/169 172/172/172
f 174/174/174 173/173/173 175/175/175
f 174/174/174 175/175/175 176/176/176
f 178/178/178 177/177/177 179/179/179
f 179/179/179 177/177/177 180/180/180
f 182/182/182 181/181/181 183/183/183
f 182/182/182 183/183/183 184/184/184
f 186/186/186 185/185/185 187/187/187
f 187/187/187 185/185/185 188/188/188
f 190/190/190 189/189/189 191/191/191
f 190/190/190 191/191/191 192/192/192
f 194/194/194 193/193/193 195/195/195
f 195/195/195 193/193/193 196/196/196
f 198/198/198 197/197/197 199/199/199
f 198/198/198 199/199/199 200/200/200
f 202/202/202 201/201/201 203/203/203
f 203/203/203 201/201/201 204/204/204
f 206/206/206 205/205/205 207/207/207
f 206/206/206 207/207/207 208/208/208
f 210/210/210 209/209/209 211/211/211
f 211/211/211 209/209/209 212/212/212
f 214/214/214 213/213/213 215/215/215
f 214/214/214 215/215/215 216/216/216
f 218/218/218 217/217/217 219/219/219
f 219/219/219 217/217/217 220/220/220
f 222/222/222 221/221/221 223/223/223
f 222/222/222 223/223/223 224/224/224
f 226/226/226 225/225/225 227/227/227
f 227/227/227 225/225/225 228/228/228
f 230/230/230 229/229/229 231/231/231
f 230/230/230 231/231/231 232/232/232
f 234/234/234 233/233/233 235/235/235
f 235/235/235 233/233/233 236/236/236
f 238/238/238 237/237/237 239/239/239
f 238/238/238 239/239/239 240/240/240
