mtllib ./Track1_boundary_0.mtl
# Unity Asset Buildr OBJ Exporter
 http://buildr.jasperstocker.com
g Track1_boundary_0
v -86.91831 -1.213596E-07 -36.3479
v -86.68003 9.360485E-08 -34.08393
v -86.68003 2.26 -34.08393
v -86.91831 2.26 -36.3479
v -86.68003 9.360485E-08 -34.08393
v -86.91831 -1.213596E-07 -36.3479
v -86.68003 2.26 -34.08393
v -86.91831 2.26 -36.3479
v -71.76531 -9.360485E-08 -35.68118
v -71.99635 1.213596E-07 -37.87592
v -71.76531 2.26 -35.68118
v -71.99635 2.260001 -37.87592
v -71.99635 1.213596E-07 -37.87592
v -71.76531 -9.360485E-08 -35.68118
v -71.76531 2.26 -35.68118
v -71.99635 2.260001 -37.87592
v -87.11709 -1.052516E-06 -38.35445
v -86.91831 -1.213596E-07 -36.3479
v -86.91831 2.26 -36.3479
v -87.11709 2.259999 -38.35445
v -86.91831 -1.213596E-07 -36.3479
v -87.11709 -1.052516E-06 -38.35445
v -86.91831 2.26 -36.3479
v -87.11709 2.259999 -38.35445
v -71.99635 1.213596E-07 -37.87592
v -72.18159 1.052516E-06 -39.74394
v -71.99635 2.260001 -37.87592
v -72.18159 2.260001 -39.74394
v -72.18159 1.052516E-06 -39.74394
v -71.99635 1.213596E-07 -37.87592
v -71.99635 2.260001 -37.87592
v -72.18159 2.260001 -39.74394
v -87.28937 -2.154102E-06 -40.34247
v -87.11709 -1.052516E-06 -38.35445
v -87.11709 2.259999 -38.35445
v -87.28937 2.259998 -40.34247
v -87.11709 -1.052516E-06 -38.35445
v -87.28937 -2.154102E-06 -40.34247
v -87.11709 2.259999 -38.35445
v -87.28937 2.259998 -40.34247
v -72.18159 1.052516E-06 -39.74394
v -72.33424 2.154102E-06 -41.50183
v -72.18159 2.260001 -39.74394
v -72.33424 2.260002 -41.50183
v -72.33424 2.154102E-06 -41.50183
v -72.18159 1.052516E-06 -39.74394
v -72.18159 2.260001 -39.74394
v -72.33424 2.260002 -41.50183
v -87.43379 -3.145569E-06 -42.45045
v -87.28937 -2.154102E-06 -40.34247
v -87.28937 2.259998 -40.34247
v -87.43379 2.259997 -42.45045
v -87.28937 -2.154102E-06 -40.34247
v -87.43379 -3.145569E-06 -42.45045
v -87.28937 2.259998 -40.34247
v -87.43379 2.259997 -42.45045
v -72.33424 2.154102E-06 -41.50183
v -72.45731 3.145569E-06 -43.28991
v -72.33424 2.260002 -41.50183
v -72.45731 2.260003 -43.28991
v -72.45731 3.145569E-06 -43.28991
v -72.33424 2.154102E-06 -41.50183
v -72.33424 2.260002 -41.50183
v -72.45731 2.260003 -43.28991
v -87.5299 -4.390627E-06 -44.65884
v -87.43379 -3.145569E-06 -42.45045
v -87.43379 2.259997 -42.45045
v -87.5299 2.259995 -44.65885
v -87.43379 -3.145569E-06 -42.45045
v -87.5299 -4.390627E-06 -44.65884
v -87.43379 2.259997 -42.45045
v -87.5299 2.259995 -44.65885
v -72.45731 3.145569E-06 -43.28991
v -72.53544 4.390627E-06 -45.0662
v -72.45731 2.260003 -43.28991
v -72.53544 2.260004 -45.0662
v -72.53544 4.390627E-06 -45.0662
v -72.45731 3.145569E-06 -43.28991
v -72.45731 2.260003 -43.28991
v -72.53544 2.260004 -45.0662
v -87.55373 -5.485855E-06 -46.94899
v -87.5299 -4.390627E-06 -44.65884
v -87.5299 2.259995 -44.65885
v -87.55373 2.259994 -46.949
v -87.5299 -4.390627E-06 -44.65884
v -87.55373 -5.485855E-06 -46.94899
v -87.5299 2.259995 -44.65885
v -87.55373 2.259994 -46.949
v -72.53544 4.390627E-06 -45.0662
v -72.5546 5.485855E-06 -46.7872
v -72.53544 2.260004 -45.0662
v -72.5546 2.260005 -46.78721
v -72.5546 5.485855E-06 -46.7872
v -72.53544 4.390627E-06 -45.0662
v -72.53544 2.260004 -45.0662
v -72.5546 2.260005 -46.78721
v -87.47589 -7.145323E-06 -49.30846
v -87.55373 -5.485855E-06 -46.94899
v -87.55373 2.259994 -46.949
v -87.47589 2.259993 -49.30847
v -87.55373 -5.485855E-06 -46.94899
v -87.47589 -7.145323E-06 -49.30846
v -87.55373 2.259994 -46.949
v -87.47589 2.259993 -49.30847
v -72.5546 5.485855E-06 -46.7872
v -72.50331 7.145323E-06 -48.40196
v -72.5546 2.260005 -46.78721
v -72.50331 2.260007 -48.40197
v -72.50331 7.145323E-06 -48.40196
v -72.5546 5.485855E-06 -46.7872
v -72.5546 2.260005 -46.78721
v -72.50331 2.260007 -48.40197
v -87.25731 -8.795439E-06 -51.73248
v -87.47589 -7.145323E-06 -49.30846
v -87.47589 2.259993 -49.30847
v -87.25731 2.259991 -51.73248
v -87.47589 -7.145323E-06 -49.30846
v -87.25731 -8.795439E-06 -51.73248
v -87.47589 2.259993 -49.30847
v -87.25731 2.259991 -51.73248
v -72.50331 7.145323E-06 -48.40196
v -72.37604 8.795439E-06 -49.84886
v -72.50331 2.260007 -48.40197
v -72.37604 2.260009 -49.84886
v -72.37604 8.795439E-06 -49.84886
v -72.50331 7.145323E-06 -48.40196
v -72.50331 2.260007 -48.40197
v -72.37604 2.260009 -49.84886
v -86.83222 -1.047129E-05 -54.26532
v -87.25731 -8.795439E-06 -51.73248
v -87.25731 2.259991 -51.73248
v -86.83222 2.25999 -54.26533
v -87.25731 -8.795439E-06 -51.73248
v -86.83222 -1.047129E-05 -54.26532
v -87.25731 2.259991 -51.73248
v -86.83222 2.25999 -54.26533
v -72.37604 8.795439E-06 -49.84886
v -72.18908 1.047129E-05 -51.01285
v -72.37604 2.260009 -49.84886
v -72.18908 2.26001 -51.01286
v -72.18908 1.047129E-05 -51.01285
v -72.37604 8.795439E-06 -49.84886
v -72.37604 2.260009 -49.84886
v -72.18908 2.26001 -51.01286
v -86.02465 -1.363797E-05 -57.11736
v -86.83222 -1.047129E-05 -54.26532
v -86.83222 2.25999 -54.26533
v -86.02465 2.259986 -57.11736
v -86.83222 -1.047129E-05 -54.26532
v -86.02465 -1.363797E-05 -57.11736
v -86.83222 2.25999 -54.26533
v -86.02465 2.259986 -57.11736
v -72.18908 1.047129E-05 -51.01285
v -71.95071 1.363797E-05 -51.92851
v -72.18908 2.26001 -51.01286
v -71.95071 2.260014 -51.92852
v -71.95071 1.363797E-05 -51.92851
v -72.18908 1.047129E-05 -51.01285
v -72.18908 2.26001 -51.01286
v -71.95071 2.260014 -51.92852
v -84.51058 -1.918966E-05 -60.30101
v -86.02465 -1.363797E-05 -57.11736
v -86.02465 2.259986 -57.11736
v -84.51058 2.259981 -60.30102
v -86.02465 -1.363797E-05 -57.11736
v -84.51058 -1.918966E-05 -60.30101
v -86.02465 2.259986 -57.11736
v -84.51058 2.259981 -60.30102
v -71.95071 1.363797E-05 -51.92851
v -71.79423 1.918966E-05 -52.34523
v -71.95071 2.260014 -51.92852
v -71.79423 2.260019 -52.34523
v -71.79423 1.918966E-05 -52.34523
v -71.95071 1.363797E-05 -51.92851
v -71.95071 2.260014 -51.92852
v -71.79423 2.260019 -52.34523
v -82.30246 -2.368019E-05 -63.05842
v -84.51058 -1.918966E-05 -60.30101
v -84.51058 2.259981 -60.30102
v -82.30246 2.259977 -63.05843
v -84.51058 -1.918966E-05 -60.30101
v -82.30246 -2.368019E-05 -63.05842
v -84.51058 2.259981 -60.30102
v -82.30246 2.259977 -63.05843
v -71.79423 1.918966E-05 -52.34523
v -71.5106 2.368019E-05 -52.64037
v -71.79423 2.260019 -52.34523
v -71.5106 2.260024 -52.64037
v -71.5106 2.368019E-05 -52.64037
v -71.79423 1.918966E-05 -52.34523
v -71.79423 2.260019 -52.34523
v -71.5106 2.260024 -52.64037
v -81.21436 -2.493743E-05 -63.93393
v -82.30246 -2.368019E-05 -63.05842
v -82.30246 2.259977 -63.05843
v -81.21436 2.259975 -63.93394
v -82.30246 -2.368019E-05 -63.05842
v -81.21436 -2.493743E-05 -63.93393
v -82.30246 2.259977 -63.05843
v -81.21436 2.259975 -63.93394
v -71.5106 2.368019E-05 -52.64037
v -71.00407 2.493743E-05 -52.94531
v -71.5106 2.260024 -52.64037
v -71.00407 2.260025 -52.94532
v -71.00407 2.493743E-05 -52.94531
v -71.5106 2.368019E-05 -52.64037
v -71.5106 2.260024 -52.64037
v -71.00407 2.260025 -52.94532

vn 0.9945068 0 -0.1046712
vn 0.9945069 0 -0.1046712
vn 0.9945068 0 -0.1046712
vn 0.9945069 0 -0.1046712
vn -0.9945069 0 0.1046712
vn -0.9945068 0 0.1046712
vn -0.9945068 0 0.1046712
vn -0.9945069 0 0.1046712
vn -0.994505 0 0.1046884
vn -0.994505 0 0.1046884
vn -0.994505 0 0.1046884
vn -0.994505 0 0.1046884
vn 0.994505 0 -0.1046884
vn 0.994505 0 -0.1046884
vn 0.994505 0 -0.1046884
vn 0.994505 0 -0.1046884
vn 0.995129 0 -0.09858117
vn 0.995129 0 -0.09858116
vn 0.995129 0 -0.09858117
vn 0.995129 0 -0.09858116
vn -0.995129 0 0.09858117
vn -0.995129 0 0.09858116
vn -0.995129 0 0.09858116
vn -0.995129 0 0.09858116
vn -0.9951192 0 0.09868057
vn -0.9951192 0 0.09868057
vn -0.9951192 0 0.09868057
vn -0.9951192 0 0.09868056
vn 0.9951192 0 -0.09868058
vn 0.9951192 0 -0.09868057
vn 0.9951192 0 -0.09868058
vn 0.9951192 0 -0.09868057
vn 0.9962662 0 -0.08633512
vn 0.9962662 0 -0.08633512
vn 0.9962662 0 -0.08633512
vn 0.9962662 0 -0.08633512
vn -0.9962662 0 0.08633512
vn -0.9962662 0 0.08633511
vn -0.9962662 0 0.08633511
vn -0.9962662 0 0.08633512
vn -0.9962505 0 0.08651524
vn -0.9962506 0 0.08651524
vn -0.9962506 0 0.08651524
vn -0.9962506 0 0.08651526
vn 0.9962506 0 -0.08651524
vn 0.9962506 0 -0.08651525
vn 0.9962506 0 -0.08651524
vn 0.9962506 0 -0.08651526
vn 0.9976612 -5.768711E-08 -0.06835292
vn 0.9976612 0 -0.06835299
vn 0.9976612 -5.768711E-08 -0.06835292
vn 0.9976613 -1.153741E-07 -0.06835288
vn -0.9976612 0 0.06835299
vn -0.9976612 5.616951E-08 0.06835292
vn -0.9976612 5.616951E-08 0.06835292
vn -0.9976612 1.123389E-07 0.06835286
vn -0.9976401 0 0.06866127
vn -0.9976401 5.70204E-08 0.06866119
vn -0.9976401 5.70204E-08 0.06866119
vn -0.9976401 1.140407E-07 0.06866112
vn 0.9976401 -5.794726E-08 -0.06866118
vn 0.9976401 0 -0.06866127
vn 0.9976401 -5.794726E-08 -0.06866118
vn 0.9976401 -1.158944E-07 -0.06866112
vn 0.9990544 -7.248735E-08 -0.04347805
vn 0.9990544 -7.158725E-08 -0.04347804
vn 0.9990544 -7.248735E-08 -0.04347805
vn 0.9990544 -7.338743E-08 -0.04347804
vn -0.9990544 7.338742E-08 0.04347804
vn -0.9990544 7.248735E-08 0.04347805
vn -0.9990544 7.248735E-08 0.04347805
vn -0.9990544 7.158726E-08 0.04347804
vn -0.9990339 7.417358E-08 0.0439438
vn -0.9990339 7.416997E-08 0.0439438
vn -0.9990339 7.416997E-08 0.0439438
vn -0.9990339 7.416635E-08 0.0439438
vn 0.9990339 -7.416997E-08 -0.0439438
vn 0.9990339 -7.416634E-08 -0.04394381
vn 0.9990339 -7.416997E-08 -0.0439438
vn 0.9990339 -7.41736E-08 -0.0439438
vn 0.9999458 -1.777655E-08 -0.01040338
vn 0.9999458 -1.799303E-08 -0.01040338
vn 0.9999458 -1.777655E-08 -0.01040338
vn 0.9999458 -1.756007E-08 -0.01040338
vn -0.9999458 1.756007E-08 0.01040338
vn -0.9999459 1.777656E-08 0.01040339
vn -0.9999459 1.777656E-08 0.01040339
vn -0.9999459 1.799303E-08 0.01040339
vn -0.9999381 1.878796E-08 0.01113084
vn -0.9999381 1.897127E-08 0.01113084
vn -0.9999381 1.897127E-08 0.01113084
vn -0.999938 1.915459E-08 0.01113084
vn 0.9999381 -1.897127E-08 -0.01113084
vn 0.9999381 -1.915459E-08 -0.01113084
vn 0.9999381 -1.897127E-08 -0.01113084
vn 0.9999381 -1.878796E-08 -0.01113084
vn 0.9994563 5.575507E-08 0.03297044
vn 0.9994563 5.585872E-08 0.03297044
vn 0.9994563 5.575507E-08 0.03297044
vn 0.9994563 5.565143E-08 0.03297044
vn -0.9994563 -5.565144E-08 -0.03297044
vn -0.9994563 -5.575508E-08 -0.03297044
vn -0.9994563 -5.575508E-08 -0.03297044
vn -0.9994563 -5.585872E-08 -0.03297044
vn -0.999496 -5.35814E-08 -0.03174405
vn -0.999496 -5.331835E-08 -0.03174405
vn -0.999496 -5.331835E-08 -0.03174405
vn -0.999496 -5.30553E-08 -0.03174405
vn 0.999496 5.331835E-08 0.03174405
vn 0.999496 5.305531E-08 0.03174405
vn 0.999496 5.331835E-08 0.03174405
vn 0.999496 5.358139E-08 0.03174405
vn 0.995959 1.516489E-07 0.0898092
vn 0.995959 1.517071E-07 0.08980919
vn 0.995959 1.516489E-07 0.0898092
vn 0.995959 1.515907E-07 0.08980921
vn -0.995959 -1.515907E-07 -0.0898092
vn -0.995959 -1.516489E-07 -0.0898092
vn -0.995959 -1.516489E-07 -0.0898092
vn -0.995959 -1.517071E-07 -0.0898092
vn -0.9961536 -1.479037E-07 -0.08762486
vn -0.9961535 -1.488523E-07 -0.08762485
vn -0.9961535 -1.488523E-07 -0.08762485
vn -0.9961535 -1.49801E-07 -0.08762485
vn 0.9961535 1.488523E-07 0.08762485
vn 0.9961536 1.49801E-07 0.08762486
vn 0.9961535 1.488523E-07 0.08762485
vn 0.9961535 1.479036E-07 0.08762486
vn 0.9862072 4.128742E-07 0.1655151
vn 0.9862072 2.669963E-07 0.1655153
vn 0.9862072 4.128742E-07 0.1655151
vn 0.9862072 5.58752E-07 0.1655151
vn -0.9862072 -2.793764E-07 -0.1655153
vn -0.9862072 -4.169533E-07 -0.1655151
vn -0.9862072 -4.169533E-07 -0.1655151
vn -0.9862072 -5.5453E-07 -0.165515
vn -0.9873452 -2.676801E-07 -0.1585859
vn -0.9873452 -3.994987E-07 -0.1585856
vn -0.9873452 -3.994987E-07 -0.1585856
vn -0.9873453 -5.31317E-07 -0.1585854
vn 0.9873452 4.019074E-07 0.1585856
vn 0.9873452 2.684557E-07 0.1585859
vn 0.9873452 4.019074E-07 0.1585856
vn 0.9873453 5.353587E-07 0.1585854
vn 0.9621714 9.22536E-07 0.2724448
vn 0.9621714 9.253425E-07 0.2724448
vn 0.9621714 9.22536E-07 0.2724448
vn 0.9621714 9.197295E-07 0.2724448
vn -0.9621714 -9.197295E-07 -0.2724448
vn -0.9621714 -9.22536E-07 -0.2724448
vn -0.9621714 -9.22536E-07 -0.2724448
vn -0.9621714 -9.253425E-07 -0.2724448
vn -0.9677452 -8.504776E-07 -0.2519308
vn -0.9677452 -8.503143E-07 -0.2519308
vn -0.9677452 -8.503143E-07 -0.2519308
vn -0.9677452 -8.50151E-07 -0.2519308
vn 0.9677452 8.503143E-07 0.2519308
vn 0.9677452 8.50151E-07 0.2519308
vn 0.9677452 8.503143E-07 0.2519308
vn 0.9677452 8.504778E-07 0.2519308
vn 0.9030761 1.473045E-06 0.4294804
vn 0.9030761 1.496234E-06 0.4294805
vn 0.9030761 1.473045E-06 0.4294804
vn 0.9030762 1.449857E-06 0.4294805
vn -0.9030761 -1.449857E-06 -0.4294805
vn -0.9030761 -1.473045E-06 -0.4294805
vn -0.9030761 -1.473045E-06 -0.4294805
vn -0.9030762 -1.496234E-06 -0.4294805
vn -0.9361731 -1.18674E-06 -0.3515395
vn -0.9361731 -1.185872E-06 -0.3515395
vn -0.9361731 -1.185872E-06 -0.3515395
vn -0.9361731 -1.185004E-06 -0.3515395
vn 0.9361731 1.185872E-06 0.3515395
vn 0.9361731 1.185004E-06 0.3515395
vn 0.9361731 1.185872E-06 0.3515395
vn 0.9361731 1.18674E-06 0.3515395
vn 0.7805651 2.13016E-06 0.6250746
vn 0.7805651 2.15017E-06 0.6250746
vn 0.7805651 2.13016E-06 0.6250746
vn 0.7805651 2.11015E-06 0.6250746
vn -0.7805651 -2.11015E-06 -0.6250746
vn -0.7805651 -2.13016E-06 -0.6250746
vn -0.7805651 -2.13016E-06 -0.6250746
vn -0.7805651 -2.15017E-06 -0.6250746
vn -0.7210345 -2.339115E-06 -0.6928992
vn -0.7210344 -2.337385E-06 -0.6928992
vn -0.7210344 -2.337385E-06 -0.6928992
vn -0.7210344 -2.335654E-06 -0.6928992
vn 0.7210345 2.337385E-06 0.6928992
vn 0.7210345 2.335655E-06 0.6928992
vn 0.7210345 2.337385E-06 0.6928992
vn 0.7210345 2.339115E-06 0.6928992
vn 0.626892 2.627527E-06 0.7791062
vn 0.626892 2.624917E-06 0.7791061
vn 0.626892 2.627527E-06 0.7791062
vn 0.6268921 2.630136E-06 0.7791062
vn -0.6268921 -2.630136E-06 -0.7791062
vn -0.6268921 -2.627527E-06 -0.7791062
vn -0.6268921 -2.627527E-06 -0.7791062
vn -0.6268921 -2.624917E-06 -0.7791062
vn -0.5157638 -2.892185E-06 -0.8567308
vn -0.5157638 -2.890246E-06 -0.8567308
vn -0.5157638 -2.890246E-06 -0.8567308
vn -0.5157638 -2.888308E-06 -0.8567308
vn 0.5157638 2.890246E-06 0.8567308
vn 0.5157638 2.888308E-06 0.8567309
vn 0.5157638 2.890246E-06 0.8567308
vn 0.5157638 2.892185E-06 0.8567308

vt 1.757605 0
vt 0 0
vt 0 1
vt 1.757605 1
vt 0 0
vt 1.757605 0
vt 0 1
vt 1.757605 1
vt 0 0
vt 1.757605 0
vt 0 1
vt 1.757605 1
vt 1.757605 0
vt 0 0
vt 0 1
vt 1.757605 1
vt 3.515209 0
vt 1.757605 0
vt 1.757605 1
vt 3.515209 1
vt 1.757605 0
vt 3.515209 0
vt 1.757605 1
vt 3.515209 1
vt 1.757605 0
vt 3.515209 0
vt 1.757605 1
vt 3.515209 1
vt 3.515209 0
vt 1.757605 0
vt 1.757605 1
vt 3.515209 1
vt 5.272814 0
vt 3.515209 0
vt 3.515209 1
vt 5.272814 1
vt 3.515209 0
vt 5.272814 0
vt 3.515209 1
vt 5.272814 1
vt 3.515209 0
vt 5.272814 0
vt 3.515209 1
vt 5.272814 1
vt 5.272814 0
vt 3.515209 0
vt 3.515209 1
vt 5.272814 1
vt 7.030419 0
vt 5.272814 0
vt 5.272814 1
vt 7.030419 1
vt 5.272814 0
vt 7.030419 0
vt 5.272814 1
vt 7.030419 1
vt 5.272814 0
vt 7.030419 0
vt 5.272814 1
vt 7.030419 1
vt 7.030419 0
vt 5.272814 0
vt 5.272814 1
vt 7.030419 1
vt 8.788023 0
vt 7.030419 0
vt 7.030419 1
vt 8.788023 1
vt 7.030419 0
vt 8.788023 0
vt 7.030419 1
vt 8.788023 1
vt 7.030419 0
vt 8.788023 0
vt 7.030419 1
vt 8.788023 1
vt 8.788023 0
vt 7.030419 0
vt 7.030419 1
vt 8.788023 1
vt 10.54563 0
vt 8.788023 0
vt 8.788023 1
vt 10.54563 1
vt 8.788023 0
vt 10.54563 0
vt 8.788023 1
vt 10.54563 1
vt 8.788023 0
vt 10.54563 0
vt 8.788023 1
vt 10.54563 1
vt 10.54563 0
vt 8.788023 0
vt 8.788023 1
vt 10.54563 1
vt 12.30323 0
vt 10.54563 0
vt 10.54563 1
vt 12.30323 1
vt 10.54563 0
vt 12.30323 0
vt 10.54563 1
vt 12.30323 1
vt 10.54563 0
vt 12.30323 0
vt 10.54563 1
vt 12.30323 1
vt 12.30323 0
vt 10.54563 0
vt 10.54563 1
vt 12.30323 1
vt 14.06084 0
vt 12.30323 0
vt 12.30323 1
vt 14.06084 1
vt 12.30323 0
vt 14.06084 0
vt 12.30323 1
vt 14.06084 1
vt 12.30323 0
vt 14.06084 0
vt 12.30323 1
vt 14.06084 1
vt 14.06084 0
vt 12.30323 0
vt 12.30323 1
vt 14.06084 1
vt 15.81844 0
vt 14.06084 0
vt 14.06084 1
vt 15.81844 1
vt 14.06084 0
vt 15.81844 0
vt 14.06084 1
vt 15.81844 1
vt 14.06084 0
vt 15.81844 0
vt 14.06084 1
vt 15.81844 1
vt 15.81844 0
vt 14.06084 0
vt 14.06084 1
vt 15.81844 1
vt 17.57605 0
vt 15.81844 0
vt 15.81844 1
vt 17.57605 1
vt 15.81844 0
vt 17.57605 0
vt 15.81844 1
vt 17.57605 1
vt 15.81844 0
vt 17.57605 0
vt 15.81844 1
vt 17.57605 1
vt 17.57605 0
vt 15.81844 0
vt 15.81844 1
vt 17.57605 1
vt 19.33365 0
vt 17.57605 0
vt 17.57605 1
vt 19.33365 1
vt 17.57605 0
vt 19.33365 0
vt 17.57605 1
vt 19.33365 1
vt 17.57605 0
vt 19.33365 0
vt 17.57605 1
vt 19.33365 1
vt 19.33365 0
vt 17.57605 0
vt 17.57605 1
vt 19.33365 1
vt 21.09126 0
vt 19.33365 0
vt 19.33365 1
vt 21.09126 1
vt 19.33365 0
vt 21.09126 0
vt 19.33365 1
vt 21.09126 1
vt 19.33365 0
vt 21.09126 0
vt 19.33365 1
vt 21.09126 1
vt 21.09126 0
vt 19.33365 0
vt 19.33365 1
vt 21.09126 1
vt 22.84886 0
vt 21.09126 0
vt 21.09126 1
vt 22.84886 1
vt 21.09126 0
vt 22.84886 0
vt 21.09126 1
vt 22.84886 1
vt 21.09126 0
vt 22.84886 0
vt 21.09126 1
vt 22.84886 1
vt 22.84886 0
vt 21.09126 0
vt 21.09126 1
vt 22.84886 1

g Wall Texture
usemtl Wall Texture
usemap Wall Texture
f 2/2/2 1/1/1 3/3/3
f 3/3/3 1/1/1 4/4/4
f 6/6/6 5/5/5 7/7/7
f 6/6/6 7/7/7 8/8/8
f 10/10/10 9/9/9 11/11/11
f 10/10/10 11/11/11 12/12/12
f 14/14/14 13/13/13 15/15/15
f 15/15/15 13/13/13 16/16/16
f 18/18/18 17/17/17 19/19/19
f 19/19/19 17/17/17 20/20/20
f 22/22/22 21/21/21 23/23/23
f 22/22/22 23/23/23 24/24/24
f 26/26/26 25/25/25 27/27/27
f 26/26/26 27/27/27 28/28/28
f 30/30/30 29/29/29 31/31/31
f 31/31/31 29/29/29 32/32/32
f 34/34/34 33/33/33 35/35/35
f 35/35/35 33/33/33 36/36/36
f 38/38/38 37/37/37 39/39/39
f 38/38/38 39/39/39 40/40/40
f 42/42/42 41/41/41 43/43/43
f 42/42/42 43/43/43 44/44/44
f 46/46/46 45/45/45 47/47/47
f 47/47/47 45/45/45 48/48/48
f 50/50/50 49/49/49 51/51/51
f 51/51/51 49/49/49 52/52/52
f 54/54/54 53/53/53 55/55/55
f 54/54/54 55/55/55 56/56/56
f 58/58/58 57/57/57 59/59/59
f 58/58/58 59/59/59 60/60/60
f 62/62/62 61/61/61 63/63/63
f 63/63/63 61/61/61 64/64/64
f 66/66/66 65/65/65 67/67/67
f 67/67/67 65/65/65 68/68/68
f 70/70/70 69/69/69 71/71/71
f 70/70/70 71/71/71 72/72/72
f 74/74/74 73/73/73 75/75/75
f 74/74/74 75/75/75 76/76/76
f 78/78/78 77/77/77 79/79/79
f 79/79/79 77/77/77 80/80/80
f 82/82/82 81/81/81 83/83/83
f 83/83/83 81/81/81 84/84/84
f 86/86/86 85/85/85 87/87/87
f 86/86/86 87/87/87 88/88/88
f 90/90/90 89/89/89 91/91/91
f 90/90/90 91/91/91 92/92/92
f 94/94/94 93/93/93 95/95/95
f 95/95/95 93/93/93 96/96/96
f 98/98/98 97/97/97 99/99/99
f 99/99/99 97/97/97 100/100/100
f 102/102/102 101/101/101 103/103/103
f 102/102/102 103/103/103 104/104/104
f 106/106/106 105/105/105 107/107/107
f 106/106/106 107/107/107 108/108/108
f 110/110/110 109/109/109 111/111/111
f 111/111/111 109/109/109 112/112/112
f 114/114/114 113/113/113 115/115/115
f 115/115/115 113/113/113 116/116/116
f 118/118/118 117/117/117 119/119/119
f 118/118/118 119/119/119 120/120/120
f 122/122/122 121/121/121 123/123/123
f 122/122/122 123/123/123 124/124/124
f 126/126/126 125/125/125 127/127/127
f 127/127/127 125/125/125 128/128/128
f 130/130/130 129/129/129 131/131/131
f 131/131/131 129/129/129 132/132/132
f 134/134/134 133/133/133 135/135/135
f 134/134/134 135/135/135 136/136/136
f 138/138/138 137/137/137 139/139/139
f 138/138/138 139/139/139 140/140/140
f 142/142/142 141/141/141 143/143/143
f 143/143/143 141/141/141 144/144/144
f 146/146/146 145/145/145 147/147/147
f 147/147/147 145/145/145 148/148/148
f 150/150/150 149/149/149 151/151/151
f 150/150/150 151/151/151 152/152/152
f 154/154/154 153/153/153 155/155/155
f 154/154/154 155/155/155 156/156/156
f 158/158/158 157/157/157 159/159/159
f 159/159/159 157/157/157 160/160/160
f 162/162/162 161/161/161 163/163/163
f 163/163/163 161/161/161 164/164/164
f 166/166/166 165/165/165 167/167/167
f 166/166/166 167/167/167 168/168/168
f 170/170/170 169/169/169 171/171/171
f 170/170/170 171/171/171 172/172/172
f 174/174/174 173/173/173 175/175/175
f 175/175/175 173/173/173 176/176/176
f 178/178/178 177/177/177 179/179/179
f 179/179/179 177/177/177 180/180/180
f 182/182/182 181/181/181 183/183/183
f 182/182/182 183/183/183 184/184/184
f 186/186/186 185/185/185 187/187/187
f 186/186/186 187/187/187 188/188/188
f 190/190/190 189/189/189 191/191/191
f 191/191/191 189/189/189 192/192/192
f 194/194/194 193/193/193 195/195/195
f 195/195/195 193/193/193 196/196/196
f 198/198/198 197/197/197 199/199/199
f 198/198/198 199/199/199 200/200/200
f 202/202/202 201/201/201 203/203/203
f 202/202/202 203/203/203 204/204/204
f 206/206/206 205/205/205 207/207/207
f 207/207/207 205/205/205 208/208/208
