mtllib ./Track1_trackCollider_10.mtl
# Unity Asset Buildr OBJ Exporter
 http://buildr.jasperstocker.com
g Track1_trackCollider_10
v 119.6329 0.8298399 28.89095
v 121.4804 0.8312461 28.00284
v 121.2337 5.800438 27.50655
v 119.3866 5.799118 28.39536
v 114.9926 -0.8312461 14.58106
v 113.3593 -0.8298407 15.36747
v 114.7459 4.137946 14.08478
v 113.113 4.139437 14.87188
v 117.695 0.8251331 29.75664
v 119.6329 0.8298399 28.89095
v 119.3866 5.799118 28.39536
v 117.4498 5.79468 29.26321
v 113.3593 -0.8298407 15.36747
v 111.8412 -0.8251345 16.04528
v 113.113 4.139437 14.87188
v 111.596 4.144413 15.55185
v 115.6977 0.8163524 30.57068
v 117.695 0.8251331 29.75664
v 117.4498 5.79468 29.26321
v 115.4544 5.786378 30.08113
v 111.8412 -0.8251345 16.04528
v 110.3486 -0.8163545 16.65313
v 111.596 4.144413 15.55185
v 110.1054 4.153672 16.16357
v 113.6026 0.8022143 31.3291
v 115.6977 0.8163524 30.57068
v 115.4544 5.786378 30.08113
v 113.3624 5.772975 30.84554
v 110.3486 -0.8163545 16.65313
v 108.868 -0.8022169 17.18838
v 110.1054 4.153672 16.16357
v 108.6278 4.168544 16.70482
v 111.411 0.7811139 32.00494
v 113.6026 0.8022143 31.3291
v 113.3624 5.772975 30.84554
v 111.175 5.752896 31.52986
v 108.868 -0.8022169 17.18838
v 107.4412 -0.7811171 17.6276
v 108.6278 4.168544 16.70482
v 107.2052 4.190665 17.15253
v 109.0917 0.7507753 32.57287
v 111.411 0.7811139 32.00494
v 111.175 5.752896 31.52986
v 108.8615 5.723921 32.10934
v 107.4412 -0.7811171 17.6276
v 106.0719 -0.750779 17.96225
v 107.2052 4.190665 17.15253
v 105.8417 4.222366 17.49872
v 106.6337 0.7084764 32.98885
v 109.0917 0.7507753 32.57287
v 108.8615 5.723921 32.10934
v 106.4112 5.683362 32.54052
v 106.0719 -0.750779 17.96225
v 104.7964 -0.7084806 18.17772
v 105.8417 4.222366 17.49872
v 104.5739 4.266404 17.72939
v 104.0287 0.6514924 33.196
v 106.6337 0.7084764 32.98885
v 106.4112 5.683362 32.54052
v 103.816 5.628531 32.76722
v 104.7964 -0.7084806 18.17772
v 103.6287 -0.6514969 18.27025
v 104.5739 4.266404 17.72939
v 103.416 4.325541 17.84146
v 101.3066 0.5789077 33.12757
v 104.0287 0.6514924 33.196
v 103.816 5.628531 32.76722
v 101.1062 5.558513 32.72337
v 103.6287 -0.6514969 18.27025
v 102.5621 -0.5789124 18.24161
v 103.416 4.325541 17.84146
v 102.3618 4.400693 17.8374
v 98.56524 0.4946876 32.73828
v 101.3066 0.5789077 33.12757
v 101.1062 5.558513 32.72337
v 98.37983 5.477204 32.36391
v 102.5621 -0.5789124 18.24161
v 101.5506 -0.4946925 18.09189
v 102.3618 4.400693 17.8374
v 101.3652 4.487824 17.71752
v 95.95437 0.4090445 32.05435
v 98.56524 0.4946876 32.73828
v 98.37983 5.477204 32.36391
v 95.78635 5.394667 31.71474
v 101.5506 -0.4946925 18.09189
v 100.488 -0.4090494 17.80112
v 101.3652 4.487824 17.71752
v 100.3199 4.576573 17.46152
v 93.622 0.3343543 31.19631
v 95.95437 0.4090445 32.05435
v 95.78635 5.394667 31.71474
v 93.47314 5.323053 30.8951
v 100.488 -0.4090494 17.80112
v 99.2618 -0.3343589 17.33353
v 100.3199 4.576573 17.46152
v 99.11294 4.65434 17.03232
v 91.63927 0.2777555 30.3281
v 93.622 0.3343543 31.19631
v 93.47314 5.323053 30.8951
v 91.51054 5.269291 30.06732
v 99.2618 -0.3343589 17.33353
v 97.77257 -0.2777598 16.66715
v 99.11294 4.65434 17.03232
v 97.64384 4.713776 16.40637
v 89.99734 0.2379897 29.58217
v 91.63927 0.2777555 30.3281
v 91.51054 5.269291 30.06732
v 89.88889 5.231972 29.36222
v 97.77257 -0.2777598 16.66715
v 95.95692 -0.2379936 15.83654
v 97.64384 4.713776 16.40637
v 95.84846 4.755989 15.61659
v 88.64534 0.2084044 29.02411
v 89.99734 0.2379897 29.58217
v 89.88889 5.231972 29.36222
v 88.55644 5.204354 28.84362
v 95.95692 -0.2379936 15.83654
v 93.79752 -0.2084077 14.94965
v 95.84846 4.755989 15.61659
v 93.70862 4.787542 14.76915
v 87.49292 0.1815052 28.65059
v 88.64534 0.2084044 29.02411
v 88.55644 5.204354 28.84362
v 87.42211 5.178931 28.50666
v 93.79752 -0.2084077 14.94965
v 91.33072 -0.1815079 14.15784
v 93.70862 4.787542 14.76915
v 91.25991 4.815918 14.01392
v 86.43335 0.1532791 28.42883
v 87.49292 0.1815052 28.65059
v 87.42211 5.178931 28.50666
v 86.37849 5.151732 28.31722
v 91.33072 -0.1815079 14.15784
v 88.6687 -0.1532812 13.60102
v 91.25991 4.815918 14.01392
v 88.61384 4.845172 13.48941
v 85.36507 0.1239013 28.33155
v 86.43335 0.1532791 28.42883
v 86.37849 5.151732 28.31722
v 85.32366 5.123019 28.24725
v 88.6687 -0.1532812 13.60102
v 85.95596 -0.1239029 13.34584
v 88.61384 4.845172 13.48941
v 85.91456 4.875215 13.26154
v 84.20791 0.09543227 28.35087
v 85.36507 0.1239013 28.33155
v 85.32366 5.123019 28.24725
v 84.17753 5.094956 28.28897
v 85.95596 -0.1239029 13.34584
v 83.30253 -0.09543352 13.37965
v 85.91456 4.875215 13.26154
v 83.27215 4.90409 13.31775
v 82.95528 0.07020068 28.48826
v 84.20791 0.09543227 28.35087
v 84.17753 5.094956 28.28897
v 82.93363 5.06996 28.44414
v 83.30253 -0.09543352 13.37965
v 80.77644 -0.07020159 13.64808
v 83.27215 4.90409 13.31775
v 80.7548 4.929557 13.60396
v 81.61084 0.04913605 28.74131
v 82.95528 0.07020068 28.48826
v 82.93363 5.06996 28.44414
v 81.59599 5.049023 28.71103
v 80.77644 -0.07020159 13.64808
v 78.38678 -0.04913668 14.09224
v 80.7548 4.929557 13.60396
v 78.37193 4.95075 14.06196
v 80.18574 0.0323201 29.10435
v 81.61084 0.04913605 28.74131
v 81.59599 5.049023 28.71103
v 80.17609 5.032272 29.08468
v 78.38678 -0.04913668 14.09224
v 76.11466 -0.03232052 14.66752
v 78.37193 4.95075 14.06196
v 76.10502 4.967632 14.64785
v 78.71048 0.01957876 29.56358
v 80.18574 0.0323201 29.10435
v 80.17609 5.032272 29.08468
v 78.70468 5.019562 29.55176
v 76.11466 -0.03232052 14.66752
v 73.95216 -0.01957901 15.33837
v 76.10502 4.967632 14.64785
v 73.94637 4.980404 15.32654
v 77.21532 0.01048951 30.10078
v 78.71048 0.01957876 29.56358
v 78.70468 5.019562 29.55176
v 77.21223 5.010484 30.09448
v 73.95216 -0.01957901 15.33837
v 71.89205 -0.01048965 16.07715
v 73.94637 4.980404 15.32654
v 71.88896 4.989505 16.07084
v 75.68032 0.004430408 30.71578
v 77.21532 0.01048951 30.10078
v 77.21223 5.010484 30.09448
v 75.67902 5.004429 30.71312
v 71.89205 -0.01048965 16.07715
v 69.89173 -0.004430465 16.87771
v 71.88896 4.989505 16.07084
v 69.89043 4.995569 16.87505
v 74.13808 0.001067085 31.38927
v 75.68032 0.004430408 30.71578
v 75.67902 5.004429 30.71312
v 74.13777 5.001067 31.38863
v 69.89173 -0.004430465 16.87771
v 67.9582 -0.001067099 17.72146
v 69.89043 4.995569 16.87505
v 67.95789 4.998933 17.72082
v 72.51878 1.201692E-06 32.14787
v 74.13808 0.001067085 31.38927
v 74.13777 5.001067 31.38863
v 72.51878 5.000001 32.14787
v 67.9582 -0.001067099 17.72146
v 66.15765 -1.201695E-06 18.56347
v 67.95789 4.998933 17.72082
v 66.15765 4.999999 18.56347
v 72.60253 1.20039E-06 32.10793
v 72.51878 1.201692E-06 32.14787
v 72.51878 5.000001 32.14787
v 72.60253 5.000001 32.10793
v 66.15765 -1.201695E-06 18.56347
v 66.0181 -1.20039E-06 18.63034
v 66.15765 4.999999 18.56347
v 66.0181 4.999999 18.63034

vn -0.4306952 -0.1107533 -0.895676
vn -0.4305204 -0.1108302 -0.8957504
vn -0.4306952 -0.1107533 -0.895676
vn -0.4308698 -0.1106763 -0.8956015
vn 0.4312192 0.1108313 0.8954141
vn 0.431416 0.1107544 0.8953288
vn 0.431416 0.1107544 0.8953288
vn 0.4316128 0.1106774 0.8952435
vn -0.4056701 -0.1103524 -0.9073334
vn -0.4051355 -0.1105917 -0.9075432
vn -0.4056701 -0.1103524 -0.9073334
vn -0.4062046 -0.1101132 -0.9071234
vn 0.4054995 0.1105935 0.9073804
vn 0.4061777 0.1103549 0.9071061
vn 0.4061777 0.1103549 0.9071061
vn 0.4068557 0.1101163 0.9068313
vn -0.3756759 -0.1094731 -0.9202626
vn -0.3747214 -0.1098979 -0.9206011
vn -0.3756759 -0.1094731 -0.9202626
vn -0.37663 -0.1090481 -0.919923
vn 0.3754311 0.1099041 0.9203111
vn 0.3766977 0.1094819 0.9198438
vn 0.3766977 0.1094819 0.9198438
vn 0.3779639 0.1090593 0.9193745
vn -0.3391702 -0.1079761 -0.9345077
vn -0.3377265 -0.1086246 -0.9349554
vn -0.3391702 -0.1079761 -0.9345077
vn -0.3406135 -0.1073272 -0.9340574
vn 0.3388826 0.1086398 0.9345351
vn 0.3409039 0.1079984 0.9338741
vn 0.3409039 0.1079984 0.9338741
vn 0.3429246 0.1073562 0.9332081
vn -0.2940652 -0.1056736 -0.9499257
vn -0.2920665 -0.1065747 -0.9504415
vn -0.2940652 -0.1056736 -0.9499257
vn -0.2960638 -0.1047713 -0.9494047
vn 0.2939577 0.106609 0.9498545
vn 0.2969872 0.1057253 0.9490104
vn 0.2969872 0.1057253 0.9490104
vn 0.3000168 0.1048396 0.9481554
vn -0.2379088 -0.1023111 -0.965884
vn -0.2352864 -0.1035105 -0.9663983
vn -0.2379088 -0.1023111 -0.965884
vn -0.2405323 -0.1011093 -0.9653607
vn 0.2382943 0.1035821 0.9656534
vn 0.2426663 0.1024212 0.9646881
vn 0.2426663 0.1024212 0.9646881
vn 0.2470417 0.1012558 0.9636999
vn -0.1676731 -0.09755148 -0.9810043
vn -0.1643886 -0.09908101 -0.9814069
vn -0.1676731 -0.09755148 -0.9810043
vn -0.1709618 -0.09601761 -0.9805878
vn 0.1689551 0.09921872 0.980617
vn 0.1751728 0.09777036 0.9796712
vn 0.1751728 0.09777036 0.9796712
vn 0.1814062 0.09631252 0.9786806
vn -0.08085089 -0.09101637 -0.992562
vn -0.07690607 -0.09290226 -0.9927006
vn -0.08085089 -0.09101637 -0.992562
vn -0.08480649 -0.08912282 -0.9924036
vn 0.08316483 0.09313438 0.9921742
vn 0.09180368 0.09140798 0.9915729
vn 0.09180368 0.09140798 0.9915729
vn 0.1004936 0.08966275 0.9908893
vn 0.02275829 -0.08241189 -0.9963384
vn 0.02729564 -0.08464521 -0.9960372
vn 0.02275829 -0.08241189 -0.9963384
vn 0.01819896 -0.08016592 -0.9966154
vn -0.02096455 0.08492692 0.9961666
vn -0.009580767 0.08297257 0.9965058
vn -0.009580767 0.08297257 0.9965058
vn 0.001937362 0.08098411 0.9967135
vn 0.1374561 -0.0718848 -0.987896
vn 0.1424466 -0.07438636 -0.9870033
vn 0.1374561 -0.0718848 -0.987896
vn 0.1324272 -0.06936387 -0.9887627
vn -0.1399423 0.07451542 0.9873518
vn -0.1266445 0.07241333 0.9893016
vn -0.1266445 0.07241333 0.9893016
vn -0.1130811 0.07025928 0.9910985
vn 0.2495184 -0.06037799 -0.9664859
vn 0.254836 -0.06301799 -0.9649286
vn 0.2495184 -0.06037799 -0.9664859
vn 0.2441409 -0.05771075 -0.968021
vn -0.2586919 0.06279846 0.9639164
vn -0.2459237 0.06057055 0.9673948
vn -0.2459237 0.06057055 0.9673948
vn -0.232815 0.05827992 0.9707733
vn 0.3406267 -0.04949859 -0.9388947
vn 0.3462618 -0.05213484 -0.9366882
vn 0.3406267 -0.04949859 -0.9388947
vn 0.3349058 -0.04682705 -0.9410873
vn -0.3530858 0.05173262 0.9341595
vn -0.3426775 0.04938585 0.9381542
vn -0.3426775 0.04938585 0.9381542
vn -0.3319757 0.04697668 0.9421174
vn 0.3955618 -0.04066353 -0.9175386
vn 0.4017759 -0.0432394 -0.9147166
vn 0.3955618 -0.04066353 -0.9175386
vn 0.3892263 -0.03804408 -0.9203563
vn -0.4067032 0.04296154 0.9125496
vn -0.3986518 0.04050263 0.9162076
vn -0.3986518 0.04050263 0.9162076
vn -0.3903955 0.03798817 0.9198632
vn 0.4067062 -0.03428935 -0.9129153
vn 0.4140769 -0.03683583 -0.9094964
vn 0.4067062 -0.03428935 -0.9129153
vn 0.3991596 -0.03169004 -0.9163336
vn -0.4150573 0.0367873 0.9090512
vn -0.4085176 0.03420751 0.9121091
vn -0.4085176 0.03420751 0.9121091
vn -0.4018386 0.03158041 0.9151658
vn 0.3726284 -0.02981781 -0.9275014
vn 0.3819426 -0.03238478 -0.9236186
vn 0.3726284 -0.02981781 -0.9275014
vn 0.3630593 -0.02718872 -0.9313692
vn -0.3793364 0.03248849 0.9246882
vn -0.3735799 0.02978362 0.9271197
vn -0.3735799 0.02978362 0.9271197
vn -0.367725 0.02703948 0.9295413
vn 0.2971493 -0.02623692 -0.9544705
vn 0.3088122 -0.02885185 -0.9506853
vn 0.2971493 -0.02623692 -0.9544705
vn 0.2851609 -0.02355558 -0.9581901
vn -0.3052114 0.02895761 0.9518442
vn -0.2998385 0.02616661 0.9536311
vn -0.2998385 0.02616661 0.9536311
vn -0.2943952 0.02334434 0.9553986
vn 0.192404 -0.02266113 -0.9810542
vn 0.2054296 -0.02526578 -0.9783457
vn 0.192404 -0.02266113 -0.9810542
vn 0.1790729 -0.01999839 -0.9836324
vn -0.20442 0.02528616 0.9785566
vn -0.1993293 0.02253876 0.9796733
vn -0.1993293 0.02253876 0.9796733
vn -0.1941905 0.01976843 0.9807646
vn 0.07903269 -0.01876994 -0.9966953
vn 0.0912511 -0.02122959 -0.9956016
vn 0.07903269 -0.01876994 -0.9966953
vn 0.06662106 -0.01627093 -0.9976457
vn -0.0934064 0.02120148 0.9954023
vn -0.08868331 0.01866123 0.9958851
vn -0.08868331 0.01866123 0.9958851
vn -0.08393035 0.01610577 0.9963415
vn -0.0261255 -0.01480279 -0.9995491
vn -0.01627464 -0.01699254 -0.9997232
vn -0.0261255 -0.01480279 -0.9995491
vn -0.03606364 -0.01259151 -0.9992702
vn 0.01292062 0.01696578 0.9997725
vn 0.01715246 0.01474131 0.9997442
vn 0.01715246 0.01474131 0.9997442
vn 0.02140078 0.01250764 0.9996927
vn -0.1161653 -0.01113527 -0.9931675
vn -0.1087645 -0.01296782 -0.993983
vn -0.1161653 -0.01113527 -0.9931675
vn -0.1235983 -0.009292365 -0.9922889
vn 0.1057892 0.01295372 0.9943042
vn 0.1094183 0.0111083 0.9939337
vn 0.1094183 0.0111083 0.9939337
vn 0.1130552 0.009257814 0.9935455
vn -0.1901859 -0.007998069 -0.9817155
vn -0.184815 -0.009472999 -0.9827277
vn -0.1901859 -0.007998069 -0.9817155
vn -0.1955667 -0.006518499 -0.9806688
vn 0.1828079 0.009467624 0.9831031
vn 0.1858047 0.007988418 0.9825542
vn 0.1858047 0.007988418 0.9825542
vn 0.1888044 0.006506631 0.9819931
vn -0.2506117 -0.005448592 -0.9680724
vn -0.2467869 -0.006600225 -0.9690472
vn -0.2506117 -0.005448592 -0.9680724
vn -0.2544384 -0.004294994 -0.9670794
vn 0.2454894 0.006598555 0.9693769
vn 0.2478739 0.005445499 0.9687769
vn 0.2478739 0.005445499 0.9687769
vn 0.250259 0.00429122 0.9681694
vn -0.2998598 -0.003467529 -0.953977
vn -0.297185 -0.004329172 -0.9548101
vn -0.2998598 -0.003467529 -0.953977
vn -0.3025343 -0.002605119 -0.9531349
vn 0.2963085 0.004328557 0.9550825
vn 0.2981253 0.003466471 0.9545205
vn 0.2981253 0.003466471 0.9545205
vn 0.2999418 0.002603863 0.9539539
vn -0.3399285 -0.002007292 -0.9404491
vn -0.3381152 -0.002617916 -0.9411011
vn -0.3399285 -0.002007292 -0.9404491
vn -0.3417413 -0.001396401 -0.9397931
vn 0.3375728 0.002617572 0.9412957
vn 0.3388846 0.00200696 0.9408258
vn 0.3388846 0.00200696 0.9408258
vn 0.340196 0.001396155 0.9403535
vn -0.3730434 -0.0009954985 -0.9278134
vn -0.3719049 -0.001400504 -0.9282698
vn -0.3730434 -0.0009954985 -0.9278134
vn -0.3741813 -0.0005904183 -0.9273553
vn 0.3715667 0.001400471 0.9284052
vn 0.3724385 0.0009954491 0.9280562
vn 0.3724385 0.0009954491 0.9280562
vn 0.37331 0.0005903709 0.9277064
vn -0.4008122 -0.0003667854 -0.9161602
vn -0.4002002 -0.0005913999 -0.9164276
vn -0.4008122 -0.0003667854 -0.9161602
vn -0.4014241 -0.0001421575 -0.9158924
vn 0.3999567 0.0005913934 0.9165339
vn 0.4004442 0.0003667752 0.916321
vn 0.4004442 0.0003667752 0.916321
vn 0.4009317 0.0001421462 0.916108
vn -0.4244082 -7.113141E-05 -0.9054709
vn -0.424228 -0.0001422623 -0.9055554
vn -0.4244082 -7.113141E-05 -0.9054709
vn -0.4245884 0 -0.9053866
vn 0.4236071 0.0001422615 0.9058461
vn 0.4237691 7.113097E-05 0.9057702
vn 0.4237691 7.113097E-05 0.9057702
vn 0.4239312 0 0.9056944
vn 0.4304952 0 0.9025928
vn 0.4304952 0 0.9025928
vn 0.4304952 0 0.9025928
vn 0.4304952 0 0.9025928
vn 0.432162 0 0.901796
vn 0.432162 0 0.901796
vn 0.432162 0 0.901796
vn 0.432162 0 0.901796

vt 0 0
vt 0 0
vt 0 0
vt 0 0
vt 0 0
vt 0 0
vt 0 0
vt 0 0
vt 0 0
vt 0 0
vt 0 0
vt 0 0
vt 0 0
vt 0 0
vt 0 0
vt 0 0
vt 0 0
vt 0 0
vt 0 0
vt 0 0
vt 0 0
vt 0 0
vt 0 0
vt 0 0
vt 0 0
vt 0 0
vt 0 0
vt 0 0
vt 0 0
vt 0 0
vt 0 0
vt 0 0
vt 0 0
vt 0 0
vt 0 0
vt 0 0
vt 0 0
vt 0 0
vt 0 0
vt 0 0
vt 0 0
vt 0 0
vt 0 0
vt 0 0
vt 0 0
vt 0 0
vt 0 0
vt 0 0
vt 0 0
vt 0 0
vt 0 0
vt 0 0
vt 0 0
vt 0 0
vt 0 0
vt 0 0
vt 0 0
vt 0 0
vt 0 0
vt 0 0
vt 0 0
vt 0 0
vt 0 0
vt 0 0
vt 0 0
vt 0 0
vt 0 0
vt 0 0
vt 0 0
vt 0 0
vt 0 0
vt 0 0
vt 0 0
vt 0 0
vt 0 0
vt 0 0
vt 0 0
vt 0 0
vt 0 0
vt 0 0
vt 0 0
vt 0 0
vt 0 0
vt 0 0
vt 0 0
vt 0 0
vt 0 0
vt 0 0
vt 0 0
vt 0 0
vt 0 0
vt 0 0
vt 0 0
vt 0 0
vt 0 0
vt 0 0
vt 0 0
vt 0 0
vt 0 0
vt 0 0
vt 0 0
vt 0 0
vt 0 0
vt 0 0
vt 0 0
vt 0 0
vt 0 0
vt 0 0
vt 0 0
vt 0 0
vt 0 0
vt 0 0
vt 0 0
vt 0 0
vt 0 0
vt 0 0
vt 0 0
vt 0 0
vt 0 0
vt 0 0
vt 0 0
vt 0 0
vt 0 0
vt 0 0
vt 0 0
vt 0 0
vt 0 0
vt 0 0
vt 0 0
vt 0 0
vt 0 0
vt 0 0
vt 0 0
vt 0 0
vt 0 0
vt 0 0
vt 0 0
vt 0 0
vt 0 0
vt 0 0
vt 0 0
vt 0 0
vt 0 0
vt 0 0
vt 0 0
vt 0 0
vt 0 0
vt 0 0
vt 0 0
vt 0 0
vt 0 0
vt 0 0
vt 0 0
vt 0 0
vt 0 0
vt 0 0
vt 0 0
vt 0 0
vt 0 0
vt 0 0
vt 0 0
vt 0 0
vt 0 0
vt 0 0
vt 0 0
vt 0 0
vt 0 0
vt 0 0
vt 0 0
vt 0 0
vt 0 0
vt 0 0
vt 0 0
vt 0 0
vt 0 0
vt 0 0
vt 0 0
vt 0 0
vt 0 0
vt 0 0
vt 0 0
vt 0 0
vt 0 0
vt 0 0
vt 0 0
vt 0 0
vt 0 0
vt 0 0
vt 0 0
vt 0 0
vt 0 0
vt 0 0
vt 0 0
vt 0 0
vt 0 0
vt 0 0
vt 0 0
vt 0 0
vt 0 0
vt 0 0
vt 0 0
vt 0 0
vt 0 0
vt 0 0
vt 0 0
vt 0 0
vt 0 0
vt 0 0
vt 0 0
vt 0 0
vt 0 0
vt 0 0
vt 0 0
vt 0 0
vt 0 0
vt 0 0
vt 0 0
vt 0 0
vt 0 0
vt 0 0
vt 0 0
vt 0 0
vt 0 0
vt 0 0

g Track Texture
usemtl Track Texture
usemap Track Texture
f 2/2/2 1/1/1 3/3/3
f 3/3/3 1/1/1 4/4/4
f 6/6/6 5/5/5 7/7/7
f 6/6/6 7/7/7 8/8/8
f 10/10/10 9/9/9 11/11/11
f 11/11/11 9/9/9 12/12/12
f 14/14/14 13/13/13 15/15/15
f 14/14/14 15/15/15 16/16/16
f 18/18/18 17/17/17 19/19/19
f 19/19/19 17/17/17 20/20/20
f 22/22/22 21/21/21 23/23/23
f 22/22/22 23/23/23 24/24/24
f 26/26/26 25/25/25 27/27/27
f 27/27/27 25/25/25 28/28/28
f 30/30/30 29/29/29 31/31/31
f 30/30/30 31/31/31 32/32/32
f 34/34/34 33/33/33 35/35/35
f 35/35/35 33/33/33 36/36/36
f 38/38/38 37/37/37 39/39/39
f 38/38/38 39/39/39 40/40/40
f 42/42/42 41/41/41 43/43/43
f 43/43/43 41/41/41 44/44/44
f 46/46/46 45/45/45 47/47/47
f 46/46/46 47/47/47 48/48/48
f 50/50/50 49/49/49 51/51/51
f 51/51/51 49/49/49 52/52/52
f 54/54/54 53/53/53 55/55/55
f 54/54/54 55/55/55 56/56/56
f 58/58/58 57/57/57 59/59/59
f 59/59/59 57/57/57 60/60/60
f 62/62/62 61/61/61 63/63/63
f 62/62/62 63/63/63 64/64/64
f 66/66/66 65/65/65 67/67/67
f 67/67/67 65/65/65 68/68/68
f 70/70/70 69/69/69 71/71/71
f 70/70/70 71/71/71 72/72/72
f 74/74/74 73/73/73 75/75/75
f 75/75/75 73/73/73 76/76/76
f 78/78/78 77/77/77 79/79/79
f 78/78/78 79/79/79 80/80/80
f 82/82/82 81/81/81 83/83/83
f 83/83/83 81/81/81 84/84/84
f 86/86/86 85/85/85 87/87/87
f 86/86/86 87/87/87 88/88/88
f 90/90/90 89/89/89 91/91/91
f 91/91/91 89/89/89 92/92/92
f 94/94/94 93/93/93 95/95/95
f 94/94/94 95/95/95 96/96/96
f 98/98/98 97/97/97 99/99/99
f 99/99/99 97/97/97 100/100/100
f 102/102/102 101/101/101 103/103/103
f 102/102/102 103/103/103 104/104/104
f 106/106/106 105/105/105 107/107/107
f 107/107/107 105/105/105 108/108/108
f 110/110/110 109/109/109 111/111/111
f 110/110/110 111/111/111 112/112/112
f 114/114/114 113/113/113 115/115/115
f 115/115/115 113/113/113 116/116/116
f 118/118/118 117/117/117 119/119/119
f 118/118/118 119/119/119 120/120/120
f 122/122/122 121/121/121 123/123/123
f 123/123/123 121/121/121 124/124/124
f 126/126/126 125/125/125 127/127/127
f 126/126/126 127/127/127 128/128/128
f 130/130/130 129/129/129 131/131/131
f 131/131/131 129/129/129 132/132/132
f 134/134/134 133/133/133 135/135/135
f 134/134/134 135/135/135 136/136/136
f 138/138/138 137/137/137 139/139/139
f 139/139/139 137/137/137 140/140/140
f 142/142/142 141/141/141 143/143/143
f 142/142/142 143/143/143 144/144/144
f 146/146/146 145/145/145 147/147/147
f 147/147/147 145/145/145 148/148/148
f 150/150/150 149/149/149 151/151/151
f 150/150/150 151/151/151 152/152/152
f 154/154/154 153/153/153 155/155/155
f 155/155/155 153/153/153 156/156/156
f 158/158/158 157/157/157 159/159/159
f 158/158/158 159/159/159 160/160/160
f 162/162/162 161/161/161 163/163/163
f 163/163/163 161/161/161 164/164/164
f 166/166/166 165/165/165 167/167/167
f 166/166/166 167/167/167 168/168/168
f 170/170/170 169/169/169 171/171/171
f 171/171/171 169/169/169 172/172/172
f 174/174/174 173/173/173 175/175/175
f 174/174/174 175/175/175 176/176/176
f 178/178/178 177/177/177 179/179/179
f 179/179/179 177/177/177 180/180/180
f 182/182/182 181/181/181 183/183/183
f 182/182/182 183/183/183 184/184/184
f 186/186/186 185/185/185 187/187/187
f 187/187/187 185/185/185 188/188/188
f 190/190/190 189/189/189 191/191/191
f 190/190/190 191/191/191 192/192/192
f 194/194/194 193/193/193 195/195/195
f 195/195/195 193/193/193 196/196/196
f 198/198/198 197/197/197 199/199/199
f 198/198/198 199/199/199 200/200/200
f 202/202/202 201/201/201 203/203/203
f 203/203/203 201/201/201 204/204/204
f 206/206/206 205/205/205 207/207/207
f 206/206/206 207/207/207 208/208/208
f 210/210/210 209/209/209 211/211/211
f 211/211/211 209/209/209 212/212/212
f 214/214/214 213/213/213 215/215/215
f 214/214/214 215/215/215 216/216/216
f 218/218/218 217/217/217 219/219/219
f 219/219/219 217/217/217 220/220/220
f 222/222/222 221/221/221 223/223/223
f 222/222/222 223/223/223 224/224/224
