mtllib ./Track1_track_14.mtl
# Unity Asset Buildr OBJ Exporter
 http://buildr.jasperstocker.com
g Track1_track_14
v -33.21593 2.474709E-05 81.54551
v -35.07609 0.2493829 81.98294
v -36.18326 0.2475734 77.15047
v -34.32822 8.249031E-06 76.71204
v -37.29042 0.2457639 72.31802
v -35.44051 -8.249032E-06 71.87858
v -38.39759 0.2439543 67.48555
v -36.5528 -2.474709E-05 67.04511
v -35.07609 0.2493829 81.98294
v -37.02659 0.5057833 82.41111
v -38.05183 0.4982228 77.56255
v -36.18326 0.2475734 77.15047
v -39.07707 0.4906623 72.71399
v -37.29042 0.2457639 72.31802
v -40.10231 0.4831018 67.86543
v -38.39759 0.2439543 67.48555
v -37.02659 0.5057833 82.41111
v -39.02561 0.7767791 82.81045
v -39.94822 0.7585098 77.94352
v -38.05183 0.4982228 77.56255
v -40.87082 0.7402403 73.07659
v -39.07707 0.4906623 72.71399
v -41.79342 0.721971 68.20966
v -40.10231 0.4831018 67.86543
v -39.02561 0.7767791 82.81045
v -41.07369 1.062168 83.16792
v -41.8611 1.027031 78.27991
v -39.94822 0.7585098 77.94352
v -42.64852 0.9918939 73.39189
v -40.87082 0.7402403 73.07659
v -43.43593 0.956757 68.50388
v -41.79342 0.721971 68.20966
v -41.07369 1.062168 83.16792
v -43.21162 1.367238 83.46988
v -43.814 1.307098 78.55877
v -41.8611 1.027031 78.27991
v -44.41637 1.246957 73.64765
v -42.64852 0.9918939 73.39189
v -45.01874 1.186817 68.73654
v -43.43593 0.956757 68.50388
v -43.21162 1.367238 83.46988
v -45.48511 1.694881 83.68604
v -45.81805 1.598951 78.75317
v -43.814 1.307098 78.55877
v -46.15099 1.50302 73.8203
v -44.41637 1.246957 73.64765
v -46.48392 1.40709 68.88743
v -45.01874 1.186817 68.73654
v -45.48511 1.694881 83.68604
v -47.99346 2.048912 83.75385
v -47.90591 1.902684 78.81486
v -45.81805 1.598951 78.75317
v -47.81836 1.756457 73.87586
v -46.15099 1.50302 73.8203
v -47.73081 1.610229 68.93687
v -46.48392 1.40709 68.88743
v -47.99346 2.048912 83.75385
v -50.90903 2.42554 83.51589
v -50.12587 2.211481 78.64122
v -47.90591 1.902684 78.81486
v -49.34272 1.997422 73.76654
v -47.81836 1.756457 73.87586
v -48.55956 1.783364 68.89187
v -47.73081 1.610229 68.93687
v -50.90903 2.42554 83.51589
v -54.30314 2.786958 82.61795
v -50.12587 2.211481 78.64122
v -52.47043 2.493737 78.02564
v -49.34272 1.997422 73.76654
v -50.63772 2.200516 73.43334
v -48.55956 1.783364 68.89187
v -48.80501 1.907295 68.84103
v -54.30314 2.786958 82.61795
v -57.44435 3.031136 80.91463
v -52.47043 2.493737 78.02564
v -54.61168 2.664327 76.83728
v -50.63772 2.200516 73.43334
v -51.779 2.297518 72.75992
v -48.80501 1.907295 68.84103
v -48.94633 1.930709 68.68256
v -57.44435 3.031136 80.91463
v -59.34753 3.134974 79.3688
v -54.61168 2.664327 76.83728
v -56.21356 2.665059 75.50531
v -51.779 2.297518 72.75992
v -53.0796 2.195145 71.64182
v -48.94633 1.930709 68.68256
v -49.94563 1.725231 67.77833
v -59.34753 3.134974 79.3688
v -60.18446 3.20173 78.67836
v -56.21356 2.665059 75.50531
v -57.49516 2.550445 74.51451
v -53.0796 2.195145 71.64182
v -54.80586 1.899161 70.35066
v -49.94563 1.725231 67.77833
v -52.11656 1.247877 66.18681
v -60.18446 3.20173 78.67836
v -60.73103 3.218554 78.38146
v -58.79826 2.373831 73.85458
v -57.49516 2.550445 74.51451
v -56.8655 1.529107 69.3277
v -54.80586 1.899161 70.35066
v -54.93273 0.6843835 64.80082
v -52.11656 1.247877 66.18681
v -60.73103 3.218554 78.38146
v -61.52201 3.152153 78.13766
v -60.26106 2.16493 73.41258
v -58.79826 2.373831 73.85458
v -59.00011 1.177706 68.6875
v -56.8655 1.529107 69.3277
v -57.73916 0.190482 63.96243
v -54.93273 0.6843835 64.80082
v -61.52201 3.152153 78.13766
v -62.64251 3.026471 77.93907
v -61.87011 1.946004 73.13339
v -60.26106 2.16493 73.41258
v -61.09771 0.8655367 68.32772
v -59.00011 1.177706 68.6875
v -60.32531 -0.2149302 63.52205
v -57.73916 0.190482 63.96243
v -62.64251 3.026471 77.93907
v -63.99684 2.871015 77.81512
v -63.57148 1.729517 72.98241
v -61.87011 1.946004 73.13339
v -63.14612 0.5880197 68.1497
v -61.09771 0.8655367 68.32772
v -62.72076 -0.5534776 63.31698
v -60.32531 -0.2149302 63.52205
v -63.99684 2.871015 77.81512
v -65.50672 2.701656 77.76803
v -65.33434 1.51938 72.9307
v -63.57148 1.729517 72.98241
v -65.16194 0.3371036 68.09338
v -63.14612 0.5880197 68.1497
v -64.98956 -0.8451726 63.25605
v -62.72076 -0.5534776 63.31698
v -65.50672 2.701656 77.76803
v -67.10889 2.527377 77.78961
v -67.12811 1.317806 72.95676
v -65.33434 1.51938 72.9307
v -67.14732 0.1082347 68.1239
v -65.16194 0.3371036 68.09338
v -67.16653 -1.101336 63.29105
v -64.98956 -0.8451726 63.25605
v -67.10889 2.527377 77.78961
v -68.76797 2.352434 77.86885
v -68.93704 1.124998 73.04388
v -67.12811 1.317806 72.95676
v -69.10611 -0.1024372 68.21892
v -67.14732 0.1082347 68.1239
v -69.27518 -1.329873 63.39395
v -67.16653 -1.101336 63.29105
v -68.76797 2.352434 77.86885
v -70.46536 2.178626 77.99612
v -70.75526 0.9402022 73.17997
v -68.93704 1.124998 73.04388
v -71.04517 -0.2982211 68.36382
v -69.10611 -0.1024372 68.21892
v -71.33507 -1.536644 63.54768
v -69.27518 -1.329873 63.39395
v -70.46536 2.178626 77.99612
v -72.21169 2.005845 78.16571
v -72.59277 0.761743 73.35749
v -70.75526 0.9402022 73.17997
v -72.97385 -0.4823588 68.54928
v -71.04517 -0.2982211 68.36382
v -73.35493 -1.72646 63.74106
v -71.33507 -1.536644 63.54768
v -72.21169 2.005845 78.16571
v -73.52868 1.86827 78.31464
v -74.04097 0.6227565 73.521
v -72.59277 0.761743 73.35749
v -74.55325 -0.6227567 68.72736
v -72.97385 -0.4823588 68.54928
v -75.06554 -1.86827 63.93372
v -73.35493 -1.72646 63.74106

vn 0.1257821 0.9916319 -0.02906896
vn 0.1260469 0.9915929 -0.0292499
vn 0.1256758 0.991645 -0.02908465
vn 0.1253036 0.991697 -0.0289189
vn 0.1250899 0.9917229 -0.02895024
vn 0.1247157 0.9917749 -0.02878385
vn 0.1246084 0.991788 -0.02879947
vn 0.1243403 0.9918269 -0.0286169
vn 0.1253783 0.9916974 -0.02857645
vn 0.1242752 0.9918575 -0.02782487
vn 0.1258296 0.9916424 -0.02850142
vn 0.127474 0.9914115 -0.02921726
vn 0.1284479 0.9912901 -0.02907001
vn 0.1302469 0.9910327 -0.0298359
vn 0.130774 0.9909652 -0.02976424
vn 0.1321586 0.9907545 -0.03064984
vn 0.1294562 0.9911729 -0.0285896
vn 0.1287623 0.9912764 -0.02812998
vn 0.1297383 0.9911376 -0.02853536
vn 0.130785 0.9909873 -0.02897018
vn 0.1314054 0.9909085 -0.02886284
vn 0.1325762 0.9907386 -0.02933531
vn 0.1329189 0.9906942 -0.02928257
vn 0.1338402 0.9905534 -0.02984536
vn 0.1334829 0.9906319 -0.02882268
vn 0.1330636 0.990696 -0.02855673
vn 0.1336519 0.9906102 -0.02878502
vn 0.1342963 0.9905158 -0.02903505
vn 0.1346794 0.9904659 -0.02895935
vn 0.1354266 0.9903559 -0.02923772
vn 0.1356455 0.9903271 -0.02920011
vn 0.1362549 0.9902331 -0.0295464
vn 0.137482 0.9900759 -0.02912531
vn 0.1371957 0.9901208 -0.02895266
vn 0.1375965 0.990061 -0.02909451
vn 0.1380494 0.9899932 -0.02925483
vn 0.1383207 0.9899572 -0.02919151
vn 0.1388743 0.9898741 -0.02937611
vn 0.1390375 0.9898523 -0.02934374
vn 0.1395133 0.989778 -0.0295891
vn 0.1405384 0.9896491 -0.0290434
vn 0.1399091 0.9897487 -0.02869075
vn 0.1407868 0.9896163 -0.02896
vn 0.1418277 0.9894581 -0.02927929
vn 0.1424609 0.9893726 -0.02909947
vn 0.1438527 0.9891597 -0.02948591
vn 0.1442704 0.9891018 -0.02938931
vn 0.1455827 0.9888922 -0.02996633
vn 0.1408454 0.9896418 -0.02777703
vn 0.138994 0.9899293 -0.02684473
vn 0.1415606 0.9895487 -0.02745756
vn 0.1448586 0.9890491 -0.02824514
vn 0.1469308 0.9887646 -0.02749426
vn 0.1521036 0.9879534 -0.0285031
vn 0.1537341 0.9877141 -0.02805012
vn 0.1595678 0.9867322 -0.02995893
vn 0.1341806 0.9906549 -0.02446465
vn 0.1298997 0.9912682 -0.02265964
vn 0.1357439 0.9904665 -0.023445
vn 0.1442825 0.9892309 -0.02459215
vn 0.1499682 0.9884513 -0.02176462
vn 0.1680524 0.9855115 -0.02292054
vn 0.1745931 0.9844241 -0.02065035
vn 0.205746 0.9782779 -0.02531649
vn 0.1125292 0.9933201 -0.02554047
vn 0.1168848 0.9929253 -0.02090806
vn 0.1193993 0.9926107 -0.02162705
vn 0.1310656 0.9912607 -0.01496868
vn 0.1422508 0.9897003 -0.01606475
vn 0.1832821 0.9830583 0.002020428
vn 0.2065531 0.9784244 0.004645635
vn 0.4288828 0.8961456 0.1139404
vn 0.09194323 0.9954017 -0.02686386
vn 0.09241452 0.9953799 -0.02604839
vn 0.09280998 0.9953426 -0.0260687
vn 0.09429711 0.9952375 -0.02470404
vn 0.09603382 0.9950772 -0.02447003
vn 0.1017875 0.9946001 -0.02024672
vn 0.105584 0.9942312 -0.01887408
vn 0.1481659 0.9888637 0.01397528
vn 0.08127566 0.9961402 -0.0331503
vn 0.0716766 0.9961179 -0.05110367
vn 0.06411592 0.9965419 -0.05285263
vn 0.04265268 0.9960893 -0.07737506
vn 0.02241062 0.9962675 -0.08336029
vn -0.01032334 0.9929751 -0.1178725
vn -0.02461306 0.9920977 -0.1230308
vn -0.05428386 0.9849925 -0.163838
vn 0.107214 0.9936582 -0.03388876
vn 0.05564939 0.993589 -0.0984074
vn 0.03581199 0.9937217 -0.1059931
vn -0.007427486 0.9888167 -0.1489507
vn -0.03038049 0.9874449 -0.1550153
vn -0.05320683 0.9822341 -0.1799595
vn -0.06076401 0.9815713 -0.1811786
vn -0.06981508 0.9777087 -0.1980187
vn 0.002054438 0.9856855 -0.1685817
vn 0.1056258 0.9846929 -0.1386481
vn -0.0124582 0.9835232 -0.1803521
vn -0.0541974 0.9794174 -0.1944328
vn -0.06318717 0.9768606 -0.2043296
vn -0.0801 0.9747608 -0.2083878
vn -0.08207998 0.9739666 -0.2113104
vn -0.09091944 0.9732586 -0.2109533
vn -0.05465561 0.9757255 -0.2120668
vn -0.0176599 0.9777566 -0.2089984
vn -0.06137378 0.9744393 -0.2161052
vn -0.08174009 0.9722326 -0.2192771
vn -0.08721601 0.9707707 -0.2236014
vn -0.09680923 0.9696794 -0.2243878
vn -0.09823383 0.9692038 -0.2258184
vn -0.1033238 0.9688858 -0.2249103
vn -0.08255737 0.9701351 -0.2280835
vn -0.06827536 0.9709638 -0.2292767
vn -0.08584882 0.9694704 -0.2296888
vn -0.09692127 0.9683732 -0.2299119
vn -0.1006127 0.9674653 -0.2321378
vn -0.1071381 0.9668123 -0.2319383
vn -0.1083029 0.9664794 -0.2327832
vn -0.1120105 0.9662973 -0.2317829
vn -0.09658594 0.9671915 -0.2349718
vn -0.08942203 0.9675315 -0.2364035
vn -0.09848165 0.966809 -0.2357576
vn -0.1052186 0.9662194 -0.2352643
vn -0.1078045 0.9656254 -0.2365283
vn -0.1124516 0.9652193 -0.2360221
vn -0.1133857 0.9649807 -0.23655
vn -0.1161957 0.9648764 -0.2356103
vn -0.1047542 0.9654796 -0.2384862
vn -0.100837 0.9656214 -0.2395981
vn -0.1058845 0.9652545 -0.2388977
vn -0.1100039 0.9649364 -0.2383211
vn -0.1117358 0.9645594 -0.2390403
vn -0.114883 0.9643191 -0.2385177
vn -0.1155666 0.9641583 -0.238837
vn -0.1175595 0.9641068 -0.2380712
vn -0.1101119 0.9644356 -0.2402901
vn -0.1081605 0.9644885 -0.240963
vn -0.1107087 0.964319 -0.2404839
vn -0.1129047 0.9641676 -0.2400697
vn -0.1138854 0.9639636 -0.2404251
vn -0.1156763 0.9638434 -0.2400519
vn -0.1160862 0.9637532 -0.2402158
vn -0.1172562 0.9637346 -0.2397219
vn -0.1137663 0.9638362 -0.2409917
vn -0.1131547 0.9638484 -0.2412309
vn -0.1139614 0.9637989 -0.241049
vn -0.1146811 0.9637541 -0.2408866
vn -0.1150164 0.963687 -0.2409947
vn -0.1156296 0.9636507 -0.2408469
vn -0.1157754 0.9636204 -0.2408981
vn -0.1161847 0.9636173 -0.240713
vn -0.1163317 0.9635516 -0.2409047
vn -0.1167151 0.9635464 -0.2407407
vn -0.1162055 0.9635754 -0.2408708
vn -0.11574 0.9636017 -0.2409897
vn -0.1155162 0.9636449 -0.2409243
vn -0.1151071 0.9636664 -0.2410337
vn -0.1150072 0.9636863 -0.2410022
vn -0.11473 0.9636862 -0.2411345
vn -0.1177097 0.9635285 -0.2403278
vn -0.1186288 0.9635212 -0.239904
vn -0.1173982 0.963586 -0.2402491
vn -0.1162473 0.9636452 -0.2405714
vn -0.1156775 0.9637521 -0.2404175
vn -0.1146331 0.9638016 -0.2407191
vn -0.1143714 0.9638515 -0.2406439
vn -0.1136512 0.9638472 -0.2410024
vn -0.1232737 0.9633342 -0.2383082
vn -0.1273789 0.963208 -0.2366538
vn -0.1219267 0.9635563 -0.2381035
vn -0.1171071 0.9638383 -0.2393779
vn -0.114813 0.9642156 -0.2389693
vn -0.1107584 0.9644119 -0.240088
vn -0.1097697 0.9645751 -0.2398865
vn -0.1071151 0.9645737 -0.2410891

vt 0 584.3923
vt 0 586.1923
vt 0.3333333 586.1923
vt 0.3333333 584.3923
vt 0.6666667 586.1923
vt 0.6666667 584.3923
vt 1 586.1923
vt 1 584.3923
vt 0 586.1923
vt 0 587.9924
vt 0.3333333 587.9924
vt 0.3333333 586.1923
vt 0.6666667 587.9924
vt 0.6666667 586.1923
vt 1 587.9924
vt 1 586.1923
vt 0 587.9924
vt 0 589.7924
vt 0.3333333 589.7924
vt 0.3333333 587.9924
vt 0.6666667 589.7924
vt 0.6666667 587.9924
vt 1 589.7924
vt 1 587.9924
vt 0 589.7924
vt 0 591.5925
vt 0.3333333 591.5925
vt 0.3333333 589.7924
vt 0.6666667 591.5925
vt 0.6666667 589.7924
vt 1 591.5925
vt 1 589.7924
vt 0 591.5925
vt 0 593.3925
vt 0.3333333 593.3925
vt 0.3333333 591.5925
vt 0.6666667 593.3925
vt 0.6666667 591.5925
vt 1 593.3925
vt 1 591.5925
vt 0 593.3925
vt 0 595.1926
vt 0.3333333 595.1926
vt 0.3333333 593.3925
vt 0.6666667 595.1926
vt 0.6666667 593.3925
vt 1 595.1926
vt 1 593.3925
vt 0 595.1926
vt 0 596.9926
vt 0.3333333 596.9926
vt 0.3333333 595.1926
vt 0.6666667 596.9926
vt 0.6666667 595.1926
vt 1 596.9926
vt 1 595.1926
vt 0 596.9926
vt 0 598.7926
vt 0.3333333 598.7926
vt 0.3333333 596.9926
vt 0.6666667 598.7926
vt 0.6666667 596.9926
vt 1 598.7926
vt 1 596.9926
vt 0 598.7926
vt 0 600.5927
vt 0.3333333 598.7926
vt 0.3333333 600.5927
vt 0.6666667 598.7926
vt 0.6666667 600.5927
vt 1 598.7926
vt 1 600.5927
vt 0 600.5927
vt 0 602.3927
vt 0.3333333 600.5927
vt 0.3333333 602.3927
vt 0.6666667 600.5927
vt 0.6666667 602.3927
vt 1 600.5927
vt 1 602.3927
vt 0 602.3927
vt 0 604.1927
vt 0.3333333 602.3927
vt 0.3333333 604.1927
vt 0.6666667 602.3927
vt 0.6666667 604.1927
vt 1 602.3927
vt 1 604.1927
vt 0 604.1927
vt 0 605.9928
vt 0.3333333 604.1927
vt 0.3333333 605.9928
vt 0.6666667 604.1927
vt 0.6666667 605.9928
vt 1 604.1927
vt 1 605.9928
vt 0 605.9928
vt 0 607.7928
vt 0.3333333 607.7928
vt 0.3333333 605.9928
vt 0.6666667 607.7928
vt 0.6666667 605.9928
vt 1 607.7928
vt 1 605.9928
vt 0 607.7928
vt 0 609.5929
vt 0.3333333 609.5929
vt 0.3333333 607.7928
vt 0.6666667 609.5929
vt 0.6666667 607.7928
vt 1 609.5929
vt 1 607.7928
vt 0 609.5929
vt 0 611.3929
vt 0.3333333 611.3929
vt 0.3333333 609.5929
vt 0.6666667 611.3929
vt 0.6666667 609.5929
vt 1 611.3929
vt 1 609.5929
vt 0 611.3929
vt 0 613.193
vt 0.3333333 613.193
vt 0.3333333 611.3929
vt 0.6666667 613.193
vt 0.6666667 611.3929
vt 1 613.193
vt 1 611.3929
vt 0 613.193
vt 0 614.993
vt 0.3333333 614.993
vt 0.3333333 613.193
vt 0.6666667 614.993
vt 0.6666667 613.193
vt 1 614.993
vt 1 613.193
vt 0 614.993
vt 0 616.7931
vt 0.3333333 616.7931
vt 0.3333333 614.993
vt 0.6666667 616.7931
vt 0.6666667 614.993
vt 1 616.7931
vt 1 614.993
vt 0 616.7931
vt 0 618.5931
vt 0.3333333 618.5931
vt 0.3333333 616.7931
vt 0.6666667 618.5931
vt 0.6666667 616.7931
vt 1 618.5931
vt 1 616.7931
vt 0 618.5931
vt 0 620.3932
vt 0.3333333 620.3932
vt 0.3333333 618.5931
vt 0.6666667 620.3932
vt 0.6666667 618.5931
vt 1 620.3932
vt 1 618.5931
vt 0 620.3932
vt 0 622.1932
vt 0.3333333 622.1932
vt 0.3333333 620.3932
vt 0.6666667 622.1932
vt 0.6666667 620.3932
vt 1 622.1932
vt 1 620.3932
vt 0 622.1932
vt 0 623.9933
vt 0.3333333 623.9933
vt 0.3333333 622.1932
vt 0.6666667 623.9933
vt 0.6666667 622.1932
vt 1 623.9933
vt 1 622.1932

g Track Texture
usemtl Track Texture
usemap Track Texture
f 2/2/2 1/1/1 3/3/3
f 3/3/3 1/1/1 4/4/4
f 3/3/3 4/4/4 5/5/5
f 5/5/5 4/4/4 6/6/6
f 5/5/5 6/6/6 7/7/7
f 7/7/7 6/6/6 8/8/8
f 10/10/10 9/9/9 11/11/11
f 11/11/11 9/9/9 12/12/12
f 11/11/11 12/12/12 13/13/13
f 13/13/13 12/12/12 14/14/14
f 13/13/13 14/14/14 15/15/15
f 15/15/15 14/14/14 16/16/16
f 18/18/18 17/17/17 19/19/19
f 19/19/19 17/17/17 20/20/20
f 19/19/19 20/20/20 21/21/21
f 21/21/21 20/20/20 22/22/22
f 21/21/21 22/22/22 23/23/23
f 23/23/23 22/22/22 24/24/24
f 26/26/26 25/25/25 27/27/27
f 27/27/27 25/25/25 28/28/28
f 27/27/27 28/28/28 29/29/29
f 29/29/29 28/28/28 30/30/30
f 29/29/29 30/30/30 31/31/31
f 31/31/31 30/30/30 32/32/32
f 34/34/34 33/33/33 35/35/35
f 35/35/35 33/33/33 36/36/36
f 35/35/35 36/36/36 37/37/37
f 37/37/37 36/36/36 38/38/38
f 37/37/37 38/38/38 39/39/39
f 39/39/39 38/38/38 40/40/40
f 42/42/42 41/41/41 43/43/43
f 43/43/43 41/41/41 44/44/44
f 43/43/43 44/44/44 45/45/45
f 45/45/45 44/44/44 46/46/46
f 45/45/45 46/46/46 47/47/47
f 47/47/47 46/46/46 48/48/48
f 50/50/50 49/49/49 51/51/51
f 51/51/51 49/49/49 52/52/52
f 51/51/51 52/52/52 53/53/53
f 53/53/53 52/52/52 54/54/54
f 53/53/53 54/54/54 55/55/55
f 55/55/55 54/54/54 56/56/56
f 58/58/58 57/57/57 59/59/59
f 59/59/59 57/57/57 60/60/60
f 59/59/59 60/60/60 61/61/61
f 61/61/61 60/60/60 62/62/62
f 61/61/61 62/62/62 63/63/63
f 63/63/63 62/62/62 64/64/64
f 66/66/66 65/65/65 67/67/67
f 66/66/66 67/67/67 68/68/68
f 68/68/68 67/67/67 69/69/69
f 68/68/68 69/69/69 70/70/70
f 70/70/70 69/69/69 71/71/71
f 70/70/70 71/71/71 72/72/72
f 74/74/74 73/73/73 75/75/75
f 74/74/74 75/75/75 76/76/76
f 76/76/76 75/75/75 77/77/77
f 76/76/76 77/77/77 78/78/78
f 78/78/78 77/77/77 79/79/79
f 78/78/78 79/79/79 80/80/80
f 82/82/82 81/81/81 83/83/83
f 82/82/82 83/83/83 84/84/84
f 84/84/84 83/83/83 85/85/85
f 84/84/84 85/85/85 86/86/86
f 86/86/86 85/85/85 87/87/87
f 86/86/86 87/87/87 88/88/88
f 90/90/90 89/89/89 91/91/91
f 90/90/90 91/91/91 92/92/92
f 92/92/92 91/91/91 93/93/93
f 92/92/92 93/93/93 94/94/94
f 94/94/94 93/93/93 95/95/95
f 94/94/94 95/95/95 96/96/96
f 98/98/98 97/97/97 99/99/99
f 99/99/99 97/97/97 100/100/100
f 99/99/99 100/100/100 101/101/101
f 101/101/101 100/100/100 102/102/102
f 101/101/101 102/102/102 103/103/103
f 103/103/103 102/102/102 104/104/104
f 106/106/106 105/105/105 107/107/107
f 107/107/107 105/105/105 108/108/108
f 107/107/107 108/108/108 109/109/109
f 109/109/109 108/108/108 110/110/110
f 109/109/109 110/110/110 111/111/111
f 111/111/111 110/110/110 112/112/112
f 114/114/114 113/113/113 115/115/115
f 115/115/115 113/113/113 116/116/116
f 115/115/115 116/116/116 117/117/117
f 117/117/117 116/116/116 118/118/118
f 117/117/117 118/118/118 119/119/119
f 119/119/119 118/118/118 120/120/120
f 122/122/122 121/121/121 123/123/123
f 123/123/123 121/121/121 124/124/124
f 123/123/123 124/124/124 125/125/125
f 125/125/125 124/124/124 126/126/126
f 125/125/125 126/126/126 127/127/127
f 127/127/127 126/126/126 128/128/128
f 130/130/130 129/129/129 131/131/131
f 131/131/131 129/129/129 132/132/132
f 131/131/131 132/132/132 133/133/133
f 133/133/133 132/132/132 134/134/134
f 133/133/133 134/134/134 135/135/135
f 135/135/135 134/134/134 136/136/136
f 138/138/138 137/137/137 139/139/139
f 139/139/139 137/137/137 140/140/140
f 139/139/139 140/140/140 141/141/141
f 141/141/141 140/140/140 142/142/142
f 141/141/141 142/142/142 143/143/143
f 143/143/143 142/142/142 144/144/144
f 146/146/146 145/145/145 147/147/147
f 147/147/147 145/145/145 148/148/148
f 147/147/147 148/148/148 149/149/149
f 149/149/149 148/148/148 150/150/150
f 149/149/149 150/150/150 151/151/151
f 151/151/151 150/150/150 152/152/152
f 154/154/154 153/153/153 155/155/155
f 155/155/155 153/153/153 156/156/156
f 155/155/155 156/156/156 157/157/157
f 157/157/157 156/156/156 158/158/158
f 157/157/157 158/158/158 159/159/159
f 159/159/159 158/158/158 160/160/160
f 162/162/162 161/161/161 163/163/163
f 163/163/163 161/161/161 164/164/164
f 163/163/163 164/164/164 165/165/165
f 165/165/165 164/164/164 166/166/166
f 165/165/165 166/166/166 167/167/167
f 167/167/167 166/166/166 168/168/168
f 170/170/170 169/169/169 171/171/171
f 171/171/171 169/169/169 172/172/172
f 171/171/171 172/172/172 173/173/173
f 173/173/173 172/172/172 174/174/174
f 173/173/173 174/174/174 175/175/175
f 175/175/175 174/174/174 176/176/176
