mtllib ./Track1_trackCollider_0.mtl
# Unity Asset Buildr OBJ Exporter
 http://buildr.jasperstocker.com
g Track1_trackCollider_0
v -86.91831 -1.213596E-07 -36.3479
v -86.68003 9.360485E-08 -34.08393
v -86.68003 5 -34.08393
v -86.91831 5.000001 -36.3479
v -71.76531 -9.360485E-08 -35.68118
v -71.99635 1.213596E-07 -37.87592
v -71.76531 5 -35.68118
v -71.99635 5.000001 -37.87592
v -87.11709 -1.052516E-06 -38.35445
v -86.91831 -1.213596E-07 -36.3479
v -86.91831 5.000001 -36.3479
v -87.11709 4.999999 -38.35445
v -71.99635 1.213596E-07 -37.87592
v -72.18159 1.052516E-06 -39.74394
v -71.99635 5.000001 -37.87592
v -72.18159 5.000001 -39.74394
v -87.28937 -2.154102E-06 -40.34247
v -87.11709 -1.052516E-06 -38.35445
v -87.11709 4.999999 -38.35445
v -87.28937 4.999997 -40.34248
v -72.18159 1.052516E-06 -39.74394
v -72.33424 2.154102E-06 -41.50183
v -72.18159 5.000001 -39.74394
v -72.33424 5.000002 -41.50183
v -87.43379 -3.145569E-06 -42.45045
v -87.28937 -2.154102E-06 -40.34247
v -87.28937 4.999997 -40.34248
v -87.43379 4.999997 -42.45045
v -72.33424 2.154102E-06 -41.50183
v -72.45731 3.145569E-06 -43.28991
v -72.33424 5.000002 -41.50183
v -72.45731 5.000003 -43.28991
v -87.5299 -4.390627E-06 -44.65884
v -87.43379 -3.145569E-06 -42.45045
v -87.43379 4.999997 -42.45045
v -87.5299 4.999995 -44.65885
v -72.45731 3.145569E-06 -43.28991
v -72.53544 4.390627E-06 -45.0662
v -72.45731 5.000003 -43.28991
v -72.53544 5.000004 -45.06621
v -87.55373 -5.485855E-06 -46.94899
v -87.5299 -4.390627E-06 -44.65884
v -87.5299 4.999995 -44.65885
v -87.55373 4.999994 -46.949
v -72.53544 4.390627E-06 -45.0662
v -72.5546 5.485855E-06 -46.7872
v -72.53544 5.000004 -45.06621
v -72.5546 5.000005 -46.78721
v -87.47589 -7.145323E-06 -49.30846
v -87.55373 -5.485855E-06 -46.94899
v -87.55373 4.999994 -46.949
v -87.4759 4.999993 -49.30848
v -72.5546 5.485855E-06 -46.7872
v -72.50331 7.145323E-06 -48.40196
v -72.5546 5.000005 -46.78721
v -72.50332 5.000007 -48.40197
v -87.25731 -8.795439E-06 -51.73248
v -87.47589 -7.145323E-06 -49.30846
v -87.4759 4.999993 -49.30848
v -87.25732 4.999992 -51.73249
v -72.50331 7.145323E-06 -48.40196
v -72.37604 8.795439E-06 -49.84886
v -72.50332 5.000007 -48.40197
v -72.37605 5.000009 -49.84887
v -86.83222 -1.047129E-05 -54.26532
v -87.25731 -8.795439E-06 -51.73248
v -87.25732 4.999992 -51.73249
v -86.83223 4.99999 -54.26534
v -72.37604 8.795439E-06 -49.84886
v -72.18908 1.047129E-05 -51.01285
v -72.37605 5.000009 -49.84887
v -72.18909 5.00001 -51.01286
v -86.02465 -1.363797E-05 -57.11736
v -86.83222 -1.047129E-05 -54.26532
v -86.83223 4.99999 -54.26534
v -86.02465 4.999986 -57.11737
v -72.18908 1.047129E-05 -51.01285
v -71.95071 1.363797E-05 -51.92851
v -72.18909 5.00001 -51.01286
v -71.95071 5.000014 -51.92853
v -84.51058 -1.918966E-05 -60.30101
v -86.02465 -1.363797E-05 -57.11736
v -86.02465 4.999986 -57.11737
v -84.51058 4.999981 -60.30103
v -71.95071 1.363797E-05 -51.92851
v -71.79423 1.918966E-05 -52.34523
v -71.95071 5.000014 -51.92853
v -71.79423 5.00002 -52.34525
v -82.30246 -2.368019E-05 -63.05842
v -84.51058 -1.918966E-05 -60.30101
v -84.51058 4.999981 -60.30103
v -82.30246 4.999977 -63.05844
v -71.79423 1.918966E-05 -52.34523
v -71.5106 2.368019E-05 -52.64037
v -71.79423 5.00002 -52.34525
v -71.5106 5.000024 -52.64038
v -81.21436 -2.493743E-05 -63.93393
v -82.30246 -2.368019E-05 -63.05842
v -82.30246 4.999977 -63.05844
v -81.21436 4.999976 -63.93395
v -71.5106 2.368019E-05 -52.64037
v -71.00407 2.493743E-05 -52.94531
v -71.5106 5.000024 -52.64038
v -71.00407 5.000025 -52.94533

vn 0.9945069 -3.992885E-08 -0.1046711
vn 0.9945069 0 -0.1046712
vn 0.9945069 -3.992885E-08 -0.1046711
vn 0.9945069 -7.985762E-08 -0.104671
vn -0.994505 0 0.1046884
vn -0.9945051 4.051304E-08 0.1046883
vn -0.9945051 4.051304E-08 0.1046883
vn -0.994505 8.1026E-08 0.1046882
vn 0.995129 -7.455616E-08 -0.09858117
vn 0.995129 -7.390086E-08 -0.09858116
vn 0.995129 -7.455616E-08 -0.09858117
vn 0.995129 -7.521145E-08 -0.09858116
vn -0.9951192 7.528728E-08 0.09868056
vn -0.9951192 7.574621E-08 0.09868058
vn -0.9951192 7.574621E-08 0.09868058
vn -0.9951192 7.620513E-08 0.09868056
vn 0.9962661 -6.579116E-08 -0.08633512
vn 0.9962661 -6.571386E-08 -0.08633512
vn 0.9962661 -6.579116E-08 -0.08633512
vn 0.9962661 -6.586847E-08 -0.08633512
vn -0.9962505 6.600589E-08 0.08651524
vn -0.9962505 6.678276E-08 0.08651523
vn -0.9962505 6.678276E-08 0.08651523
vn -0.9962505 6.755964E-08 0.08651524
vn 0.9976612 -5.146324E-08 -0.06835299
vn 0.9976612 -5.077729E-08 -0.06835299
vn 0.9976612 -5.146324E-08 -0.06835299
vn 0.9976612 -5.214919E-08 -0.06835299
vn -0.9976401 5.238439E-08 0.06866127
vn -0.99764 5.279683E-08 0.06866126
vn -0.99764 5.279683E-08 0.06866126
vn -0.99764 5.320928E-08 0.06866126
vn 0.9990544 -4.934979E-08 -0.043478
vn 0.9990544 -3.235744E-08 -0.04347804
vn 0.9990544 -4.934979E-08 -0.043478
vn 0.9990544 -6.634212E-08 -0.04347796
vn -0.999034 3.352647E-08 0.04394381
vn -0.999034 5.028637E-08 0.04394376
vn -0.999034 5.028637E-08 0.04394376
vn -0.999034 6.704624E-08 0.04394371
vn 0.9999459 -1.590735E-08 -0.01040339
vn 0.9999459 -1.594039E-08 -0.01040339
vn 0.9999459 -1.590735E-08 -0.01040339
vn 0.9999459 -1.587431E-08 -0.01040339
vn -0.9999381 1.698431E-08 0.01113084
vn -0.999938 1.693358E-08 0.01113084
vn -0.999938 1.693358E-08 0.01113084
vn -0.999938 1.688285E-08 0.01113084
vn 0.9994563 8.255014E-07 0.03296879
vn 0.9994563 5.049629E-08 0.03297044
vn 0.9994563 8.255014E-07 0.03296879
vn 0.9994564 1.600505E-06 0.03296715
vn -0.999496 -4.843758E-08 -0.03174405
vn -0.9994961 -8.229695E-07 -0.03174165
vn -0.9994961 -8.229695E-07 -0.03174165
vn -0.9994962 -1.5975E-06 -0.03173926
vn 0.995959 1.724678E-06 0.0898092
vn 0.995959 1.724086E-06 0.0898092
vn 0.995959 1.724678E-06 0.0898092
vn 0.995959 1.72527E-06 0.0898092
vn -0.9961535 -1.720567E-06 -0.08762484
vn -0.9961535 -1.719996E-06 -0.08762484
vn -0.9961535 -1.719996E-06 -0.08762484
vn -0.9961535 -1.719425E-06 -0.08762484
vn 0.9862072 1.942581E-06 0.1655151
vn 0.9862072 1.875218E-06 0.1655153
vn 0.9862072 1.942581E-06 0.1655151
vn 0.9862072 2.009945E-06 0.165515
vn -0.9873452 -1.869543E-06 -0.1585859
vn -0.9873452 -1.92952E-06 -0.1585856
vn -0.9873452 -1.92952E-06 -0.1585856
vn -0.9873453 -1.989497E-06 -0.1585854
vn 0.9621711 1.565922E-06 0.272446
vn 0.9621714 2.300401E-06 0.2724448
vn 0.9621711 1.565922E-06 0.272446
vn 0.9621707 8.314427E-07 0.2724471
vn -0.9677453 -2.245494E-06 -0.2519308
vn -0.9677442 -1.507014E-06 -0.2519346
vn -0.9677442 -1.507014E-06 -0.2519346
vn -0.9677433 -7.68535E-07 -0.2519384
vn 0.9030762 1.48194E-06 0.4294803
vn 0.9030761 1.325544E-06 0.4294805
vn 0.9030762 1.48194E-06 0.4294803
vn 0.9030764 1.638336E-06 0.4294801
vn -0.936173 -1.072813E-06 -0.3515395
vn -0.9361736 -1.207603E-06 -0.3515381
vn -0.9361736 -1.207603E-06 -0.3515381
vn -0.9361741 -1.342392E-06 -0.3515366
vn 0.7805651 2.393582E-06 0.6250745
vn 0.7805651 2.402695E-06 0.6250745
vn 0.7805651 2.393582E-06 0.6250745
vn 0.7805651 2.38447E-06 0.6250745
vn -0.7210345 -2.6432E-06 -0.6928992
vn -0.7210345 -2.643065E-06 -0.6928992
vn -0.7210345 -2.643065E-06 -0.6928992
vn -0.7210345 -2.64293E-06 -0.6928992
vn 0.6268921 2.971239E-06 0.7791061
vn 0.6268921 2.970424E-06 0.7791061
vn 0.6268921 2.971239E-06 0.7791061
vn 0.6268921 2.972054E-06 0.7791061
vn -0.5157638 -3.268168E-06 -0.8567309
vn -0.5157638 -3.267238E-06 -0.8567309
vn -0.5157638 -3.267238E-06 -0.8567309
vn -0.5157638 -3.266308E-06 -0.8567309

vt 0 0
vt 0 0
vt 0 0
vt 0 0
vt 0 0
vt 0 0
vt 0 0
vt 0 0
vt 0 0
vt 0 0
vt 0 0
vt 0 0
vt 0 0
vt 0 0
vt 0 0
vt 0 0
vt 0 0
vt 0 0
vt 0 0
vt 0 0
vt 0 0
vt 0 0
vt 0 0
vt 0 0
vt 0 0
vt 0 0
vt 0 0
vt 0 0
vt 0 0
vt 0 0
vt 0 0
vt 0 0
vt 0 0
vt 0 0
vt 0 0
vt 0 0
vt 0 0
vt 0 0
vt 0 0
vt 0 0
vt 0 0
vt 0 0
vt 0 0
vt 0 0
vt 0 0
vt 0 0
vt 0 0
vt 0 0
vt 0 0
vt 0 0
vt 0 0
vt 0 0
vt 0 0
vt 0 0
vt 0 0
vt 0 0
vt 0 0
vt 0 0
vt 0 0
vt 0 0
vt 0 0
vt 0 0
vt 0 0
vt 0 0
vt 0 0
vt 0 0
vt 0 0
vt 0 0
vt 0 0
vt 0 0
vt 0 0
vt 0 0
vt 0 0
vt 0 0
vt 0 0
vt 0 0
vt 0 0
vt 0 0
vt 0 0
vt 0 0
vt 0 0
vt 0 0
vt 0 0
vt 0 0
vt 0 0
vt 0 0
vt 0 0
vt 0 0
vt 0 0
vt 0 0
vt 0 0
vt 0 0
vt 0 0
vt 0 0
vt 0 0
vt 0 0
vt 0 0
vt 0 0
vt 0 0
vt 0 0
vt 0 0
vt 0 0
vt 0 0
vt 0 0

g Track Texture
usemtl Track Texture
usemap Track Texture
f 2/2/2 1/1/1 3/3/3
f 3/3/3 1/1/1 4/4/4
f 6/6/6 5/5/5 7/7/7
f 6/6/6 7/7/7 8/8/8
f 10/10/10 9/9/9 11/11/11
f 11/11/11 9/9/9 12/12/12
f 14/14/14 13/13/13 15/15/15
f 14/14/14 15/15/15 16/16/16
f 18/18/18 17/17/17 19/19/19
f 19/19/19 17/17/17 20/20/20
f 22/22/22 21/21/21 23/23/23
f 22/22/22 23/23/23 24/24/24
f 26/26/26 25/25/25 27/27/27
f 27/27/27 25/25/25 28/28/28
f 30/30/30 29/29/29 31/31/31
f 30/30/30 31/31/31 32/32/32
f 34/34/34 33/33/33 35/35/35
f 35/35/35 33/33/33 36/36/36
f 38/38/38 37/37/37 39/39/39
f 38/38/38 39/39/39 40/40/40
f 42/42/42 41/41/41 43/43/43
f 43/43/43 41/41/41 44/44/44
f 46/46/46 45/45/45 47/47/47
f 46/46/46 47/47/47 48/48/48
f 50/50/50 49/49/49 51/51/51
f 51/51/51 49/49/49 52/52/52
f 54/54/54 53/53/53 55/55/55
f 54/54/54 55/55/55 56/56/56
f 58/58/58 57/57/57 59/59/59
f 59/59/59 57/57/57 60/60/60
f 62/62/62 61/61/61 63/63/63
f 62/62/62 63/63/63 64/64/64
f 66/66/66 65/65/65 67/67/67
f 67/67/67 65/65/65 68/68/68
f 70/70/70 69/69/69 71/71/71
f 70/70/70 71/71/71 72/72/72
f 74/74/74 73/73/73 75/75/75
f 75/75/75 73/73/73 76/76/76
f 78/78/78 77/77/77 79/79/79
f 78/78/78 79/79/79 80/80/80
f 82/82/82 81/81/81 83/83/83
f 83/83/83 81/81/81 84/84/84
f 86/86/86 85/85/85 87/87/87
f 86/86/86 87/87/87 88/88/88
f 90/90/90 89/89/89 91/91/91
f 91/91/91 89/89/89 92/92/92
f 94/94/94 93/93/93 95/95/95
f 94/94/94 95/95/95 96/96/96
f 98/98/98 97/97/97 99/99/99
f 99/99/99 97/97/97 100/100/100
f 102/102/102 101/101/101 103/103/103
f 102/102/102 103/103/103 104/104/104
