mtllib ./Track1_trackCollider_15.mtl
# Unity Asset Buildr OBJ Exporter
 http://buildr.jasperstocker.com
g Track1_trackCollider_15
v -75.13493 1.688638 78.54587
v -73.52868 1.86827 78.31464
v -73.677 6.709293 77.07266
v -75.28223 6.530053 77.30531
v -75.06554 -1.86827 63.93372
v -77.244 -2.038119 64.25232
v -75.21387 2.972753 62.69174
v -77.3913 2.803297 63.01175
v -76.59704 1.496078 78.83685
v -75.13493 1.688638 78.54587
v -75.28223 6.530053 77.30531
v -76.74126 6.338688 77.60059
v -77.244 -2.038119 64.25232
v -79.47091 -2.199086 64.69757
v -77.3913 2.803297 63.01175
v -79.61513 2.643523 63.46132
v -78.03116 1.28622 79.20749
v -76.59704 1.496078 78.83685
v -76.74126 6.338688 77.60059
v -78.17004 6.130901 77.97877
v -79.47091 -2.199086 64.69757
v -81.6981 -2.353221 65.2722
v -79.61513 2.643523 63.46132
v -81.83699 2.49146 64.04348
v -79.41274 1.060125 79.65392
v -78.03116 1.28622 79.20749
v -78.17004 6.130901 77.97877
v -79.544 5.907789 78.43617
v -81.6981 -2.353221 65.2722
v -83.90154 -2.496636 65.97887
v -81.83699 2.49146 64.04348
v -84.0328 2.351028 64.76112
v -80.75613 0.816614 80.18217
v -79.41274 1.060125 79.65392
v -79.544 5.907789 78.43617
v -80.87738 5.668228 78.9792
v -83.90154 -2.496636 65.97887
v -86.07764 -2.628723 66.82336
v -84.0328 2.351028 64.76112
v -86.1989 2.222891 65.62039
v -82.06134 0.5569183 80.79438
v -80.75613 0.816614 80.18217
v -80.87738 5.668228 78.9792
v -82.17025 5.413474 79.61031
v -86.07764 -2.628723 66.82336
v -88.20944 -2.748055 67.80418
v -86.1989 2.222891 65.62039
v -88.31835 2.108501 66.62011
v -83.31855 0.2847363 81.48584
v -82.06134 0.5569183 80.79438
v -82.17025 5.413474 79.61031
v -83.41298 5.147182 80.32493
v -88.20944 -2.748055 67.80418
v -90.27125 -2.852871 68.90958
v -88.31835 2.108501 66.62011
v -90.36568 2.009574 67.74866
v -84.54701 0.002111077 82.26629
v -83.31855 0.2847363 81.48584
v -83.41298 5.147182 80.32493
v -84.62495 4.871405 81.1332
v -90.27125 -2.852871 68.90958
v -92.25908 -2.944818 70.13277
v -90.36568 2.009574 67.74866
v -92.33702 1.924475 68.99969
v -85.74131 -0.2852955 83.13075
v -84.54701 0.002111077 82.26629
v -84.62495 4.871405 81.1332
v -85.80116 4.591713 82.0302
v -92.25908 -2.944818 70.13277
v -94.15382 -3.023899 71.45232
v -92.33702 1.924475 68.99969
v -94.21367 1.853109 70.35177
v -86.91084 -0.5723473 84.08157
v -85.74131 -0.2852955 83.13075
v -85.80116 4.591713 82.0302
v -86.95139 4.31316 83.01847
v -94.15382 -3.023899 71.45232
v -95.94859 -3.09198 72.84721
v -94.21367 1.853109 70.35177
v -95.98914 1.793528 71.78411
v -88.06385 -0.8536971 85.11893
v -86.91084 -0.5723473 84.08157
v -86.95139 4.31316 83.01847
v -88.08435 4.040993 84.09836
v -95.94859 -3.09198 72.84721
v -97.64153 -3.150835 74.29429
v -95.98914 1.793528 71.78411
v -97.66203 1.743855 73.27371
v -89.2193 -1.124778 86.25082
v -88.06385 -0.8536971 85.11893
v -88.08435 4.040993 84.09836
v -89.21942 3.779714 85.27821
v -97.64153 -3.150835 74.29429
v -99.23952 -3.202855 75.77308
v -97.66203 1.743855 73.27371
v -99.23964 1.701637 74.80048
v -90.38084 -1.378404 87.46679
v -89.2193 -1.124778 86.25082
v -89.21942 3.779714 85.27821
v -90.36098 3.536305 86.54742
v -99.23952 -3.202855 75.77308
v -100.7363 -3.248605 77.24538
v -99.23964 1.701637 74.80048
v -100.7165 1.666105 76.32602
v -91.58208 -1.610471 88.77995
v -90.38084 -1.378404 87.46679
v -90.36098 3.536305 86.54742
v -91.54311 3.314819 87.91972
v -100.7363 -3.248605 77.24538
v -102.1455 -3.289759 78.68657
v -100.7165 1.666105 76.32602
v -102.1065 1.63553 77.82633
v -92.84979 -1.8139 90.18604
v -91.58208 -1.610471 88.77995
v -91.54311 3.314819 87.91972
v -92.79337 3.122128 89.39078
v -102.1455 -3.289759 78.68657
v -103.4619 -3.32599 80.04787
v -102.1065 1.63553 77.82633
v -103.4055 1.610037 79.25261
v -94.24409 -1.982473 91.69598
v -92.84979 -1.8139 90.18604
v -92.79337 3.122128 89.39078
v -94.17259 2.964321 90.97202
v -103.4619 -3.32599 80.04787
v -104.6814 -3.356426 81.27692
v -103.4055 1.610037 79.25261
v -104.6099 1.590369 80.55296
v -95.86649 -2.10903 93.32102
v -94.24409 -1.982473 91.69598
v -94.17259 2.964321 90.97202
v -95.78315 2.84841 92.67539
v -104.6814 -3.356426 81.27692
v -105.7796 -3.377404 82.30231
v -104.6099 1.590369 80.55296
v -105.6963 1.580035 81.65668
v -97.88109 -2.18426 95.04128
v -95.86649 -2.10903 93.32102
v -95.78315 2.84841 92.67539
v -97.79031 2.783398 94.4808
v -105.7796 -3.377404 82.30231
v -106.6689 -3.380218 83.01775
v -105.6963 1.580035 81.65668
v -106.5782 1.58744 82.45728
v -100.5427 -2.2061 96.73551
v -97.88109 -2.18426 95.04128
v -97.79031 2.783398 94.4808
v -100.4501 2.771008 96.26667
v -106.6689 -3.380218 83.01775
v -107.2166 -3.341699 83.36201
v -106.5782 1.58744 82.45728
v -107.124 1.63541 82.89317
v -103.9947 -2.183607 98.00286
v -100.5427 -2.2061 96.73551
v -100.4501 2.771008 96.26667
v -103.9068 2.801497 97.62737
v -107.2166 -3.341699 83.36201
v -107.312 -3.223928 83.41474
v -107.124 1.63541 82.89317
v -107.2241 1.761176 83.03925
v -107.8705 -2.13121 98.32623
v -103.9947 -2.183607 98.00286
v -103.9068 2.801497 97.62737
v -107.7928 2.859816 98.03707
v -107.312 -3.223928 83.41474
v -107.2027 -3.006078 83.40518
v -107.2241 1.761176 83.03925
v -107.125 1.984948 83.11602
v -111.4465 -2.04772 97.68723
v -107.8705 -2.13121 98.32623
v -107.7928 2.859816 98.03707
v -111.3815 2.947097 97.46913
v -107.2027 -3.006078 83.40518
v -107.3356 -2.726826 83.3587
v -107.125 1.984948 83.11602
v -107.2707 2.267992 83.14061
v -114.3882 -1.929937 96.51498
v -111.4465 -2.04772 97.68723
v -111.3815 2.947097 97.46913
v -114.3358 3.067131 96.35201
v -107.3356 -2.726826 83.3587
v -107.9024 -2.435071 83.10916
v -107.2707 2.267992 83.14061
v -107.8501 2.561997 82.94618
v -116.7898 -1.784804 95.14088
v -114.3882 -1.929937 96.51498
v -114.3358 3.067131 96.35201
v -116.7488 3.213562 95.01985
v -107.9024 -2.435071 83.10916
v -108.7767 -2.154449 82.59123
v -107.8501 2.561997 82.94618
v -108.7357 2.843916 82.4702
v -118.8258 -1.621839 93.70044
v -116.7898 -1.784804 95.14088
v -116.7488 3.213562 95.01985
v -118.7944 3.37727 93.61144
v -108.7767 -2.154449 82.59123
v -109.8134 -1.889511 81.84486
v -108.7357 2.843916 82.4702
v -109.782 3.109598 81.75587
v -120.625 -1.447655 92.23504
v -118.8258 -1.621839 93.70044
v -118.7944 3.37727 93.61144
v -120.6016 3.551875 92.17072
v -109.8134 -1.889511 81.84486
v -110.9273 -1.638533 80.92753
v -109.782 3.109598 81.75587
v -110.9039 3.360997 80.8632
v -122.269 -1.26586 90.75355
v -120.625 -1.447655 92.23504
v -120.6016 3.551875 92.17072
v -122.2522 3.733906 90.70831
v -110.9273 -1.638533 80.92753
v -112.0787 -1.398537 79.88169
v -110.9039 3.360997 80.8632
v -112.0618 3.601229 79.83646
v -123.8044 -1.078899 89.25987
v -122.269 -1.26586 90.75355
v -122.2522 3.733906 90.70831
v -123.7928 3.920993 89.22934
v -112.0787 -1.398537 79.88169
v -113.2463 -1.167577 78.73882
v -112.0618 3.601229 79.83646
v -113.2347 3.832316 78.70828
v -125.2516 -0.8897463 87.76488
v -123.8044 -1.078899 89.25987
v -123.7928 3.920993 89.22934
v -125.2441 4.110209 87.74541
v -113.2463 -1.167577 78.73882
v -114.4088 -0.9457824 77.53198
v -113.2347 3.832316 78.70828
v -114.4013 4.054173 77.51252
v -126.6387 -0.6980797 86.26082
v -125.2516 -0.8897463 87.76488
v -125.2441 4.110209 87.74541
v -126.6343 4.301905 86.24952
v -114.4088 -0.9457824 77.53198
v -115.5711 -0.730372 76.26669
v -114.4013 4.054173 77.51252
v -115.5668 4.269613 76.25539
v -127.9734 -0.5055971 84.75468
v -126.6387 -0.6980797 86.26082
v -126.6343 4.301905 86.24952
v -127.9712 4.494398 84.74905
v -115.5711 -0.730372 76.26669
v -116.723 -0.5215543 74.96267
v -115.5668 4.269613 76.25539
v -116.7208 4.47844 74.95705
v -129.2745 -0.3112002 83.23624
v -127.9734 -0.5055971 84.75468
v -127.9712 4.494398 84.74905
v -129.2737 4.688799 83.23421
v -116.723 -0.5215543 74.96267
v -117.8738 -0.3169297 73.61608
v -116.7208 4.47844 74.95705
v -117.873 4.683069 73.61404
v -130.5264 -0.1171109 81.73257
v -129.2745 -0.3112002 83.23624
v -129.2737 4.688799 83.23421
v -130.5263 4.882889 81.73228
v -117.8738 -0.3169297 73.61608
v -119.0218 -0.1178943 72.23447
v -117.873 4.683069 73.61404
v -119.0217 4.882105 72.23419
v -131.3031 5.80653E-06 80.78247
v -130.5264 -0.1171109 81.73257
v -130.5263 4.882889 81.73228
v -131.3031 5.000005 80.78246
v -119.0218 -0.1178943 72.23447
v -119.6737 -5.80653E-06 71.43231
v -119.0217 4.882105 72.23419
v -119.6737 4.999993 71.4323

vn -0.1109965 -0.2500061 -0.9618611
vn -0.110494 -0.2501575 -0.9618795
vn -0.1109965 -0.2500061 -0.9618611
vn -0.1114992 -0.2498546 -0.9618423
vn 0.1209883 0.250155 0.9606166
vn 0.1213604 0.2500021 0.9606095
vn 0.1213604 0.2500021 0.9606095
vn 0.1217325 0.249849 0.9606022
vn -0.1589929 -0.2491253 -0.9553312
vn -0.1572831 -0.2496189 -0.9554855
vn -0.1589929 -0.2491253 -0.9553312
vn -0.160705 -0.2486303 -0.9551738
vn 0.1724966 0.249422 0.952908
vn 0.1736266 0.2489267 0.9528322
vn 0.1736266 0.2489267 0.9528322
vn 0.1747576 0.2484306 0.952755
vn -0.2113546 -0.2468229 -0.9457313
vn -0.2082762 -0.2477489 -0.946172
vn -0.2113546 -0.2468229 -0.9457313
vn -0.2144385 -0.2458918 -0.9452794
vn 0.2259876 0.2472681 0.9422251
vn 0.2279701 0.2463552 0.9419866
vn 0.2279701 0.2463552 0.9419866
vn 0.2299545 0.2454397 0.9417432
vn -0.2663648 -0.2428678 -0.9327728
vn -0.2617292 -0.2443126 -0.9337072
vn -0.2663648 -0.2428678 -0.9327728
vn -0.2710086 -0.2414125 -0.9318123
vn 0.2817993 0.2434586 0.9280716
vn 0.2846904 0.2420615 0.9275547
vn 0.2846904 0.2420615 0.9275547
vn 0.2875837 0.2406591 0.9270269
vn -0.3237991 -0.2370305 -0.9159534
vn -0.3174847 -0.2391064 -0.9176228
vn -0.3237991 -0.2370305 -0.9159534
vn -0.3301196 -0.2349364 -0.9142351
vn 0.3388212 0.2378425 0.9102917
vn 0.3426707 0.2358767 0.9093618
vn 0.3426707 0.2358767 0.9093618
vn 0.3465207 0.2339026 0.9084123
vn -0.3829016 -0.2291207 -0.8949246
vn -0.3748728 -0.2319293 -0.8975964
vn -0.3829016 -0.2291207 -0.8949246
vn -0.3909237 -0.2262855 -0.8921734
vn 0.39607 0.2302957 0.8888714
vn 0.4008879 0.2276924 0.8873811
vn 0.4008879 0.2276924 0.8873811
vn 0.4057004 0.2250775 0.8858597
vn -0.4420309 -0.2191175 -0.8698254
vn -0.432348 -0.2227267 -0.8737666
vn -0.4420309 -0.2191175 -0.8698254
vn -0.4516777 -0.2154747 -0.8657701
vn 0.4520976 0.2208368 0.8641984
vn 0.457845 0.2175605 0.8620009
vn 0.457845 0.2175605 0.8620009
vn 0.463575 0.2142707 0.8597594
vn -0.5000341 -0.2070729 -0.8408844
vn -0.4889674 -0.2115415 -0.8462629
vn -0.5000341 -0.2070729 -0.8408844
vn -0.5110146 -0.2025689 -0.8353621
vn 0.5053715 0.2096591 0.8370441
vn 0.5119991 0.2056626 0.8340023
vn 0.5119991 0.2056626 0.8340023
vn 0.5185897 0.2016527 0.8309037
vn -0.554984 -0.1932735 -0.8090971
vn -0.5428612 -0.198575 -0.8160083
vn -0.554984 -0.1932735 -0.8090971
vn -0.5669512 -0.1879431 -0.8020248
vn 0.5547442 0.1969868 0.8083657
vn 0.5621428 0.1922924 0.8043749
vn 0.5621428 0.1922924 0.8043749
vn 0.5694761 0.1875887 0.800317
vn -0.6051445 -0.1781885 -0.7759182
vn -0.5923986 -0.1842539 -0.7842923
vn -0.6051445 -0.1781885 -0.7759182
vn -0.6176538 -0.1721112 -0.7673861
vn 0.5989185 0.1832655 0.7795579
vn 0.6069898 0.1779023 0.7745413
vn 0.6069898 0.1779023 0.7745413
vn 0.6149586 0.1725383 0.7694519
vn -0.6490414 -0.1623942 -0.7432184
vn -0.6360858 -0.1691033 -0.7528604
vn -0.6490414 -0.1623942 -0.7432184
vn -0.6616791 -0.1556991 -0.7334428
vn 0.6370108 0.1689483 0.7521128
vn 0.6456566 0.162973 0.7460345
vn 0.6456566 0.162973 0.7460345
vn 0.6541548 0.1570108 0.7398846
vn -0.6856249 -0.1464822 -0.7130648
vn -0.6728315 -0.1537045 -0.7236523
vn -0.6856249 -0.1464822 -0.7130648
vn -0.6980318 -0.1393065 -0.7023855
vn 0.6683327 0.1545165 0.7276374
vn 0.6775079 0.1479727 0.7204769
vn 0.6775079 0.1479727 0.7204769
vn 0.6864819 0.1414615 0.7132539
vn -0.7139255 -0.1310982 -0.6878398
vn -0.7015182 -0.1386422 -0.6990355
vn -0.7139255 -0.1310982 -0.6878398
vn -0.7258959 -0.1236345 -0.6766015
vn 0.6921105 0.1404199 0.7080008
vn 0.7018055 0.1334199 0.6997629
vn 0.7018055 0.1334199 0.6997629
vn 0.711238 0.1264769 0.6914797
vn -0.7329238 -0.1168272 -0.6702045
vn -0.721041 -0.124589 -0.6815991
vn -0.7329238 -0.1168272 -0.6702045
vn -0.7443422 -0.1091769 -0.6588133
vn 0.7073863 0.1272047 0.6952868
vn 0.7177432 0.1197622 0.6859313
vn 0.7177432 0.1197622 0.6859313
vn 0.7277629 0.1124067 0.6765545
vn -0.741274 -0.1041447 -0.6630736
vn -0.7299221 -0.1119946 -0.674293
vn -0.741274 -0.1041447 -0.6630736
vn -0.7521564 -0.09643066 -0.6518911
vn 0.7125301 0.1152445 0.6921124
vn 0.7238613 0.1074121 0.6815331
vn 0.7238613 0.1074121 0.6815331
vn 0.7347579 0.09970221 0.6709622
vn -0.7361234 -0.09352079 -0.6703553
vn -0.7252194 -0.1014294 -0.6810058
vn -0.7361234 -0.09352079 -0.6703553
vn -0.7465724 -0.08576334 -0.6597532
vn 0.704634 0.1050082 0.701758
vn 0.7176582 0.0967252 0.6896456
vn 0.7176582 0.0967252 0.6896456
vn 0.7300964 0.08860966 0.6775747
vn -0.7115914 -0.08531336 -0.6973947
vn -0.7009503 -0.09334827 -0.7070749
vn -0.7115914 -0.08531336 -0.6973947
vn -0.7218094 -0.07743452 -0.6877464
vn 0.6782769 0.09679735 0.7284029
vn 0.6946208 0.08787338 0.7139888
vn 0.6946208 0.08787338 0.7139888
vn 0.7100874 0.07918149 0.6996472
vn -0.6555313 -0.07975537 -0.7509445
vn -0.6449414 -0.08802538 -0.7591457
vn -0.6555313 -0.07975537 -0.7509445
vn -0.6657514 -0.07163206 -0.7427273
vn 0.6240554 0.09058598 0.7761115
vn 0.6482526 0.08063634 0.7571435
vn 0.6482526 0.08063634 0.7571435
vn 0.6707771 0.071035 0.7382494
vn -0.5453913 -0.07633714 -0.8346981
vn -0.5345427 -0.08509979 -0.8408461
vn -0.5453913 -0.07633714 -0.8346981
vn -0.5559428 -0.06769732 -0.8284593
vn 0.5345168 0.08510208 0.8408623
vn 0.5830286 0.07300044 0.8091654
vn 0.5830286 0.07300044 0.8091654
vn 0.6261021 0.06157343 0.7773061
vn -0.355088 -0.07255723 -0.9320128
vn -0.3439549 -0.08171731 -0.9354236
vn -0.355088 -0.07255723 -0.9320128
vn -0.3660283 -0.06347704 -0.9284363
vn 0.5460249 0.06849461 0.8349643
vn 0.7385579 0.04363697 0.6727763
vn 0.7385579 0.04363697 0.6727763
vn 0.8352115 0.02664226 0.5492831
vn -0.09474567 -0.06461217 -0.9934025
vn -0.08390608 -0.07337424 -0.9937686
vn -0.09474567 -0.06461217 -0.9934025
vn -0.1055157 -0.05587909 -0.9928464
vn 0.06459943 -0.07608686 -0.9950063
vn 0.4320971 -0.06709167 -0.8993279
vn 0.4320971 -0.06709167 -0.8993279
vn 0.6833071 -0.05282866 -0.7282174
vn 0.1646743 -0.05238587 -0.9849558
vn 0.1742447 -0.05965805 -0.9828935
vn 0.1646743 -0.05238587 -0.9849558
vn 0.1550817 -0.04510759 -0.9868713
vn -0.2151702 0.05982299 0.9747426
vn 0.02325224 0.050387 0.9984591
vn 0.02325224 0.050387 0.9984591
vn 0.2399827 0.03923248 0.9699841
vn 0.3602823 -0.03977318 -0.931995
vn 0.3682372 -0.04533642 -0.9286259
vn 0.3602823 -0.03977318 -0.931995
vn 0.3522694 -0.03419185 -0.9352738
vn -0.3829308 0.04526732 0.9226673
vn -0.3431457 0.03981777 0.9384378
vn -0.3431457 0.03981777 0.9384378
vn -0.3022798 0.03423374 0.9526043
vn 0.4884295 -0.02934126 -0.8721099
vn 0.4948039 -0.03350163 -0.8683587
vn 0.4884295 -0.02934126 -0.8721099
vn 0.4819959 -0.02516321 -0.8758121
vn -0.5013963 0.0334471 0.864571
vn -0.4843832 0.02936749 0.8743629
vn -0.4843832 0.02936749 0.8743629
vn -0.4670056 0.02523589 0.8838942
vn 0.5710586 -0.02137703 -0.8206308
vn 0.5760708 -0.02451201 -0.8170322
vn 0.5710586 -0.02137703 -0.8206308
vn 0.5659986 -0.01822834 -0.8242047
vn -0.5799915 0.02447692 0.8142546
vn -0.570374 0.02138205 0.8211067
vn -0.570374 0.02138205 0.8211067
vn -0.560596 0.01825997 0.8278881
vn 0.6264825 -0.01538334 -0.7792835
vn 0.6303816 -0.01777606 -0.7760817
vn 0.6264825 -0.01538334 -0.7792835
vn 0.6225489 -0.01298094 -0.7824733
vn -0.6332234 0.01775268 0.7737654
vn -0.6270472 0.01537947 0.7788294
vn -0.6270472 0.01537947 0.7788294
vn -0.6207893 0.01299067 0.7838699
vn 0.6656044 -0.01085449 -0.746226
vn 0.66861 -0.01269514 -0.7435049
vn 0.6656044 -0.01085449 -0.746226
vn 0.6625751 -0.009007344 -0.7489414
vn -0.6708641 0.01267955 0.7414719
vn -0.6666428 0.01084851 0.7452984
vn -0.6666428 0.01084851 0.7452984
vn -0.6623771 0.009008262 0.7491165
vn 0.6944402 -0.007424852 -0.7195122
vn 0.6967308 -0.008835904 -0.7172784
vn 0.6944402 -0.007424852 -0.7195122
vn 0.6921344 -0.006009629 -0.7217436
vn -0.6985845 0.008825815 0.7154731
vn -0.695614 0.007419587 0.7183773
vn -0.695614 0.007419587 0.7183773
vn -0.692619 0.006007907 0.7212786
vn 0.7164013 -0.004852901 -0.6976717
vn 0.7181149 -0.00591195 -0.6958995
vn 0.7164013 -0.004852901 -0.6976717
vn 0.7146785 -0.003791329 -0.6994427
vn -0.7196409 0.005905842 0.6943213
vn -0.7175323 0.00484924 0.6965084
vn -0.7175323 0.00484924 0.6965084
vn -0.7154099 0.003789511 0.6986946
vn 0.7336091 -0.002960245 -0.6795652
vn 0.7348551 -0.003738857 -0.6782138
vn 0.7336091 -0.002960245 -0.6795652
vn 0.732358 -0.002180198 -0.6809162
vn -0.7361121 0.003735434 0.6768494
vn -0.734639 0.002958041 0.6784518
vn -0.734639 0.002958041 0.6784518
vn -0.7331588 0.002178941 0.6800539
vn 0.7474291 -0.00161575 -0.6643397
vn 0.7482852 -0.002154508 -0.6633738
vn 0.7474291 -0.00161575 -0.6643397
vn 0.7465705 -0.001076268 -0.6653054
vn -0.7493161 0.002152776 0.662209
vn -0.7483315 0.001614623 0.6633229
vn -0.7483315 0.001614623 0.6633229
vn -0.7473436 0.001075635 0.6644369
vn 0.7587662 -0.0007258664 -0.6513627
vn 0.7592981 -0.001065488 -0.6507421
vn 0.7587662 -0.0007258664 -0.6513627
vn 0.7582332 -0.0003859494 -0.6519833
vn -0.7601325 0.001064754 0.6497672
vn -0.7595345 0.0007254033 0.6504665
vn -0.7595345 0.0007254033 0.6504665
vn -0.7589353 0.0003857189 0.651166
vn 0.7682167 -0.0002176426 -0.6401898
vn 0.7684762 -0.000382645 -0.6398782
vn 0.7682167 -0.0002176426 -0.6401898
vn 0.7679569 -5.256646E-05 -0.6405014
vn -0.7691027 0.0003824358 0.6391251
vn -0.7688208 0.0002175246 0.6394643
vn -0.7688208 0.0002175246 0.6394643
vn -0.7685387 5.253311E-05 0.6398035
vn 0.7741362 -2.662008E-05 -0.633019
vn 0.7742009 -5.227117E-05 -0.63294
vn 0.7741362 -2.662008E-05 -0.633019
vn 0.7740716 -9.660312E-07 -0.6330981
vn -0.7760201 5.21858E-05 0.6307082
vn -0.7759439 2.657333E-05 0.630802
vn -0.7759439 2.657333E-05 0.630802
vn -0.7758675 9.57332E-07 0.6308959

vt 0 0
vt 0 0
vt 0 0
vt 0 0
vt 0 0
vt 0 0
vt 0 0
vt 0 0
vt 0 0
vt 0 0
vt 0 0
vt 0 0
vt 0 0
vt 0 0
vt 0 0
vt 0 0
vt 0 0
vt 0 0
vt 0 0
vt 0 0
vt 0 0
vt 0 0
vt 0 0
vt 0 0
vt 0 0
vt 0 0
vt 0 0
vt 0 0
vt 0 0
vt 0 0
vt 0 0
vt 0 0
vt 0 0
vt 0 0
vt 0 0
vt 0 0
vt 0 0
vt 0 0
vt 0 0
vt 0 0
vt 0 0
vt 0 0
vt 0 0
vt 0 0
vt 0 0
vt 0 0
vt 0 0
vt 0 0
vt 0 0
vt 0 0
vt 0 0
vt 0 0
vt 0 0
vt 0 0
vt 0 0
vt 0 0
vt 0 0
vt 0 0
vt 0 0
vt 0 0
vt 0 0
vt 0 0
vt 0 0
vt 0 0
vt 0 0
vt 0 0
vt 0 0
vt 0 0
vt 0 0
vt 0 0
vt 0 0
vt 0 0
vt 0 0
vt 0 0
vt 0 0
vt 0 0
vt 0 0
vt 0 0
vt 0 0
vt 0 0
vt 0 0
vt 0 0
vt 0 0
vt 0 0
vt 0 0
vt 0 0
vt 0 0
vt 0 0
vt 0 0
vt 0 0
vt 0 0
vt 0 0
vt 0 0
vt 0 0
vt 0 0
vt 0 0
vt 0 0
vt 0 0
vt 0 0
vt 0 0
vt 0 0
vt 0 0
vt 0 0
vt 0 0
vt 0 0
vt 0 0
vt 0 0
vt 0 0
vt 0 0
vt 0 0
vt 0 0
vt 0 0
vt 0 0
vt 0 0
vt 0 0
vt 0 0
vt 0 0
vt 0 0
vt 0 0
vt 0 0
vt 0 0
vt 0 0
vt 0 0
vt 0 0
vt 0 0
vt 0 0
vt 0 0
vt 0 0
vt 0 0
vt 0 0
vt 0 0
vt 0 0
vt 0 0
vt 0 0
vt 0 0
vt 0 0
vt 0 0
vt 0 0
vt 0 0
vt 0 0
vt 0 0
vt 0 0
vt 0 0
vt 0 0
vt 0 0
vt 0 0
vt 0 0
vt 0 0
vt 0 0
vt 0 0
vt 0 0
vt 0 0
vt 0 0
vt 0 0
vt 0 0
vt 0 0
vt 0 0
vt 0 0
vt 0 0
vt 0 0
vt 0 0
vt 0 0
vt 0 0
vt 0 0
vt 0 0
vt 0 0
vt 0 0
vt 0 0
vt 0 0
vt 0 0
vt 0 0
vt 0 0
vt 0 0
vt 0 0
vt 0 0
vt 0 0
vt 0 0
vt 0 0
vt 0 0
vt 0 0
vt 0 0
vt 0 0
vt 0 0
vt 0 0
vt 0 0
vt 0 0
vt 0 0
vt 0 0
vt 0 0
vt 0 0
vt 0 0
vt 0 0
vt 0 0
vt 0 0
vt 0 0
vt 0 0
vt 0 0
vt 0 0
vt 0 0
vt 0 0
vt 0 0
vt 0 0
vt 0 0
vt 0 0
vt 0 0
vt 0 0
vt 0 0
vt 0 0
vt 0 0
vt 0 0
vt 0 0
vt 0 0
vt 0 0
vt 0 0
vt 0 0
vt 0 0
vt 0 0
vt 0 0
vt 0 0
vt 0 0
vt 0 0
vt 0 0
vt 0 0
vt 0 0
vt 0 0
vt 0 0
vt 0 0
vt 0 0
vt 0 0
vt 0 0
vt 0 0
vt 0 0
vt 0 0
vt 0 0
vt 0 0
vt 0 0
vt 0 0
vt 0 0
vt 0 0
vt 0 0
vt 0 0
vt 0 0
vt 0 0
vt 0 0
vt 0 0
vt 0 0
vt 0 0
vt 0 0
vt 0 0
vt 0 0
vt 0 0
vt 0 0
vt 0 0
vt 0 0
vt 0 0
vt 0 0
vt 0 0
vt 0 0
vt 0 0
vt 0 0
vt 0 0
vt 0 0
vt 0 0
vt 0 0
vt 0 0
vt 0 0
vt 0 0
vt 0 0
vt 0 0
vt 0 0
vt 0 0
vt 0 0

g Track Texture
usemtl Track Texture
usemap Track Texture
f 2/2/2 1/1/1 3/3/3
f 3/3/3 1/1/1 4/4/4
f 6/6/6 5/5/5 7/7/7
f 6/6/6 7/7/7 8/8/8
f 10/10/10 9/9/9 11/11/11
f 11/11/11 9/9/9 12/12/12
f 14/14/14 13/13/13 15/15/15
f 14/14/14 15/15/15 16/16/16
f 18/18/18 17/17/17 19/19/19
f 19/19/19 17/17/17 20/20/20
f 22/22/22 21/21/21 23/23/23
f 22/22/22 23/23/23 24/24/24
f 26/26/26 25/25/25 27/27/27
f 27/27/27 25/25/25 28/28/28
f 30/30/30 29/29/29 31/31/31
f 30/30/30 31/31/31 32/32/32
f 34/34/34 33/33/33 35/35/35
f 35/35/35 33/33/33 36/36/36
f 38/38/38 37/37/37 39/39/39
f 38/38/38 39/39/39 40/40/40
f 42/42/42 41/41/41 43/43/43
f 43/43/43 41/41/41 44/44/44
f 46/46/46 45/45/45 47/47/47
f 46/46/46 47/47/47 48/48/48
f 50/50/50 49/49/49 51/51/51
f 51/51/51 49/49/49 52/52/52
f 54/54/54 53/53/53 55/55/55
f 54/54/54 55/55/55 56/56/56
f 58/58/58 57/57/57 59/59/59
f 59/59/59 57/57/57 60/60/60
f 62/62/62 61/61/61 63/63/63
f 62/62/62 63/63/63 64/64/64
f 66/66/66 65/65/65 67/67/67
f 67/67/67 65/65/65 68/68/68
f 70/70/70 69/69/69 71/71/71
f 70/70/70 71/71/71 72/72/72
f 74/74/74 73/73/73 75/75/75
f 75/75/75 73/73/73 76/76/76
f 78/78/78 77/77/77 79/79/79
f 78/78/78 79/79/79 80/80/80
f 82/82/82 81/81/81 83/83/83
f 83/83/83 81/81/81 84/84/84
f 86/86/86 85/85/85 87/87/87
f 86/86/86 87/87/87 88/88/88
f 90/90/90 89/89/89 91/91/91
f 91/91/91 89/89/89 92/92/92
f 94/94/94 93/93/93 95/95/95
f 94/94/94 95/95/95 96/96/96
f 98/98/98 97/97/97 99/99/99
f 99/99/99 97/97/97 100/100/100
f 102/102/102 101/101/101 103/103/103
f 102/102/102 103/103/103 104/104/104
f 106/106/106 105/105/105 107/107/107
f 107/107/107 105/105/105 108/108/108
f 110/110/110 109/109/109 111/111/111
f 110/110/110 111/111/111 112/112/112
f 114/114/114 113/113/113 115/115/115
f 115/115/115 113/113/113 116/116/116
f 118/118/118 117/117/117 119/119/119
f 118/118/118 119/119/119 120/120/120
f 122/122/122 121/121/121 123/123/123
f 123/123/123 121/121/121 124/124/124
f 126/126/126 125/125/125 127/127/127
f 126/126/126 127/127/127 128/128/128
f 130/130/130 129/129/129 131/131/131
f 131/131/131 129/129/129 132/132/132
f 134/134/134 133/133/133 135/135/135
f 134/134/134 135/135/135 136/136/136
f 138/138/138 137/137/137 139/139/139
f 139/139/139 137/137/137 140/140/140
f 142/142/142 141/141/141 143/143/143
f 142/142/142 143/143/143 144/144/144
f 146/146/146 145/145/145 147/147/147
f 147/147/147 145/145/145 148/148/148
f 150/150/150 149/149/149 151/151/151
f 150/150/150 151/151/151 152/152/152
f 154/154/154 153/153/153 155/155/155
f 155/155/155 153/153/153 156/156/156
f 158/158/158 157/157/157 159/159/159
f 158/158/158 159/159/159 160/160/160
f 162/162/162 161/161/161 163/163/163
f 163/163/163 161/161/161 164/164/164
f 166/166/166 165/165/165 167/167/167
f 166/166/166 167/167/167 168/168/168
f 170/170/170 169/169/169 171/171/171
f 171/171/171 169/169/169 172/172/172
f 174/174/174 173/173/173 175/175/175
f 174/174/174 175/175/175 176/176/176
f 178/178/178 177/177/177 179/179/179
f 179/179/179 177/177/177 180/180/180
f 182/182/182 181/181/181 183/183/183
f 182/182/182 183/183/183 184/184/184
f 186/186/186 185/185/185 187/187/187
f 187/187/187 185/185/185 188/188/188
f 190/190/190 189/189/189 191/191/191
f 190/190/190 191/191/191 192/192/192
f 194/194/194 193/193/193 195/195/195
f 195/195/195 193/193/193 196/196/196
f 198/198/198 197/197/197 199/199/199
f 198/198/198 199/199/199 200/200/200
f 202/202/202 201/201/201 203/203/203
f 203/203/203 201/201/201 204/204/204
f 206/206/206 205/205/205 207/207/207
f 206/206/206 207/207/207 208/208/208
f 210/210/210 209/209/209 211/211/211
f 211/211/211 209/209/209 212/212/212
f 214/214/214 213/213/213 215/215/215
f 214/214/214 215/215/215 216/216/216
f 218/218/218 217/217/217 219/219/219
f 219/219/219 217/217/217 220/220/220
f 222/222/222 221/221/221 223/223/223
f 222/222/222 223/223/223 224/224/224
f 226/226/226 225/225/225 227/227/227
f 227/227/227 225/225/225 228/228/228
f 230/230/230 229/229/229 231/231/231
f 230/230/230 231/231/231 232/232/232
f 234/234/234 233/233/233 235/235/235
f 235/235/235 233/233/233 236/236/236
f 238/238/238 237/237/237 239/239/239
f 238/238/238 239/239/239 240/240/240
f 242/242/242 241/241/241 243/243/243
f 243/243/243 241/241/241 244/244/244
f 246/246/246 245/245/245 247/247/247
f 246/246/246 247/247/247 248/248/248
f 250/250/250 249/249/249 251/251/251
f 251/251/251 249/249/249 252/252/252
f 254/254/254 253/253/253 255/255/255
f 254/254/254 255/255/255 256/256/256
f 258/258/258 257/257/257 259/259/259
f 259/259/259 257/257/257 260/260/260
f 262/262/262 261/261/261 263/263/263
f 262/262/262 263/263/263 264/264/264
f 266/266/266 265/265/265 267/267/267
f 267/267/267 265/265/265 268/268/268
f 270/270/270 269/269/269 271/271/271
f 270/270/270 271/271/271 272/272/272
