mtllib ./Track1_track_6.mtl
# Unity Asset Buildr OBJ Exporter
 http://buildr.jasperstocker.com
g Track1_track_6
v 64.08783 -0.5632191 -53.31187
v 65.42345 -0.3437083 -52.3969
v 61.14828 -0.1877397 -49.32425
v 62.64959 0.0301125 -48.29061
v 58.20874 0.1877397 -45.33662
v 59.87574 0.4039333 -44.18433
v 55.2692 0.5632191 -41.349
v 57.10188 0.7777541 -40.07804
v 65.42345 -0.3437083 -52.3969
v 66.76191 -0.1407403 -51.55346
v 62.64959 0.0301125 -48.29061
v 64.15546 0.2278092 -47.33385
v 59.87574 0.4039333 -44.18433
v 61.54902 0.5963586 -43.11424
v 57.10188 0.7777541 -40.07804
v 58.94258 0.964908 -38.89463
v 66.76191 -0.1407403 -51.55346
v 68.08671 0.04821616 -50.79778
v 64.15546 0.2278092 -47.33385
v 65.68531 0.4070553 -46.45229
v 61.54902 0.5963586 -43.11424
v 63.28392 0.7658945 -42.1068
v 58.94258 0.964908 -38.89463
v 60.88252 1.124734 -37.76131
v 68.08671 0.04821616 -50.79778
v 69.39422 0.2208273 -50.14053
v 65.68531 0.4070553 -46.45229
v 67.24547 0.564679 -45.65804
v 63.28392 0.7658945 -42.1068
v 65.09672 0.9085307 -41.17554
v 60.88252 1.124734 -37.76131
v 62.94797 1.252382 -36.69304
v 69.39422 0.2208273 -50.14053
v 70.65842 0.3720043 -49.60115
v 67.24547 0.564679 -45.65804
v 68.81979 0.6949046 -44.97559
v 65.09672 0.9085307 -41.17554
v 66.98115 1.017805 -40.35003
v 62.94797 1.252382 -36.69304
v 65.14251 1.340705 -35.72447
v 70.65842 0.3720043 -49.60115
v 71.88153 0.4982016 -49.18132
v 68.81979 0.6949046 -44.97559
v 70.41461 0.7935919 -44.41767
v 66.98115 1.017805 -40.35003
v 68.94769 1.088982 -39.65402
v 65.14251 1.340705 -35.72447
v 67.48077 1.384372 -34.89037
v 71.88153 0.4982016 -49.18132
v 73.08219 0.5948176 -48.87717
v 70.41461 0.7935919 -44.41767
v 72.04056 0.8561488 -43.99665
v 68.94769 1.088982 -39.65402
v 70.99893 1.11748 -39.11612
v 67.48077 1.384372 -34.89037
v 69.9573 1.378811 -34.23559
v 73.08219 0.5948176 -48.87717
v 74.26588 0.6563184 -48.68761
v 72.04056 0.8561488 -43.99665
v 73.68158 0.8785153 -43.7272
v 70.99893 1.11748 -39.11612
v 73.09729 1.100712 -38.76678
v 69.9573 1.378811 -34.23559
v 72.51299 1.322909 -33.80636
v 74.26588 0.6563184 -48.68761
v 75.50162 0.6800594 -48.60242
v 73.68158 0.8785153 -43.7272
v 75.36103 0.8603981 -43.60785
v 73.09729 1.100712 -38.76678
v 75.22044 1.040737 -38.61329
v 72.51299 1.322909 -33.80636
v 75.07985 1.221075 -33.61872
v 75.50162 0.6800594 -48.60242
v 76.81798 0.6671962 -48.62104
v 77.06496 0.806132 -43.63097
v 75.36103 0.8603981 -43.60785
v 77.31196 0.9450679 -38.6409
v 75.22044 1.040737 -38.61329
v 77.55894 1.084004 -33.65083
v 75.07985 1.221075 -33.61872
v 76.81798 0.6671962 -48.62104
v 78.26269 0.6237321 -48.74047
v 78.80699 0.7238337 -43.7756
v 77.06496 0.806132 -43.63097
v 79.35129 0.8239352 -38.81072
v 77.31196 0.9450679 -38.6409
v 79.89559 0.9240367 -33.84585
v 77.55894 1.084004 -33.65083
v 78.26269 0.6237321 -48.74047
v 79.85661 0.5586054 -48.95253
v 80.59618 0.6233196 -44.0146
v 78.80699 0.7238337 -43.7756
v 81.33576 0.6880338 -39.07666
v 79.35129 0.8239352 -38.81072
v 82.07533 0.7527479 -34.13872
v 79.89559 0.9240367 -33.84585
v 79.85661 0.5586054 -48.95253
v 81.57542 0.4824552 -49.23404
v 82.41488 0.5156467 -44.31299
v 80.59618 0.6233196 -44.0146
v 83.25434 0.5488382 -39.39194
v 81.33576 0.6880338 -39.07666
v 84.0938 0.5820297 -34.47089
v 82.07533 0.7527479 -34.13872
v 81.57542 0.4824552 -49.23404
v 83.42393 0.4032169 -49.55973
v 84.28162 0.4083197 -44.64173
v 82.41488 0.5156467 -44.31299
v 85.13932 0.4134223 -39.72373
v 83.25434 0.5488382 -39.39194
v 85.99701 0.4185251 -34.80573
v 84.0938 0.5820297 -34.47089
v 83.42393 0.4032169 -49.55973
v 85.35973 0.3284532 -49.8951
v 84.28162 0.4083197 -44.64173
v 86.17195 0.3091842 -44.96841
v 85.13932 0.4134223 -39.72373
v 86.98418 0.2899151 -40.04173
v 85.99701 0.4185251 -34.80573
v 87.79639 0.2706461 -35.11505
v 85.35973 0.3284532 -49.8951
v 87.36753 0.2624666 -50.21336
v 86.17195 0.3091842 -44.96841
v 88.08666 0.2225865 -45.27074
v 86.98418 0.2899151 -40.04173
v 88.80579 0.1827063 -40.32812
v 87.79639 0.2706461 -35.11505
v 89.52493 0.1428262 -35.3855
v 87.36753 0.2624666 -50.21336
v 89.4478 0.2074973 -50.4949
v 88.08666 0.2225865 -45.27074
v 90.04113 0.1508019 -45.53399
v 88.80579 0.1827063 -40.32812
v 90.63447 0.09410653 -40.57307
v 89.52493 0.1428262 -35.3855
v 91.2278 0.03741113 -35.61216
v 89.4478 0.2074973 -50.4949
v 91.56588 0.165824 -50.72083
v 90.04113 0.1508019 -45.53399
v 92.01207 0.09652925 -45.74308
v 90.63447 0.09410653 -40.57307
v 92.45827 0.02723454 -40.76532
v 91.2278 0.03741113 -35.61216
v 92.90446 -0.04206017 -35.78757
v 91.56588 0.165824 -50.72083
v 93.7029 0.1381886 -50.88094
v 92.01207 0.09652925 -45.74308
v 93.99087 0.06060975 -45.89051
v 92.45827 0.02723454 -40.76532
v 94.27883 -0.01696908 -40.90007
v 92.90446 -0.04206017 -35.78757
v 94.5668 -0.09454791 -35.90963
v 93.7029 0.1381886 -50.88094
v 95.77907 0.1246497 -50.96867
v 93.99087 0.06060975 -45.89051
v 95.94675 0.0430702 -45.97231
v 94.27883 -0.01696908 -40.90007
v 96.11443 -0.03850929 -40.97596
v 94.5668 -0.09454791 -35.90963
v 96.28212 -0.1200888 -35.9796
v 95.77907 0.1246497 -50.96867
v 96.58627 0.1229996 -50.98036
v 95.94675 0.0430702 -45.97231
v 96.82513 0.04099985 -45.98675
v 96.11443 -0.03850929 -40.97596
v 97.06399 -0.04099986 -40.99313
v 96.28212 -0.1200888 -35.9796
v 97.30285 -0.1229996 -35.99952

vn -0.06553296 0.9877925 -0.1413205
vn -0.06033903 0.9891207 -0.1341613
vn -0.05770026 0.9893764 -0.1334357
vn -0.05097204 0.9906363 -0.1266551
vn -0.04655224 0.990988 -0.1256014
vn -0.04118068 0.991924 -0.1199622
vn -0.03929818 0.9920465 -0.1195797
vn -0.03645535 0.9926966 -0.1149975
vn -0.06538619 0.9887967 -0.1341856
vn -0.05933462 0.9901738 -0.1266307
vn -0.0564229 0.9904332 -0.1259308
vn -0.04874136 0.9917155 -0.1188474
vn -0.04388335 0.992061 -0.1178523
vn -0.03775795 0.9929942 -0.1119684
vn -0.03569604 0.9931099 -0.1116169
vn -0.03237908 0.9937535 -0.106797
vn -0.06790148 0.9894006 -0.128359
vn -0.05958242 0.9911042 -0.1190059
vn -0.05585472 0.9914114 -0.1182521
vn -0.04586553 0.9928885 -0.109858
vn -0.03988397 0.9932525 -0.1088981
vn -0.032243 0.9942458 -0.1021544
vn -0.02978303 0.9943529 -0.1018587
vn -0.02568329 0.9950152 -0.09635881
vn -0.07013804 0.9902289 -0.1205301
vn -0.05891766 0.9922557 -0.1093492
vn -0.05427176 0.9926004 -0.1086234
vn -0.04164607 0.9942027 -0.09912921
vn -0.0345434 0.9945502 -0.09836999
vn -0.02535119 0.9955252 -0.09103233
vn -0.02253824 0.9956081 -0.0908652
vn -0.01766385 0.996234 -0.08488835
vn -0.07148061 0.9913236 -0.1103095
vn -0.05654079 0.993629 -0.09749104
vn -0.05090494 0.9939917 -0.09689754
vn -0.03538119 0.9956014 -0.08675289
vn -0.02728518 0.995889 -0.08637431
vn -0.01663943 0.9967449 -0.07888472
vn -0.01357822 0.996789 -0.0789139
vn -0.008006666 0.9973142 -0.07280291
vn -0.06921017 0.9928925 -0.09682237
vn -0.05051446 0.9952416 -0.08332188
vn -0.0441006 0.9955693 -0.08304688
vn -0.02620399 0.9969731 -0.07319886
vn -0.01758178 0.9971462 -0.07341891
vn -0.006011465 0.9977723 -0.06644131
vn -0.002901393 0.9977671 -0.06672557
vn 0.003098101 0.9981367 -0.06093962
vn -0.05977415 0.9949926 -0.08010554
vn -0.03878802 0.9969555 -0.06763958
vn -0.0321898 0.9971757 -0.06785718
vn -0.01342987 0.998138 -0.05949916
vn -0.005042809 0.9981601 -0.06042486
vn 0.006564474 0.998485 -0.0546316
vn 0.009475013 0.9984319 -0.05517109
vn 0.01550512 0.9986207 -0.05016263
vn -0.04182976 0.9971791 -0.06232222
vn -0.02110482 0.9983957 -0.05254246
vn -0.015066 0.9984676 -0.05324924
vn 0.002606531 0.9988803 -0.04723712
vn 0.009991238 0.9987622 -0.04872372
vn 0.02066849 0.998794 -0.0445359
vn 0.02316288 0.9987074 -0.04524383
vn 0.02878978 0.99873 -0.04134593
vn -0.01597449 0.9987849 -0.04662124
vn 0.0009025811 0.9991858 -0.04033694
vn 0.005631862 0.9991287 -0.04135424
vn 0.02023675 0.9990811 -0.03778201
vn 0.02611865 0.9988764 -0.03954547
vn 0.03518912 0.9986991 -0.03690149
vn 0.03719255 0.9985978 -0.03767068
vn 0.04216193 0.9985023 -0.03486612
vn 0.0217646 0.999245 -0.03218437
vn 0.009367302 0.9995557 -0.02829374
vn 0.0252478 0.9991952 -0.03117018
vn 0.03663991 0.9987759 -0.03322934
vn 0.04124393 0.9986515 -0.03153101
vn 0.04877393 0.9982585 -0.03318436
vn 0.05040526 0.9982013 -0.0324562
vn 0.05472841 0.9979054 -0.03449086
vn 0.03719009 0.9989449 -0.02694273
vn 0.02814414 0.9993337 -0.02323398
vn 0.03998571 0.9988545 -0.02628415
vn 0.04926363 0.9983741 -0.02867231
vn 0.05337458 0.9981968 -0.02746778
vn 0.06010728 0.9977585 -0.02941011
vn 0.06168186 0.9976785 -0.0288591
vn 0.06569024 0.9973577 -0.03102028
vn 0.04588765 0.9986916 -0.02257076
vn 0.03831653 0.9990882 -0.01883233
vn 0.04844304 0.9985825 -0.02204921
vn 0.05713235 0.9980583 -0.0248089
vn 0.06133356 0.9978336 -0.02379514
vn 0.06835835 0.9973174 -0.02617604
vn 0.07011603 0.9972081 -0.02568722
vn 0.07453384 0.9968177 -0.028269
vn 0.04898176 0.9986418 -0.01776208
vn 0.04198414 0.9990215 -0.01390005
vn 0.05150743 0.998523 -0.01728504
vn 0.06033076 0.9979695 -0.02042135
vn 0.06490444 0.9977015 -0.01946998
vn 0.07279734 0.997096 -0.02236518
vn 0.07487725 0.9969524 -0.02189275
vn 0.08015481 0.9964672 -0.02506424
vn 0.04801087 0.9987727 -0.01216871
vn 0.04137386 0.9991097 -0.008252147
vn 0.05052133 0.9986546 -0.0116834
vn 0.05953665 0.9981124 -0.01506577
vn 0.06446114 0.9978206 -0.01409432
vn 0.07327605 0.9971595 -0.01742231
vn 0.07569037 0.9969875 -0.01693622
vn 0.08196012 0.9964206 -0.02070179
vn 0.03728748 0.9992762 -0.007539663
vn 0.04435186 0.9989974 -0.006085654
vn 0.0464409 0.998894 -0.007338136
vn 0.05587789 0.9984121 -0.007129636
vn 0.06024417 0.9981365 -0.009701964
vn 0.07012067 0.997493 -0.009524993
vn 0.07240295 0.9973165 -0.01084624
vn 0.08030821 0.9967263 -0.009341333
vn 0.03261499 0.9994669 -0.001467864
vn 0.03886374 0.9992445 -4.148819E-05
vn 0.04075783 0.9991684 -0.001160182
vn 0.04942803 0.9987774 -0.0008323674
vn 0.05357849 0.9985585 -0.003194106
vn 0.06312497 0.9980014 -0.002918602
vn 0.06540638 0.9978499 -0.004168279
vn 0.07333729 0.9973037 -0.002623416
vn 0.02697471 0.9996275 0.004140904
vn 0.03213984 0.9994683 0.005487118
vn 0.03374644 0.9994199 0.004568015
vn 0.04110627 0.999142 0.005032081
vn 0.04473397 0.9989943 0.003060514
vn 0.05311579 0.9985823 0.003486548
vn 0.05517754 0.9984736 0.002424356
vn 0.06230973 0.998049 0.003953812
vn 0.02062567 0.9997472 0.008958677
vn 0.02453125 0.999648 0.01010649
vn 0.02578181 0.9996231 0.009431046
vn 0.03146141 0.9994555 0.009951148
vn 0.03433966 0.9993742 0.008490114
vn 0.04095737 0.9991204 0.009000952
vn 0.04262941 0.9990573 0.008206052
vn 0.04834235 0.998785 0.00957072
vn 0.01387907 0.9998233 0.01267436
vn 0.01644832 0.9997733 0.01351948
vn 0.01729533 0.9997647 0.01309405
vn 0.0210848 0.9996856 0.01355943
vn 0.02305237 0.9996544 0.01263779
vn 0.02752265 0.9995351 0.01311729
vn 0.0286782 0.9995091 0.01261486
vn 0.03255771 0.9993765 0.01365712
vn 0.007159477 0.9998599 0.0151302
vn 0.008360559 0.9998441 0.01555294
vn 0.008763117 0.9998435 0.01536891
vn 0.01050079 0.9998228 0.01562754
vn 0.01140343 0.9998189 0.01523744
vn 0.01337516 0.9997903 0.01550744
vn 0.01388445 0.9997865 0.01529999
vn 0.01553076 0.9997545 0.01580255
vn 0.002279448 0.9998654 0.0162491
vn 0.002459257 0.9998645 0.01627204
vn 0.002515575 0.9998646 0.01626023
vn 0.002726856 0.9998639 0.01627018
vn 0.002823906 0.999864 0.0162484
vn 0.003004705 0.9998633 0.0162582
vn 0.003046961 0.9998634 0.01624811
vn 0.003168739 0.9998626 0.01626709

vt 0 229.9732
vt 0 231.7417
vt 0.3333333 229.9732
vt 0.3333333 231.7417
vt 0.6666667 229.9732
vt 0.6666667 231.7417
vt 1 229.9732
vt 1 231.7417
vt 0 231.7417
vt 0 233.5102
vt 0.3333333 231.7417
vt 0.3333333 233.5102
vt 0.6666667 231.7417
vt 0.6666667 233.5102
vt 1 231.7417
vt 1 233.5102
vt 0 233.5102
vt 0 235.2787
vt 0.3333333 233.5102
vt 0.3333333 235.2787
vt 0.6666667 233.5102
vt 0.6666667 235.2787
vt 1 233.5102
vt 1 235.2787
vt 0 235.2787
vt 0 237.0472
vt 0.3333333 235.2787
vt 0.3333333 237.0472
vt 0.6666667 235.2787
vt 0.6666667 237.0472
vt 1 235.2787
vt 1 237.0472
vt 0 237.0472
vt 0 238.8157
vt 0.3333333 237.0472
vt 0.3333333 238.8157
vt 0.6666667 237.0472
vt 0.6666667 238.8157
vt 1 237.0472
vt 1 238.8157
vt 0 238.8157
vt 0 240.5842
vt 0.3333333 238.8157
vt 0.3333333 240.5842
vt 0.6666667 238.8157
vt 0.6666667 240.5842
vt 1 238.8157
vt 1 240.5842
vt 0 240.5842
vt 0 242.3527
vt 0.3333333 240.5842
vt 0.3333333 242.3527
vt 0.6666667 240.5842
vt 0.6666667 242.3527
vt 1 240.5842
vt 1 242.3527
vt 0 242.3527
vt 0 244.1212
vt 0.3333333 242.3527
vt 0.3333333 244.1212
vt 0.6666667 242.3527
vt 0.6666667 244.1212
vt 1 242.3527
vt 1 244.1212
vt 0 244.1212
vt 0 245.8897
vt 0.3333333 244.1212
vt 0.3333333 245.8897
vt 0.6666667 244.1212
vt 0.6666667 245.8897
vt 1 244.1212
vt 1 245.8897
vt 0 245.8897
vt 0 247.6582
vt 0.3333333 247.6582
vt 0.3333333 245.8897
vt 0.6666667 247.6582
vt 0.6666667 245.8897
vt 1 247.6582
vt 1 245.8897
vt 0 247.6582
vt 0 249.4267
vt 0.3333333 249.4267
vt 0.3333333 247.6582
vt 0.6666667 249.4267
vt 0.6666667 247.6582
vt 1 249.4267
vt 1 247.6582
vt 0 249.4267
vt 0 251.1951
vt 0.3333333 251.1951
vt 0.3333333 249.4267
vt 0.6666667 251.1951
vt 0.6666667 249.4267
vt 1 251.1951
vt 1 249.4267
vt 0 251.1951
vt 0 252.9636
vt 0.3333333 252.9636
vt 0.3333333 251.1951
vt 0.6666667 252.9636
vt 0.6666667 251.1951
vt 1 252.9636
vt 1 251.1951
vt 0 252.9636
vt 0 254.7321
vt 0.3333333 254.7321
vt 0.3333333 252.9636
vt 0.6666667 254.7321
vt 0.6666667 252.9636
vt 1 254.7321
vt 1 252.9636
vt 0 254.7321
vt 0 256.5006
vt 0.3333333 254.7321
vt 0.3333333 256.5006
vt 0.6666667 254.7321
vt 0.6666667 256.5006
vt 1 254.7321
vt 1 256.5006
vt 0 256.5006
vt 0 258.2691
vt 0.3333333 256.5006
vt 0.3333333 258.2691
vt 0.6666667 256.5006
vt 0.6666667 258.2691
vt 1 256.5006
vt 1 258.2691
vt 0 258.2691
vt 0 260.0376
vt 0.3333333 258.2691
vt 0.3333333 260.0376
vt 0.6666667 258.2691
vt 0.6666667 260.0376
vt 1 258.2691
vt 1 260.0376
vt 0 260.0376
vt 0 261.8061
vt 0.3333333 260.0376
vt 0.3333333 261.8061
vt 0.6666667 260.0376
vt 0.6666667 261.8061
vt 1 260.0376
vt 1 261.8061
vt 0 261.8061
vt 0 263.5746
vt 0.3333333 261.8061
vt 0.3333333 263.5746
vt 0.6666667 261.8061
vt 0.6666667 263.5746
vt 1 261.8061
vt 1 263.5746
vt 0 263.5746
vt 0 265.3431
vt 0.3333333 263.5746
vt 0.3333333 265.3431
vt 0.6666667 263.5746
vt 0.6666667 265.3431
vt 1 263.5746
vt 1 265.3431
vt 0 265.3431
vt 0 267.1116
vt 0.3333333 265.3431
vt 0.3333333 267.1116
vt 0.6666667 265.3431
vt 0.6666667 267.1116
vt 1 265.3431
vt 1 267.1116

g Track Texture
usemtl Track Texture
usemap Track Texture
f 2/2/2 1/1/1 3/3/3
f 2/2/2 3/3/3 4/4/4
f 4/4/4 3/3/3 5/5/5
f 4/4/4 5/5/5 6/6/6
f 6/6/6 5/5/5 7/7/7
f 6/6/6 7/7/7 8/8/8
f 10/10/10 9/9/9 11/11/11
f 10/10/10 11/11/11 12/12/12
f 12/12/12 11/11/11 13/13/13
f 12/12/12 13/13/13 14/14/14
f 14/14/14 13/13/13 15/15/15
f 14/14/14 15/15/15 16/16/16
f 18/18/18 17/17/17 19/19/19
f 18/18/18 19/19/19 20/20/20
f 20/20/20 19/19/19 21/21/21
f 20/20/20 21/21/21 22/22/22
f 22/22/22 21/21/21 23/23/23
f 22/22/22 23/23/23 24/24/24
f 26/26/26 25/25/25 27/27/27
f 26/26/26 27/27/27 28/28/28
f 28/28/28 27/27/27 29/29/29
f 28/28/28 29/29/29 30/30/30
f 30/30/30 29/29/29 31/31/31
f 30/30/30 31/31/31 32/32/32
f 34/34/34 33/33/33 35/35/35
f 34/34/34 35/35/35 36/36/36
f 36/36/36 35/35/35 37/37/37
f 36/36/36 37/37/37 38/38/38
f 38/38/38 37/37/37 39/39/39
f 38/38/38 39/39/39 40/40/40
f 42/42/42 41/41/41 43/43/43
f 42/42/42 43/43/43 44/44/44
f 44/44/44 43/43/43 45/45/45
f 44/44/44 45/45/45 46/46/46
f 46/46/46 45/45/45 47/47/47
f 46/46/46 47/47/47 48/48/48
f 50/50/50 49/49/49 51/51/51
f 50/50/50 51/51/51 52/52/52
f 52/52/52 51/51/51 53/53/53
f 52/52/52 53/53/53 54/54/54
f 54/54/54 53/53/53 55/55/55
f 54/54/54 55/55/55 56/56/56
f 58/58/58 57/57/57 59/59/59
f 58/58/58 59/59/59 60/60/60
f 60/60/60 59/59/59 61/61/61
f 60/60/60 61/61/61 62/62/62
f 62/62/62 61/61/61 63/63/63
f 62/62/62 63/63/63 64/64/64
f 66/66/66 65/65/65 67/67/67
f 66/66/66 67/67/67 68/68/68
f 68/68/68 67/67/67 69/69/69
f 68/68/68 69/69/69 70/70/70
f 70/70/70 69/69/69 71/71/71
f 70/70/70 71/71/71 72/72/72
f 74/74/74 73/73/73 75/75/75
f 75/75/75 73/73/73 76/76/76
f 75/75/75 76/76/76 77/77/77
f 77/77/77 76/76/76 78/78/78
f 77/77/77 78/78/78 79/79/79
f 79/79/79 78/78/78 80/80/80
f 82/82/82 81/81/81 83/83/83
f 83/83/83 81/81/81 84/84/84
f 83/83/83 84/84/84 85/85/85
f 85/85/85 84/84/84 86/86/86
f 85/85/85 86/86/86 87/87/87
f 87/87/87 86/86/86 88/88/88
f 90/90/90 89/89/89 91/91/91
f 91/91/91 89/89/89 92/92/92
f 91/91/91 92/92/92 93/93/93
f 93/93/93 92/92/92 94/94/94
f 93/93/93 94/94/94 95/95/95
f 95/95/95 94/94/94 96/96/96
f 98/98/98 97/97/97 99/99/99
f 99/99/99 97/97/97 100/100/100
f 99/99/99 100/100/100 101/101/101
f 101/101/101 100/100/100 102/102/102
f 101/101/101 102/102/102 103/103/103
f 103/103/103 102/102/102 104/104/104
f 106/106/106 105/105/105 107/107/107
f 107/107/107 105/105/105 108/108/108
f 107/107/107 108/108/108 109/109/109
f 109/109/109 108/108/108 110/110/110
f 109/109/109 110/110/110 111/111/111
f 111/111/111 110/110/110 112/112/112
f 114/114/114 113/113/113 115/115/115
f 114/114/114 115/115/115 116/116/116
f 116/116/116 115/115/115 117/117/117
f 116/116/116 117/117/117 118/118/118
f 118/118/118 117/117/117 119/119/119
f 118/118/118 119/119/119 120/120/120
f 122/122/122 121/121/121 123/123/123
f 122/122/122 123/123/123 124/124/124
f 124/124/124 123/123/123 125/125/125
f 124/124/124 125/125/125 126/126/126
f 126/126/126 125/125/125 127/127/127
f 126/126/126 127/127/127 128/128/128
f 130/130/130 129/129/129 131/131/131
f 130/130/130 131/131/131 132/132/132
f 132/132/132 131/131/131 133/133/133
f 132/132/132 133/133/133 134/134/134
f 134/134/134 133/133/133 135/135/135
f 134/134/134 135/135/135 136/136/136
f 138/138/138 137/137/137 139/139/139
f 138/138/138 139/139/139 140/140/140
f 140/140/140 139/139/139 141/141/141
f 140/140/140 141/141/141 142/142/142
f 142/142/142 141/141/141 143/143/143
f 142/142/142 143/143/143 144/144/144
f 146/146/146 145/145/145 147/147/147
f 146/146/146 147/147/147 148/148/148
f 148/148/148 147/147/147 149/149/149
f 148/148/148 149/149/149 150/150/150
f 150/150/150 149/149/149 151/151/151
f 150/150/150 151/151/151 152/152/152
f 154/154/154 153/153/153 155/155/155
f 154/154/154 155/155/155 156/156/156
f 156/156/156 155/155/155 157/157/157
f 156/156/156 157/157/157 158/158/158
f 158/158/158 157/157/157 159/159/159
f 158/158/158 159/159/159 160/160/160
f 162/162/162 161/161/161 163/163/163
f 162/162/162 163/163/163 164/164/164
f 164/164/164 163/163/163 165/165/165
f 164/164/164 165/165/165 166/166/166
f 166/166/166 165/165/165 167/167/167
f 166/166/166 167/167/167 168/168/168
