mtllib ./Track1_trackCollider_18.mtl
# Unity Asset Buildr OBJ Exporter
 http://buildr.jasperstocker.com
g Track1_trackCollider_18
v -90.08527 -0.2215233 -8.356048
v -91.41822 -3.494585E-05 -7.342753
v -91.41822 4.999965 -7.342785
v -90.08527 4.778476 -8.356079
v -82.54517 3.494585E-05 4.624623
v -80.84843 -0.2214565 3.341677
v -82.54517 5.000034 4.624591
v -80.84843 4.778543 3.341645
v -88.87665 -0.4286373 -9.357384
v -90.08527 -0.2215233 -8.356048
v -90.08527 4.778476 -8.356079
v -88.87665 4.571362 -9.357415
v -80.84843 -0.2214565 3.341677
v -79.14085 -0.4285733 1.944218
v -80.84843 4.778543 3.341645
v -79.14085 4.571426 1.944186
v -87.7542 -0.6203272 -10.37765
v -88.87665 -0.4286373 -9.357384
v -88.87665 4.571362 -9.357415
v -87.7542 4.379673 -10.37768
v -79.14085 -0.4285733 1.944218
v -77.465 -0.6202646 0.4405203
v -79.14085 4.571426 1.944186
v -77.465 4.379735 0.4404881
v -86.7205 -0.7952574 -11.42251
v -87.7542 -0.6203272 -10.37765
v -87.7542 4.379673 -10.37768
v -86.7205 4.204742 -11.42254
v -77.465 -0.6202646 0.4405203
v -75.82258 -0.795202 -1.197399
v -77.465 4.379735 0.4404881
v -75.82258 4.204798 -1.197429
v -85.80309 -0.9486485 -12.47163
v -86.7205 -0.7952574 -11.42251
v -86.7205 4.204742 -11.42254
v -85.80309 4.051352 -12.47166
v -75.82258 -0.795202 -1.197399
v -74.23972 -0.9485961 -2.982511
v -75.82258 4.204798 -1.197429
v -74.23972 4.051404 -2.982541
v -85.00719 -1.077403 -13.52431
v -85.80309 -0.9486485 -12.47163
v -85.80309 4.051352 -12.47166
v -85.00719 3.922597 -13.52434
v -74.23972 -0.9485961 -2.982511
v -72.73733 -1.077357 -4.943081
v -74.23972 4.051404 -2.982541
v -72.73733 3.922643 -4.943111
v -84.34933 -1.176534 -14.56128
v -85.00719 -1.077403 -13.52431
v -85.00719 3.922597 -13.52434
v -84.34933 3.823465 -14.56131
v -72.73733 -1.077357 -4.943081
v -71.35537 -1.176496 -7.095697
v -72.73733 3.922643 -4.943111
v -71.35537 3.823503 -7.095725
v -83.82774 -1.241694 -15.58333
v -84.34933 -1.176534 -14.56128
v -84.34933 3.823465 -14.56131
v -83.82774 3.758306 -15.58336
v -71.35537 -1.176496 -7.095697
v -70.14162 -1.241663 -9.454782
v -71.35537 3.823503 -7.095725
v -70.14162 3.758337 -9.454809
v -83.44349 -1.268205 -16.58154
v -83.82774 -1.241694 -15.58333
v -83.82774 3.758306 -15.58336
v -83.44349 3.731795 -16.58157
v -70.14162 -1.241663 -9.454782
v -69.16022 -1.268181 -12.00046
v -70.14162 3.758337 -9.454809
v -69.16022 3.731819 -12.00049
v -83.18568 -1.253487 -17.57126
v -83.44349 -1.268205 -16.58154
v -83.44349 3.731795 -16.58157
v -83.18568 3.746513 -17.57129
v -69.16022 -1.268181 -12.00046
v -68.46873 -1.253471 -14.68456
v -69.16022 3.731819 -12.00049
v -68.46873 3.746528 -14.68459
v -83.0446 -1.197584 -18.58525
v -83.18568 -1.253487 -17.57126
v -83.18568 3.746513 -17.57129
v -83.0446 3.802415 -18.58527
v -68.46873 -1.253471 -14.68456
v -68.10075 -1.197574 -17.43175
v -68.46873 3.746528 -14.68459
v -68.10075 3.802426 -17.43177
v -83.01906 -1.103801 -19.65954
v -83.0446 -1.197584 -18.58525
v -83.0446 3.802415 -18.58527
v -83.01906 3.896198 -19.65956
v -68.10075 -1.197574 -17.43175
v -68.0522 -1.103795 -20.15127
v -68.10075 3.802426 -17.43177
v -68.0522 3.896203 -20.15129
v -83.11426 -0.9784147 -20.82382
v -83.01906 -1.103801 -19.65954
v -83.01906 3.896198 -19.65956
v -83.11426 4.021586 -20.82384
v -68.0522 -1.103795 -20.15127
v -68.27983 -0.9784132 -22.76384
v -68.0522 3.896203 -20.15129
v -68.27983 4.021587 -22.76386
v -83.33638 -0.8292702 -22.09948
v -83.11426 -0.9784147 -20.82382
v -83.11426 4.021586 -20.82384
v -83.33638 4.170729 -22.09949
v -68.27983 -0.9784132 -22.76384
v -68.71703 -0.8292698 -25.22135
v -68.27983 4.021587 -22.76386
v -68.71703 4.17073 -25.22136
v -83.68607 -0.6650822 -23.49719
v -83.33638 -0.8292702 -22.09948
v -83.33638 4.170729 -22.09949
v -83.68607 4.334917 -23.4972
v -68.71703 -0.8292698 -25.22135
v -69.29053 -0.6650823 -27.50122
v -68.71703 4.17073 -25.22136
v -69.29053 4.334917 -27.50123
v -84.15439 -0.4953165 -25.02461
v -83.68607 -0.6650822 -23.49719
v -83.68607 4.334917 -23.4972
v -84.15439 4.504683 -25.02462
v -69.29053 -0.6650823 -27.50122
v -69.92865 -0.4953164 -29.59329
v -69.29053 4.334917 -27.50123
v -69.92865 4.504683 -29.5933
v -84.72762 -0.3292926 -26.71411
v -84.15439 -0.4953165 -25.02461
v -84.15439 4.504683 -25.02462
v -84.72762 4.670707 -26.71411
v -69.92865 -0.4953164 -29.59329
v -70.56485 -0.3292929 -31.49531
v -69.92865 4.504683 -29.5933
v -70.56485 4.670707 -31.49531
v -85.37941 -0.1791665 -28.62071
v -84.72762 -0.3292926 -26.71411
v -84.72762 4.670707 -26.71411
v -85.37941 4.820834 -28.62071
v -70.56485 -0.3292929 -31.49531
v -71.12695 -0.1791663 -33.1755
v -70.56485 4.670707 -31.49531
v -71.12695 4.820834 -33.17551
v -86.06252 -0.06090321 -30.8753
v -85.37941 -0.1791665 -28.62071
v -85.37941 4.820834 -28.62071
v -86.06252 4.939096 -30.8753
v -71.12695 -0.1791663 -33.1755
v -71.53859 -0.06090241 -34.5581
v -71.12695 4.820834 -33.17551
v -71.53859 4.939096 -34.5581
v -86.54443 -0.001417807 -33.14166
v -86.06252 -0.06090321 -30.8753
v -86.06252 4.939096 -30.8753
v -86.54443 4.998582 -33.14166
v -71.53859 -0.06090241 -34.5581
v -71.82705 -0.001418205 -36.01004
v -71.53859 4.939096 -34.5581
v -71.82705 4.998582 -36.01004
v -86.68003 -7.735253E-08 -34.08393
v -86.54443 -0.001417807 -33.14166
v -86.54443 4.998582 -33.14166
v -86.68003 4.999999 -34.08393
v -71.82705 -0.001418205 -36.01004
v -71.76531 7.735253E-08 -35.68118
v -71.82705 4.998582 -36.01004
v -71.76531 4.999999 -35.68118

vn 0.6051801 5.047106E-06 0.7960886
vn 0.6051802 5.08343E-06 0.7960885
vn 0.6051801 5.047106E-06 0.7960886
vn 0.60518 5.010782E-06 0.7960887
vn -0.6031208 -5.096678E-06 -0.7976499
vn -0.6031207 -5.058973E-06 -0.7976499
vn -0.6031207 -5.058973E-06 -0.7976499
vn -0.6031206 -5.021269E-06 -0.79765
vn 0.6379818 4.84631E-06 0.7700514
vn 0.6379818 4.845724E-06 0.7700514
vn 0.6379818 4.84631E-06 0.7700514
vn 0.6379818 4.846897E-06 0.7700514
vn -0.6333343 -4.870985E-06 -0.7738784
vn -0.6333342 -4.866667E-06 -0.7738784
vn -0.6333342 -4.866667E-06 -0.7738784
vn -0.6333342 -4.862348E-06 -0.7738784
vn 0.6726242 4.725661E-06 0.7399842
vn 0.6726241 4.652536E-06 0.7399844
vn 0.6726242 4.725661E-06 0.7399842
vn 0.6726244 4.798786E-06 0.7399842
vn -0.6678435 -4.684822E-06 -0.7443017
vn -0.6678436 -4.735519E-06 -0.7443017
vn -0.6678436 -4.735519E-06 -0.7443017
vn -0.6678437 -4.786216E-06 -0.7443016
vn 0.7108911 4.425395E-06 0.7033021
vn 0.7108915 4.558173E-06 0.7033017
vn 0.7108911 4.425395E-06 0.7033021
vn 0.7108908 4.292618E-06 0.7033024
vn -0.7061349 -4.558107E-06 -0.7080773
vn -0.7061346 -4.406731E-06 -0.7080775
vn -0.7061346 -4.406731E-06 -0.7080775
vn -0.7061344 -4.255354E-06 -0.7080777
vn 0.7527781 4.014731E-06 0.6582744
vn 0.7527781 4.011674E-06 0.6582744
vn 0.7527781 4.014731E-06 0.6582744
vn 0.7527781 4.017787E-06 0.6582744
vn -0.7482213 -3.986102E-06 -0.6634492
vn -0.7482214 -4.011677E-06 -0.6634492
vn -0.7482214 -4.011677E-06 -0.6634492
vn -0.7482213 -4.037251E-06 -0.6634491
vn 0.7976738 3.625725E-06 0.6030891
vn 0.7976739 3.685514E-06 0.603089
vn 0.7976738 3.625725E-06 0.6030891
vn 0.7976736 3.565935E-06 0.6030893
vn -0.7937465 -3.712456E-06 -0.6082488
vn -0.7937465 -3.651591E-06 -0.6082489
vn -0.7937465 -3.651591E-06 -0.6082489
vn -0.7937463 -3.590726E-06 -0.6082489
vn 0.8444061 3.063853E-06 0.5357035
vn 0.8444064 3.164562E-06 0.5357032
vn 0.8444061 3.063853E-06 0.5357035
vn 0.8444059 2.963145E-06 0.5357039
vn -0.8415103 -3.194327E-06 -0.5402411
vn -0.8415102 -3.088423E-06 -0.5402412
vn -0.8415102 -3.088423E-06 -0.5402412
vn -0.8415101 -2.982518E-06 -0.5402414
vn 0.8907139 2.47089E-06 0.4545642
vn 0.890714 2.514145E-06 0.454564
vn 0.8907139 2.47089E-06 0.4545642
vn 0.8907139 2.427636E-06 0.4545644
vn -0.889211 -2.530561E-06 -0.4574974
vn -0.8892109 -2.487475E-06 -0.4574975
vn -0.8892109 -2.487475E-06 -0.4574975
vn -0.8892109 -2.444389E-06 -0.4574975
vn 0.9332454 1.849232E-06 0.3592396
vn 0.9332455 1.916956E-06 0.3592393
vn 0.9332454 1.849232E-06 0.3592396
vn 0.9332452 1.781509E-06 0.3592399
vn -0.933064 -1.921061E-06 -0.3597105
vn -0.9330639 -1.85188E-06 -0.3597106
vn -0.9330639 -1.85188E-06 -0.3597106
vn -0.9330639 -1.782698E-06 -0.3597107
vn 0.9677086 1.200531E-06 0.2520713
vn 0.9677088 1.24717E-06 0.252071
vn 0.9677086 1.200531E-06 0.2520713
vn 0.9677086 1.153892E-06 0.2520715
vn -0.9683803 -1.237191E-06 -0.2494786
vn -0.9683803 -1.164808E-06 -0.2494787
vn -0.9683803 -1.164808E-06 -0.2494787
vn -0.9683803 -1.092425E-06 -0.2494788
vn 0.9904588 5.787038E-07 0.1378095
vn 0.9904588 6.317048E-07 0.1378092
vn 0.9904588 5.787038E-07 0.1378095
vn 0.9904587 5.257024E-07 0.1378097
vn -0.9911478 -5.824164E-07 -0.1327626
vn -0.9911478 -5.449622E-07 -0.1327626
vn -0.9911478 -5.449622E-07 -0.1327626
vn -0.9911479 -5.07508E-07 -0.1327627
vn 0.9997174 8.6218E-08 0.02377016
vn 0.9997175 9.082755E-08 0.02377013
vn 0.9997174 8.6218E-08 0.02377016
vn 0.9997174 8.160845E-08 0.02377018
vn -0.9998407 -6.809552E-08 -0.01785083
vn -0.9998407 -6.472716E-08 -0.01785084
vn -0.9998407 -6.472716E-08 -0.01785084
vn -0.9998407 -6.13588E-08 -0.01785084
vn 0.9966737 -2.646677E-07 -0.08149491
vn 0.9966738 -2.806325E-07 -0.08149485
vn 0.9966737 -2.646677E-07 -0.08149491
vn 0.9966738 -2.487029E-07 -0.08149497
vn -0.9962257 2.980048E-07 0.08680017
vn -0.9962257 2.831004E-07 0.0868002
vn -0.9962257 2.831004E-07 0.0868002
vn -0.9962257 2.68196E-07 0.08680023
vn 0.9851767 -4.586983E-07 -0.1715429
vn 0.9851767 -5.247652E-07 -0.1715426
vn 0.9851767 -4.586983E-07 -0.1715429
vn 0.9851766 -3.926311E-07 -0.1715431
vn -0.9845414 5.345203E-07 0.1751516
vn -0.9845414 4.678455E-07 0.1751517
vn -0.9845414 4.678455E-07 0.1751517
vn -0.9845414 4.011707E-07 0.1751519
vn 0.9700993 -5.086395E-07 -0.2427087
vn 0.9700993 -5.543483E-07 -0.2427086
vn 0.9700993 -5.086395E-07 -0.2427087
vn 0.9700992 -4.629305E-07 -0.2427088
vn -0.9697869 5.583656E-07 0.2439536
vn -0.9697868 5.1244E-07 0.2439537
vn -0.9697868 5.1244E-07 0.2439537
vn -0.9697868 4.665145E-07 0.2439538
vn 0.9560703 -4.475519E-07 -0.2931374
vn 0.9560704 -5.596339E-07 -0.293137
vn 0.9560703 -4.475519E-07 -0.2931374
vn 0.9560702 -3.354696E-07 -0.2931377
vn -0.9564959 5.564612E-07 0.2917459
vn -0.9564958 4.417383E-07 0.2917461
vn -0.9564958 4.417383E-07 0.2917461
vn -0.9564957 3.270152E-07 0.2917463
vn 0.9469777 -3.063153E-07 -0.3212992
vn 0.9469777 -3.674986E-07 -0.321299
vn 0.9469777 -3.063153E-07 -0.3212992
vn 0.9469776 -2.45132E-07 -0.3212994
vn -0.9483545 3.63021E-07 0.3172125
vn -0.9483544 3.003873E-07 0.3172126
vn -0.9483544 3.003873E-07 0.3172126
vn -0.9483544 2.377536E-07 0.3172128
vn 0.9462345 -1.859411E-07 -0.3234815
vn 0.9462345 -2.484838E-07 -0.3234814
vn 0.9462345 -1.859411E-07 -0.3234815
vn 0.9462344 -1.233984E-07 -0.3234816
vn -0.9483374 2.420527E-07 0.3172634
vn -0.9483375 2.421381E-07 0.3172633
vn -0.9483375 2.421381E-07 0.3172633
vn -0.9483375 2.422236E-07 0.3172633
vn 0.9570368 -5.566255E-08 -0.2899666
vn 0.9570368 -1.113251E-07 -0.2899665
vn 0.9570368 -5.566255E-08 -0.2899666
vn 0.9570367 0 -0.2899668
vn -0.9584237 2.17704E-07 0.285349
vn -0.9584236 1.088521E-07 0.2853493
vn -0.9584236 1.088521E-07 0.2853493
vn -0.9584235 0 0.2853497
vn 0.9781316 0 -0.2079868
vn 0.9781317 0 -0.2079868
vn 0.9781316 0 -0.2079868
vn 0.9781316 0 -0.2079868
vn -0.9808304 0 0.1948637
vn -0.9808303 0 0.1948637
vn -0.9808303 0 0.1948637
vn -0.9808304 0 0.1948637
vn 0.9898027 0 -0.1424451
vn 0.9898027 0 -0.1424451
vn 0.9898027 0 -0.1424451
vn 0.9898027 0 -0.1424451
vn 0.9828312 0 -0.1845067
vn 0.9828312 0 -0.1845067
vn 0.9828312 0 -0.1845067
vn 0.9828312 0 -0.1845067

vt 0 0
vt 0 0
vt 0 0
vt 0 0
vt 0 0
vt 0 0
vt 0 0
vt 0 0
vt 0 0
vt 0 0
vt 0 0
vt 0 0
vt 0 0
vt 0 0
vt 0 0
vt 0 0
vt 0 0
vt 0 0
vt 0 0
vt 0 0
vt 0 0
vt 0 0
vt 0 0
vt 0 0
vt 0 0
vt 0 0
vt 0 0
vt 0 0
vt 0 0
vt 0 0
vt 0 0
vt 0 0
vt 0 0
vt 0 0
vt 0 0
vt 0 0
vt 0 0
vt 0 0
vt 0 0
vt 0 0
vt 0 0
vt 0 0
vt 0 0
vt 0 0
vt 0 0
vt 0 0
vt 0 0
vt 0 0
vt 0 0
vt 0 0
vt 0 0
vt 0 0
vt 0 0
vt 0 0
vt 0 0
vt 0 0
vt 0 0
vt 0 0
vt 0 0
vt 0 0
vt 0 0
vt 0 0
vt 0 0
vt 0 0
vt 0 0
vt 0 0
vt 0 0
vt 0 0
vt 0 0
vt 0 0
vt 0 0
vt 0 0
vt 0 0
vt 0 0
vt 0 0
vt 0 0
vt 0 0
vt 0 0
vt 0 0
vt 0 0
vt 0 0
vt 0 0
vt 0 0
vt 0 0
vt 0 0
vt 0 0
vt 0 0
vt 0 0
vt 0 0
vt 0 0
vt 0 0
vt 0 0
vt 0 0
vt 0 0
vt 0 0
vt 0 0
vt 0 0
vt 0 0
vt 0 0
vt 0 0
vt 0 0
vt 0 0
vt 0 0
vt 0 0
vt 0 0
vt 0 0
vt 0 0
vt 0 0
vt 0 0
vt 0 0
vt 0 0
vt 0 0
vt 0 0
vt 0 0
vt 0 0
vt 0 0
vt 0 0
vt 0 0
vt 0 0
vt 0 0
vt 0 0
vt 0 0
vt 0 0
vt 0 0
vt 0 0
vt 0 0
vt 0 0
vt 0 0
vt 0 0
vt 0 0
vt 0 0
vt 0 0
vt 0 0
vt 0 0
vt 0 0
vt 0 0
vt 0 0
vt 0 0
vt 0 0
vt 0 0
vt 0 0
vt 0 0
vt 0 0
vt 0 0
vt 0 0
vt 0 0
vt 0 0
vt 0 0
vt 0 0
vt 0 0
vt 0 0
vt 0 0
vt 0 0
vt 0 0
vt 0 0
vt 0 0
vt 0 0
vt 0 0
vt 0 0
vt 0 0
vt 0 0
vt 0 0
vt 0 0
vt 0 0
vt 0 0
vt 0 0
vt 0 0
vt 0 0

g Track Texture
usemtl Track Texture
usemap Track Texture
f 2/2/2 1/1/1 3/3/3
f 3/3/3 1/1/1 4/4/4
f 6/6/6 5/5/5 7/7/7
f 6/6/6 7/7/7 8/8/8
f 10/10/10 9/9/9 11/11/11
f 11/11/11 9/9/9 12/12/12
f 14/14/14 13/13/13 15/15/15
f 14/14/14 15/15/15 16/16/16
f 18/18/18 17/17/17 19/19/19
f 19/19/19 17/17/17 20/20/20
f 22/22/22 21/21/21 23/23/23
f 22/22/22 23/23/23 24/24/24
f 26/26/26 25/25/25 27/27/27
f 27/27/27 25/25/25 28/28/28
f 30/30/30 29/29/29 31/31/31
f 30/30/30 31/31/31 32/32/32
f 34/34/34 33/33/33 35/35/35
f 35/35/35 33/33/33 36/36/36
f 38/38/38 37/37/37 39/39/39
f 38/38/38 39/39/39 40/40/40
f 42/42/42 41/41/41 43/43/43
f 43/43/43 41/41/41 44/44/44
f 46/46/46 45/45/45 47/47/47
f 46/46/46 47/47/47 48/48/48
f 50/50/50 49/49/49 51/51/51
f 51/51/51 49/49/49 52/52/52
f 54/54/54 53/53/53 55/55/55
f 54/54/54 55/55/55 56/56/56
f 58/58/58 57/57/57 59/59/59
f 59/59/59 57/57/57 60/60/60
f 62/62/62 61/61/61 63/63/63
f 62/62/62 63/63/63 64/64/64
f 66/66/66 65/65/65 67/67/67
f 67/67/67 65/65/65 68/68/68
f 70/70/70 69/69/69 71/71/71
f 70/70/70 71/71/71 72/72/72
f 74/74/74 73/73/73 75/75/75
f 75/75/75 73/73/73 76/76/76
f 78/78/78 77/77/77 79/79/79
f 78/78/78 79/79/79 80/80/80
f 82/82/82 81/81/81 83/83/83
f 83/83/83 81/81/81 84/84/84
f 86/86/86 85/85/85 87/87/87
f 86/86/86 87/87/87 88/88/88
f 90/90/90 89/89/89 91/91/91
f 91/91/91 89/89/89 92/92/92
f 94/94/94 93/93/93 95/95/95
f 94/94/94 95/95/95 96/96/96
f 98/98/98 97/97/97 99/99/99
f 99/99/99 97/97/97 100/100/100
f 102/102/102 101/101/101 103/103/103
f 102/102/102 103/103/103 104/104/104
f 106/106/106 105/105/105 107/107/107
f 107/107/107 105/105/105 108/108/108
f 110/110/110 109/109/109 111/111/111
f 110/110/110 111/111/111 112/112/112
f 114/114/114 113/113/113 115/115/115
f 115/115/115 113/113/113 116/116/116
f 118/118/118 117/117/117 119/119/119
f 118/118/118 119/119/119 120/120/120
f 122/122/122 121/121/121 123/123/123
f 123/123/123 121/121/121 124/124/124
f 126/126/126 125/125/125 127/127/127
f 126/126/126 127/127/127 128/128/128
f 130/130/130 129/129/129 131/131/131
f 131/131/131 129/129/129 132/132/132
f 134/134/134 133/133/133 135/135/135
f 134/134/134 135/135/135 136/136/136
f 138/138/138 137/137/137 139/139/139
f 139/139/139 137/137/137 140/140/140
f 142/142/142 141/141/141 143/143/143
f 142/142/142 143/143/143 144/144/144
f 146/146/146 145/145/145 147/147/147
f 147/147/147 145/145/145 148/148/148
f 150/150/150 149/149/149 151/151/151
f 150/150/150 151/151/151 152/152/152
f 154/154/154 153/153/153 155/155/155
f 155/155/155 153/153/153 156/156/156
f 158/158/158 157/157/157 159/159/159
f 158/158/158 159/159/159 160/160/160
f 162/162/162 161/161/161 163/163/163
f 163/163/163 161/161/161 164/164/164
f 166/166/166 165/165/165 167/167/167
f 166/166/166 167/167/167 168/168/168
