mtllib ./Track1_trackCollider_5.mtl
# Unity Asset Buildr OBJ Exporter
 http://buildr.jasperstocker.com
g Track1_trackCollider_5
v 49.3053 4.382051 -84.76224
v 47.64695 4.495735 -86.21629
v 46.74572 8.235975 -83.0228
v 48.40685 8.130638 -81.57777
v 40.23538 -4.495735 -77.77704
v 41.48159 -4.396026 -76.63652
v 39.33414 -0.7554946 -74.58355
v 40.58314 -0.647439 -73.45205
v 50.97341 4.148877 -83.14919
v 49.3053 4.382051 -84.76224
v 48.40685 8.130638 -81.57777
v 50.08365 7.923318 -79.99294
v 41.48159 -4.396026 -76.63652
v 42.46367 -4.205681 -75.55722
v 40.58314 -0.647439 -73.45205
v 41.57391 -0.4312398 -72.40097
v 52.59046 3.818213 -81.37918
v 50.97341 4.148877 -83.14919
v 50.08365 7.923318 -79.99294
v 51.71659 7.638776 -78.27441
v 42.46367 -4.205681 -75.55722
v 43.29469 -3.950766 -74.4355
v 41.57391 -0.4312398 -72.40097
v 42.42081 -0.1302021 -71.33073
v 54.12954 3.375584 -79.4175
v 52.59046 3.818213 -81.37918
v 51.71659 7.638776 -78.27441
v 53.28041 7.265255 -76.3927
v 43.29469 -3.950766 -74.4355
v 43.95665 -3.621085 -73.27607
v 42.42081 -0.1302021 -71.33073
v 43.10752 0.2685859 -70.25127
v 55.5274 2.823712 -77.2655
v 54.12954 3.375584 -79.4175
v 53.28041 7.265255 -76.3927
v 54.71333 6.805971 -74.35364
v 43.95665 -3.621085 -73.27607
v 44.4321 -3.220503 -72.10133
v 43.10752 0.2685859 -70.25127
v 43.61803 0.7617562 -69.18947
v 56.71795 2.191566 -74.94959
v 55.5274 2.823712 -77.2655
v 54.71333 6.805971 -74.35364
v 55.95047 6.287899 -72.18716
v 44.4321 -3.220503 -72.10133
v 44.73169 -2.775714 -70.9139
v 43.61803 0.7617562 -69.18947
v 43.96421 1.320619 -68.15147
v 57.6513 1.53454 -72.52692
v 56.71795 2.191566 -74.94959
v 55.95047 6.287899 -72.18716
v 56.94271 5.761878 -69.95251
v 44.73169 -2.775714 -70.9139
v 44.88509 -2.336205 -69.68472
v 43.96421 1.320619 -68.15147
v 44.17649 1.891133 -67.11032
v 58.31028 0.9196223 -70.0916
v 57.6513 1.53454 -72.52692
v 56.94271 5.761878 -69.95251
v 57.67247 5.286809 -67.74194
v 44.88509 -2.336205 -69.68472
v 44.92289 -1.957268 -68.37846
v 44.17649 1.891133 -67.11032
v 44.28508 2.409919 -66.02881
v 58.72708 0.4016337 -67.73899
v 58.31028 0.9196223 -70.0916
v 57.67247 5.286809 -67.74194
v 58.1708 4.908622 -65.64672
v 44.92289 -1.957268 -68.37846
v 44.87587 -1.679781 -66.9381
v 44.28508 2.409919 -66.02881
v 44.31958 2.827207 -64.84583
v 58.96678 0.005579114 -65.56003
v 58.72708 0.4016337 -67.73899
v 58.1708 4.908622 -65.64672
v 58.50002 4.642541 -63.74875
v 44.87587 -1.679781 -66.9381
v 44.77476 -1.511208 -65.33424
v 44.31958 2.827207 -64.84583
v 44.308 3.125754 -63.52297
v 59.11044 -0.2752499 -63.59362
v 58.96678 0.005579114 -65.56003
v 58.50002 4.642541 -63.74875
v 58.73951 4.476138 -62.08143
v 44.77476 -1.511208 -65.33424
v 44.65884 -1.431283 -63.50621
v 44.308 3.125754 -63.52297
v 44.28791 3.320104 -61.99402
v 59.22918 -0.4664498 -61.86713
v 59.11044 -0.2752499 -63.59362
v 58.73951 4.476138 -62.08143
v 58.95801 4.3792 -60.66457
v 44.65884 -1.431283 -63.50621
v 44.58719 -1.398808 -61.41191
v 44.28791 3.320104 -61.99402
v 44.31602 3.446843 -60.20935
v 59.37341 -0.5995829 -60.41958
v 59.22918 -0.4664498 -61.86713
v 58.95801 4.3792 -60.66457
v 59.20173 4.316592 -59.52417
v 44.58719 -1.398808 -61.41191
v 44.64956 -1.363824 -59.04664
v 44.31602 3.446843 -60.20935
v 44.47788 3.552351 -58.15123
v 59.57188 -0.7097634 -59.23657
v 59.37341 -0.5995829 -60.41958
v 59.20173 4.316592 -59.52417
v 59.49548 4.253193 -58.63388
v 44.64956 -1.363824 -59.04664
v 44.95994 -1.274766 -56.43616
v 44.47788 3.552351 -58.15123
v 44.88354 3.688191 -55.83347
v 59.82774 -0.813433 -58.29617
v 59.57188 -0.7097634 -59.23657
v 59.49548 4.253193 -58.63388
v 59.83669 4.174874 -57.95453
v 44.95994 -1.274766 -56.43616
v 45.62558 -1.102917 -53.6973
v 44.88354 3.688191 -55.83347
v 45.63453 3.885391 -53.35566
v 60.16793 -0.9085207 -57.46531
v 59.82774 -0.813433 -58.29617
v 59.83669 4.174874 -57.95453
v 60.24942 4.089361 -57.34472
v 45.62558 -1.102917 -53.6973
v 46.69966 -0.8453953 -50.97959
v 45.63453 3.885391 -53.35566
v 46.78115 4.152487 -50.859
v 60.62906 -0.9671765 -56.66145
v 60.16793 -0.9085207 -57.46531
v 60.24942 4.089361 -57.34472
v 60.76719 4.030651 -56.71291
v 46.69966 -0.8453953 -50.97959
v 48.13416 -0.5374385 -48.46267
v 46.78115 4.152487 -50.859
v 48.27229 4.460389 -48.51413
v 61.24493 -0.9644262 -55.84281
v 60.62906 -0.9671765 -56.66145
v 60.76719 4.030651 -56.71291
v 61.42333 4.029377 -56.01633
v 48.13416 -0.5374385 -48.46267
v 49.80727 -0.2226729 -46.25448
v 48.27229 4.460389 -48.51413
v 49.98566 4.771131 -46.428
v 62.03231 -0.8916875 -55.00216
v 61.24493 -0.9644262 -55.84281
v 61.42333 4.029377 -56.01633
v 62.23653 4.097796 -55.25385
v 49.80727 -0.2226729 -46.25448
v 51.60954 0.07199728 -44.35537
v 49.98566 4.771131 -46.428
v 51.81376 5.061481 -44.60706
v 63.01313 -0.7508869 -54.13025
v 62.03231 -0.8916875 -55.00216
v 62.23653 4.097796 -55.25385
v 63.23129 4.235705 -54.42405
v 51.60954 0.07199728 -44.35537
v 53.4758 0.3389129 -42.71486
v 51.81376 5.061481 -44.60706
v 53.69395 5.325505 -43.00866
v 64.08783 -0.5632191 -53.31187
v 63.01313 -0.7508869 -54.13025
v 63.23129 4.235705 -54.42405
v 64.30993 4.422481 -53.6176
v 53.4758 0.3389129 -42.71486
v 55.2692 0.5632191 -41.349
v 53.69395 5.325505 -43.00866
v 55.49129 5.548919 -41.65473

vn -0.5403384 -0.6170646 0.5720713
vn -0.5421453 -0.6173517 0.5700486
vn -0.5403384 -0.6170646 0.5720713
vn -0.5385242 -0.6167724 0.5740936
vn 0.4964173 0.6297534 -0.5974785
vn 0.4937896 0.6295497 -0.5998659
vn 0.4937896 0.6295497 -0.5998659
vn 0.4911503 0.6293376 -0.6022506
vn -0.5944491 -0.5961499 0.5396625
vn -0.5993079 -0.5968441 0.5334858
vn -0.5944491 -0.5961499 0.5396625
vn -0.589522 -0.5954138 0.5458444
vn 0.5217749 0.6214938 -0.584377
vn 0.5121599 0.6214412 -0.5928769
vn 0.5121599 0.6214412 -0.5928769
vn 0.5023806 0.6212845 -0.601348
vn -0.6499445 -0.5675653 0.5054123
vn -0.6575011 -0.5684888 0.4944824
vn -0.6499445 -0.5675653 0.5054123
vn -0.642174 -0.5665274 0.5163907
vn 0.5700909 0.6019564 -0.5591463
vn 0.5523503 0.6028669 -0.5757262
vn 0.5523503 0.6028669 -0.5757262
vn 0.5339506 0.6034282 -0.5922594
vn -0.7123373 -0.5273553 0.4631112
vn -0.7217672 -0.5283876 0.4470557
vn -0.7123373 -0.5273553 0.4631112
vn -0.7024478 -0.5261113 0.4793473
vn 0.6330078 0.5702541 -0.5235565
vn 0.6055733 0.5737345 -0.5514613
vn 0.6055733 0.5737345 -0.5514613
vn 0.5761653 0.5764064 -0.5794732
vn -0.7782896 -0.4745396 0.4111903
vn -0.7884291 -0.4755406 0.3901803
vn -0.7782896 -0.4745396 0.4111903
vn -0.7673674 -0.4732336 0.4326629
vn 0.7158546 0.5192797 -0.4667987
vn 0.6786777 0.5282192 -0.5102755
vn 0.6786777 0.5282192 -0.5102755
vn 0.6364179 0.5358175 -0.554862
vn -0.8416542 -0.4108923 0.3504076
vn -0.8512636 -0.4118125 0.3252085
vn -0.8416542 -0.4108923 0.3504076
vn -0.8309273 -0.4096072 0.376539
vn 0.8186724 0.4384933 -0.3708087
vn 0.7787574 0.4554579 -0.4313873
vn 0.7787574 0.4554579 -0.4313873
vn 0.728533 0.4715622 -0.4968587
vn -0.8961787 -0.3409613 0.2839175
vn -0.9043048 -0.3418505 0.2556778
vn -0.8961787 -0.3409613 0.2839175
vn -0.8866663 -0.3396893 0.3137417
vn 0.9159743 0.3277251 -0.2314896
vn 0.8884638 0.3488008 -0.2982784
vn 0.8884638 0.3488008 -0.2982784
vn 0.8485545 0.3716089 -0.3766458
vn -0.9378346 -0.2710938 0.2167359
vn -0.9440054 -0.2719758 0.1867693
vn -0.9378346 -0.2710938 0.2167359
vn -0.930133 -0.2698473 0.2490687
vn 0.9715153 0.218587 -0.09152943
vn 0.9608178 0.2348597 -0.1472081
vn 0.9608178 0.2348597 -0.1472081
vn 0.9425972 0.2541819 -0.2165688
vn -0.9654325 -0.208322 0.156659
vn -0.9697415 -0.209271 0.1257269
vn -0.9654325 -0.208322 0.156659
vn -0.9595399 -0.2070293 0.1908454
vn 0.9898704 0.1418861 0.004982074
vn 0.9879793 0.1505362 -0.03515204
vn 0.9879793 0.1505362 -0.03515204
vn 0.9832388 0.1610415 -0.08548156
vn -0.9812454 -0.1573306 0.111376
vn -0.9841758 -0.1583703 0.07947829
vn -0.9812454 -0.1573306 0.111376
vn -0.9766823 -0.1559501 0.1475513
vn 0.9937736 0.09837583 0.0523085
vn 0.9945541 0.1018656 0.02203713
vn 0.9945541 0.1018656 0.02203713
vn 0.9942467 0.1060278 -0.01522128
vn -0.9887426 -0.1199059 0.0895006
vn -0.9910882 -0.1212825 0.05508804
vn -0.9887426 -0.1199059 0.0895006
vn -0.984503 -0.1181139 0.1296262
vn 0.9952511 0.07684385 0.05975014
vn 0.9964602 0.07684261 0.03409259
vn 0.9964602 0.07684261 0.03409259
vn 0.997043 0.07677441 0.003340648
vn -0.9907757 -0.09392143 0.09768444
vn -0.993712 -0.09594546 0.05771286
vn -0.9907757 -0.09392143 0.09768444
vn -0.9851131 -0.09127975 0.1456715
vn 0.997183 0.06732287 0.03307221
vn 0.997891 0.06434392 0.008559177
vn 0.997891 0.06434392 0.008559177
vn 0.9979476 0.0608196 -0.02003999
vn -0.9869578 -0.07534698 0.1422571
vn -0.9927012 -0.07831328 0.09171281
vn -0.9869578 -0.07534698 0.1422571
vn -0.9762153 -0.07137726 0.2047168
vn 0.9976677 0.06258875 -0.02723179
vn 0.9970314 0.05647782 -0.05233292
vn 0.9970314 0.05647782 -0.05233292
vn 0.9954991 0.04948539 -0.08082426
vn -0.9723737 -0.05867887 0.2259344
vn -0.9851794 -0.06343063 0.1593679
vn -0.9723737 -0.05867887 0.2259344
vn -0.9494485 -0.05220633 0.3095513
vn 0.991196 0.05642955 -0.1197756
vn 0.9882127 0.04691295 -0.1457219
vn 0.9882127 0.04691295 -0.1457219
vn 0.984013 0.03632045 -0.1743543
vn -0.9389834 -0.03879637 0.3417674
vn -0.965172 -0.04612947 0.257517
vn -0.9389834 -0.03879637 0.3417674
vn -0.8945797 -0.02893882 0.4459705
vn 0.9701411 0.04390089 -0.2385354
vn 0.9640002 0.03158791 -0.2640184
vn 0.9640002 0.03158791 -0.2640184
vn 0.9564464 0.01823731 -0.2913378
vn -0.88687 -0.01334419 0.4618262
vn -0.926128 -0.02412002 0.3764374
vn -0.88687 -0.01334419 0.4618262
vn -0.8281466 -2.032915E-05 0.5605115
vn 0.9289763 0.02363184 -0.3693841
vn 0.9196368 0.009845333 -0.3926466
vn 0.9196368 0.009845333 -0.3926466
vn 0.9089273 -0.004761173 -0.4169275
vn -0.8255949 0.0142383 0.5640836
vn -0.8673444 0.002134205 0.4977038
vn -0.8255949 0.0142383 0.5640836
vn -0.7718913 0.02787227 0.6351432
vn 0.8689137 -0.002226026 -0.4949587
vn 0.8575812 -0.01528662 -0.5141215
vn 0.8575812 -0.01528662 -0.5141215
vn 0.8451943 -0.02885353 -0.5336798
vn -0.7653403 0.0387108 0.6424607
vn -0.7988381 0.02826425 0.6008817
vn -0.7653403 0.0387108 0.6424607
vn -0.7269712 0.04976652 0.6848621
vn 0.7986686 -0.02826189 -0.6011071
vn 0.7873673 -0.03879618 -0.6152623
vn 0.7873673 -0.03879618 -0.6152623
vn 0.7754278 -0.04957344 -0.6294872
vn -0.7090263 0.05711055 0.7028656
vn -0.7310977 0.04976082 0.6804557
vn -0.7090263 0.05711055 0.7028656
vn -0.6854495 0.06464034 0.7252453
vn 0.7283034 -0.04976488 -0.6834453
vn 0.7189844 -0.05705839 -0.6926801
vn 0.7189844 -0.05705839 -0.6926801
vn 0.7093693 -0.06444102 -0.7018849
vn -0.6566474 0.06886847 0.7510468
vn -0.6681722 0.06473722 0.7411848
vn -0.6566474 0.06886847 0.7510468
vn -0.6448081 0.07303581 0.7608471
vn 0.6640418 -0.06475487 -0.7448862
vn 0.6580204 -0.06886089 -0.7498448
vn 0.6580204 -0.06886089 -0.7498448
vn 0.6519073 -0.07298881 -0.7547778
vn -0.6088677 0.07436101 0.7897788
vn -0.6122721 0.07316828 0.7872542
vn -0.6088677 0.07436101 0.7897788
vn -0.6054413 0.07555584 0.7922954
vn 0.6100452 -0.07317258 -0.7889807
vn 0.6079952 -0.07436287 -0.7904505
vn 0.6079952 -0.07436287 -0.7904505
vn 0.6059369 -0.07555468 -0.7919167

vt 0 0
vt 0 0
vt 0 0
vt 0 0
vt 0 0
vt 0 0
vt 0 0
vt 0 0
vt 0 0
vt 0 0
vt 0 0
vt 0 0
vt 0 0
vt 0 0
vt 0 0
vt 0 0
vt 0 0
vt 0 0
vt 0 0
vt 0 0
vt 0 0
vt 0 0
vt 0 0
vt 0 0
vt 0 0
vt 0 0
vt 0 0
vt 0 0
vt 0 0
vt 0 0
vt 0 0
vt 0 0
vt 0 0
vt 0 0
vt 0 0
vt 0 0
vt 0 0
vt 0 0
vt 0 0
vt 0 0
vt 0 0
vt 0 0
vt 0 0
vt 0 0
vt 0 0
vt 0 0
vt 0 0
vt 0 0
vt 0 0
vt 0 0
vt 0 0
vt 0 0
vt 0 0
vt 0 0
vt 0 0
vt 0 0
vt 0 0
vt 0 0
vt 0 0
vt 0 0
vt 0 0
vt 0 0
vt 0 0
vt 0 0
vt 0 0
vt 0 0
vt 0 0
vt 0 0
vt 0 0
vt 0 0
vt 0 0
vt 0 0
vt 0 0
vt 0 0
vt 0 0
vt 0 0
vt 0 0
vt 0 0
vt 0 0
vt 0 0
vt 0 0
vt 0 0
vt 0 0
vt 0 0
vt 0 0
vt 0 0
vt 0 0
vt 0 0
vt 0 0
vt 0 0
vt 0 0
vt 0 0
vt 0 0
vt 0 0
vt 0 0
vt 0 0
vt 0 0
vt 0 0
vt 0 0
vt 0 0
vt 0 0
vt 0 0
vt 0 0
vt 0 0
vt 0 0
vt 0 0
vt 0 0
vt 0 0
vt 0 0
vt 0 0
vt 0 0
vt 0 0
vt 0 0
vt 0 0
vt 0 0
vt 0 0
vt 0 0
vt 0 0
vt 0 0
vt 0 0
vt 0 0
vt 0 0
vt 0 0
vt 0 0
vt 0 0
vt 0 0
vt 0 0
vt 0 0
vt 0 0
vt 0 0
vt 0 0
vt 0 0
vt 0 0
vt 0 0
vt 0 0
vt 0 0
vt 0 0
vt 0 0
vt 0 0
vt 0 0
vt 0 0
vt 0 0
vt 0 0
vt 0 0
vt 0 0
vt 0 0
vt 0 0
vt 0 0
vt 0 0
vt 0 0
vt 0 0
vt 0 0
vt 0 0
vt 0 0
vt 0 0
vt 0 0
vt 0 0
vt 0 0
vt 0 0
vt 0 0
vt 0 0
vt 0 0
vt 0 0
vt 0 0
vt 0 0
vt 0 0
vt 0 0
vt 0 0

g Track Texture
usemtl Track Texture
usemap Track Texture
f 2/2/2 1/1/1 3/3/3
f 3/3/3 1/1/1 4/4/4
f 6/6/6 5/5/5 7/7/7
f 6/6/6 7/7/7 8/8/8
f 10/10/10 9/9/9 11/11/11
f 11/11/11 9/9/9 12/12/12
f 14/14/14 13/13/13 15/15/15
f 14/14/14 15/15/15 16/16/16
f 18/18/18 17/17/17 19/19/19
f 19/19/19 17/17/17 20/20/20
f 22/22/22 21/21/21 23/23/23
f 22/22/22 23/23/23 24/24/24
f 26/26/26 25/25/25 27/27/27
f 27/27/27 25/25/25 28/28/28
f 30/30/30 29/29/29 31/31/31
f 30/30/30 31/31/31 32/32/32
f 34/34/34 33/33/33 35/35/35
f 35/35/35 33/33/33 36/36/36
f 38/38/38 37/37/37 39/39/39
f 38/38/38 39/39/39 40/40/40
f 42/42/42 41/41/41 43/43/43
f 43/43/43 41/41/41 44/44/44
f 46/46/46 45/45/45 47/47/47
f 46/46/46 47/47/47 48/48/48
f 50/50/50 49/49/49 51/51/51
f 51/51/51 49/49/49 52/52/52
f 54/54/54 53/53/53 55/55/55
f 54/54/54 55/55/55 56/56/56
f 58/58/58 57/57/57 59/59/59
f 59/59/59 57/57/57 60/60/60
f 62/62/62 61/61/61 63/63/63
f 62/62/62 63/63/63 64/64/64
f 66/66/66 65/65/65 67/67/67
f 67/67/67 65/65/65 68/68/68
f 70/70/70 69/69/69 71/71/71
f 70/70/70 71/71/71 72/72/72
f 74/74/74 73/73/73 75/75/75
f 75/75/75 73/73/73 76/76/76
f 78/78/78 77/77/77 79/79/79
f 78/78/78 79/79/79 80/80/80
f 82/82/82 81/81/81 83/83/83
f 83/83/83 81/81/81 84/84/84
f 86/86/86 85/85/85 87/87/87
f 86/86/86 87/87/87 88/88/88
f 90/90/90 89/89/89 91/91/91
f 91/91/91 89/89/89 92/92/92
f 94/94/94 93/93/93 95/95/95
f 94/94/94 95/95/95 96/96/96
f 98/98/98 97/97/97 99/99/99
f 99/99/99 97/97/97 100/100/100
f 102/102/102 101/101/101 103/103/103
f 102/102/102 103/103/103 104/104/104
f 106/106/106 105/105/105 107/107/107
f 107/107/107 105/105/105 108/108/108
f 110/110/110 109/109/109 111/111/111
f 110/110/110 111/111/111 112/112/112
f 114/114/114 113/113/113 115/115/115
f 115/115/115 113/113/113 116/116/116
f 118/118/118 117/117/117 119/119/119
f 118/118/118 119/119/119 120/120/120
f 122/122/122 121/121/121 123/123/123
f 123/123/123 121/121/121 124/124/124
f 126/126/126 125/125/125 127/127/127
f 126/126/126 127/127/127 128/128/128
f 130/130/130 129/129/129 131/131/131
f 131/131/131 129/129/129 132/132/132
f 134/134/134 133/133/133 135/135/135
f 134/134/134 135/135/135 136/136/136
f 138/138/138 137/137/137 139/139/139
f 139/139/139 137/137/137 140/140/140
f 142/142/142 141/141/141 143/143/143
f 142/142/142 143/143/143 144/144/144
f 146/146/146 145/145/145 147/147/147
f 147/147/147 145/145/145 148/148/148
f 150/150/150 149/149/149 151/151/151
f 150/150/150 151/151/151 152/152/152
f 154/154/154 153/153/153 155/155/155
f 155/155/155 153/153/153 156/156/156
f 158/158/158 157/157/157 159/159/159
f 158/158/158 159/159/159 160/160/160
f 162/162/162 161/161/161 163/163/163
f 163/163/163 161/161/161 164/164/164
f 166/166/166 165/165/165 167/167/167
f 166/166/166 167/167/167 168/168/168
