mtllib ./Track1_track_8.mtl
# Unity Asset Buildr OBJ Exporter
 http://buildr.jasperstocker.com
g Track1_track_8
v 136.6102 -9.142578E-06 -60.1292
v 138.4251 0.0009850976 -59.18209
v 136.0748 0.0003287452 -54.7689
v 134.3275 -3.047526E-06 -55.68066
v 132.0449 3.047526E-06 -51.23212
v 133.7245 -0.0003276072 -50.35571
v 129.7622 9.142578E-06 -46.78358
v 131.3743 -0.0009839595 -45.94252
v 138.4251 0.0009850976 -59.18209
v 140.211 0.004166304 -58.21088
v 137.7736 0.001389549 -53.84521
v 136.0748 0.0003287452 -54.7689
v 135.3362 -0.001387205 -49.47955
v 133.7245 -0.0003276072 -50.35571
v 132.8988 -0.00416396 -45.11389
v 131.3743 -0.0009839595 -45.94252
v 140.211 0.004166304 -58.21088
v 142.0261 0.01014268 -57.17028
v 137.7736 0.001389549 -53.84521
v 139.474 0.003382117 -52.87062
v 135.3362 -0.001387205 -49.47955
v 136.922 -0.003378449 -48.57096
v 132.8988 -0.00416396 -45.11389
v 134.37 -0.01013901 -44.27131
v 142.0261 0.01014268 -57.17028
v 143.8756 0.01977248 -56.03297
v 141.1684 0.006592538 -51.82935
v 139.474 0.003382117 -52.87062
v 138.4611 -0.006587402 -47.62572
v 136.922 -0.003378449 -48.57096
v 135.7538 -0.01976734 -43.42209
v 134.37 -0.01013901 -44.27131
v 143.8756 0.01977248 -56.03297
v 145.7643 0.03431076 -54.75644
v 142.8419 0.01143917 -50.69955
v 141.1684 0.006592538 -51.82935
v 139.9194 -0.01143241 -46.64267
v 138.4611 -0.006587402 -47.62572
v 136.9969 -0.03430399 -42.58578
v 135.7538 -0.01976734 -43.42209
v 145.7643 0.03431076 -54.75644
v 147.7196 0.056014 -53.24939
v 144.4974 0.0186742 -49.42637
v 142.8419 0.01143917 -50.69955
v 141.2752 -0.0186656 -45.60335
v 139.9194 -0.01143241 -46.64267
v 138.053 -0.05600539 -41.78032
v 136.9969 -0.03430399 -42.58578
v 147.7196 0.056014 -53.24939
v 149.7276 0.08805576 -51.38058
v 146.0932 0.02935548 -47.94737
v 144.4974 0.0186742 -49.42637
v 142.4588 -0.0293448 -44.51417
v 141.2752 -0.0186656 -45.60335
v 138.8245 -0.08804508 -41.08096
v 138.053 -0.05600539 -41.78032
v 149.7276 0.08805576 -51.38058
v 151.6964 0.1342698 -48.9631
v 147.5527 0.04476095 -46.16649
v 146.0932 0.02935548 -47.94737
v 143.4091 -0.04474794 -43.36988
v 142.4588 -0.0293448 -44.51417
v 139.2655 -0.1342568 -40.57327
v 138.8245 -0.08804508 -41.08096
v 151.6964 0.1342698 -48.9631
v 153.3289 0.1943805 -45.93615
v 147.5527 0.04476095 -46.16649
v 148.7016 0.06479869 -44.04639
v 143.4091 -0.04474794 -43.36988
v 144.0744 -0.06478312 -42.15662
v 139.2655 -0.1342568 -40.57327
v 139.4472 -0.1943649 -40.26686
v 153.3289 0.1943805 -45.93615
v 154.2795 0.2592653 -42.62747
v 148.7016 0.06479869 -44.04639
v 149.3643 0.08642782 -41.72731
v 144.0744 -0.06478312 -42.15662
v 144.449 -0.08640971 -40.82716
v 139.4472 -0.1943649 -40.26686
v 139.5338 -0.2592472 -39.92701
v 154.2795 0.2592653 -42.62747
v 154.5594 0.3189522 -39.55044
v 149.5652 0.1063242 -39.44243
v 149.3643 0.08642782 -41.72731
v 144.5709 -0.1063038 -39.33442
v 144.449 -0.08640971 -40.82716
v 139.5766 -0.3189318 -39.22642
v 139.5338 -0.2592472 -39.92701
v 154.5594 0.3189522 -39.55044
v 154.457 0.3713944 -36.9145
v 149.478 0.1238056 -37.29891
v 149.5652 0.1063242 -39.44243
v 144.499 -0.1237832 -37.68332
v 144.5709 -0.1063038 -39.33442
v 139.5201 -0.371372 -38.06773
v 139.5766 -0.3189318 -39.22642
v 154.457 0.3713944 -36.9145
v 154.2019 0.4178708 -34.63831
v 149.2508 0.1392983 -35.27665
v 149.478 0.1238056 -37.29891
v 144.2996 -0.1392743 -35.91498
v 144.499 -0.1237832 -37.68332
v 139.3485 -0.4178468 -36.55332
v 139.5201 -0.371372 -38.06773
v 154.2019 0.4178708 -34.63831
v 153.9049 0.4585079 -32.60637
v 148.9697 0.1528444 -33.34789
v 149.2508 0.1392983 -35.27665
v 144.2996 -0.1392743 -35.91498
v 144.0346 -0.1528191 -34.08942
v 139.3485 -0.4178468 -36.55332
v 139.0994 -0.4584826 -34.83095
v 153.9049 0.4585079 -32.60637
v 153.6087 0.4937236 -30.71007
v 148.9697 0.1528444 -33.34789
v 148.6769 0.1645833 -31.46401
v 144.0346 -0.1528191 -34.08942
v 143.7451 -0.1645569 -32.21796
v 139.0994 -0.4584826 -34.83095
v 138.8133 -0.4936971 -32.97191
v 153.6087 0.4937236 -30.71007
v 153.3325 0.5235323 -28.89117
v 148.6769 0.1645833 -31.46401
v 148.3959 0.1745199 -29.60387
v 143.7451 -0.1645569 -32.21796
v 143.4593 -0.1744925 -30.31658
v 138.8133 -0.4936971 -32.97191
v 138.5227 -0.5235049 -31.02929
v 153.3325 0.5235323 -28.89117
v 153.0847 0.5481895 -27.11047
v 148.3959 0.1745199 -29.60387
v 148.1393 0.1827392 -27.75025
v 143.4593 -0.1744925 -30.31658
v 143.1939 -0.1827111 -28.39004
v 138.5227 -0.5235049 -31.02929
v 138.2485 -0.5481614 -29.02983
v 153.0847 0.5481895 -27.11047
v 152.8712 0.5679578 -25.35428
v 147.9158 0.1893288 -25.90289
v 148.1393 0.1827392 -27.75025
v 142.9605 -0.1893001 -26.4515
v 143.1939 -0.1827111 -28.39004
v 138.0051 -0.5679291 -27.00012
v 138.2485 -0.5481614 -29.02983
v 152.8712 0.5679578 -25.35428
v 152.6945 0.5832902 -23.61304
v 147.7298 0.1944398 -24.06078
v 147.9158 0.1893288 -25.90289
v 142.7652 -0.1944105 -24.50852
v 142.9605 -0.1893001 -26.4515
v 137.8006 -0.5832609 -24.95626
v 138.0051 -0.5679291 -27.00012
v 152.6945 0.5832902 -23.61304
v 152.5552 0.5947191 -21.87802
v 147.5829 0.1982496 -22.22047
v 147.7298 0.1944398 -24.06078
v 142.6106 -0.1982199 -22.56291
v 142.7652 -0.1944105 -24.50852
v 137.6383 -0.5946894 -22.90536
v 137.8006 -0.5832609 -24.95626
v 152.5552 0.5947191 -21.87802
v 152.4533 0.6027833 -20.13838
v 147.4754 0.2009377 -20.37489
v 147.5829 0.1982496 -22.22047
v 142.4974 -0.2009079 -20.61139
v 142.6106 -0.1982199 -22.56291
v 137.5195 -0.6027534 -20.84789
v 137.6383 -0.5946894 -22.90536
v 152.4533 0.6027833 -20.13838
v 152.3889 0.607883 -18.40701
v 147.4075 0.2026377 -18.53866
v 147.4754 0.2009377 -20.37489
v 142.4261 -0.2026076 -18.67031
v 142.4974 -0.2009079 -20.61139
v 137.4448 -0.6078529 -18.80196
v 137.5195 -0.6027534 -20.84789
v 152.3889 0.607883 -18.40701
v 152.3606 0.6104937 -16.67113
v 147.3779 0.203508 -16.70033
v 147.4075 0.2026377 -18.53866
v 142.3952 -0.2034777 -16.72954
v 142.4261 -0.2026076 -18.67031
v 137.4124 -0.6104633 -16.75874
v 137.4448 -0.6078529 -18.80196
v 152.3606 0.6104937 -16.67113
v 152.3678 0.6110082 -14.91281
v 147.3857 0.2036796 -14.8434
v 147.3779 0.203508 -16.70033
v 142.4035 -0.2036491 -14.774
v 142.3952 -0.2034777 -16.72954
v 137.4214 -0.6109777 -14.70459
v 137.4124 -0.6104633 -16.75874
v 152.3678 0.6110082 -14.91281
v 152.4104 0.6104888 -13.12729
v 147.4297 0.2035064 -12.99181
v 147.3857 0.2036796 -14.8434
v 142.449 -0.203476 -12.85634
v 142.4035 -0.2036491 -14.774
v 137.4683 -0.6104583 -12.72086
v 137.4214 -0.6109777 -14.70459
v 152.4104 0.6104888 -13.12729
v 152.4328 0.6089112 -12.5221
v 147.4541 0.2029805 -12.3284
v 147.4297 0.2035064 -12.99181
v 142.4753 -0.2029501 -12.1347
v 142.449 -0.203476 -12.85634
v 137.4965 -0.6088806 -11.941
v 137.4683 -0.6104583 -12.72086

vn -0.0003225459 0.9999999 -9.524915E-05
vn -0.0004894146 0.9999999 -0.000111915
vn -0.0001792725 0.9999999 -2.034571E-05
vn -0.0001492197 1 -7.793838E-05
vn 3.0898E-05 1 6.444948E-05
vn 0.000220821 0.9999999 0.0002145885
vn 0.0002858798 0.9999999 0.0002228363
vn 0.0004213716 0.9999998 0.0003731287
vn -0.001102911 0.9999993 -0.0002104233
vn -0.001631743 0.9999986 -0.0002749809
vn -0.0009853982 0.9999995 -6.920946E-05
vn -0.000294053 0.9999999 0.0001508884
vn -3.219636E-05 0.9999998 0.0004547325
vn 0.000732248 0.9999995 0.0007061987
vn 0.0008787611 0.9999992 0.0008703104
vn 0.001554984 0.9999984 0.0009768392
vn -0.002770476 0.9999957 -0.0009107528
vn -0.002178613 0.9999976 -0.000153804
vn -0.001847808 0.9999983 -0.0001081529
vn -0.0008401661 0.9999994 0.000768361
vn -0.000100299 0.9999996 0.0008878197
vn 0.0010685 0.9999976 0.001878592
vn 0.001485451 0.999997 0.001955941
vn 0.00235892 0.9999928 0.002972458
vn -0.00366957 0.9999933 7.538583E-05
vn -0.00511059 0.9999869 -0.0001560387
vn -0.003368285 0.9999942 0.0004947443
vn -0.001406118 0.9999982 0.001227639
vn -0.0006707669 0.9999973 0.00218595
vn 0.001684555 0.9999937 0.003113307
vn 0.002139716 0.999991 0.00366843
vn 0.004392637 0.9999816 0.004179538
vn -0.005744928 0.9999834 0.0004489463
vn -0.007739296 0.99997 6.237228E-05
vn -0.005350007 0.9999851 0.001069043
vn -0.002531609 0.9999943 0.002256486
vn -0.001478788 0.9999919 0.003756939
vn 0.002180497 0.999983 0.005408266
vn 0.002902886 0.9999757 0.006342597
vn 0.006686905 0.99995 0.007441779
vn -0.008683636 0.999962 0.0008694469
vn -0.01129165 0.9999362 0.000249448
vn -0.008220204 0.9999646 0.001755998
vn -0.004356066 0.9999838 0.003651278
vn -0.002937309 0.9999778 0.005984449
vn 0.002700884 0.9999558 0.00901151
vn 0.003853459 0.9999359 0.01064551
vn 0.01048572 0.999858 0.01319055
vn -0.01285996 0.9999167 0.001082832
vn -0.01605157 0.9998712 0.0001035918
vn -0.01240519 0.9999204 0.002300065
vn -0.007372963 0.9999586 0.005331059
vn -0.005596065 0.9999439 0.00898305
vn 0.003257449 0.9998822 0.01500056
vn 0.005224273 0.9998213 0.01816966
vn 0.01851435 0.9995067 0.02536682
vn -0.01862405 0.9998264 0.0005338657
vn -0.0222598 0.9997518 -0.0009832316
vn -0.01833818 0.9998297 0.002111254
vn -0.01232202 0.9999005 0.006857674
vn -0.01050496 0.9998673 0.01245792
vn 0.003036317 0.999683 0.02499169
vn 0.006457129 0.9994721 0.0318395
vn 0.03826563 0.9976082 0.05756444
vn -0.02565428 0.9996528 -0.006015866
vn -0.02583036 0.9996651 -0.001608313
vn -0.02426916 0.9997053 -0.0006568021
vn -0.02196299 0.9997247 0.008259373
vn -0.01621451 0.9997807 0.0132474
vn -0.006311398 0.999175 0.04011844
vn 0.002461764 0.9986804 0.05129628
vn 0.04131681 0.9848018 0.168696
vn -0.03221257 0.9994276 -0.01034378
vn -0.03336888 0.9994262 -0.005798039
vn -0.03194244 0.9994798 -0.004453008
vn -0.03149059 0.9994897 0.005347268
vn -0.02655349 0.9995768 0.01187329
vn -0.0220716 0.9988666 0.04217073
vn -0.01527859 0.9983163 0.05595676
vn -0.0001889398 0.9822513 0.1875692
vn -0.04000851 0.9991361 -0.01124192
vn -0.04286468 0.998961 -0.01547792
vn -0.04079605 0.9991236 -0.009361085
vn -0.03763716 0.9992914 -2.928175E-05
vn -0.03956535 0.9991917 0.007108652
vn -0.03381348 0.9989902 0.02958695
vn -0.03489268 0.9986356 0.03885194
vn -0.01927008 0.9961055 0.0860376
vn -0.0456355 0.9988231 -0.01642305
vn -0.04797982 0.9986119 -0.02173222
vn -0.04664151 0.9988068 -0.01447468
vn -0.04485377 0.9989821 -0.004800232
vn -0.04733764 0.9988784 0.001199635
vn -0.04509823 0.9988284 0.01754577
vn -0.04671227 0.9986501 0.02271711
vn -0.04156456 0.9982036 0.04314973
vn -0.05083691 0.9985048 -0.02009946
vn -0.0527758 0.99826 -0.02629729
vn -0.05197774 0.9984848 -0.01807181
vn -0.05103526 0.9986615 -0.008403146
vn -0.05363513 0.9985553 -0.003258358
vn -0.05270684 0.9985661 0.009360515
vn -0.05421413 0.9984483 0.01271984
vn -0.05155971 0.998362 0.02479628
vn -0.05594325 0.9981955 -0.02182069
vn -0.05754562 0.9979396 -0.02837035
vn -0.05685809 0.998265 -0.01529593
vn -0.05425188 0.9984159 -0.01491711
vn -0.05725192 0.9983424 -0.005899325
vn -0.06047653 0.9981623 0.003811669
vn -0.05990414 0.9981825 0.006563371
vn -0.06395084 0.9978506 0.01429553
vn -0.05767143 0.9979557 -0.02753972
vn -0.06088508 0.9979049 -0.02188151
vn -0.06042302 0.9979774 -0.01974826
vn -0.06319563 0.9979304 -0.01188422
vn -0.06226769 0.9980308 -0.007565097
vn -0.06506085 0.9978811 0.0004080494
vn -0.0645948 0.9979082 0.002593454
vn -0.06787401 0.9976581 0.008451746
vn -0.06263117 0.9977016 -0.02586224
vn -0.06548147 0.9976391 -0.0206959
vn -0.06508266 0.9977028 -0.01879785
vn -0.06745922 0.9976505 -0.01193808
vn -0.06666216 0.9977412 -0.008287467
vn -0.06896044 0.9976179 -0.001724068
vn -0.06856268 0.9976469 3.251116E-05
vn -0.07119071 0.9974518 0.00465418
vn -0.0671768 0.9974723 -0.02315852
vn -0.06955561 0.9974033 -0.01867485
vn -0.06920529 0.9974565 -0.01706475
vn -0.07112676 0.9974034 -0.01128412
vn -0.07043143 0.9974822 -0.00828045
vn -0.07224737 0.9973825 -0.002933239
vn -0.07190269 0.9974105 -0.001529583
vn -0.07397275 0.9972579 0.002153933
vn -0.07300512 0.9972008 -0.01614715
vn -0.07394531 0.9970574 -0.0202141
vn -0.07361101 0.997175 -0.01494642
vn -0.07329652 0.9972599 -0.01001887
vn -0.07444471 0.9971944 -0.007829344
vn -0.07411668 0.997244 -0.00334882
vn -0.07466199 0.9972061 -0.002346828
vn -0.07380688 0.9972721 0.000863709
vn -0.07579552 0.9970338 -0.01336138
vn -0.07659051 0.9969253 -0.01655261
vn -0.07625021 0.9970115 -0.01240867
vn -0.07593311 0.9970762 -0.008561317
vn -0.07679134 0.9970237 -0.006840758
vn -0.07647059 0.9970661 -0.003378731
vn -0.0768768 0.9970372 -0.002598355
vn -0.07617009 0.9970948 -0.0001444311
vn -0.07795162 0.996902 -0.01048708
vn -0.07859571 0.9968235 -0.01287294
vn -0.07827665 0.9968838 -0.009765033
vn -0.07798085 0.9969311 -0.00688977
vn -0.07859427 0.996891 -0.005591409
vn -0.07830219 0.9969251 -0.003016719
vn -0.07859248 0.996904 -0.002429916
vn -0.07802957 0.9969509 -0.0006180444
vn -0.07952999 0.9968032 -0.007637534
vn -0.08002086 0.9967497 -0.009310483
vn -0.07974852 0.9967896 -0.007123497
vn -0.07949628 0.9968221 -0.005100683
vn -0.07990975 0.9967934 -0.004176144
vn -0.07966495 0.9968188 -0.002365909
vn -0.07986108 0.9968041 -0.001948073
vn -0.07943673 0.9968398 -0.0006799499
vn -0.08059379 0.996735 -0.004886237
vn -0.08092681 0.9967023 -0.005944818
vn -0.08072527 0.996726 -0.004555862
vn -0.08053863 0.9967461 -0.003270679
vn -0.08078821 0.9967277 -0.002675877
vn -0.08060924 0.9967446 -0.00152539
vn -0.08072799 0.9967353 -0.001256316
vn -0.08044242 0.9967592 -0.0004535284
vn -0.0812094 0.9966944 -0.002286394
vn -0.08139142 0.9966782 -0.002824655
vn -0.08127335 0.9966896 -0.002115733
vn -0.08116378 0.9966997 -0.001458307
vn -0.0812856 0.9966902 -0.001149931
vn -0.08118133 0.9966992 -0.000560018
vn -0.08123954 0.9966945 -0.000420242
vn -0.08108405 0.9967072 -9.75525E-06
vn -0.08144652 0.9966778 0.0001473903
vn -0.08148545 0.9966745 4.067969E-05
vn -0.08145867 0.9966767 0.0001817741
vn -0.08143382 0.9966787 0.0003128297
vn -0.08145726 0.9966768 0.000375031
vn -0.08143376 0.9966787 0.0004931954
vn -0.08144499 0.9966777 0.0005216466
vn -0.08141169 0.9966804 0.0006039926
vn -0.08141957 0.9966776 0.002129264
vn -0.08137999 0.9966806 0.002231656
vn -0.081408 0.9966787 0.002095374
vn -0.08143469 0.9966767 0.001965491
vn -0.08141232 0.9966787 0.00190198
vn -0.08143816 0.9966768 0.001780923
vn -0.08142734 0.9966777 0.001751116
vn -0.08146285 0.996675 0.001665252
vn -0.08119804 0.9966872 0.004649021
vn -0.0810447 0.9966947 0.005604102
vn -0.08117006 0.9966908 0.00434705
vn -0.08128086 0.9966859 0.003234078
vn -0.081227 0.9966919 0.002720478
vn -0.08132599 0.996686 0.001780112
vn -0.08130029 0.9966884 0.001558145
vn -0.08141527 0.9966798 0.0009322675

vt 0 306.4181
vt 0 308.2
vt 0.3333333 308.2
vt 0.3333333 306.4181
vt 0.6666667 306.4181
vt 0.6666667 308.2
vt 1 306.4181
vt 1 308.2
vt 0 308.2
vt 0 309.9819
vt 0.3333333 309.9819
vt 0.3333333 308.2
vt 0.6666667 309.9819
vt 0.6666667 308.2
vt 1 309.9819
vt 1 308.2
vt 0 309.9819
vt 0 311.7639
vt 0.3333333 309.9819
vt 0.3333333 311.7639
vt 0.6666667 309.9819
vt 0.6666667 311.7639
vt 1 309.9819
vt 1 311.7639
vt 0 311.7639
vt 0 313.5458
vt 0.3333333 313.5458
vt 0.3333333 311.7639
vt 0.6666667 313.5458
vt 0.6666667 311.7639
vt 1 313.5458
vt 1 311.7639
vt 0 313.5458
vt 0 315.3277
vt 0.3333333 315.3277
vt 0.3333333 313.5458
vt 0.6666667 315.3277
vt 0.6666667 313.5458
vt 1 315.3277
vt 1 313.5458
vt 0 315.3277
vt 0 317.1096
vt 0.3333333 317.1096
vt 0.3333333 315.3277
vt 0.6666667 317.1096
vt 0.6666667 315.3277
vt 1 317.1096
vt 1 315.3277
vt 0 317.1096
vt 0 318.8916
vt 0.3333333 318.8916
vt 0.3333333 317.1096
vt 0.6666667 318.8916
vt 0.6666667 317.1096
vt 1 318.8916
vt 1 317.1096
vt 0 318.8916
vt 0 320.6735
vt 0.3333333 320.6735
vt 0.3333333 318.8916
vt 0.6666667 320.6735
vt 0.6666667 318.8916
vt 1 320.6735
vt 1 318.8916
vt 0 320.6735
vt 0 322.4554
vt 0.3333333 320.6735
vt 0.3333333 322.4554
vt 0.6666667 320.6735
vt 0.6666667 322.4554
vt 1 320.6735
vt 1 322.4554
vt 0 322.4554
vt 0 324.2374
vt 0.3333333 322.4554
vt 0.3333333 324.2374
vt 0.6666667 322.4554
vt 0.6666667 324.2374
vt 1 322.4554
vt 1 324.2374
vt 0 324.2374
vt 0 326.0193
vt 0.3333333 326.0193
vt 0.3333333 324.2374
vt 0.6666667 326.0193
vt 0.6666667 324.2374
vt 1 326.0193
vt 1 324.2374
vt 0 326.0193
vt 0 327.8012
vt 0.3333333 327.8012
vt 0.3333333 326.0193
vt 0.6666667 327.8012
vt 0.6666667 326.0193
vt 1 327.8012
vt 1 326.0193
vt 0 327.8012
vt 0 329.5832
vt 0.3333333 329.5832
vt 0.3333333 327.8012
vt 0.6666667 329.5832
vt 0.6666667 327.8012
vt 1 329.5832
vt 1 327.8012
vt 0 329.5832
vt 0 331.3651
vt 0.3333333 331.3651
vt 0.3333333 329.5832
vt 0.6666667 329.5832
vt 0.6666667 331.3651
vt 1 329.5832
vt 1 331.3651
vt 0 331.3651
vt 0 333.147
vt 0.3333333 331.3651
vt 0.3333333 333.147
vt 0.6666667 331.3651
vt 0.6666667 333.147
vt 1 331.3651
vt 1 333.147
vt 0 333.147
vt 0 334.929
vt 0.3333333 333.147
vt 0.3333333 334.929
vt 0.6666667 333.147
vt 0.6666667 334.929
vt 1 333.147
vt 1 334.929
vt 0 334.929
vt 0 336.7109
vt 0.3333333 334.929
vt 0.3333333 336.7109
vt 0.6666667 334.929
vt 0.6666667 336.7109
vt 1 334.929
vt 1 336.7109
vt 0 336.7109
vt 0 338.4928
vt 0.3333333 338.4928
vt 0.3333333 336.7109
vt 0.6666667 338.4928
vt 0.6666667 336.7109
vt 1 338.4928
vt 1 336.7109
vt 0 338.4928
vt 0 340.2747
vt 0.3333333 340.2747
vt 0.3333333 338.4928
vt 0.6666667 340.2747
vt 0.6666667 338.4928
vt 1 340.2747
vt 1 338.4928
vt 0 340.2747
vt 0 342.0567
vt 0.3333333 342.0567
vt 0.3333333 340.2747
vt 0.6666667 342.0567
vt 0.6666667 340.2747
vt 1 342.0567
vt 1 340.2747
vt 0 342.0567
vt 0 343.8386
vt 0.3333333 343.8386
vt 0.3333333 342.0567
vt 0.6666667 343.8386
vt 0.6666667 342.0567
vt 1 343.8386
vt 1 342.0567
vt 0 343.8386
vt 0 345.6205
vt 0.3333333 345.6205
vt 0.3333333 343.8386
vt 0.6666667 345.6205
vt 0.6666667 343.8386
vt 1 345.6205
vt 1 343.8386
vt 0 345.6205
vt 0 347.4024
vt 0.3333333 347.4024
vt 0.3333333 345.6205
vt 0.6666667 347.4024
vt 0.6666667 345.6205
vt 1 347.4024
vt 1 345.6205
vt 0 347.4024
vt 0 349.1844
vt 0.3333333 349.1844
vt 0.3333333 347.4024
vt 0.6666667 349.1844
vt 0.6666667 347.4024
vt 1 349.1844
vt 1 347.4024
vt 0 349.1844
vt 0 350.9663
vt 0.3333333 350.9663
vt 0.3333333 349.1844
vt 0.6666667 350.9663
vt 0.6666667 349.1844
vt 1 350.9663
vt 1 349.1844
vt 0 350.9663
vt 0 352.7482
vt 0.3333333 352.7482
vt 0.3333333 350.9663
vt 0.6666667 352.7482
vt 0.6666667 350.9663
vt 1 352.7482
vt 1 350.9663

g Track Texture
usemtl Track Texture
usemap Track Texture
f 2/2/2 1/1/1 3/3/3
f 3/3/3 1/1/1 4/4/4
f 3/3/3 4/4/4 5/5/5
f 3/3/3 5/5/5 6/6/6
f 6/6/6 5/5/5 7/7/7
f 6/6/6 7/7/7 8/8/8
f 10/10/10 9/9/9 11/11/11
f 11/11/11 9/9/9 12/12/12
f 11/11/11 12/12/12 13/13/13
f 13/13/13 12/12/12 14/14/14
f 13/13/13 14/14/14 15/15/15
f 15/15/15 14/14/14 16/16/16
f 18/18/18 17/17/17 19/19/19
f 18/18/18 19/19/19 20/20/20
f 20/20/20 19/19/19 21/21/21
f 20/20/20 21/21/21 22/22/22
f 22/22/22 21/21/21 23/23/23
f 22/22/22 23/23/23 24/24/24
f 26/26/26 25/25/25 27/27/27
f 27/27/27 25/25/25 28/28/28
f 27/27/27 28/28/28 29/29/29
f 29/29/29 28/28/28 30/30/30
f 29/29/29 30/30/30 31/31/31
f 31/31/31 30/30/30 32/32/32
f 34/34/34 33/33/33 35/35/35
f 35/35/35 33/33/33 36/36/36
f 35/35/35 36/36/36 37/37/37
f 37/37/37 36/36/36 38/38/38
f 37/37/37 38/38/38 39/39/39
f 39/39/39 38/38/38 40/40/40
f 42/42/42 41/41/41 43/43/43
f 43/43/43 41/41/41 44/44/44
f 43/43/43 44/44/44 45/45/45
f 45/45/45 44/44/44 46/46/46
f 45/45/45 46/46/46 47/47/47
f 47/47/47 46/46/46 48/48/48
f 50/50/50 49/49/49 51/51/51
f 51/51/51 49/49/49 52/52/52
f 51/51/51 52/52/52 53/53/53
f 53/53/53 52/52/52 54/54/54
f 53/53/53 54/54/54 55/55/55
f 55/55/55 54/54/54 56/56/56
f 58/58/58 57/57/57 59/59/59
f 59/59/59 57/57/57 60/60/60
f 59/59/59 60/60/60 61/61/61
f 61/61/61 60/60/60 62/62/62
f 61/61/61 62/62/62 63/63/63
f 63/63/63 62/62/62 64/64/64
f 66/66/66 65/65/65 67/67/67
f 66/66/66 67/67/67 68/68/68
f 68/68/68 67/67/67 69/69/69
f 68/68/68 69/69/69 70/70/70
f 70/70/70 69/69/69 71/71/71
f 70/70/70 71/71/71 72/72/72
f 74/74/74 73/73/73 75/75/75
f 74/74/74 75/75/75 76/76/76
f 76/76/76 75/75/75 77/77/77
f 76/76/76 77/77/77 78/78/78
f 78/78/78 77/77/77 79/79/79
f 78/78/78 79/79/79 80/80/80
f 82/82/82 81/81/81 83/83/83
f 83/83/83 81/81/81 84/84/84
f 83/83/83 84/84/84 85/85/85
f 85/85/85 84/84/84 86/86/86
f 85/85/85 86/86/86 87/87/87
f 87/87/87 86/86/86 88/88/88
f 90/90/90 89/89/89 91/91/91
f 91/91/91 89/89/89 92/92/92
f 91/91/91 92/92/92 93/93/93
f 93/93/93 92/92/92 94/94/94
f 93/93/93 94/94/94 95/95/95
f 95/95/95 94/94/94 96/96/96
f 98/98/98 97/97/97 99/99/99
f 99/99/99 97/97/97 100/100/100
f 99/99/99 100/100/100 101/101/101
f 101/101/101 100/100/100 102/102/102
f 101/101/101 102/102/102 103/103/103
f 103/103/103 102/102/102 104/104/104
f 106/106/106 105/105/105 107/107/107
f 107/107/107 105/105/105 108/108/108
f 107/107/107 108/108/108 109/109/109
f 107/107/107 109/109/109 110/110/110
f 110/110/110 109/109/109 111/111/111
f 110/110/110 111/111/111 112/112/112
f 114/114/114 113/113/113 115/115/115
f 114/114/114 115/115/115 116/116/116
f 116/116/116 115/115/115 117/117/117
f 116/116/116 117/117/117 118/118/118
f 118/118/118 117/117/117 119/119/119
f 118/118/118 119/119/119 120/120/120
f 122/122/122 121/121/121 123/123/123
f 122/122/122 123/123/123 124/124/124
f 124/124/124 123/123/123 125/125/125
f 124/124/124 125/125/125 126/126/126
f 126/126/126 125/125/125 127/127/127
f 126/126/126 127/127/127 128/128/128
f 130/130/130 129/129/129 131/131/131
f 130/130/130 131/131/131 132/132/132
f 132/132/132 131/131/131 133/133/133
f 132/132/132 133/133/133 134/134/134
f 134/134/134 133/133/133 135/135/135
f 134/134/134 135/135/135 136/136/136
f 138/138/138 137/137/137 139/139/139
f 139/139/139 137/137/137 140/140/140
f 139/139/139 140/140/140 141/141/141
f 141/141/141 140/140/140 142/142/142
f 141/141/141 142/142/142 143/143/143
f 143/143/143 142/142/142 144/144/144
f 146/146/146 145/145/145 147/147/147
f 147/147/147 145/145/145 148/148/148
f 147/147/147 148/148/148 149/149/149
f 149/149/149 148/148/148 150/150/150
f 149/149/149 150/150/150 151/151/151
f 151/151/151 150/150/150 152/152/152
f 154/154/154 153/153/153 155/155/155
f 155/155/155 153/153/153 156/156/156
f 155/155/155 156/156/156 157/157/157
f 157/157/157 156/156/156 158/158/158
f 157/157/157 158/158/158 159/159/159
f 159/159/159 158/158/158 160/160/160
f 162/162/162 161/161/161 163/163/163
f 163/163/163 161/161/161 164/164/164
f 163/163/163 164/164/164 165/165/165
f 165/165/165 164/164/164 166/166/166
f 165/165/165 166/166/166 167/167/167
f 167/167/167 166/166/166 168/168/168
f 170/170/170 169/169/169 171/171/171
f 171/171/171 169/169/169 172/172/172
f 171/171/171 172/172/172 173/173/173
f 173/173/173 172/172/172 174/174/174
f 173/173/173 174/174/174 175/175/175
f 175/175/175 174/174/174 176/176/176
f 178/178/178 177/177/177 179/179/179
f 179/179/179 177/177/177 180/180/180
f 179/179/179 180/180/180 181/181/181
f 181/181/181 180/180/180 182/182/182
f 181/181/181 182/182/182 183/183/183
f 183/183/183 182/182/182 184/184/184
f 186/186/186 185/185/185 187/187/187
f 187/187/187 185/185/185 188/188/188
f 187/187/187 188/188/188 189/189/189
f 189/189/189 188/188/188 190/190/190
f 189/189/189 190/190/190 191/191/191
f 191/191/191 190/190/190 192/192/192
f 194/194/194 193/193/193 195/195/195
f 195/195/195 193/193/193 196/196/196
f 195/195/195 196/196/196 197/197/197
f 197/197/197 196/196/196 198/198/198
f 197/197/197 198/198/198 199/199/199
f 199/199/199 198/198/198 200/200/200
f 202/202/202 201/201/201 203/203/203
f 203/203/203 201/201/201 204/204/204
f 203/203/203 204/204/204 205/205/205
f 205/205/205 204/204/204 206/206/206
f 205/205/205 206/206/206 207/207/207
f 207/207/207 206/206/206 208/208/208
