mtllib ./Track1_track_13.mtl
# Unity Asset Buildr OBJ Exporter
 http://buildr.jasperstocker.com
g Track1_track_13
v 15.96568 1.045878E-05 95.45208
v 13.34126 -0.02101145 96.23553
v 12.28961 -0.02101882 91.34873
v 14.3811 3.486259E-06 90.70998
v 11.23796 -0.0210262 86.46192
v 12.79653 -3.486259E-06 85.96789
v 10.18631 -0.02103357 81.57512
v 11.21196 -1.045878E-05 81.22579
v 13.34126 -0.02101145 96.23553
v 10.05901 -0.08706839 96.62695
v 9.939158 -0.08707614 91.63381
v 12.28961 -0.02101882 91.34873
v 9.81931 -0.08708389 86.64068
v 11.23796 -0.0210262 86.46192
v 9.699463 -0.08709165 81.64754
v 10.18631 -0.02103357 81.57512
v 10.05901 -0.08706839 96.62695
v 6.740116 -0.1968168 96.37337
v 7.575186 -0.1968243 91.45502
v 9.939158 -0.08707614 91.63381
v 8.410256 -0.1968318 86.53667
v 9.81931 -0.08708389 86.64068
v 9.245326 -0.1968393 81.61831
v 9.699463 -0.08709165 81.64754
v 6.740116 -0.1968168 96.37337
v 3.691146 -0.3400909 95.56024
v 5.342433 -0.3400983 90.85818
v 7.575186 -0.1968243 91.45502
v 6.99372 -0.3401057 86.15611
v 8.410256 -0.1968318 86.53667
v 8.645007 -0.340113 81.45404
v 9.245326 -0.1968393 81.61831
v 3.691146 -0.3400909 95.56024
v 1.060702 -0.5027432 94.41147
v 3.312738 -0.5027505 89.96899
v 5.342433 -0.3400983 90.85818
v 5.564775 -0.5027578 85.52651
v 6.99372 -0.3401057 86.15611
v 7.816811 -0.5027651 81.08403
v 8.645007 -0.340113 81.45404
v 1.060702 -0.5027432 94.41147
v -1.178972 -0.6730903 93.12216
v 1.472487 -0.6730981 88.90662
v 3.312738 -0.5027505 89.96899
v 4.123947 -0.6731059 84.69108
v 5.564775 -0.5027578 85.52651
v 6.775406 -0.6731137 80.47554
v 7.816811 -0.5027651 81.08403
v -1.178972 -0.6730903 93.12216
v -3.116149 -0.8420465 91.80677
v 1.472487 -0.6730981 88.90662
v -0.2171382 -0.8420536 87.75627
v 4.123947 -0.6731059 84.69108
v 2.681873 -0.8420607 83.70576
v 6.775406 -0.6731137 80.47554
v 5.580883 -0.8420678 79.65527
v -3.116149 -0.8420465 91.80677
v -4.840685 -1.004104 90.51786
v -0.2171382 -0.8420536 87.75627
v -1.803144 -1.004112 86.56768
v 2.681873 -0.8420607 83.70576
v 1.234396 -1.004119 82.6175
v 5.580883 -0.8420678 79.65527
v 4.271936 -1.004126 78.66732
v -4.840685 -1.004104 90.51786
v -6.419096 -1.155302 89.28004
v -1.803144 -1.004112 86.56768
v -3.322326 -1.15531 85.37286
v 1.234396 -1.004119 82.6175
v -0.2255567 -1.155317 81.4657
v 4.271936 -1.004126 78.66732
v 2.871212 -1.155325 77.55853
v -6.419096 -1.155302 89.28004
v -7.894832 -1.292438 88.10847
v -3.322326 -1.15531 85.37286
v -4.800025 -1.292446 84.19616
v -0.2255567 -1.155317 81.4657
v -1.705219 -1.292455 80.28384
v 2.871212 -1.155325 77.55853
v 1.389588 -1.292463 76.37152
v -7.894832 -1.292438 88.10847
v -9.305382 -1.41363 87.00684
v -4.800025 -1.292446 84.19616
v -6.26328 -1.413638 83.04977
v -1.705219 -1.292455 80.28384
v -3.221179 -1.413646 79.09271
v 1.389588 -1.292463 76.37152
v -0.1790776 -1.413655 75.13564
v -9.305382 -1.41363 87.00684
v -10.67225 -1.516612 85.98188
v -6.26328 -1.413638 83.04977
v -7.727957 -1.516621 81.9481
v -3.221179 -1.413646 79.09271
v -4.78367 -1.516629 77.91432
v -0.1790776 -1.413655 75.13564
v -1.839383 -1.516637 73.88055
v -10.67225 -1.516612 85.98188
v -12.01293 -1.599371 85.03754
v -7.727957 -1.516621 81.9481
v -9.208305 -1.599381 80.9025
v -4.78367 -1.516629 77.91432
v -6.403684 -1.599392 76.76746
v -1.839383 -1.516637 73.88055
v -3.599063 -1.599402 72.63241
v -12.01293 -1.599371 85.03754
v -13.33279 -1.659694 84.18223
v -9.208305 -1.599381 80.9025
v -10.70814 -1.659705 79.92841
v -6.403684 -1.599392 76.76746
v -8.083487 -1.659716 75.67458
v -3.599063 -1.599402 72.63241
v -5.458837 -1.659727 71.42075
v -13.33279 -1.659694 84.18223
v -14.64838 -1.696029 83.41402
v -10.70814 -1.659705 79.92841
v -12.24086 -1.69604 79.03224
v -8.083487 -1.659716 75.67458
v -9.833341 -1.696052 74.65047
v -5.458837 -1.659727 71.42075
v -7.425822 -1.696063 70.26868
v -14.64838 -1.696029 83.41402
v -15.95386 -1.706732 82.74197
v -12.24086 -1.69604 79.03224
v -13.79858 -1.706744 78.23035
v -9.833341 -1.696052 74.65047
v -11.64331 -1.706756 73.71872
v -7.425822 -1.696063 70.26868
v -9.488038 -1.706768 69.2071
v -15.95386 -1.706732 82.74197
v -17.26931 -1.690908 82.15934
v -15.39509 -1.690921 77.52454
v -13.79858 -1.706744 78.23035
v -13.52087 -1.690934 72.88975
v -11.64331 -1.706756 73.71872
v -11.64665 -1.690947 68.25495
v -9.488038 -1.706768 69.2071
v -17.26931 -1.690908 82.15934
v -18.59126 -1.648139 81.6702
v -17.0214 -1.648152 76.92535
v -15.39509 -1.690921 77.52454
v -15.45154 -1.648166 72.1805
v -13.52087 -1.690934 72.88975
v -13.88168 -1.64818 67.43565
v -11.64665 -1.690947 68.25495
v -18.59126 -1.648139 81.6702
v -19.93044 -1.578559 81.27146
v -18.67976 -1.578574 76.43532
v -17.0214 -1.648152 76.92535
v -17.42909 -1.578589 71.59917
v -15.45154 -1.648166 72.1805
v -16.17841 -1.578604 66.76302
v -13.88168 -1.64818 67.43565
v -19.93044 -1.578559 81.27146
v -21.29829 -1.482635 80.96096
v -20.37245 -1.48265 76.05568
v -18.67976 -1.578574 76.43532
v -19.4466 -1.482666 71.15039
v -17.42909 -1.578589 71.59917
v -18.52076 -1.482682 66.24511
v -16.17841 -1.578604 66.76302
v -21.29829 -1.482635 80.96096
v -22.69212 -1.362034 80.73978
v -22.08788 -1.362051 75.78857
v -20.37245 -1.48265 76.05568
v -21.48365 -1.362067 70.83737
v -19.4466 -1.482666 71.15039
v -20.87941 -1.362083 65.88616
v -18.52076 -1.482682 66.24511
v -22.69212 -1.362034 80.73978
v -24.10323 -1.219435 80.60733
v -23.81071 -1.219451 75.6323
v -22.08788 -1.362051 75.78857
v -23.51818 -1.219466 70.65728
v -21.48365 -1.362067 70.83737
v -23.22566 -1.219482 65.68225
v -20.87941 -1.362083 65.88616
v -24.10323 -1.219435 80.60733
v -25.5512 -1.055739 80.56017
v -25.55313 -1.055755 75.58099
v -23.81071 -1.219451 75.6323
v -25.55507 -1.055771 70.60181
v -23.51818 -1.219466 70.65728
v -25.55701 -1.055787 65.62263
v -23.22566 -1.219482 65.68225
v -25.5512 -1.055739 80.56017
v -27.0172 -0.8743082 80.59673
v -27.29529 -0.8743249 75.62975
v -25.55313 -1.055755 75.58099
v -27.57338 -0.8743415 70.66277
v -25.55507 -1.055771 70.60181
v -27.85147 -0.8743582 65.69579
v -25.55701 -1.055787 65.62263
v -27.0172 -0.8743082 80.59673
v -28.51471 -0.675877 80.7147
v -29.04767 -0.6758941 75.77284
v -27.29529 -0.8743249 75.62975
v -29.58063 -0.6759112 70.83099
v -27.57338 -0.8743415 70.66277
v -30.11359 -0.6759284 65.88914
v -27.85147 -0.8743582 65.69579
v -28.51471 -0.675877 80.7147
v -30.03754 -0.462441 80.91147
v -30.80441 -0.4624579 76.00452
v -29.04767 -0.6758941 75.77284
v -31.57129 -0.4624748 71.09759
v -29.58063 -0.6759112 70.83099
v -32.33816 -0.4624918 66.19064
v -30.11359 -0.6759284 65.88914
v -30.03754 -0.462441 80.91147
v -31.57996 -0.2360838 81.18343
v -32.55952 -0.2361005 76.31825
v -30.80441 -0.4624579 76.00452
v -33.53907 -0.2361172 71.45306
v -31.57129 -0.4624748 71.09759
v -34.51863 -0.2361338 66.58788
v -32.33816 -0.4624918 66.19064
v -31.57996 -0.2360838 81.18343
v -33.21593 2.474709E-05 81.54551
v -34.32822 8.249031E-06 76.71204
v -32.55952 -0.2361005 76.31825
v -35.44051 -8.249032E-06 71.87858
v -33.53907 -0.2361172 71.45306
v -36.5528 -2.474709E-05 67.04511
v -34.51863 -0.2361338 66.58788

vn -0.008235545 0.9999636 0.002253257
vn -0.007526792 0.9999703 0.001618272
vn -0.008602787 0.9999606 0.002184134
vn -0.01007153 0.9999449 0.002956547
vn -0.01121782 0.9999331 0.002848512
vn -0.01390426 0.999895 0.004082233
vn -0.01493441 0.9998801 0.004087289
vn -0.01839999 0.9998118 0.006146893
vn -0.02311943 0.9997289 0.002739815
vn -0.02006418 0.9997986 0.000480033
vn -0.0245595 0.9996961 0.002130825
vn -0.03178136 0.9994834 0.004783191
vn -0.03776668 0.9992812 0.003277527
vn -0.05837584 0.998256 0.008787008
vn -0.06810642 0.9976454 0.008074075
vn -0.1303036 0.9910777 0.02804012
vn -0.03838482 0.9992591 -0.002771421
vn -0.03262633 0.9994522 -0.00554103
vn -0.04055986 0.999168 -0.004241608
vn -0.05341176 0.9985703 -0.002135109
vn -0.06291677 0.9979971 -0.006578765
vn -0.09982441 0.994997 -0.003989079
vn -0.1164005 0.9931668 -0.008401088
vn -0.2352397 0.971921 0.005644803
vn -0.05068131 0.9986289 -0.01309991
vn -0.04292195 0.9989647 -0.01507504
vn -0.05302098 0.9984758 -0.01531885
vn -0.06869157 0.9975145 -0.01569433
vn -0.07848527 0.9966573 -0.02267527
vn -0.1170735 0.992763 -0.02674732
vn -0.1315721 0.9907232 -0.03400578
vn -0.2221986 0.9742713 -0.03772775
vn -0.05870448 0.9979608 -0.02505944
vn -0.0505445 0.998393 -0.02562426
vn -0.06073733 0.9977744 -0.02751759
vn -0.07535161 0.9966986 -0.03022912
vn -0.08291051 0.9958488 -0.03756272
vn -0.1116248 0.992741 -0.04478017
vn -0.1201697 0.9914272 -0.05129569
vn -0.1670752 0.9841966 -0.05867557
vn -0.06278916 0.9973931 -0.03556258
vn -0.0557184 0.9978312 -0.03504721
vn -0.06431484 0.9972155 -0.03774545
vn -0.07556058 0.9962867 -0.04127311
vn -0.08043276 0.9956417 -0.04720441
vn -0.09826285 0.993712 -0.05367317
vn -0.1025215 0.9930347 -0.05806507
vn -0.1249513 0.9901386 -0.06334346
vn -0.0609563 0.9974037 -0.03834172
vn -0.06377827 0.9970446 -0.04282757
vn -0.06568513 0.9969064 -0.04316499
vn -0.0713659 0.9962478 -0.04896068
vn -0.0761926 0.9958352 -0.05006966
vn -0.08412953 0.9947819 -0.05771689
vn -0.08730348 0.9944553 -0.05862423
vn -0.09419326 0.9932686 -0.06741744
vn -0.06104894 0.9971778 -0.0436955
vn -0.06275573 0.9969419 -0.0465669
vn -0.06389937 0.996856 -0.04685084
vn -0.06708274 0.996475 -0.05037527
vn -0.06970892 0.9962572 -0.05111022
vn -0.07357077 0.9957586 -0.05524725
vn -0.07509746 0.995618 -0.05572455
vn -0.0779599 0.9951524 -0.05995007
vn -0.05958596 0.9971709 -0.04582121
vn -0.06033956 0.9970656 -0.04710957
vn -0.06082969 0.9970291 -0.04725313
vn -0.06213591 0.996876 -0.04875712
vn -0.06317733 0.9967949 -0.04907675
vn -0.0645964 0.9966233 -0.05068776
vn -0.06515083 0.9965782 -0.05086577
vn -0.06609146 0.9964376 -0.05238511
vn -0.05688639 0.997362 -0.04508931
vn -0.0568369 0.9973686 -0.04500628
vn -0.05680619 0.9973707 -0.04499657
vn -0.05672624 0.9973794 -0.04490408
vn -0.05666498 0.9973837 -0.04488469
vn -0.05658548 0.9973924 -0.04479263
vn -0.05655499 0.9973946 -0.04478305
vn -0.05650633 0.9974011 -0.04470101
vn -0.05298557 0.9977151 -0.04191595
vn -0.05226929 0.9978008 -0.04076412
vn -0.05184921 0.9978281 -0.04062926
vn -0.05076856 0.9979327 -0.03940573
vn -0.04997652 0.9979823 -0.03916191
vn -0.04897815 0.9980761 -0.03801614
vn -0.04860399 0.9980986 -0.03790573
vn -0.04802582 0.9981634 -0.03692322
vn -0.04770392 0.9981881 -0.03667575
vn -0.04646924 0.9983129 -0.03481479
vn -0.04579064 0.9983515 -0.03460399
vn -0.0440462 0.9984936 -0.03271516
vn -0.04282841 0.9985581 -0.03236555
vn -0.04131471 0.9986748 -0.03068646
vn -0.0407647 0.9987019 -0.0305412
vn -0.0399215 0.9987778 -0.02914111
vn -0.04071571 0.9987286 -0.02972081
vn -0.03916272 0.9988527 -0.02756354
vn -0.03836637 0.9988897 -0.02733461
vn -0.03630574 0.9990219 -0.02524177
vn -0.03493987 0.9990794 -0.02489357
vn -0.03324562 0.99918 -0.02311442
vn -0.03265217 0.9992025 -0.02298166
vn -0.03173188 0.9992647 -0.02152487
vn -0.03172519 0.9992648 -0.02152033
vn -0.0301137 0.9993564 -0.01949209
vn -0.02934648 0.9993831 -0.01929648
vn -0.02733514 0.9994746 -0.01741615
vn -0.02607459 0.999513 -0.01714536
vn -0.02449841 0.999578 -0.01560902
vn -0.02396982 0.9995923 -0.01551578
vn -0.0231264 0.9996307 -0.01427174
vn -0.0202965 0.9997156 -0.01252566
vn -0.01902682 0.9997574 -0.01108994
vn -0.0184635 0.9997694 -0.01097058
vn -0.01696174 0.9998091 -0.009696543
vn -0.01607025 0.9998252 -0.009548903
vn -0.01493809 0.9998519 -0.008539995
vn -0.01457521 0.9998577 -0.008495883
vn -0.01397283 0.9998728 -0.007679821
vn -0.006389769 0.9999734 -0.003513396
vn -0.005913274 0.9999778 -0.003036468
vn -0.005716656 0.9999791 -0.003004239
vn -0.0051814 0.9999831 -0.002599353
vn -0.004881265 0.9999848 -0.002565594
vn -0.004491452 0.9999874 -0.002253578
vn -0.004372663 0.999988 -0.002246052
vn -0.004165224 0.9999893 -0.001992463
vn 0.009095776 0.9999506 0.004004461
vn 0.01020264 0.9999395 0.004122968
vn 0.008852547 0.9999536 0.003789588
vn 0.007801494 0.9999633 0.003530051
vn 0.007459363 0.999967 0.003192771
vn 0.00669031 0.9999731 0.003026874
vn 0.006564819 0.9999744 0.002889437
vn 0.006054697 0.9999775 0.002889758
vn 0.02554132 0.9996299 0.009375595
vn 0.02881222 0.9995394 0.009529787
vn 0.02479251 0.9996539 0.008798049
vn 0.02171507 0.9997302 0.008237787
vn 0.02067718 0.9997593 0.007337177
vn 0.01846984 0.9998049 0.007006249
vn 0.01809263 0.9998143 0.006640536
vn 0.01666276 0.9998384 0.006735317
vn 0.04265559 0.999011 0.01255436
vn 0.04818296 0.9987609 0.01245759
vn 0.04133529 0.9990773 0.01166955
vn 0.03613317 0.9992856 0.01107067
vn 0.0343091 0.9993643 0.009685457
vn 0.03061638 0.9994871 0.009379979
vn 0.02995397 0.9995125 0.008815147
vn 0.02760666 0.9995772 0.00913092
vn 0.05956723 0.9981356 0.01330597
vn 0.06709056 0.9976666 0.01265979
vn 0.05768782 0.9982599 0.01221591
vn 0.05053474 0.9986517 0.01187765
vn 0.04791872 0.9987997 0.01014666
vn 0.0428445 0.9990311 0.01006968
vn 0.04188752 0.9990786 0.009355801
vn 0.03870587 0.9992005 0.01000671
vn 0.0755076 0.9970765 0.01171828
vn 0.0845726 0.9963639 0.01031785
vn 0.0731342 0.9972664 0.01053802
vn 0.06436778 0.9978689 0.0107057
vn 0.06101679 0.9980981 0.008791463
vn 0.05476181 0.9984579 0.009107551
vn 0.05352125 0.9985322 0.008305204
vn 0.04963974 0.9987233 0.009366042
vn 0.08988431 0.9959192 0.008117201
vn 0.09999474 0.9949706 0.005876443
vn 0.08710955 0.9961745 0.006949146
vn 0.07712895 0.9969907 0.007778395
vn 0.07314258 0.9973044 0.005834421
vn 0.06595293 0.9978005 0.00665084
vn 0.06445618 0.9979036 0.005819954
vn 0.06003064 0.9981697 0.007322785
vn 0.1019905 0.9947809 0.002974202
vn 0.1123382 0.99367 -4.68895E-05
vn 0.09900763 0.9950849 0.001910571
vn 0.0884885 0.9960712 0.00345307
vn 0.08408964 0.9964569 0.001622202
vn 0.07636701 0.9970753 0.002979622
vn 0.07468095 0.9972051 0.002176959
vn 0.06993692 0.997543 0.00410908
vn 0.1123057 0.9936687 -0.003165188
vn 0.1226506 0.9924262 -0.006870353
vn 0.109182 0.9940133 -0.004089409
vn 0.0983811 0.995147 -0.001861838
vn 0.09366941 0.9955972 -0.003508864
vn 0.08560513 0.9963278 -0.001620495
vn 0.08376638 0.9964827 -0.002361687
vn 0.0788253 0.9968885 -3.387018E-05
vn 0.1204284 0.9926731 -0.009860644
vn 0.1302579 0.9913806 -0.01405126
vn 0.1173176 0.9930376 -0.01062086
vn 0.1067342 0.9942569 -0.007818004
vn 0.1019167 0.9947502 -0.009227038
vn 0.09384156 0.9955634 -0.006874069
vn 0.09192158 0.9957379 -0.007527326
vn 0.08696877 0.9961992 -0.004872591
vn 0.126902 0.9917738 -0.01675183
vn 0.136074 0.9904703 -0.02126953
vn 0.1238657 0.9921472 -0.01735225
vn 0.1136974 0.9934155 -0.01409236
vn 0.1088803 0.9939378 -0.01525337
vn 0.1009594 0.9948118 -0.0125139
vn 0.0990017 0.9950014 -0.01306958
vn 0.09413762 0.9955074 -0.01015584
vn 0.1318652 0.9909874 -0.02356976
vn 0.1402641 0.9897113 -0.02824415
vn 0.1289622 0.9913585 -0.02402073
vn 0.1193827 0.9926379 -0.02044377
vn 0.1146702 0.993174 -0.02135907
vn 0.1070529 0.9940842 -0.01833269
vn 0.1051013 0.994284 -0.01878662
vn 0.1004146 0.9948218 -0.01569657
vn 0.1311611 0.9909573 -0.02829276
vn 0.1359845 0.9902165 -0.03129647
vn 0.1293708 0.9911858 -0.0285279
vn 0.12339 0.992017 -0.02602541
vn 0.1202405 0.9923906 -0.0265148
vn 0.1150683 0.993061 -0.0242704
vn 0.1136719 0.9932157 -0.0245206
vn 0.1103393 0.9936456 -0.02221907

vt 0 533.0646
vt 0 534.8978
vt 0.3333333 534.8978
vt 0.3333333 533.0646
vt 0.6666667 534.8978
vt 0.6666667 533.0646
vt 1 534.8978
vt 1 533.0646
vt 0 534.8978
vt 0 536.7309
vt 0.3333333 536.7309
vt 0.3333333 534.8978
vt 0.6666667 536.7309
vt 0.6666667 534.8978
vt 1 536.7309
vt 1 534.8978
vt 0 536.7309
vt 0 538.564
vt 0.3333333 538.564
vt 0.3333333 536.7309
vt 0.6666667 538.564
vt 0.6666667 536.7309
vt 1 538.564
vt 1 536.7309
vt 0 538.564
vt 0 540.3972
vt 0.3333333 540.3972
vt 0.3333333 538.564
vt 0.6666667 540.3972
vt 0.6666667 538.564
vt 1 540.3972
vt 1 538.564
vt 0 540.3972
vt 0 542.2303
vt 0.3333333 542.2303
vt 0.3333333 540.3972
vt 0.6666667 542.2303
vt 0.6666667 540.3972
vt 1 542.2303
vt 1 540.3972
vt 0 542.2303
vt 0 544.0634
vt 0.3333333 544.0634
vt 0.3333333 542.2303
vt 0.6666667 544.0634
vt 0.6666667 542.2303
vt 1 544.0634
vt 1 542.2303
vt 0 544.0634
vt 0 545.8965
vt 0.3333333 544.0634
vt 0.3333333 545.8965
vt 0.6666667 544.0634
vt 0.6666667 545.8965
vt 1 544.0634
vt 1 545.8965
vt 0 545.8965
vt 0 547.7297
vt 0.3333333 545.8965
vt 0.3333333 547.7297
vt 0.6666667 545.8965
vt 0.6666667 547.7297
vt 1 545.8965
vt 1 547.7297
vt 0 547.7297
vt 0 549.5628
vt 0.3333333 547.7297
vt 0.3333333 549.5628
vt 0.6666667 547.7297
vt 0.6666667 549.5628
vt 1 547.7297
vt 1 549.5628
vt 0 549.5628
vt 0 551.3959
vt 0.3333333 549.5628
vt 0.3333333 551.3959
vt 0.6666667 549.5628
vt 0.6666667 551.3959
vt 1 549.5628
vt 1 551.3959
vt 0 551.3959
vt 0 553.2291
vt 0.3333333 551.3959
vt 0.3333333 553.2291
vt 0.6666667 551.3959
vt 0.6666667 553.2291
vt 1 551.3959
vt 1 553.2291
vt 0 553.2291
vt 0 555.0622
vt 0.3333333 553.2291
vt 0.3333333 555.0622
vt 0.6666667 553.2291
vt 0.6666667 555.0622
vt 1 553.2291
vt 1 555.0622
vt 0 555.0622
vt 0 556.8953
vt 0.3333333 555.0622
vt 0.3333333 556.8953
vt 0.6666667 555.0622
vt 0.6666667 556.8953
vt 1 555.0622
vt 1 556.8953
vt 0 556.8953
vt 0 558.7285
vt 0.3333333 556.8953
vt 0.3333333 558.7285
vt 0.6666667 556.8953
vt 0.6666667 558.7285
vt 1 556.8953
vt 1 558.7285
vt 0 558.7285
vt 0 560.5616
vt 0.3333333 558.7285
vt 0.3333333 560.5616
vt 0.6666667 558.7285
vt 0.6666667 560.5616
vt 1 558.7285
vt 1 560.5616
vt 0 560.5616
vt 0 562.3947
vt 0.3333333 560.5616
vt 0.3333333 562.3947
vt 0.6666667 560.5616
vt 0.6666667 562.3947
vt 1 560.5616
vt 1 562.3947
vt 0 562.3947
vt 0 564.2278
vt 0.3333333 564.2278
vt 0.3333333 562.3947
vt 0.6666667 564.2278
vt 0.6666667 562.3947
vt 1 564.2278
vt 1 562.3947
vt 0 564.2278
vt 0 566.061
vt 0.3333333 566.061
vt 0.3333333 564.2278
vt 0.6666667 566.061
vt 0.6666667 564.2278
vt 1 566.061
vt 1 564.2278
vt 0 566.061
vt 0 567.8941
vt 0.3333333 567.8941
vt 0.3333333 566.061
vt 0.6666667 567.8941
vt 0.6666667 566.061
vt 1 567.8941
vt 1 566.061
vt 0 567.8941
vt 0 569.7272
vt 0.3333333 569.7272
vt 0.3333333 567.8941
vt 0.6666667 569.7272
vt 0.6666667 567.8941
vt 1 569.7272
vt 1 567.8941
vt 0 569.7272
vt 0 571.5604
vt 0.3333333 571.5604
vt 0.3333333 569.7272
vt 0.6666667 571.5604
vt 0.6666667 569.7272
vt 1 571.5604
vt 1 569.7272
vt 0 571.5604
vt 0 573.3935
vt 0.3333333 573.3935
vt 0.3333333 571.5604
vt 0.6666667 573.3935
vt 0.6666667 571.5604
vt 1 573.3935
vt 1 571.5604
vt 0 573.3935
vt 0 575.2266
vt 0.3333333 575.2266
vt 0.3333333 573.3935
vt 0.6666667 575.2266
vt 0.6666667 573.3935
vt 1 575.2266
vt 1 573.3935
vt 0 575.2266
vt 0 577.0598
vt 0.3333333 577.0598
vt 0.3333333 575.2266
vt 0.6666667 577.0598
vt 0.6666667 575.2266
vt 1 577.0598
vt 1 575.2266
vt 0 577.0598
vt 0 578.8929
vt 0.3333333 578.8929
vt 0.3333333 577.0598
vt 0.6666667 578.8929
vt 0.6666667 577.0598
vt 1 578.8929
vt 1 577.0598
vt 0 578.8929
vt 0 580.726
vt 0.3333333 580.726
vt 0.3333333 578.8929
vt 0.6666667 580.726
vt 0.6666667 578.8929
vt 1 580.726
vt 1 578.8929
vt 0 580.726
vt 0 582.5591
vt 0.3333333 582.5591
vt 0.3333333 580.726
vt 0.6666667 582.5591
vt 0.6666667 580.726
vt 1 582.5591
vt 1 580.726
vt 0 582.5591
vt 0 584.3923
vt 0.3333333 584.3923
vt 0.3333333 582.5591
vt 0.6666667 584.3923
vt 0.6666667 582.5591
vt 1 584.3923
vt 1 582.5591

g Track Texture
usemtl Track Texture
usemap Track Texture
f 2/2/2 1/1/1 3/3/3
f 3/3/3 1/1/1 4/4/4
f 3/3/3 4/4/4 5/5/5
f 5/5/5 4/4/4 6/6/6
f 5/5/5 6/6/6 7/7/7
f 7/7/7 6/6/6 8/8/8
f 10/10/10 9/9/9 11/11/11
f 11/11/11 9/9/9 12/12/12
f 11/11/11 12/12/12 13/13/13
f 13/13/13 12/12/12 14/14/14
f 13/13/13 14/14/14 15/15/15
f 15/15/15 14/14/14 16/16/16
f 18/18/18 17/17/17 19/19/19
f 19/19/19 17/17/17 20/20/20
f 19/19/19 20/20/20 21/21/21
f 21/21/21 20/20/20 22/22/22
f 21/21/21 22/22/22 23/23/23
f 23/23/23 22/22/22 24/24/24
f 26/26/26 25/25/25 27/27/27
f 27/27/27 25/25/25 28/28/28
f 27/27/27 28/28/28 29/29/29
f 29/29/29 28/28/28 30/30/30
f 29/29/29 30/30/30 31/31/31
f 31/31/31 30/30/30 32/32/32
f 34/34/34 33/33/33 35/35/35
f 35/35/35 33/33/33 36/36/36
f 35/35/35 36/36/36 37/37/37
f 37/37/37 36/36/36 38/38/38
f 37/37/37 38/38/38 39/39/39
f 39/39/39 38/38/38 40/40/40
f 42/42/42 41/41/41 43/43/43
f 43/43/43 41/41/41 44/44/44
f 43/43/43 44/44/44 45/45/45
f 45/45/45 44/44/44 46/46/46
f 45/45/45 46/46/46 47/47/47
f 47/47/47 46/46/46 48/48/48
f 50/50/50 49/49/49 51/51/51
f 50/50/50 51/51/51 52/52/52
f 52/52/52 51/51/51 53/53/53
f 52/52/52 53/53/53 54/54/54
f 54/54/54 53/53/53 55/55/55
f 54/54/54 55/55/55 56/56/56
f 58/58/58 57/57/57 59/59/59
f 58/58/58 59/59/59 60/60/60
f 60/60/60 59/59/59 61/61/61
f 60/60/60 61/61/61 62/62/62
f 62/62/62 61/61/61 63/63/63
f 62/62/62 63/63/63 64/64/64
f 66/66/66 65/65/65 67/67/67
f 66/66/66 67/67/67 68/68/68
f 68/68/68 67/67/67 69/69/69
f 68/68/68 69/69/69 70/70/70
f 70/70/70 69/69/69 71/71/71
f 70/70/70 71/71/71 72/72/72
f 74/74/74 73/73/73 75/75/75
f 74/74/74 75/75/75 76/76/76
f 76/76/76 75/75/75 77/77/77
f 76/76/76 77/77/77 78/78/78
f 78/78/78 77/77/77 79/79/79
f 78/78/78 79/79/79 80/80/80
f 82/82/82 81/81/81 83/83/83
f 82/82/82 83/83/83 84/84/84
f 84/84/84 83/83/83 85/85/85
f 84/84/84 85/85/85 86/86/86
f 86/86/86 85/85/85 87/87/87
f 86/86/86 87/87/87 88/88/88
f 90/90/90 89/89/89 91/91/91
f 90/90/90 91/91/91 92/92/92
f 92/92/92 91/91/91 93/93/93
f 92/92/92 93/93/93 94/94/94
f 94/94/94 93/93/93 95/95/95
f 94/94/94 95/95/95 96/96/96
f 98/98/98 97/97/97 99/99/99
f 98/98/98 99/99/99 100/100/100
f 100/100/100 99/99/99 101/101/101
f 100/100/100 101/101/101 102/102/102
f 102/102/102 101/101/101 103/103/103
f 102/102/102 103/103/103 104/104/104
f 106/106/106 105/105/105 107/107/107
f 106/106/106 107/107/107 108/108/108
f 108/108/108 107/107/107 109/109/109
f 108/108/108 109/109/109 110/110/110
f 110/110/110 109/109/109 111/111/111
f 110/110/110 111/111/111 112/112/112
f 114/114/114 113/113/113 115/115/115
f 114/114/114 115/115/115 116/116/116
f 116/116/116 115/115/115 117/117/117
f 116/116/116 117/117/117 118/118/118
f 118/118/118 117/117/117 119/119/119
f 118/118/118 119/119/119 120/120/120
f 122/122/122 121/121/121 123/123/123
f 122/122/122 123/123/123 124/124/124
f 124/124/124 123/123/123 125/125/125
f 124/124/124 125/125/125 126/126/126
f 126/126/126 125/125/125 127/127/127
f 126/126/126 127/127/127 128/128/128
f 130/130/130 129/129/129 131/131/131
f 131/131/131 129/129/129 132/132/132
f 131/131/131 132/132/132 133/133/133
f 133/133/133 132/132/132 134/134/134
f 133/133/133 134/134/134 135/135/135
f 135/135/135 134/134/134 136/136/136
f 138/138/138 137/137/137 139/139/139
f 139/139/139 137/137/137 140/140/140
f 139/139/139 140/140/140 141/141/141
f 141/141/141 140/140/140 142/142/142
f 141/141/141 142/142/142 143/143/143
f 143/143/143 142/142/142 144/144/144
f 146/146/146 145/145/145 147/147/147
f 147/147/147 145/145/145 148/148/148
f 147/147/147 148/148/148 149/149/149
f 149/149/149 148/148/148 150/150/150
f 149/149/149 150/150/150 151/151/151
f 151/151/151 150/150/150 152/152/152
f 154/154/154 153/153/153 155/155/155
f 155/155/155 153/153/153 156/156/156
f 155/155/155 156/156/156 157/157/157
f 157/157/157 156/156/156 158/158/158
f 157/157/157 158/158/158 159/159/159
f 159/159/159 158/158/158 160/160/160
f 162/162/162 161/161/161 163/163/163
f 163/163/163 161/161/161 164/164/164
f 163/163/163 164/164/164 165/165/165
f 165/165/165 164/164/164 166/166/166
f 165/165/165 166/166/166 167/167/167
f 167/167/167 166/166/166 168/168/168
f 170/170/170 169/169/169 171/171/171
f 171/171/171 169/169/169 172/172/172
f 171/171/171 172/172/172 173/173/173
f 173/173/173 172/172/172 174/174/174
f 173/173/173 174/174/174 175/175/175
f 175/175/175 174/174/174 176/176/176
f 178/178/178 177/177/177 179/179/179
f 179/179/179 177/177/177 180/180/180
f 179/179/179 180/180/180 181/181/181
f 181/181/181 180/180/180 182/182/182
f 181/181/181 182/182/182 183/183/183
f 183/183/183 182/182/182 184/184/184
f 186/186/186 185/185/185 187/187/187
f 187/187/187 185/185/185 188/188/188
f 187/187/187 188/188/188 189/189/189
f 189/189/189 188/188/188 190/190/190
f 189/189/189 190/190/190 191/191/191
f 191/191/191 190/190/190 192/192/192
f 194/194/194 193/193/193 195/195/195
f 195/195/195 193/193/193 196/196/196
f 195/195/195 196/196/196 197/197/197
f 197/197/197 196/196/196 198/198/198
f 197/197/197 198/198/198 199/199/199
f 199/199/199 198/198/198 200/200/200
f 202/202/202 201/201/201 203/203/203
f 203/203/203 201/201/201 204/204/204
f 203/203/203 204/204/204 205/205/205
f 205/205/205 204/204/204 206/206/206
f 205/205/205 206/206/206 207/207/207
f 207/207/207 206/206/206 208/208/208
f 210/210/210 209/209/209 211/211/211
f 211/211/211 209/209/209 212/212/212
f 211/211/211 212/212/212 213/213/213
f 213/213/213 212/212/212 214/214/214
f 213/213/213 214/214/214 215/215/215
f 215/215/215 214/214/214 216/216/216
f 218/218/218 217/217/217 219/219/219
f 219/219/219 217/217/217 220/220/220
f 219/219/219 220/220/220 221/221/221
f 221/221/221 220/220/220 222/222/222
f 221/221/221 222/222/222 223/223/223
f 223/223/223 222/222/222 224/224/224
