mtllib ./Track1_track_7.mtl
# Unity Asset Buildr OBJ Exporter
 http://buildr.jasperstocker.com
g Track1_track_7
v 96.58627 0.1229996 -50.98036
v 97.97792 0.1217608 -51.05569
v 98.57311 0.04058692 -46.09191
v 96.82513 0.04099985 -45.98675
v 99.16831 -0.040587 -41.12814
v 97.06399 -0.04099986 -40.99313
v 99.7635 -0.1217609 -36.16436
v 97.30285 -0.1229996 -35.99952
v 97.97792 0.1217608 -51.05569
v 98.94663 0.1173576 -51.22719
v 100.1385 0.03911912 -46.37197
v 98.57311 0.04058692 -46.09191
v 101.3303 -0.03911941 -41.51677
v 99.16831 -0.040587 -41.12814
v 102.5221 -0.1173579 -36.66155
v 99.7635 -0.1217609 -36.16436
v 98.94663 0.1173576 -51.22719
v 99.83148 0.1095134 -51.50374
v 101.6365 0.03650427 -46.84158
v 100.1385 0.03911912 -46.37197
v 103.4415 -0.03650491 -42.17942
v 101.3303 -0.03911941 -41.51677
v 105.2466 -0.1095141 -37.51726
v 102.5221 -0.1173579 -36.66155
v 99.83148 0.1095134 -51.50374
v 100.6932 0.09866902 -51.90578
v 103.072 0.0328893 -47.50853
v 101.6365 0.03650427 -46.84158
v 105.4508 -0.03289043 -43.11129
v 103.4415 -0.03650491 -42.17942
v 107.8296 -0.09867015 -38.71405
v 105.2466 -0.1095141 -37.51726
v 100.6932 0.09866902 -51.90578
v 101.5782 0.0861773 -52.46211
v 104.4396 0.02872518 -48.36246
v 103.072 0.0328893 -47.50853
v 107.3011 -0.02872694 -44.26283
v 105.4508 -0.03289043 -43.11129
v 110.1625 -0.08617906 -40.16318
v 107.8296 -0.09867015 -38.71405
v 101.5782 0.0861773 -52.46211
v 102.5475 0.07372235 -53.22193
v 105.7664 0.02457329 -49.39646
v 104.4396 0.02872518 -48.36246
v 108.9853 -0.02457576 -45.57098
v 107.3011 -0.02872694 -44.26283
v 112.2042 -0.07372481 -41.74551
v 110.1625 -0.08617906 -40.16318
v 102.5475 0.07372235 -53.22193
v 103.6067 0.06261016 -54.19035
v 105.7664 0.02457329 -49.39646
v 107.0559 0.02086898 -50.571
v 108.9853 -0.02457576 -45.57098
v 110.505 -0.02087219 -46.95165
v 112.2042 -0.07372481 -41.74551
v 113.9542 -0.06261337 -43.3323
v 103.6067 0.06261016 -54.19035
v 104.7953 0.05343512 -55.37941
v 107.0559 0.02086898 -50.571
v 108.3516 0.01781038 -51.86524
v 110.505 -0.02087219 -46.95165
v 111.908 -0.01781435 -48.35106
v 113.9542 -0.06261337 -43.3323
v 115.4643 -0.05343908 -44.83689
v 104.7953 0.05343512 -55.37941
v 106.1431 0.04627039 -56.76215
v 108.3516 0.01781038 -51.86524
v 109.6863 0.0154219 -53.23471
v 111.908 -0.01781435 -48.35106
v 113.2296 -0.01542659 -49.70728
v 115.4643 -0.05343908 -44.83689
v 116.7729 -0.04627508 -46.17984
v 106.1431 0.04627039 -56.76215
v 107.724 0.04074855 -58.3129
v 109.6863 0.0154219 -53.23471
v 111.1213 0.01358107 -54.64452
v 113.2296 -0.01542659 -49.70728
v 114.5185 -0.01358641 -50.97615
v 116.7729 -0.04627508 -46.17984
v 117.9158 -0.04075389 -47.30777
v 107.724 0.04074855 -58.3129
v 109.6251 0.03626698 -59.96201
v 111.1213 0.01358107 -54.64452
v 112.7145 0.01208704 -56.03079
v 114.5185 -0.01358641 -50.97615
v 115.8039 -0.0120929 -52.09958
v 117.9158 -0.04075389 -47.30777
v 118.8933 -0.03627284 -48.16836
v 109.6251 0.03626698 -59.96201
v 111.933 0.03198297 -61.58116
v 112.7145 0.01208704 -56.03079
v 114.5212 0.01065892 -57.30326
v 115.8039 -0.0120929 -52.09958
v 117.1094 -0.01066513 -53.02536
v 118.8933 -0.03627284 -48.16836
v 119.6976 -0.03198919 -48.74746
v 111.933 0.03198297 -61.58116
v 114.6658 0.02717233 -62.97046
v 114.5212 0.01065892 -57.30326
v 116.5578 0.009055329 -58.34232
v 117.1094 -0.01066513 -53.02536
v 118.4499 -0.009061675 -53.7142
v 119.6976 -0.03198919 -48.74746
v 120.342 -0.02717868 -49.08606
v 114.6658 0.02717233 -62.97046
v 117.7062 0.02156927 -63.92243
v 116.5578 0.009055329 -58.34232
v 118.7858 0.007187685 -59.04039
v 118.4499 -0.009061675 -53.7142
v 119.8653 -0.007193896 -54.15835
v 120.342 -0.02717868 -49.08606
v 120.9449 -0.02157548 -49.27631
v 117.7062 0.02156927 -63.92243
v 120.8032 0.0158424 -64.3382
v 118.7858 0.007187685 -59.04039
v 121.0803 0.005278858 -59.3459
v 119.8653 -0.007193896 -54.15835
v 121.3574 -0.005284682 -54.3536
v 120.9449 -0.02157548 -49.27631
v 121.6346 -0.01584822 -49.3613
v 120.8032 0.0158424 -64.3382
v 123.7384 0.01080129 -64.28371
v 123.3225 0.003598687 -59.30104
v 121.0803 0.005278858 -59.3459
v 122.9065 -0.00360392 -54.31839
v 121.3574 -0.005284682 -54.3536
v 122.4906 -0.01080653 -49.33572
v 121.6346 -0.01584822 -49.3613
v 123.7384 0.01080129 -64.28371
v 126.442 0.006788344 -63.89338
v 123.3225 0.003598687 -59.30104
v 125.4761 0.002261285 -58.98757
v 122.9065 -0.00360392 -54.31839
v 124.5102 -0.002265773 -54.08176
v 122.4906 -0.01080653 -49.33572
v 123.5443 -0.006792831 -49.17595
v 126.442 0.006788344 -63.89338
v 128.9233 0.003848569 -63.28087
v 127.5333 0.001281646 -58.47799
v 125.4761 0.002261285 -58.98757
v 124.5102 -0.002265773 -54.08176
v 126.1432 -0.001285276 -53.6751
v 123.5443 -0.006792831 -49.17595
v 124.7531 -0.003852198 -48.87222
v 128.9233 0.003848569 -63.28087
v 131.217 0.001859724 -62.52263
v 127.5333 0.001281646 -58.47799
v 129.4998 0.0006190102 -57.82677
v 127.7825 -0.0006217035 -53.13092
v 126.1432 -0.001285276 -53.6751
v 124.7531 -0.003852198 -48.87222
v 126.0653 -0.001862417 -48.43507
v 131.217 0.001859724 -62.52263
v 133.3718 0.0006486872 -61.66102
v 131.4 0.0002156647 -57.06625
v 129.4998 0.0006190102 -57.82677
v 127.7825 -0.0006217035 -53.13092
v 129.4282 -0.0002173577 -52.47147
v 126.0653 -0.001862417 -48.43507
v 127.4564 -0.0006503801 -47.8767
v 133.3718 0.0006486872 -61.66102
v 135.3617 7.735333E-05 -60.75067
v 133.2221 2.556846E-05 -56.23158
v 131.4 0.0002156647 -57.06625
v 131.0826 -2.621642E-05 -51.71249
v 129.4282 -0.0002173577 -52.47147
v 128.943 -7.800129E-05 -47.1934
v 127.4564 -0.0006503801 -47.8767
v 135.3617 7.735333E-05 -60.75067
v 136.6102 -9.142578E-06 -60.1292
v 133.2221 2.556846E-05 -56.23158
v 134.3275 -3.047526E-06 -55.68066
v 131.0826 -2.621642E-05 -51.71249
v 132.0449 3.047526E-06 -51.23212
v 128.943 -7.800129E-05 -47.1934
v 129.7622 9.142578E-06 -46.78358

vn 0.001460887 0.9998667 0.01626264
vn 0.00176357 0.9998682 0.01613964
vn 0.001371623 0.9998671 0.01624234
vn 0.001079997 0.9998663 0.01631876
vn 0.0009562121 0.999867 0.01628213
vn 0.0007560226 0.9998661 0.016342
vn 0.0007105801 0.9998665 0.01632548
vn 0.0005946761 0.9998655 0.01639026
vn 0.005045591 0.99987 0.01531473
vn 0.007089255 0.9998716 0.01437204
vn 0.00451637 0.999873 0.01527628
vn 0.003104665 0.9998708 0.01577238
vn 0.002564599 0.9998739 0.0156725
vn 0.001838863 0.9998706 0.01597635
vn 0.001674554 0.9998717 0.01592827
vn 0.001322547 0.999868 0.01619252
vn 0.008523796 0.9998766 0.0132058
vn 0.01227249 0.9998652 0.01090636
vn 0.007524012 0.9998837 0.0132657
vn 0.005057017 0.9998822 0.01449127
vn 0.004072198 0.9998875 0.01443471
vn 0.002868249 0.9998815 0.01512914
vn 0.002572443 0.9998829 0.01507987
vn 0.002025748 0.999876 0.01561507
vn 0.01104736 0.9998868 0.01021627
vn 0.01561841 0.9998568 0.006508077
vn 0.00970868 0.9998982 0.01046575
vn 0.006574118 0.9998994 0.01256457
vn 0.005211332 0.9999064 0.01265915
vn 0.003674386 0.9998976 0.01383014
vn 0.003255522 0.9998993 0.01381487
vn 0.002592225 0.9998892 0.01465459
vn 0.01188421 0.9999037 0.007172526
vn 0.01593227 0.9998689 0.002891788
vn 0.01049826 0.9999161 0.007590617
vn 0.007342779 0.9999198 0.01031879
vn 0.005792408 0.9999269 0.01061742
vn 0.004142922 0.9999169 0.0122095
vn 0.003639416 0.9999183 0.01225748
vn 0.002947209 0.9999063 0.01336356
vn 0.01109155 0.9999263 0.004940353
vn 0.01380937 0.9999039 0.001226854
vn 0.009936606 0.9999362 0.005390135
vn 0.007331658 0.9999396 0.008190202
vn 0.00583203 0.9999458 0.008638564
vn 0.004280501 0.9999361 0.01045904
vn 0.003747415 0.9999371 0.0105751
vn 0.003089386 0.999925 0.01185657
vn 0.01256739 0.9999185 0.002272099
vn 0.009600786 0.9999474 0.003608803
vn 0.009122668 0.9999486 0.004421947
vn 0.006447248 0.9999607 0.006091563
vn 0.005808606 0.9999563 0.007329333
vn 0.003833635 0.9999567 0.008481433
vn 0.003612369 0.9999532 0.008972475
vn 0.002203588 0.9999531 0.009432276
vn 0.009857899 0.9999492 0.002137866
vn 0.007955389 0.9999638 0.0030324
vn 0.007665983 0.9999641 0.003623009
vn 0.005707612 0.9999715 0.004949857
vn 0.005231833 0.9999684 0.005989691
vn 0.003538332 0.9999685 0.007101608
vn 0.003341251 0.9999658 0.007563747
vn 0.002004158 0.9999651 0.008108886
vn 0.00771046 0.9999675 0.002334132
vn 0.006511063 0.9999747 0.002875115
vn 0.006334817 0.9999745 0.003277038
vn 0.004941215 0.9999789 0.004232236
vn 0.004580153 0.9999768 0.005048375
vn 0.003161236 0.9999768 0.006024639
vn 0.00297629 0.9999749 0.006439011
vn 0.001723502 0.999974 0.007013823
vn 0.006079994 0.999978 0.002637801
vn 0.005319227 0.9999816 0.002931794
vn 0.005206581 0.9999813 0.003196602
vn 0.004211352 0.9999838 0.003833333
vn 0.003921892 0.9999824 0.004452615
vn 0.002710587 0.9999825 0.005261371
vn 0.002521874 0.9999809 0.0056299
vn 0.001294711 0.9999799 0.00620669
vn 0.004869544 0.9999839 0.002896104
vn 0.004352213 0.9999859 0.00304167
vn 0.004269297 0.9999857 0.003222988
vn 0.003504824 0.9999872 0.003639304
vn 0.003240734 0.9999862 0.004125216
vn 0.002102429 0.9999862 0.004803949
vn 0.001878119 0.9999849 0.005153428
vn 0.0004911047 0.9999833 0.005764708
vn 0.003978109 0.9999875 0.003024431
vn 0.003555578 0.9999889 0.003083931
vn 0.003476731 0.9999887 0.00322913
vn 0.0027719 0.99999 0.003516889
vn 0.002473 0.9999891 0.003953966
vn 0.001168154 0.9999889 0.004578482
vn 0.0008348285 0.9999874 0.004965649
vn -0.001209899 0.9999829 0.005716624
vn 0.003284285 0.99999 0.002997602
vn 0.002865673 0.9999914 0.002986929
vn 0.002769636 0.9999913 0.003124065
vn 0.001990746 0.9999925 0.003315454
vn 0.001585701 0.9999916 0.003758828
vn -0.0001738006 0.9999906 0.004334591
vn -0.0007449982 0.9999882 0.004803305
vn -0.004451734 0.9999736 0.005734402
vn 0.002720263 0.9999923 0.002802406
vn 0.002266473 0.9999938 0.00270902
vn 0.002136844 0.9999937 0.002844915
vn 0.001230481 0.999995 0.002910951
vn 0.0006800544 0.9999942 0.003346067
vn -0.001558722 0.9999919 0.00369606
vn -0.002392452 0.9999885 0.004164775
vn -0.007818298 0.9999585 0.004674544
vn 0.002179957 0.9999946 0.002463748
vn 0.001722554 0.9999959 0.002289573
vn 0.001563351 0.9999958 0.002406945
vn 0.0006214445 0.9999971 0.002320174
vn -1.014314E-05 0.9999965 0.002666729
vn -0.002256996 0.999994 0.002636509
vn -0.003120494 0.9999908 0.00295498
vn -0.00798836 0.9999648 0.002559361
vn 0.001263663 0.9999977 0.001798655
vn 0.00168796 0.9999973 0.001586444
vn 0.001099088 0.9999979 0.001710061
vn 0.0002392333 0.9999982 0.001890562
vn -0.0003505962 0.9999986 0.001656294
vn -0.002171618 0.9999958 0.001912839
vn -0.002839159 0.9999945 0.001741553
vn -0.005963059 0.9999792 0.002446958
vn 0.001260422 0.999998 0.001550754
vn 0.0009112026 0.9999987 0.001313532
vn 0.0007559336 0.9999987 0.001364476
vn 6.410843E-05 0.9999994 0.001109026
vn -0.0004289646 0.9999992 0.001221229
vn -0.001693362 0.9999982 0.0008301198
vn -0.002146165 0.9999974 0.0008862732
vn -0.003834547 0.9999927 0.0001677932
vn 0.0006442847 0.9999995 0.00088703
vn 0.00098263 0.9999992 0.0008188503
vn 0.0002784687 0.9999996 0.0007982584
vn 0.0002361041 0.9999995 0.0009692819
vn -0.0003615482 0.9999998 0.0007129906
vn -0.001185184 0.9999992 0.0003597902
vn -0.001473071 0.9999989 0.0003732155
vn -0.002392848 0.9999971 -0.0001580939
vn 0.0006301244 0.9999995 0.0007168272
vn 0.0004419327 0.9999998 0.0005454265
vn 0.0001842557 0.9999999 0.0004611326
vn 0.0002225181 0.9999999 0.0003455887
vn -0.0004851622 0.9999999 0.0002421457
vn -0.0005311623 0.9999998 0.0003807227
vn -0.0009310062 0.9999996 9.629667E-05
vn -0.001430205 0.9999989 -0.0002588057
vn 0.0002813592 0.9999999 0.0002918738
vn 0.0004475389 0.9999998 0.0002863008
vn 0.0001209387 1 0.0002281748
vn 9.291517E-05 1 0.0002981934
vn -0.0001398834 1 0.0001543056
vn -0.0004232121 0.9999999 -2.08134E-05
vn -0.0005214796 0.9999999 -2.691313E-05
vn -0.000775523 0.9999996 -0.0002385683
vn 0.0001453738 1 0.0001187746
vn 0.0002316926 1 0.0001211544
vn 0.0001246873 1 9.653145E-05
vn 4.151192E-06 1 6.879472E-05
vn -4.586216E-05 1 1.833126E-05
vn -0.0001909231 1 -1.776956E-05
vn -0.0002216046 0.9999999 -4.677438E-05
vn -0.0003577682 0.9999999 -5.929152E-05
vn 5.145133E-05 1 3.581885E-05
vn 3.72232E-05 0.9999999 2.345092E-05
vn 3.054484E-05 1 2.208869E-05
vn 5.87778E-06 1 5.888765E-06
vn -1.084506E-05 0.9999999 1.950934E-06
vn -4.36639E-05 1 -1.887024E-05
vn -5.446554E-05 0.9999999 -2.176372E-05
vn -8.409897E-05 1 -4.452335E-05

vt 0 267.1116
vt 0 268.8982
vt 0.3333333 268.8982
vt 0.3333333 267.1116
vt 0.6666667 268.8982
vt 0.6666667 267.1116
vt 1 268.8982
vt 1 267.1116
vt 0 268.8982
vt 0 270.6849
vt 0.3333333 270.6849
vt 0.3333333 268.8982
vt 0.6666667 270.6849
vt 0.6666667 268.8982
vt 1 270.6849
vt 1 268.8982
vt 0 270.6849
vt 0 272.4716
vt 0.3333333 272.4716
vt 0.3333333 270.6849
vt 0.6666667 272.4716
vt 0.6666667 270.6849
vt 1 272.4716
vt 1 270.6849
vt 0 272.4716
vt 0 274.2582
vt 0.3333333 274.2582
vt 0.3333333 272.4716
vt 0.6666667 274.2582
vt 0.6666667 272.4716
vt 1 274.2582
vt 1 272.4716
vt 0 274.2582
vt 0 276.0449
vt 0.3333333 276.0449
vt 0.3333333 274.2582
vt 0.6666667 276.0449
vt 0.6666667 274.2582
vt 1 276.0449
vt 1 274.2582
vt 0 276.0449
vt 0 277.8315
vt 0.3333333 277.8315
vt 0.3333333 276.0449
vt 0.6666667 277.8315
vt 0.6666667 276.0449
vt 1 277.8315
vt 1 276.0449
vt 0 277.8315
vt 0 279.6182
vt 0.3333333 277.8315
vt 0.3333333 279.6182
vt 0.6666667 277.8315
vt 0.6666667 279.6182
vt 1 277.8315
vt 1 279.6182
vt 0 279.6182
vt 0 281.4048
vt 0.3333333 279.6182
vt 0.3333333 281.4048
vt 0.6666667 279.6182
vt 0.6666667 281.4048
vt 1 279.6182
vt 1 281.4048
vt 0 281.4048
vt 0 283.1915
vt 0.3333333 281.4048
vt 0.3333333 283.1915
vt 0.6666667 281.4048
vt 0.6666667 283.1915
vt 1 281.4048
vt 1 283.1915
vt 0 283.1915
vt 0 284.9781
vt 0.3333333 283.1915
vt 0.3333333 284.9781
vt 0.6666667 283.1915
vt 0.6666667 284.9781
vt 1 283.1915
vt 1 284.9781
vt 0 284.9781
vt 0 286.7648
vt 0.3333333 284.9781
vt 0.3333333 286.7648
vt 0.6666667 284.9781
vt 0.6666667 286.7648
vt 1 284.9781
vt 1 286.7648
vt 0 286.7648
vt 0 288.5515
vt 0.3333333 286.7648
vt 0.3333333 288.5515
vt 0.6666667 286.7648
vt 0.6666667 288.5515
vt 1 286.7648
vt 1 288.5515
vt 0 288.5515
vt 0 290.3381
vt 0.3333333 288.5515
vt 0.3333333 290.3381
vt 0.6666667 288.5515
vt 0.6666667 290.3381
vt 1 288.5515
vt 1 290.3381
vt 0 290.3381
vt 0 292.1248
vt 0.3333333 290.3381
vt 0.3333333 292.1248
vt 0.6666667 290.3381
vt 0.6666667 292.1248
vt 1 290.3381
vt 1 292.1248
vt 0 292.1248
vt 0 293.9115
vt 0.3333333 292.1248
vt 0.3333333 293.9115
vt 0.6666667 292.1248
vt 0.6666667 293.9115
vt 1 292.1248
vt 1 293.9115
vt 0 293.9115
vt 0 295.6981
vt 0.3333333 295.6981
vt 0.3333333 293.9115
vt 0.6666667 295.6981
vt 0.6666667 293.9115
vt 1 295.6981
vt 1 293.9115
vt 0 295.6981
vt 0 297.4848
vt 0.3333333 295.6981
vt 0.3333333 297.4848
vt 0.6666667 295.6981
vt 0.6666667 297.4848
vt 1 295.6981
vt 1 297.4848
vt 0 297.4848
vt 0 299.2714
vt 0.3333333 299.2714
vt 0.3333333 297.4848
vt 0.6666667 297.4848
vt 0.6666667 299.2714
vt 1 297.4848
vt 1 299.2714
vt 0 299.2714
vt 0 301.0581
vt 0.3333333 299.2714
vt 0.3333333 301.0581
vt 0.6666667 301.0581
vt 0.6666667 299.2714
vt 1 299.2714
vt 1 301.0581
vt 0 301.0581
vt 0 302.8448
vt 0.3333333 302.8448
vt 0.3333333 301.0581
vt 0.6666667 301.0581
vt 0.6666667 302.8448
vt 1 301.0581
vt 1 302.8448
vt 0 302.8448
vt 0 304.6314
vt 0.3333333 304.6314
vt 0.3333333 302.8448
vt 0.6666667 304.6314
vt 0.6666667 302.8448
vt 1 304.6314
vt 1 302.8448
vt 0 304.6314
vt 0 306.4181
vt 0.3333333 304.6314
vt 0.3333333 306.4181
vt 0.6666667 304.6314
vt 0.6666667 306.4181
vt 1 304.6314
vt 1 306.4181

g Track Texture
usemtl Track Texture
usemap Track Texture
f 2/2/2 1/1/1 3/3/3
f 3/3/3 1/1/1 4/4/4
f 3/3/3 4/4/4 5/5/5
f 5/5/5 4/4/4 6/6/6
f 5/5/5 6/6/6 7/7/7
f 7/7/7 6/6/6 8/8/8
f 10/10/10 9/9/9 11/11/11
f 11/11/11 9/9/9 12/12/12
f 11/11/11 12/12/12 13/13/13
f 13/13/13 12/12/12 14/14/14
f 13/13/13 14/14/14 15/15/15
f 15/15/15 14/14/14 16/16/16
f 18/18/18 17/17/17 19/19/19
f 19/19/19 17/17/17 20/20/20
f 19/19/19 20/20/20 21/21/21
f 21/21/21 20/20/20 22/22/22
f 21/21/21 22/22/22 23/23/23
f 23/23/23 22/22/22 24/24/24
f 26/26/26 25/25/25 27/27/27
f 27/27/27 25/25/25 28/28/28
f 27/27/27 28/28/28 29/29/29
f 29/29/29 28/28/28 30/30/30
f 29/29/29 30/30/30 31/31/31
f 31/31/31 30/30/30 32/32/32
f 34/34/34 33/33/33 35/35/35
f 35/35/35 33/33/33 36/36/36
f 35/35/35 36/36/36 37/37/37
f 37/37/37 36/36/36 38/38/38
f 37/37/37 38/38/38 39/39/39
f 39/39/39 38/38/38 40/40/40
f 42/42/42 41/41/41 43/43/43
f 43/43/43 41/41/41 44/44/44
f 43/43/43 44/44/44 45/45/45
f 45/45/45 44/44/44 46/46/46
f 45/45/45 46/46/46 47/47/47
f 47/47/47 46/46/46 48/48/48
f 50/50/50 49/49/49 51/51/51
f 50/50/50 51/51/51 52/52/52
f 52/52/52 51/51/51 53/53/53
f 52/52/52 53/53/53 54/54/54
f 54/54/54 53/53/53 55/55/55
f 54/54/54 55/55/55 56/56/56
f 58/58/58 57/57/57 59/59/59
f 58/58/58 59/59/59 60/60/60
f 60/60/60 59/59/59 61/61/61
f 60/60/60 61/61/61 62/62/62
f 62/62/62 61/61/61 63/63/63
f 62/62/62 63/63/63 64/64/64
f 66/66/66 65/65/65 67/67/67
f 66/66/66 67/67/67 68/68/68
f 68/68/68 67/67/67 69/69/69
f 68/68/68 69/69/69 70/70/70
f 70/70/70 69/69/69 71/71/71
f 70/70/70 71/71/71 72/72/72
f 74/74/74 73/73/73 75/75/75
f 74/74/74 75/75/75 76/76/76
f 76/76/76 75/75/75 77/77/77
f 76/76/76 77/77/77 78/78/78
f 78/78/78 77/77/77 79/79/79
f 78/78/78 79/79/79 80/80/80
f 82/82/82 81/81/81 83/83/83
f 82/82/82 83/83/83 84/84/84
f 84/84/84 83/83/83 85/85/85
f 84/84/84 85/85/85 86/86/86
f 86/86/86 85/85/85 87/87/87
f 86/86/86 87/87/87 88/88/88
f 90/90/90 89/89/89 91/91/91
f 90/90/90 91/91/91 92/92/92
f 92/92/92 91/91/91 93/93/93
f 92/92/92 93/93/93 94/94/94
f 94/94/94 93/93/93 95/95/95
f 94/94/94 95/95/95 96/96/96
f 98/98/98 97/97/97 99/99/99
f 98/98/98 99/99/99 100/100/100
f 100/100/100 99/99/99 101/101/101
f 100/100/100 101/101/101 102/102/102
f 102/102/102 101/101/101 103/103/103
f 102/102/102 103/103/103 104/104/104
f 106/106/106 105/105/105 107/107/107
f 106/106/106 107/107/107 108/108/108
f 108/108/108 107/107/107 109/109/109
f 108/108/108 109/109/109 110/110/110
f 110/110/110 109/109/109 111/111/111
f 110/110/110 111/111/111 112/112/112
f 114/114/114 113/113/113 115/115/115
f 114/114/114 115/115/115 116/116/116
f 116/116/116 115/115/115 117/117/117
f 116/116/116 117/117/117 118/118/118
f 118/118/118 117/117/117 119/119/119
f 118/118/118 119/119/119 120/120/120
f 122/122/122 121/121/121 123/123/123
f 123/123/123 121/121/121 124/124/124
f 123/123/123 124/124/124 125/125/125
f 125/125/125 124/124/124 126/126/126
f 125/125/125 126/126/126 127/127/127
f 127/127/127 126/126/126 128/128/128
f 130/130/130 129/129/129 131/131/131
f 130/130/130 131/131/131 132/132/132
f 132/132/132 131/131/131 133/133/133
f 132/132/132 133/133/133 134/134/134
f 134/134/134 133/133/133 135/135/135
f 134/134/134 135/135/135 136/136/136
f 138/138/138 137/137/137 139/139/139
f 139/139/139 137/137/137 140/140/140
f 139/139/139 140/140/140 141/141/141
f 139/139/139 141/141/141 142/142/142
f 142/142/142 141/141/141 143/143/143
f 142/142/142 143/143/143 144/144/144
f 146/146/146 145/145/145 147/147/147
f 146/146/146 147/147/147 148/148/148
f 148/148/148 147/147/147 149/149/149
f 149/149/149 147/147/147 150/150/150
f 149/149/149 150/150/150 151/151/151
f 149/149/149 151/151/151 152/152/152
f 154/154/154 153/153/153 155/155/155
f 155/155/155 153/153/153 156/156/156
f 155/155/155 156/156/156 157/157/157
f 155/155/155 157/157/157 158/158/158
f 158/158/158 157/157/157 159/159/159
f 158/158/158 159/159/159 160/160/160
f 162/162/162 161/161/161 163/163/163
f 163/163/163 161/161/161 164/164/164
f 163/163/163 164/164/164 165/165/165
f 165/165/165 164/164/164 166/166/166
f 165/165/165 166/166/166 167/167/167
f 167/167/167 166/166/166 168/168/168
f 170/170/170 169/169/169 171/171/171
f 170/170/170 171/171/171 172/172/172
f 172/172/172 171/171/171 173/173/173
f 172/172/172 173/173/173 174/174/174
f 174/174/174 173/173/173 175/175/175
f 174/174/174 175/175/175 176/176/176
