mtllib ./Track1_trackCollider_6.mtl
# Unity Asset Buildr OBJ Exporter
 http://buildr.jasperstocker.com
g Track1_trackCollider_6
v 65.42345 -0.3437083 -52.3969
v 64.08783 -0.5632191 -53.31187
v 64.30993 4.422481 -53.6176
v 65.64436 4.64211 -52.70156
v 55.2692 0.5632191 -41.349
v 57.10188 0.7777541 -40.07804
v 55.49129 5.548919 -41.65473
v 57.32279 5.763573 -40.3827
v 66.76191 -0.1407403 -51.55346
v 65.42345 -0.3437083 -52.3969
v 65.64436 4.64211 -52.70156
v 66.97914 4.845442 -51.85478
v 57.10188 0.7777541 -40.07804
v 58.94258 0.964908 -38.89463
v 57.32279 5.763573 -40.3827
v 59.15981 5.951091 -39.19595
v 68.08671 0.04821616 -50.79778
v 66.76191 -0.1407403 -51.55346
v 66.97914 4.845442 -51.85478
v 68.29748 5.035036 -51.09311
v 58.94258 0.964908 -38.89463
v 60.88252 1.124734 -37.76131
v 59.15981 5.951091 -39.19595
v 61.09329 6.111553 -38.05664
v 69.39422 0.2208273 -50.14053
v 68.08671 0.04821616 -50.79778
v 68.29748 5.035036 -51.09311
v 69.59541 5.208576 -50.4267
v 60.88252 1.124734 -37.76131
v 62.94797 1.252382 -36.69304
v 61.09329 6.111553 -38.05664
v 63.14917 6.240131 -36.9792
v 70.65842 0.3720043 -49.60115
v 69.39422 0.2208273 -50.14053
v 69.59541 5.208576 -50.4267
v 70.84683 5.36097 -49.87453
v 62.94797 1.252382 -36.69304
v 65.14251 1.340705 -35.72447
v 63.14917 6.240131 -36.9792
v 65.33092 6.32967 -35.99785
v 71.88153 0.4982016 -49.18132
v 70.65842 0.3720043 -49.60115
v 70.84683 5.36097 -49.87453
v 72.05391 5.488648 -49.43769
v 65.14251 1.340705 -35.72447
v 67.48077 1.384372 -34.89037
v 65.33092 6.32967 -35.99785
v 67.65315 6.374819 -35.14674
v 73.08219 0.5948176 -48.87717
v 71.88153 0.4982016 -49.18132
v 72.05391 5.488648 -49.43769
v 73.2355 5.586958 -49.11176
v 67.48077 1.384372 -34.89037
v 69.9573 1.378811 -34.23559
v 67.65315 6.374819 -35.14674
v 70.1106 6.370952 -34.47018
v 74.26588 0.6563184 -48.68761
v 73.08219 0.5948176 -48.87717
v 73.2355 5.586958 -49.11176
v 74.39802 5.650237 -48.89574
v 69.9573 1.378811 -34.23559
v 72.51299 1.322909 -33.80636
v 70.1106 6.370952 -34.47018
v 72.64513 6.316828 -34.0145
v 75.50162 0.6800594 -48.60242
v 74.26588 0.6563184 -48.68761
v 74.39802 5.650237 -48.89574
v 75.61154 5.675707 -48.7797
v 72.51299 1.322909 -33.80636
v 75.07985 1.221075 -33.61872
v 72.64513 6.316828 -34.0145
v 75.18977 6.216722 -33.79601
v 76.81798 0.6671962 -48.62104
v 75.50162 0.6800594 -48.60242
v 75.61154 5.675707 -48.7797
v 76.90629 5.664356 -48.76454
v 75.07985 1.221075 -33.61872
v 77.55894 1.084004 -33.65083
v 75.18977 6.216722 -33.79601
v 77.64725 6.081163 -33.79433
v 78.26269 0.6237321 -48.74047
v 76.81798 0.6671962 -48.62104
v 76.90629 5.664356 -48.76454
v 78.33118 5.622091 -48.84875
v 77.55894 1.084004 -33.65083
v 79.89559 0.9240367 -33.84585
v 77.64725 6.081163 -33.79433
v 79.96408 5.922395 -33.95413
v 79.85661 0.5586054 -48.95253
v 78.26269 0.6237321 -48.74047
v 78.33118 5.622091 -48.84875
v 79.90787 5.557807 -49.02573
v 79.89559 0.9240367 -33.84585
v 82.07533 0.7527479 -34.13872
v 79.96408 5.922395 -33.95413
v 82.12659 5.75195 -34.21191
v 81.57542 0.4824552 -49.23404
v 79.85661 0.5586054 -48.95253
v 79.90787 5.557807 -49.02573
v 81.61251 5.482158 -49.27408
v 82.07533 0.7527479 -34.13872
v 84.0938 0.5820297 -34.47089
v 82.12659 5.75195 -34.21191
v 84.13088 5.581732 -34.51094
v 83.42393 0.4032169 -49.55973
v 81.57542 0.4824552 -49.23404
v 81.61251 5.482158 -49.27408
v 83.44974 5.403141 -49.56942
v 84.0938 0.5820297 -34.47089
v 85.99701 0.4185251 -34.80573
v 84.13088 5.581732 -34.51094
v 86.02281 5.41845 -34.81541
v 85.35973 0.3284532 -49.8951
v 83.42393 0.4032169 -49.55973
v 83.44974 5.403141 -49.56942
v 85.37697 5.328396 -49.87838
v 85.99701 0.4185251 -34.80573
v 87.79639 0.2706461 -35.11505
v 86.02281 5.41845 -34.81541
v 87.81363 5.270589 -35.09834
v 87.36753 0.2624666 -50.21336
v 85.35973 0.3284532 -49.8951
v 85.37697 5.328396 -49.87838
v 87.37848 5.262305 -50.17461
v 87.79639 0.2706461 -35.11505
v 89.52493 0.1428262 -35.3855
v 87.81363 5.270589 -35.09834
v 89.53587 5.142664 -35.34675
v 89.4478 0.2074973 -50.4949
v 87.36753 0.2624666 -50.21336
v 87.37848 5.262305 -50.17461
v 89.45426 5.207175 -50.43853
v 89.52493 0.1428262 -35.3855
v 91.2278 0.03741113 -35.61216
v 89.53587 5.142664 -35.34675
v 91.23426 5.037089 -35.55579
v 91.56588 0.165824 -50.72083
v 89.4478 0.2074973 -50.4949
v 89.45426 5.207175 -50.43853
v 91.56936 5.165344 -50.65154
v 91.2278 0.03741113 -35.61216
v 92.90446 -0.04206017 -35.78757
v 91.23426 5.037089 -35.55579
v 92.90794 4.95746 -35.71829
v 93.7029 0.1381886 -50.88094
v 91.56588 0.165824 -50.72083
v 91.56936 5.165344 -50.65154
v 93.70459 5.137587 -50.80332
v 92.90446 -0.04206017 -35.78757
v 94.5668 -0.09454791 -35.90963
v 92.90794 4.95746 -35.71829
v 94.56848 4.90485 -35.83201
v 95.77907 0.1246497 -50.96867
v 93.7029 0.1381886 -50.88094
v 93.70459 5.137587 -50.80332
v 95.77993 5.123984 -50.88707
v 94.5668 -0.09454791 -35.90963
v 96.28212 -0.1200888 -35.9796
v 94.56848 4.90485 -35.83201
v 96.28298 4.879246 -35.898
v 96.58627 0.1229996 -50.98036
v 95.77907 0.1246497 -50.96867
v 95.77993 5.123984 -50.88707
v 96.58704 5.122327 -50.8983
v 96.28212 -0.1200888 -35.9796
v 97.30285 -0.1229996 -35.99952
v 96.28298 4.879246 -35.898
v 97.30362 4.876328 -35.91746

vn -0.5723504 0.07541112 0.8165343
vn -0.571965 0.07556661 0.8167899
vn -0.5723504 0.07541112 0.8165343
vn -0.5727357 0.07525557 0.8162784
vn 0.5741976 -0.0755699 -0.8152216
vn 0.5744792 -0.07541408 -0.8150377
vn 0.5744792 -0.07541408 -0.8150377
vn 0.5747606 -0.07525823 -0.8148535
vn -0.5410023 0.0746755 0.8376992
vn -0.5397552 0.07514977 0.838461
vn -0.5410023 0.0746755 0.8376992
vn -0.5422492 0.0742007 0.836935
vn 0.5446579 -0.07517276 -0.8352824
vn 0.5455659 -0.07469571 -0.8347324
vn 0.5455659 -0.07469571 -0.8347324
vn 0.5464737 -0.07421833 -0.8341811
vn -0.5043892 0.07311889 0.8603751
vn -0.5020511 0.07394423 0.8616711
vn -0.5043892 0.07311889 0.8603751
vn -0.5067269 0.07229164 0.8590703
vn 0.5075858 -0.0739888 -0.8584185
vn 0.5091894 -0.07315526 -0.8575398
vn 0.5091894 -0.07315526 -0.8575398
vn 0.5107924 -0.07232054 -0.8566567
vn -0.459244 0.07058936 0.8855011
vn -0.4555143 0.07180058 0.8873283
vn -0.459244 0.07058936 0.8855011
vn -0.4629756 0.0693734 0.8836521
vn 0.4617146 -0.07187217 -0.884112
vn 0.4640943 -0.07064182 -0.8829644
vn 0.4640943 -0.07064182 -0.8829644
vn 0.4664742 -0.06940868 -0.8818073
vn -0.4039465 0.06694224 0.91233
vn -0.398432 0.06854732 0.9146329
vn -0.4039465 0.06694224 0.91233
vn -0.4094709 0.06532718 0.9099814
vn 0.4051343 -0.06864805 -0.9116763
vn 0.4083491 -0.06700388 -0.9103634
vn 0.4083491 -0.06700388 -0.9103634
vn 0.4115663 -0.06535438 -0.9090335
vn -0.3375793 0.0620636 0.9392489
vn -0.3298964 0.06406782 0.9418406
vn -0.3375793 0.0620636 0.9392489
vn -0.3452927 0.06004085 0.9365726
vn 0.3363537 -0.06418594 -0.9395458
vn 0.340438 -0.06211198 -0.9382132
vn 0.340438 -0.06211198 -0.9382132
vn 0.3445295 -0.06002896 -0.9368543
vn -0.2595665 0.05588468 0.964107
vn -0.2495461 0.05827657 0.9666077
vn -0.2595665 0.05588468 0.964107
vn -0.2696591 0.05346207 0.9614707
vn 0.2550518 -0.0583925 -0.9651626
vn 0.2600065 -0.05589317 -0.9639878
vn 0.2600065 -0.05589317 -0.9639878
vn 0.2649773 -0.05337964 -0.962776
vn -0.1726466 0.04855024 0.9837866
vn -0.1605199 0.05124911 0.9857012
vn -0.1726466 0.04855024 0.9837866
vn -0.1849096 0.04580699 0.9816874
vn 0.1643185 -0.05133614 -0.9850706
vn 0.1700563 -0.04849632 -0.9842404
vn 0.1700563 -0.04849632 -0.9842404
vn 0.1758234 -0.04563641 -0.9833633
vn -0.08262592 0.04042066 0.9957606
vn -0.06954276 0.04337733 0.9966354
vn -0.08262592 0.04042066 0.9957606
vn -0.09590206 0.03740944 0.9946875
vn 0.07112494 -0.04341448 -0.9965222
vn 0.0775578 -0.04031375 -0.9961725
vn 0.0775578 -0.04031375 -0.9961725
vn 0.08403684 -0.03718672 -0.9957685
vn 0.001621647 0.03205331 0.9994848
vn 0.01447791 0.03514352 0.9992774
vn 0.001621647 0.03205331 0.9994848
vn -0.01144948 0.02890579 0.9995165
vn -0.0148848 -0.03513437 -0.9992717
vn -0.007925611 -0.03192742 -0.9994587
vn -0.007925611 -0.03192742 -0.9994587
vn -0.0009029487 -0.02868954 -0.999588
vn 0.07148217 0.02399715 0.9971532
vn 0.08316961 0.02713745 0.9961659
vn 0.07148217 0.02399715 0.9971532
vn 0.05960085 0.02080403 0.9980054
vn -0.08498358 -0.02710102 -0.9960137
vn -0.077632 -0.02388916 -0.9966959
vn -0.077632 -0.02388916 -0.9966959
vn -0.07020246 -0.0206439 -0.9973192
vn 0.1224352 0.01654658 0.9923386
vn 0.1326457 0.0196507 0.9909687
vn 0.1224352 0.01654658 0.9923386
vn 0.1120714 0.01339829 0.9936099
vn -0.1346534 -0.01961734 -0.9906986
vn -0.1270652 -0.01648058 -0.9917575
vn -0.1270652 -0.01648058 -0.9917575
vn -0.1193911 -0.01331077 -0.992758
vn 0.1533702 0.009835592 0.9881197
vn 0.1621621 0.0127833 0.9866814
vn 0.1533702 0.009835592 0.9881197
vn 0.1444661 0.006853988 0.989486
vn -0.163419 -0.01276737 -0.9864741
vn -0.1558125 -0.009809688 -0.9877379
vn -0.1558125 -0.009809688 -0.9877379
vn -0.1481211 -0.006822545 -0.9889457
vn 0.1663149 0.003858123 0.9860651
vn 0.1737929 0.006598595 0.9847601
vn 0.1663149 0.003858123 0.9860651
vn 0.15876 0.001093266 0.9873166
vn -0.1738183 -0.006598372 -0.9847556
vn -0.1664377 -0.003857249 -0.9860443
vn -0.1664377 -0.003857249 -0.9860443
vn -0.1589823 -0.001092051 -0.9872808
vn 0.1644671 -0.00140094 0.9863816
vn 0.1707377 0.001027579 0.9853159
vn 0.1644671 -0.00140094 0.9863816
vn 0.1581471 -0.003845521 0.9874081
vn -0.1695019 -0.001034369 -0.9855294
vn -0.1626504 0.001393331 -0.9866828
vn -0.1626504 0.001393331 -0.9866828
vn -0.1557405 0.003838499 -0.9877905
vn 0.1513023 -0.005908785 0.9884699
vn 0.1564332 -0.003840527 0.987681
vn 0.1513023 -0.005908785 0.9884699
vn 0.1461421 -0.007986738 0.9892314
vn -0.154302 0.0038343 -0.9880163
vn -0.1482575 0.005902762 -0.9889312
vn -0.1482575 0.005902762 -0.9889312
vn -0.1421731 0.00798253 -0.9898096
vn 0.1298739 -0.00965714 0.9914835
vn 0.1339062 -0.007973354 0.990962
vn 0.1298739 -0.00965714 0.9914835
vn 0.1258259 -0.01134622 0.9919875
vn -0.1314505 0.00797053 -0.9912906
vn -0.1264659 0.0096554 -0.991924
vn -0.1264659 0.0096554 -0.991924
vn -0.1214579 0.01134671 -0.9925318
vn 0.1028812 -0.01260084 0.9946138
vn 0.105836 -0.01134666 0.9943188
vn 0.1028812 -0.01260084 0.9946138
vn 0.09991922 -0.01385744 0.994899
vn -0.1035174 0.01134642 -0.9945629
vn -0.09975126 0.01260173 -0.9949326
vn -0.09975126 0.01260173 -0.9949326
vn -0.0959738 0.01386007 -0.9952874
vn 0.07261511 -0.0146895 0.9972519
vn 0.07453075 -0.01387058 0.9971222
vn 0.07261511 -0.0146895 0.9972519
vn 0.07069699 -0.01550928 0.9973772
vn -0.07278392 0.01387115 -0.9972512
vn -0.07030703 0.01469074 -0.9974172
vn -0.07030703 0.01469074 -0.9974172
vn -0.06782608 0.01551141 -0.9975765
vn 0.04115802 -0.01591916 0.9990258
vn 0.04210852 -0.01552472 0.9989924
vn 0.04115802 -0.01591916 0.9990258
vn 0.04020703 -0.01631377 0.9990582
vn -0.04052105 0.0155252 -0.9990581
vn -0.03936725 0.01591985 -0.999098
vn -0.03936725 0.01591985 -0.999098
vn -0.03821273 0.01631471 -0.9991364
vn 0.01416986 -0.01636648 0.9997656
vn 0.01445266 -0.01632082 0.9997624
vn 0.01416986 -0.01636648 0.9997656
vn 0.01388702 -0.01641215 0.9997689
vn -0.01946297 0.0163203 -0.9996774
vn -0.01923955 0.01636592 -0.999681
vn -0.01923955 0.01636592 -0.999681
vn -0.0190161 0.01641155 -0.9996845

vt 0 0
vt 0 0
vt 0 0
vt 0 0
vt 0 0
vt 0 0
vt 0 0
vt 0 0
vt 0 0
vt 0 0
vt 0 0
vt 0 0
vt 0 0
vt 0 0
vt 0 0
vt 0 0
vt 0 0
vt 0 0
vt 0 0
vt 0 0
vt 0 0
vt 0 0
vt 0 0
vt 0 0
vt 0 0
vt 0 0
vt 0 0
vt 0 0
vt 0 0
vt 0 0
vt 0 0
vt 0 0
vt 0 0
vt 0 0
vt 0 0
vt 0 0
vt 0 0
vt 0 0
vt 0 0
vt 0 0
vt 0 0
vt 0 0
vt 0 0
vt 0 0
vt 0 0
vt 0 0
vt 0 0
vt 0 0
vt 0 0
vt 0 0
vt 0 0
vt 0 0
vt 0 0
vt 0 0
vt 0 0
vt 0 0
vt 0 0
vt 0 0
vt 0 0
vt 0 0
vt 0 0
vt 0 0
vt 0 0
vt 0 0
vt 0 0
vt 0 0
vt 0 0
vt 0 0
vt 0 0
vt 0 0
vt 0 0
vt 0 0
vt 0 0
vt 0 0
vt 0 0
vt 0 0
vt 0 0
vt 0 0
vt 0 0
vt 0 0
vt 0 0
vt 0 0
vt 0 0
vt 0 0
vt 0 0
vt 0 0
vt 0 0
vt 0 0
vt 0 0
vt 0 0
vt 0 0
vt 0 0
vt 0 0
vt 0 0
vt 0 0
vt 0 0
vt 0 0
vt 0 0
vt 0 0
vt 0 0
vt 0 0
vt 0 0
vt 0 0
vt 0 0
vt 0 0
vt 0 0
vt 0 0
vt 0 0
vt 0 0
vt 0 0
vt 0 0
vt 0 0
vt 0 0
vt 0 0
vt 0 0
vt 0 0
vt 0 0
vt 0 0
vt 0 0
vt 0 0
vt 0 0
vt 0 0
vt 0 0
vt 0 0
vt 0 0
vt 0 0
vt 0 0
vt 0 0
vt 0 0
vt 0 0
vt 0 0
vt 0 0
vt 0 0
vt 0 0
vt 0 0
vt 0 0
vt 0 0
vt 0 0
vt 0 0
vt 0 0
vt 0 0
vt 0 0
vt 0 0
vt 0 0
vt 0 0
vt 0 0
vt 0 0
vt 0 0
vt 0 0
vt 0 0
vt 0 0
vt 0 0
vt 0 0
vt 0 0
vt 0 0
vt 0 0
vt 0 0
vt 0 0
vt 0 0
vt 0 0
vt 0 0
vt 0 0
vt 0 0
vt 0 0
vt 0 0
vt 0 0
vt 0 0
vt 0 0

g Track Texture
usemtl Track Texture
usemap Track Texture
f 2/2/2 1/1/1 3/3/3
f 3/3/3 1/1/1 4/4/4
f 6/6/6 5/5/5 7/7/7
f 6/6/6 7/7/7 8/8/8
f 10/10/10 9/9/9 11/11/11
f 11/11/11 9/9/9 12/12/12
f 14/14/14 13/13/13 15/15/15
f 14/14/14 15/15/15 16/16/16
f 18/18/18 17/17/17 19/19/19
f 19/19/19 17/17/17 20/20/20
f 22/22/22 21/21/21 23/23/23
f 22/22/22 23/23/23 24/24/24
f 26/26/26 25/25/25 27/27/27
f 27/27/27 25/25/25 28/28/28
f 30/30/30 29/29/29 31/31/31
f 30/30/30 31/31/31 32/32/32
f 34/34/34 33/33/33 35/35/35
f 35/35/35 33/33/33 36/36/36
f 38/38/38 37/37/37 39/39/39
f 38/38/38 39/39/39 40/40/40
f 42/42/42 41/41/41 43/43/43
f 43/43/43 41/41/41 44/44/44
f 46/46/46 45/45/45 47/47/47
f 46/46/46 47/47/47 48/48/48
f 50/50/50 49/49/49 51/51/51
f 51/51/51 49/49/49 52/52/52
f 54/54/54 53/53/53 55/55/55
f 54/54/54 55/55/55 56/56/56
f 58/58/58 57/57/57 59/59/59
f 59/59/59 57/57/57 60/60/60
f 62/62/62 61/61/61 63/63/63
f 62/62/62 63/63/63 64/64/64
f 66/66/66 65/65/65 67/67/67
f 67/67/67 65/65/65 68/68/68
f 70/70/70 69/69/69 71/71/71
f 70/70/70 71/71/71 72/72/72
f 74/74/74 73/73/73 75/75/75
f 75/75/75 73/73/73 76/76/76
f 78/78/78 77/77/77 79/79/79
f 78/78/78 79/79/79 80/80/80
f 82/82/82 81/81/81 83/83/83
f 83/83/83 81/81/81 84/84/84
f 86/86/86 85/85/85 87/87/87
f 86/86/86 87/87/87 88/88/88
f 90/90/90 89/89/89 91/91/91
f 91/91/91 89/89/89 92/92/92
f 94/94/94 93/93/93 95/95/95
f 94/94/94 95/95/95 96/96/96
f 98/98/98 97/97/97 99/99/99
f 99/99/99 97/97/97 100/100/100
f 102/102/102 101/101/101 103/103/103
f 102/102/102 103/103/103 104/104/104
f 106/106/106 105/105/105 107/107/107
f 107/107/107 105/105/105 108/108/108
f 110/110/110 109/109/109 111/111/111
f 110/110/110 111/111/111 112/112/112
f 114/114/114 113/113/113 115/115/115
f 115/115/115 113/113/113 116/116/116
f 118/118/118 117/117/117 119/119/119
f 118/118/118 119/119/119 120/120/120
f 122/122/122 121/121/121 123/123/123
f 123/123/123 121/121/121 124/124/124
f 126/126/126 125/125/125 127/127/127
f 126/126/126 127/127/127 128/128/128
f 130/130/130 129/129/129 131/131/131
f 131/131/131 129/129/129 132/132/132
f 134/134/134 133/133/133 135/135/135
f 134/134/134 135/135/135 136/136/136
f 138/138/138 137/137/137 139/139/139
f 139/139/139 137/137/137 140/140/140
f 142/142/142 141/141/141 143/143/143
f 142/142/142 143/143/143 144/144/144
f 146/146/146 145/145/145 147/147/147
f 147/147/147 145/145/145 148/148/148
f 150/150/150 149/149/149 151/151/151
f 150/150/150 151/151/151 152/152/152
f 154/154/154 153/153/153 155/155/155
f 155/155/155 153/153/153 156/156/156
f 158/158/158 157/157/157 159/159/159
f 158/158/158 159/159/159 160/160/160
f 162/162/162 161/161/161 163/163/163
f 163/163/163 161/161/161 164/164/164
f 166/166/166 165/165/165 167/167/167
f 166/166/166 167/167/167 168/168/168
