mtllib ./Track1_trackCollider_11.mtl
# Unity Asset Buildr OBJ Exporter
 http://buildr.jasperstocker.com
g Track1_trackCollider_11
v 70.90378 0.001425375 32.9379
v 72.60253 1.20039E-06 32.10793
v 72.60253 5.000001 32.10793
v 70.90321 5.001425 32.93712
v 66.0181 -1.20039E-06 18.63034
v 64.25014 -0.001425375 19.49435
v 66.0181 4.999999 18.63034
v 64.24957 4.998575 19.49357
v 69.29579 0.005855096 33.74411
v 70.90378 0.001425375 32.9379
v 70.90321 5.001425 32.93712
v 69.29348 5.005853 33.74091
v 64.25014 -0.001425375 19.49435
v 62.48991 -0.005855096 20.37698
v 64.24957 4.998575 19.49357
v 62.4876 4.994143 20.37378
v 67.6982 0.013892 34.56976
v 69.29579 0.005855096 33.74411
v 69.29348 5.005853 33.74091
v 67.69271 5.013884 34.56219
v 62.48991 -0.005855096 20.37698
v 60.71043 -0.013892 21.29685
v 62.4876 4.994143 20.37378
v 60.70493 4.986099 21.28928
v 66.13831 0.02615447 35.40595
v 67.6982 0.013892 34.56976
v 67.69271 5.013884 34.56219
v 66.12795 5.026124 35.39174
v 60.71043 -0.013892 21.29685
v 58.92676 -0.02615447 22.25335
v 60.70493 4.986099 21.28928
v 58.91641 4.973814 22.23914
v 64.62794 0.0434709 36.25232
v 66.13831 0.02615447 35.40595
v 66.12795 5.026124 35.39174
v 64.6107 5.043386 36.22881
v 58.92676 -0.02615447 22.25335
v 57.13691 -0.0434709 23.25706
v 58.91641 4.973814 22.23914
v 57.11967 4.956444 23.23355
v 63.17369 0.06708577 37.11326
v 64.62794 0.0434709 36.25232
v 64.6107 5.043386 36.22881
v 63.147 5.066885 37.07717
v 57.13691 -0.0434709 23.25706
v 55.32682 -0.06708577 24.33013
v 57.11967 4.956444 23.23355
v 55.30012 4.932713 24.29404
v 61.79884 0.09858991 37.98581
v 63.17369 0.06708577 37.11326
v 63.147 5.066885 37.07717
v 61.7594 5.098156 37.9331
v 55.32682 -0.06708577 24.33013
v 53.48988 -0.09858991 25.49893
v 55.30012 4.932713 24.29404
v 53.45044 4.900976 25.44623
v 60.54591 0.139837 38.85545
v 61.79884 0.09858991 37.98581
v 61.7594 5.098156 37.9331
v 60.48951 5.138968 38.78121
v 53.48988 -0.09858991 25.49893
v 51.62502 -0.139837 26.79976
v 53.45044 4.900976 25.44623
v 51.56862 4.859294 26.72552
v 59.45398 0.1933391 39.70794
v 60.54591 0.139837 38.85545
v 60.48951 5.138968 38.78121
v 59.37496 5.191674 39.60593
v 51.62502 -0.139837 26.79976
v 49.7224 -0.1933391 28.29976
v 51.56862 4.859294 26.72552
v 49.64338 4.804996 28.19775
v 58.57855 0.2607507 40.50795
v 59.45398 0.1933391 39.70794
v 59.37496 5.191674 39.60593
v 58.4695 5.257676 40.37067
v 49.7224 -0.1933391 28.29976
v 47.80591 -0.2607507 30.0833
v 49.64338 4.804996 28.19775
v 47.69685 4.736175 29.94602
v 57.93397 0.3408382 41.2377
v 58.57855 0.2607507 40.50795
v 58.4695 5.257676 40.37067
v 57.7857 5.335367 41.05687
v 47.80591 -0.2607507 30.0833
v 45.96545 -0.3408382 32.22313
v 47.69685 4.736175 29.94602
v 45.81718 4.653691 32.0423
v 57.43692 0.4280991 41.99216
v 57.93397 0.3408382 41.2377
v 57.7857 5.335367 41.05687
v 57.23969 5.418836 41.76056
v 45.96545 -0.3408382 32.22313
v 44.38416 -0.4280991 34.65783
v 45.81718 4.653691 32.0423
v 44.18693 4.562638 34.42622
v 56.96069 0.5167532 42.99158
v 57.43692 0.4280991 41.99216
v 57.23969 5.418836 41.76056
v 56.708 5.502236 42.70678
v 44.38416 -0.4280991 34.65783
v 43.21547 -0.5167532 37.09545
v 44.18693 4.562638 34.42622
v 42.96278 4.468729 36.81065
v 56.41607 0.6080381 44.4117
v 56.96069 0.5167532 42.99158
v 56.708 5.502236 42.70678
v 56.10748 5.587301 44.07745
v 43.21547 -0.5167532 37.09545
v 42.40549 -0.6080381 39.23085
v 42.96278 4.468729 36.81065
v 42.09691 4.371225 38.8966
v 55.75729 0.7031396 46.21909
v 56.41607 0.6080381 44.4117
v 56.10748 5.587301 44.07745
v 55.39734 5.675945 45.84272
v 42.40549 -0.6080381 39.23085
v 41.77882 -0.7031396 41.00742
v 42.09691 4.371225 38.8966
v 41.41887 4.269665 40.63105
v 54.96592 0.7954169 48.23398
v 55.75729 0.7031396 46.21909
v 55.39734 5.675945 45.84272
v 54.56181 5.762149 47.82378
v 41.77882 -0.7031396 41.00742
v 41.19863 -0.7954169 42.53506
v 41.41887 4.269665 40.63105
v 40.79452 4.171315 42.12486
v 54.04411 0.8773662 50.30204
v 54.96592 0.7954169 48.23398
v 54.56181 5.762149 47.82378
v 53.60349 5.838736 49.86539
v 41.19863 -0.7954169 42.53506
v 40.58602 -0.8773662 43.94464
v 40.79452 4.171315 42.12486
v 40.1454 4.084003 43.508
v 53.01398 0.9450071 52.32994
v 54.04411 0.8773662 50.30204
v 53.60349 5.838736 49.86539
v 52.54406 5.901861 51.87302
v 40.58602 -0.8773662 43.94464
v 39.90623 -0.9450071 45.30709
v 40.1454 4.084003 43.508
v 39.43631 4.011847 44.85017
v 51.89801 0.9982324 54.28435
v 53.01398 0.9450071 52.32994
v 52.54406 5.901861 51.87302
v 51.40502 5.951403 53.81205
v 39.90623 -0.9450071 45.30709
v 39.14399 -0.9982324 46.65939
v 39.43631 4.011847 44.85017
v 38.651 3.954938 46.18709
v 50.71672 1.038612 56.15665
v 51.89801 0.9982324 54.28435
v 51.40502 5.951403 53.81205
v 50.20599 5.988874 55.67285
v 39.14399 -0.9982324 46.65939
v 38.29863 -1.038612 48.01192
v 38.651 3.954938 46.18709
v 37.78789 3.911649 47.52812
v 49.49139 1.068138 57.94244
v 50.71672 1.038612 56.15665
v 50.20599 5.988874 55.67285
v 48.96745 6.016194 57.45027
v 38.29863 -1.038612 48.01192
v 37.38393 -1.068138 49.35416
v 37.78789 3.911649 47.52812
v 36.85999 3.879919 48.86199
v 48.22216 1.088997 59.66566
v 49.49139 1.068138 57.94244
v 48.96745 6.016194 57.45027
v 47.68872 6.035444 59.16756
v 37.38393 -1.068138 49.35416
v 36.39548 -1.088997 50.70265
v 36.85999 3.879919 48.86199
v 35.86203 3.85745 50.20456
v 46.92417 1.102715 61.32468
v 48.22216 1.088997 59.66566
v 47.68872 6.035444 59.16756
v 46.3844 6.048083 60.82269
v 36.39548 -1.088997 50.70265
v 35.35121 -1.102715 52.04154
v 35.86203 3.85745 50.20456
v 34.81144 3.842654 51.53955
v 45.6006 1.110636 62.93087
v 46.92417 1.102715 61.32468
v 46.3844 6.048083 60.82269
v 45.05721 6.055381 62.42667
v 35.35121 -1.102715 52.04154
v 34.25514 -1.110636 53.37393
v 34.81144 3.842654 51.53955
v 33.71175 3.83411 52.86973
v 44.30027 1.113512 64.44003
v 45.6006 1.110636 62.93087
v 45.05721 6.055381 62.42667
v 43.75556 6.05803 63.93502
v 34.25514 -1.110636 53.37393
v 33.07782 -1.113512 54.73997
v 33.71175 3.83411 52.86973
v 32.53312 3.831007 54.23496
v 44.08616 1.113765 64.68317
v 44.30027 1.113512 64.44003
v 43.75556 6.05803 63.93502
v 43.54144 6.05828 64.17815
v 33.07782 -1.113512 54.73997
v 32.92369 -1.113765 54.91417
v 32.53312 3.831007 54.23496
v 32.37897 3.830749 54.40915

vn -0.4387596 -9.50433E-05 -0.8986045
vn -0.4389853 0 -0.8984942
vn -0.4387596 -9.50433E-05 -0.8986045
vn -0.4385338 -0.0001900784 -0.8987147
vn 0.4390757 0 0.8984501
vn 0.4388587 9.504619E-05 0.8985562
vn 0.4388587 9.504619E-05 0.8985562
vn 0.4386416 0.0001900844 0.8986621
vn -0.4474665 -0.000484866 -0.8943006
vn -0.4481978 -0.0001904275 -0.8939344
vn -0.4474665 -0.000484866 -0.8943006
vn -0.4467351 -0.0007792255 -0.8946659
vn 0.4482374 0.0001904233 0.8939146
vn 0.4475674 0.0004852139 0.8942501
vn 0.4475674 0.0004852139 0.8942501
vn 0.4468974 0.0007799318 0.8945849
vn -0.4578085 -0.001315068 -0.8890498
vn -0.4591269 -0.000780936 -0.8883704
vn -0.4578085 -0.001315068 -0.8890498
vn -0.4564896 -0.001848951 -0.8897269
vn 0.4592009 0.0007816239 0.8883321
vn 0.458014 0.001315619 0.888944
vn 0.458014 0.001315619 0.888944
vn 0.4568266 0.001849392 0.8895538
vn -0.4704396 -0.002667584 -0.8824282
vn -0.4724643 -0.00185382 -0.8813478
vn -0.4704396 -0.002667584 -0.8824282
vn -0.4684134 -0.003480796 -0.8835026
vn 0.4725809 0.001854181 0.8812853
vn 0.4708024 0.002667736 0.8822346
vn 0.4708024 0.002667736 0.8822346
vn 0.4690227 0.003480809 0.8831792
vn -0.4859947 -0.004637698 -0.8739494
vn -0.4888809 -0.003491469 -0.8723435
vn -0.4859947 -0.004637698 -0.8739494
vn -0.4831051 -0.005782881 -0.8755433
vn 0.489092 0.003491231 0.8722252
vn 0.4866394 0.004638121 0.8735906
vn 0.4866394 0.004638121 0.8735906
vn 0.4841841 0.005784132 0.874947
vn -0.5055237 -0.007363809 -0.8627813
vn -0.5094962 -0.005802943 -0.8604534
vn -0.5055237 -0.007363809 -0.8627813
vn -0.5015436 -0.008922849 -0.8650864
vn 0.5098864 0.005803524 0.8602221
vn 0.5066667 0.007364835 0.8621106
vn 0.5066667 0.007364835 0.8621106
vn 0.5034414 0.008924698 0.8639833
vn -0.5305763 -0.01103582 -0.8475654
vn -0.5359675 -0.008955847 -0.8441912
vn -0.5305763 -0.01103582 -0.8475654
vn -0.5251679 -0.0131128 -0.8508976
vn 0.5366911 0.008956065 0.8437313
vn 0.5326083 0.01103778 0.84629
vn 0.5326083 0.01103778 0.84629
vn 0.5285144 0.01311732 0.848823
vn -0.5630896 -0.01588701 -0.826243
vn -0.5704374 -0.01315724 -0.8212356
vn -0.5630896 -0.01588701 -0.826243
vn -0.5557022 -0.01861206 -0.831173
vn 0.5718663 0.01315802 0.8202413
vn 0.5668575 0.01589051 0.8236626
vn 0.5668575 0.01589051 0.8236626
vn 0.5618276 0.01862018 0.8270448
vn -0.6056802 -0.02222625 -0.7953976
vn -0.6158487 -0.01864418 -0.7876438
vn -0.6056802 -0.02222625 -0.7953976
vn -0.5954135 -0.0258014 -0.8030049
vn 0.6186891 0.01864341 0.7854146
vn 0.6127576 0.02222637 0.7899582
vn 0.6127576 0.02222637 0.7899582
vn 0.6067863 0.02580652 0.794446
vn -0.6610288 -0.0303873 -0.749745
vn -0.67545 -0.02571881 -0.7369572
vn -0.6610288 -0.0303873 -0.749745
vn -0.6463379 -0.03504692 -0.7622461
vn 0.6805484 0.02570338 0.7322521
vn 0.6738648 0.03035318 0.738231
vn 0.6738648 0.03035318 0.738231
vn 0.6671081 0.03500275 0.7441382
vn -0.7309452 -0.04051413 -0.6812325
vn -0.7509143 -0.03450644 -0.6594975
vn -0.7309452 -0.04051413 -0.6812325
vn -0.7102038 -0.04651605 -0.7024578
vn 0.7570617 0.03444657 0.6524349
vn 0.7500061 0.04033539 0.6601999
vn 0.7500061 0.04033539 0.6601999
vn 0.7428244 0.04623283 0.6678882
vn -0.815105 -0.05203487 -0.5769715
vn -0.8365993 -0.04460357 -0.5459964
vn -0.815105 -0.05203487 -0.5769715
vn -0.7920684 -0.05949564 -0.6075261
vn 0.8370769 0.04459126 0.545265
vn 0.8301251 0.05165448 0.5551795
vn 0.8301251 0.05165448 0.5551795
vn 0.8229716 0.05874512 0.5650368
vn -0.8884141 -0.06359985 -0.4546158
vn -0.9032601 -0.05544242 -0.4254967
vn -0.8884141 -0.06359985 -0.4546158
vn -0.8722312 -0.07184669 -0.483788
vn 0.899533 0.05565692 0.4332928
vn 0.8930196 0.06333766 0.4455383
vn 0.8930196 0.06333766 0.4455383
vn 0.8862213 0.07106994 0.4577781
vn -0.9241812 -0.07531849 -0.3744547
vn -0.9330077 -0.06748277 -0.3534726
vn -0.9241812 -0.07531849 -0.3744547
vn -0.9146605 -0.08323853 -0.3955599
vn 0.9318976 0.06759193 0.3563683
vn 0.9256492 0.0751766 0.3708396
vn 0.9256492 0.0751766 0.3708396
vn 0.9190406 0.08282546 0.3853626
vn -0.931695 -0.08775628 -0.3524814
vn -0.9378248 -0.08078192 -0.3375781
vn -0.931695 -0.08775628 -0.3524814
vn -0.9252051 -0.09478071 -0.3674399
vn 0.9386118 0.08068496 0.3354071
vn 0.9321454 0.08770234 0.3513023
vn 0.9321454 0.08770234 0.3513023
vn 0.9252759 0.09477247 0.3672636
vn -0.9230623 -0.100343 -0.3713318
vn -0.9280857 -0.09444062 -0.3601914
vn -0.9230623 -0.100343 -0.3713318
vn -0.9178322 -0.1062676 -0.3824804
vn 0.928771 0.09435787 0.3584426
vn 0.922008 0.1004659 0.373909
vn 0.922008 0.1004659 0.373909
vn 0.9148796 0.1065988 0.3893996
vn -0.905264 -0.111982 -0.4098258
vn -0.909687 -0.1071537 -0.4012327
vn -0.905264 -0.111982 -0.4098258
vn -0.9007169 -0.1168167 -0.4184052
vn 0.9095558 0.1071672 0.4015263
vn 0.902985 0.1122091 0.4147614
vn 0.902985 0.1122091 0.4147614
vn 0.8961533 0.1172535 0.4279732
vn -0.8830025 -0.1219004 -0.4532624
vn -0.8869117 -0.1180716 -0.4465948
vn -0.8830025 -0.1219004 -0.4532624
vn -0.8790194 -0.125728 -0.45991
vn 0.8861828 0.1181326 0.4480233
vn 0.8803273 0.1221158 0.4583792
vn 0.8803273 0.1221158 0.4583792
vn 0.8743151 0.1260917 0.468694
vn -0.859493 -0.1298684 -0.4943743
vn -0.8628662 -0.1269005 -0.4892426
vn -0.859493 -0.1298684 -0.4943743
vn -0.8560771 -0.1328327 -0.4994872
vn 0.8619462 0.1269611 0.490846
vn 0.8570634 0.1300224 0.4985345
vn 0.8570634 0.1300224 0.4985345
vn 0.8520959 0.1330751 0.5061854
vn -0.8366259 -0.1360201 -0.5306182
vn -0.8394351 -0.1337747 -0.5267379
vn -0.8366259 -0.1360201 -0.5306182
vn -0.8337929 -0.138262 -0.5344839
vn 0.8385619 0.1338192 0.5281159
vn 0.8346795 0.1361156 0.5336501
vn 0.8346795 0.1361156 0.5336501
vn 0.8307545 0.1384052 0.5391577
vn -0.8153901 -0.1406044 -0.5615777
vn -0.8176284 -0.1389633 -0.5587244
vn -0.8153901 -0.1406044 -0.5615777
vn -0.8131393 -0.1422428 -0.5644213
vn 0.8169131 0.138991 0.559763
vn 0.813947 0.1406582 0.5636536
vn 0.813947 0.1406582 0.5636536
vn 0.8109606 0.1423211 0.5675277
vn -0.7960571 -0.143906 -0.5878641
vn -0.797749 -0.1427446 -0.5858502
vn -0.7960571 -0.143906 -0.5878641
vn -0.7943593 -0.1450657 -0.5898723
vn 0.7972184 0.1427598 0.5865683
vn 0.7950684 0.1439334 0.5891939
vn 0.7950684 0.1439334 0.5891939
vn 0.7929093 0.1451045 0.5918105
vn -0.778627 -0.1461718 -0.6102244
vn -0.7798021 -0.1454122 -0.6089039
vn -0.778627 -0.1461718 -0.6102244
vn -0.7774494 -0.1469306 -0.6115422
vn 0.7794138 0.1454202 0.609399
vn 0.7779675 0.1461849 0.6110618
vn 0.7779675 0.1461849 0.6110618
vn 0.7765177 0.1469485 0.6127204
vn -0.7629926 -0.1475885 -0.629333
vn -0.7636905 -0.147159 -0.6285866
vn -0.7629926 -0.1475885 -0.629333
vn -0.7622939 -0.1480176 -0.6300784
vn 0.7634337 0.1471625 0.6288975
vn 0.7625989 0.1475938 0.6298088
vn 0.7625989 0.1475938 0.6298088
vn 0.761763 0.1480246 0.6307186
vn -0.7490845 -0.1483108 -0.6456595
vn -0.7493546 -0.1481562 -0.6453816
vn -0.7490845 -0.1483108 -0.6456595
vn -0.7488143 -0.1484653 -0.6459373
vn 0.7489774 0.1481593 0.6458186
vn 0.7486805 0.148314 0.6461273
vn 0.7486805 0.148314 0.6461273
vn 0.7483833 0.1484687 0.6464359
vn -0.7422214 -0.1485128 -0.6534917
vn -0.7422443 -0.1485105 -0.6534662
vn -0.7422214 -0.1485128 -0.6534917
vn -0.7421984 -0.1485151 -0.6535172
vn 0.7405177 0.1485198 0.6554201
vn 0.7404858 0.1485222 0.6554555
vn 0.7404858 0.1485222 0.6554555
vn 0.740454 0.1485245 0.6554908

vt 0 0
vt 0 0
vt 0 0
vt 0 0
vt 0 0
vt 0 0
vt 0 0
vt 0 0
vt 0 0
vt 0 0
vt 0 0
vt 0 0
vt 0 0
vt 0 0
vt 0 0
vt 0 0
vt 0 0
vt 0 0
vt 0 0
vt 0 0
vt 0 0
vt 0 0
vt 0 0
vt 0 0
vt 0 0
vt 0 0
vt 0 0
vt 0 0
vt 0 0
vt 0 0
vt 0 0
vt 0 0
vt 0 0
vt 0 0
vt 0 0
vt 0 0
vt 0 0
vt 0 0
vt 0 0
vt 0 0
vt 0 0
vt 0 0
vt 0 0
vt 0 0
vt 0 0
vt 0 0
vt 0 0
vt 0 0
vt 0 0
vt 0 0
vt 0 0
vt 0 0
vt 0 0
vt 0 0
vt 0 0
vt 0 0
vt 0 0
vt 0 0
vt 0 0
vt 0 0
vt 0 0
vt 0 0
vt 0 0
vt 0 0
vt 0 0
vt 0 0
vt 0 0
vt 0 0
vt 0 0
vt 0 0
vt 0 0
vt 0 0
vt 0 0
vt 0 0
vt 0 0
vt 0 0
vt 0 0
vt 0 0
vt 0 0
vt 0 0
vt 0 0
vt 0 0
vt 0 0
vt 0 0
vt 0 0
vt 0 0
vt 0 0
vt 0 0
vt 0 0
vt 0 0
vt 0 0
vt 0 0
vt 0 0
vt 0 0
vt 0 0
vt 0 0
vt 0 0
vt 0 0
vt 0 0
vt 0 0
vt 0 0
vt 0 0
vt 0 0
vt 0 0
vt 0 0
vt 0 0
vt 0 0
vt 0 0
vt 0 0
vt 0 0
vt 0 0
vt 0 0
vt 0 0
vt 0 0
vt 0 0
vt 0 0
vt 0 0
vt 0 0
vt 0 0
vt 0 0
vt 0 0
vt 0 0
vt 0 0
vt 0 0
vt 0 0
vt 0 0
vt 0 0
vt 0 0
vt 0 0
vt 0 0
vt 0 0
vt 0 0
vt 0 0
vt 0 0
vt 0 0
vt 0 0
vt 0 0
vt 0 0
vt 0 0
vt 0 0
vt 0 0
vt 0 0
vt 0 0
vt 0 0
vt 0 0
vt 0 0
vt 0 0
vt 0 0
vt 0 0
vt 0 0
vt 0 0
vt 0 0
vt 0 0
vt 0 0
vt 0 0
vt 0 0
vt 0 0
vt 0 0
vt 0 0
vt 0 0
vt 0 0
vt 0 0
vt 0 0
vt 0 0
vt 0 0
vt 0 0
vt 0 0
vt 0 0
vt 0 0
vt 0 0
vt 0 0
vt 0 0
vt 0 0
vt 0 0
vt 0 0
vt 0 0
vt 0 0
vt 0 0
vt 0 0
vt 0 0
vt 0 0
vt 0 0
vt 0 0
vt 0 0
vt 0 0
vt 0 0
vt 0 0
vt 0 0
vt 0 0
vt 0 0
vt 0 0
vt 0 0
vt 0 0
vt 0 0
vt 0 0
vt 0 0
vt 0 0
vt 0 0
vt 0 0
vt 0 0
vt 0 0
vt 0 0
vt 0 0
vt 0 0
vt 0 0
vt 0 0
vt 0 0
vt 0 0

g Track Texture
usemtl Track Texture
usemap Track Texture
f 2/2/2 1/1/1 3/3/3
f 3/3/3 1/1/1 4/4/4
f 6/6/6 5/5/5 7/7/7
f 6/6/6 7/7/7 8/8/8
f 10/10/10 9/9/9 11/11/11
f 11/11/11 9/9/9 12/12/12
f 14/14/14 13/13/13 15/15/15
f 14/14/14 15/15/15 16/16/16
f 18/18/18 17/17/17 19/19/19
f 19/19/19 17/17/17 20/20/20
f 22/22/22 21/21/21 23/23/23
f 22/22/22 23/23/23 24/24/24
f 26/26/26 25/25/25 27/27/27
f 27/27/27 25/25/25 28/28/28
f 30/30/30 29/29/29 31/31/31
f 30/30/30 31/31/31 32/32/32
f 34/34/34 33/33/33 35/35/35
f 35/35/35 33/33/33 36/36/36
f 38/38/38 37/37/37 39/39/39
f 38/38/38 39/39/39 40/40/40
f 42/42/42 41/41/41 43/43/43
f 43/43/43 41/41/41 44/44/44
f 46/46/46 45/45/45 47/47/47
f 46/46/46 47/47/47 48/48/48
f 50/50/50 49/49/49 51/51/51
f 51/51/51 49/49/49 52/52/52
f 54/54/54 53/53/53 55/55/55
f 54/54/54 55/55/55 56/56/56
f 58/58/58 57/57/57 59/59/59
f 59/59/59 57/57/57 60/60/60
f 62/62/62 61/61/61 63/63/63
f 62/62/62 63/63/63 64/64/64
f 66/66/66 65/65/65 67/67/67
f 67/67/67 65/65/65 68/68/68
f 70/70/70 69/69/69 71/71/71
f 70/70/70 71/71/71 72/72/72
f 74/74/74 73/73/73 75/75/75
f 75/75/75 73/73/73 76/76/76
f 78/78/78 77/77/77 79/79/79
f 78/78/78 79/79/79 80/80/80
f 82/82/82 81/81/81 83/83/83
f 83/83/83 81/81/81 84/84/84
f 86/86/86 85/85/85 87/87/87
f 86/86/86 87/87/87 88/88/88
f 90/90/90 89/89/89 91/91/91
f 91/91/91 89/89/89 92/92/92
f 94/94/94 93/93/93 95/95/95
f 94/94/94 95/95/95 96/96/96
f 98/98/98 97/97/97 99/99/99
f 99/99/99 97/97/97 100/100/100
f 102/102/102 101/101/101 103/103/103
f 102/102/102 103/103/103 104/104/104
f 106/106/106 105/105/105 107/107/107
f 107/107/107 105/105/105 108/108/108
f 110/110/110 109/109/109 111/111/111
f 110/110/110 111/111/111 112/112/112
f 114/114/114 113/113/113 115/115/115
f 115/115/115 113/113/113 116/116/116
f 118/118/118 117/117/117 119/119/119
f 118/118/118 119/119/119 120/120/120
f 122/122/122 121/121/121 123/123/123
f 123/123/123 121/121/121 124/124/124
f 126/126/126 125/125/125 127/127/127
f 126/126/126 127/127/127 128/128/128
f 130/130/130 129/129/129 131/131/131
f 131/131/131 129/129/129 132/132/132
f 134/134/134 133/133/133 135/135/135
f 134/134/134 135/135/135 136/136/136
f 138/138/138 137/137/137 139/139/139
f 139/139/139 137/137/137 140/140/140
f 142/142/142 141/141/141 143/143/143
f 142/142/142 143/143/143 144/144/144
f 146/146/146 145/145/145 147/147/147
f 147/147/147 145/145/145 148/148/148
f 150/150/150 149/149/149 151/151/151
f 150/150/150 151/151/151 152/152/152
f 154/154/154 153/153/153 155/155/155
f 155/155/155 153/153/153 156/156/156
f 158/158/158 157/157/157 159/159/159
f 158/158/158 159/159/159 160/160/160
f 162/162/162 161/161/161 163/163/163
f 163/163/163 161/161/161 164/164/164
f 166/166/166 165/165/165 167/167/167
f 166/166/166 167/167/167 168/168/168
f 170/170/170 169/169/169 171/171/171
f 171/171/171 169/169/169 172/172/172
f 174/174/174 173/173/173 175/175/175
f 174/174/174 175/175/175 176/176/176
f 178/178/178 177/177/177 179/179/179
f 179/179/179 177/177/177 180/180/180
f 182/182/182 181/181/181 183/183/183
f 182/182/182 183/183/183 184/184/184
f 186/186/186 185/185/185 187/187/187
f 187/187/187 185/185/185 188/188/188
f 190/190/190 189/189/189 191/191/191
f 190/190/190 191/191/191 192/192/192
f 194/194/194 193/193/193 195/195/195
f 195/195/195 193/193/193 196/196/196
f 198/198/198 197/197/197 199/199/199
f 198/198/198 199/199/199 200/200/200
f 202/202/202 201/201/201 203/203/203
f 203/203/203 201/201/201 204/204/204
f 206/206/206 205/205/205 207/207/207
f 206/206/206 207/207/207 208/208/208
