mtllib ./Track1_trackCollider_9.mtl
# Unity Asset Buildr OBJ Exporter
 http://buildr.jasperstocker.com
g Track1_trackCollider_9
v 152.5094 0.6090719 -10.59451
v 152.4328 0.6089112 -12.5221
v 152.0234 5.591447 -12.60399
v 152.0998 5.591583 -10.67715
v 137.4965 -0.6088806 -11.941
v 137.5732 -0.6090414 -10.01147
v 137.0871 4.373656 -12.02289
v 137.1637 4.37347 -10.0941
v 152.5824 0.6099551 -8.687744
v 152.5094 0.6090719 -10.59451
v 152.0998 5.591583 -10.67715
v 152.1723 5.592391 -8.772669
v 137.5732 -0.6090414 -10.01147
v 137.6452 -0.6099247 -8.138136
v 137.1637 4.37347 -10.0941
v 137.2351 4.37251 -8.223061
v 152.6494 0.6115562 -6.778339
v 152.5824 0.6099551 -8.687744
v 152.1723 5.592391 -8.772669
v 152.2386 5.593858 -6.867332
v 137.6452 -0.6099247 -8.138136
v 137.7104 -0.611526 -6.293336
v 137.2351 4.37251 -8.223061
v 137.2996 4.370776 -6.382328
v 152.707 0.6140873 -4.828083
v 152.6494 0.6115562 -6.778339
v 152.2386 5.593858 -6.867332
v 152.2951 5.596184 -4.923311
v 137.7104 -0.611526 -6.293336
v 137.7654 -0.6140574 -4.453365
v 137.2996 4.370776 -6.382328
v 137.3535 4.368039 -4.548593
v 152.7469 0.6178585 -2.848849
v 152.707 0.6140873 -4.828083
v 152.2951 5.596184 -4.923311
v 152.3336 5.599664 -2.952841
v 137.7654 -0.6140574 -4.453365
v 137.8027 -0.617829 -2.655147
v 137.3535 4.368039 -4.548593
v 137.3895 4.363977 -2.75914
v 152.7572 0.6233923 -0.8066273
v 152.7469 0.6178585 -2.848849
v 152.3336 5.599664 -2.952841
v 152.3424 5.604803 -0.9225613
v 137.8027 -0.617829 -2.655147
v 137.8133 -0.6233632 -0.9029127
v 137.3895 4.363977 -2.75914
v 137.3985 4.358048 -1.018847
v 152.7164 0.6316218 1.318061
v 152.7572 0.6233923 -0.8066273
v 152.3424 5.604803 -0.9225613
v 152.3 5.612513 1.186326
v 137.8133 -0.6233632 -0.9029127
v 137.7845 -0.6315934 0.7515554
v 137.3985 4.358048 -1.018847
v 137.3681 4.349298 0.6198208
v 152.5822 0.6441779 3.594379
v 152.7164 0.6316218 1.318061
v 152.3 5.612513 1.186326
v 152.1647 5.624385 3.441838
v 137.7845 -0.6315934 0.7515554
v 137.7016 -0.6441504 2.255658
v 137.3681 4.349298 0.6198208
v 137.2842 4.336057 2.103116
v 152.2637 0.6636232 6.11721
v 152.5822 0.6441779 3.594379
v 152.1647 5.624385 3.441838
v 151.8464 5.642941 5.937516
v 137.7016 -0.6441504 2.255658
v 137.5596 -0.663597 3.48439
v 137.2842 4.336057 2.103116
v 137.1423 4.315721 3.304695
v 151.5576 0.6916589 9.01125
v 152.2637 0.6636232 6.11721
v 151.8464 5.642941 5.937516
v 151.1433 5.669829 8.796458
v 137.5596 -0.663597 3.48439
v 137.3954 -0.6916343 4.270926
v 137.1423 4.315721 3.304695
v 136.981 4.286536 4.056135
v 150.1276 0.7219963 12.19858
v 151.5576 0.6916589 9.01125
v 151.1433 5.669829 8.796458
v 149.7212 5.698756 11.94041
v 137.3954 -0.6916343 4.270926
v 137.3009 -0.7219739 4.557313
v 136.981 4.286536 4.056135
v 136.8945 4.254786 4.299145
v 147.8683 0.7404796 15.11065
v 150.1276 0.7219963 12.19858
v 149.7212 5.698756 11.94041
v 147.4761 5.715717 14.80542
v 137.3009 -0.7219739 4.557313
v 137.2309 -0.7404597 4.640539
v 136.8945 4.254786 4.299145
v 136.8387 4.234777 4.335314
v 145.2859 0.7474322 17.22007
v 147.8683 0.7404796 15.11065
v 147.4761 5.715717 14.80542
v 144.9124 5.721293 16.87199
v 137.2309 -0.7404597 4.640539
v 136.8531 -0.7474149 4.909846
v 136.8387 4.234777 4.335314
v 136.4796 4.226446 4.561762
v 142.8906 0.7551997 18.62128
v 145.2859 0.7474322 17.22007
v 144.9124 5.721293 16.87199
v 142.5368 5.727948 18.23834
v 136.8531 -0.7474149 4.909846
v 135.9585 -0.7551847 5.411434
v 136.4796 4.226446 4.561762
v 135.6047 4.217563 5.028502
v 140.7597 0.7671523 19.63426
v 142.8906 0.7551997 18.62128
v 142.5368 5.727948 18.23834
v 140.4248 5.739033 19.22402
v 135.9585 -0.7551847 5.411434
v 134.6462 -0.7671394 6.029051
v 135.6047 4.217563 5.028502
v 134.3113 4.204741 5.618814
v 138.8187 0.7803805 20.46029
v 140.7597 0.7671523 19.63426
v 140.4248 5.739033 19.22402
v 138.5009 5.751594 20.02894
v 134.6462 -0.7671394 6.029051
v 133.0974 -0.7803694 6.687721
v 134.3113 4.204741 5.618814
v 132.7797 4.190844 6.256364
v 136.9788 0.7928099 21.20576
v 138.8187 0.7803805 20.46029
v 138.5009 5.751594 20.02894
v 136.6762 5.763504 20.75788
v 133.0974 -0.7803694 6.687721
v 131.4057 -0.7928004 7.37428
v 132.7797 4.190844 6.256364
v 131.103 4.177894 6.926399
v 135.2073 0.803313 21.91441
v 136.9788 0.7928099 21.20576
v 136.6762 5.763504 20.75788
v 134.9176 5.773605 21.45366
v 131.4057 -0.7928004 7.37428
v 129.646 -0.803305 8.079451
v 131.103 4.177894 6.926399
v 129.3563 4.166987 7.618701
v 133.4816 0.8117031 22.61033
v 135.2073 0.803313 21.91441
v 134.9176 5.773605 21.45366
v 133.2029 5.781683 22.13957
v 129.646 -0.803305 8.079451
v 127.8545 -0.8116964 8.802979
v 129.3563 4.166987 7.618701
v 127.5758 4.158284 8.332219
v 131.7746 0.8181769 23.31234
v 133.4816 0.8117031 22.61033
v 133.2029 5.781683 22.13957
v 131.505 5.787915 22.83377
v 127.8545 -0.8116964 8.802979
v 126.0384 -0.8181714 9.55076
v 127.5758 4.158284 8.332219
v 125.7688 4.151567 9.072195
v 130.0887 0.8229714 24.02375
v 131.7746 0.8181769 23.31234
v 131.505 5.787915 22.83377
v 129.8265 5.792525 23.5392
v 126.0384 -0.8181714 9.55076
v 124.2196 -0.822967 10.31895
v 125.7688 4.151567 9.072195
v 123.9574 4.146586 9.834405
v 128.4248 0.8263842 24.74627
v 130.0887 0.8229714 24.02375
v 129.8265 5.792525 23.5392
v 128.1684 5.795799 24.25726
v 124.2196 -0.822967 10.31895
v 122.4111 -0.8263808 11.10476
v 123.9574 4.146586 9.834405
v 122.1546 4.143034 10.61574
v 126.7812 0.8287067 25.48139
v 128.4248 0.8263842 24.74627
v 128.1684 5.795799 24.25726
v 126.529 5.798023 24.98914
v 122.4111 -0.8263808 11.10476
v 120.6174 -0.8287042 11.90734
v 122.1546 4.143034 10.61574
v 120.3653 4.140612 11.41509
v 125.1281 0.8301856 26.24298
v 126.7812 0.8287067 25.48139
v 126.529 5.798023 24.98914
v 124.8789 5.799433 25.74852
v 120.6174 -0.8287042 11.90734
v 118.8148 -0.8301839 12.73805
v 120.3653 4.140612 11.41509
v 118.5657 4.139064 12.24358
v 123.5018 0.8309938 27.01427
v 125.1281 0.8301856 26.24298
v 124.8789 5.799433 25.74852
v 123.2544 5.8002 26.51851
v 118.8148 -0.8301839 12.73805
v 117.0395 -0.830993 13.58016
v 118.5657 4.139064 12.24358
v 116.7921 4.138214 13.0844
v 121.8359 0.8312724 27.82691
v 123.5018 0.8309938 27.01427
v 123.2544 5.8002 26.51851
v 121.5892 5.800464 27.33064
v 117.0395 -0.830993 13.58016
v 115.2868 -0.8312723 14.4349
v 116.7921 4.138214 13.0844
v 115.0402 4.137919 13.93863
v 121.4804 0.8312465 28.00284
v 121.8359 0.8312724 27.82691
v 121.5892 5.800464 27.33064
v 121.2337 5.800438 27.50655
v 115.2868 -0.8312723 14.4349
v 114.9926 -0.8312465 14.58106
v 115.0402 4.137919 13.93863
v 114.7459 4.137946 14.08478

vn -0.9959139 -0.08119885 0.03952676
vn -0.9959136 -0.08118578 0.03955913
vn -0.9959139 -0.08119885 0.03952676
vn -0.995914 -0.08121193 0.03949438
vn 0.9959127 0.08118529 -0.03958444
vn 0.9959129 0.08119836 -0.0395521
vn 0.9959129 0.08119836 -0.0395521
vn 0.9959131 0.08121143 -0.03951975
vn -0.9959651 -0.08127622 0.03804859
vn -0.9959646 -0.08123852 0.03814287
vn -0.9959651 -0.08127622 0.03804859
vn -0.9959657 -0.08131396 0.0379542
vn 0.9959627 0.08123748 -0.03819541
vn 0.9959633 0.0812752 -0.03809943
vn 0.9959633 0.0812752 -0.03809943
vn 0.9959638 0.08131297 -0.03800334
vn -0.996067 -0.081439 0.03489955
vn -0.9960667 -0.08137146 0.03506814
vn -0.996067 -0.081439 0.03489955
vn -0.9960675 -0.08150669 0.03473059
vn 0.9960635 0.08136953 -0.03516622
vn 0.996064 0.08143714 -0.03499172
vn 0.996064 0.08143714 -0.03499172
vn 0.9960647 0.08150491 -0.03481684
vn -0.996226 -0.08171037 0.02927646
vn -0.996227 -0.081613 0.02951445
vn -0.996226 -0.08171037 0.02927646
vn -0.996225 -0.08180805 0.0290377
vn 0.9962226 0.08160985 -0.02967088
vn 0.9962221 0.08170742 -0.0294186
vn 0.9962221 0.08170742 -0.0294186
vn 0.9962215 0.08180533 -0.02916544
vn -0.9964229 -0.08212233 0.01992544
vn -0.9964275 -0.08199302 0.02023671
vn -0.9964229 -0.08212233 0.01992544
vn -0.9964185 -0.08225221 0.01961276
vn 0.9964224 0.0819874 -0.02050934
vn 0.9964186 0.08211714 -0.0201668
vn 0.9964186 0.08211714 -0.0201668
vn 0.9964148 0.08224751 -0.01982256
vn -0.9965603 -0.0827242 0.004899097
vn -0.9965718 -0.08256428 0.005272143
vn -0.9965603 -0.0827242 0.004899097
vn -0.9965489 -0.08288507 0.004523837
vn 0.9965699 0.0825539 -0.005762016
vn 0.996559 0.08271462 -0.00532769
vn 0.996559 0.08271462 -0.00532769
vn 0.9965478 0.08287644 -0.004890352
vn -0.9963122 -0.08360843 -0.01928098
vn -0.9963372 -0.08341116 -0.01883897
vn -0.9963122 -0.08360843 -0.01928098
vn -0.9962867 -0.08380716 -0.01972631
vn 0.996358 0.08338874 0.01780076
vn 0.9963313 0.08358727 0.01836615
vn 0.9963313 0.08358727 0.01836615
vn 0.9963037 0.08378769 0.01893703
vn -0.9946558 -0.08493667 -0.05869948
vn -0.9947066 -0.08469234 -0.05818941
vn -0.9946558 -0.08493667 -0.05869948
vn -0.9946042 -0.08518323 -0.05921423
vn 0.9948652 0.08463447 0.05549978
vn 0.9948017 0.08487926 0.05625999
vn 0.9948017 0.08487926 0.05625999
vn 0.9947366 0.08512745 0.05703088
vn -0.9883666 -0.08699744 -0.1247514
vn -0.9884764 -0.08665753 -0.124117
vn -0.9883666 -0.08699744 -0.1247514
vn -0.9882551 -0.08734097 -0.1253925
vn 0.9895035 0.08648796 0.1157698
vn 0.989329 0.08681972 0.1170054
vn 0.989329 0.08681972 0.1170054
vn 0.9891491 0.08715882 0.1182687
vn -0.9675295 -0.09015994 -0.2361308
vn -0.9677994 -0.08959098 -0.2352397
vn -0.9675295 -0.09015994 -0.2361308
vn -0.9672553 -0.09073554 -0.2370323
vn 0.97437 0.08910628 0.2065511
vn 0.973722 0.08961681 0.2093666
vn 0.973722 0.08961681 0.2093666
vn 0.9730352 0.09014995 0.2123094
vn -0.9080292 -0.09426183 -0.4081639
vn -0.9087427 -0.09319106 -0.4068196
vn -0.9080292 -0.09426183 -0.4081639
vn -0.9073036 -0.09534554 -0.4095234
vn 0.94268 0.09229918 0.3206794
vn 0.938704 0.09316757 0.3318955
vn 0.938704 0.09316757 0.3318955
vn 0.9338806 0.0941671 0.344963
vn -0.7851365 -0.09763269 -0.6115788
vn -0.7867426 -0.09588773 -0.6097883
vn -0.7851365 -0.09763269 -0.6115788
vn -0.7835033 -0.09939861 -0.6133862
vn 0.7512625 0.09523658 0.6530962
vn 0.6698017 0.09544174 0.7363808
vn 0.6698017 0.09544174 0.7363808
vn 0.5180658 0.09300511 0.8502693
vn -0.6271696 -0.09900441 -0.7725648
vn -0.6298001 -0.09693138 -0.7706854
vn -0.6271696 -0.09900441 -0.7725648
vn -0.624497 -0.1011017 -0.774456
vn 0.5766435 0.09524012 0.8114257
vn 0.5541515 0.09694237 0.8267516
vn 0.5541515 0.09694237 0.8267516
vn 0.5291054 0.09871984 0.8427941
vn -0.4994998 -0.09977017 -0.8605497
vn -0.5027362 -0.09786518 -0.8588822
vn -0.4994998 -0.09977017 -0.8605497
vn -0.4962145 -0.1016971 -0.8622231
vn 0.4860729 0.09728586 0.8684863
vn 0.4769748 0.09906138 0.8733165
vn 0.4769748 0.09906138 0.8733165
vn 0.4675104 0.1008864 0.8782119
vn -0.4244085 -0.1011539 -0.899803
vn -0.4276513 -0.09960839 -0.8984389
vn -0.4244085 -0.1011539 -0.899803
vn -0.4211198 -0.1027167 -0.90117
vn 0.4229761 0.09944741 0.9006673
vn 0.4176405 0.1009393 0.9029881
vn 0.4176405 0.1009393 0.9029881
vn 0.4121824 0.1024574 0.9053222
vn -0.3873123 -0.1029662 -0.9161808
vn -0.3901467 -0.1017811 -0.91511
vn -0.3873123 -0.1029662 -0.9161808
vn -0.3844415 -0.1041636 -0.9172539
vn 0.3886073 0.1017318 0.9157701
vn 0.3850309 0.1028984 0.9171495
vn 0.3850309 0.1028984 0.9171495
vn 0.3813969 0.1040801 0.9185334
vn -0.3718039 -0.1047742 -0.9223796
vn -0.3740943 -0.1038754 -0.9215548
vn -0.3718039 -0.1047742 -0.9223796
vn -0.3694876 -0.1056814 -0.9232066
vn 0.3733451 0.1038542 0.921861
vn 0.3708406 0.1047487 0.9227703
vn 0.3708406 0.1047487 0.9227703
vn 0.3683053 0.1056522 0.9236822
vn -0.3681069 -0.1063596 -0.9236801
vn -0.3698707 -0.1056908 -0.9230521
vn -0.3681069 -0.1063596 -0.9236801
vn -0.3663261 -0.1070338 -0.92431
vn 0.3693612 0.1056782 0.9232576
vn 0.3675761 0.1063474 0.9238928
vn 0.3675761 0.1063474 0.9238928
vn 0.3657738 0.1070221 0.9245301
vn -0.3709708 -0.1076495 -0.922384
vn -0.3722855 -0.1071588 -0.9219114
vn -0.3709708 -0.1076495 -0.922384
vn -0.3696454 -0.1081436 -0.9228582
vn 0.3718983 0.1071509 0.9220684
vn 0.3706269 0.1076425 0.922523
vn 0.3706269 0.1076425 0.922523
vn 0.3693456 0.1081375 0.9229789
vn -0.377501 -0.1086549 -0.9196125
vn -0.3784565 -0.1082971 -0.9192619
vn -0.377501 -0.1086549 -0.9196125
vn -0.3765391 -0.1090148 -0.9199641
vn 0.3781577 0.1082913 0.9193856
vn 0.3772549 0.1086506 0.919714
vn 0.3772549 0.1086506 0.919714
vn 0.3763464 0.1090119 0.9200434
vn -0.3860509 -0.1094126 -0.9159659
vn -0.3867288 -0.1091579 -0.9157103
vn -0.3860509 -0.1094126 -0.9159659
vn -0.3853692 -0.1096684 -0.9162223
vn 0.3865094 0.109155 0.9158033
vn 0.3858793 0.1094101 0.9160386
vn 0.3858793 0.1094101 0.9160386
vn 0.3852462 0.1096664 0.9162744
vn -0.3956243 -0.109962 -0.9118057
vn -0.3960917 -0.1097859 -0.911624
vn -0.3956243 -0.109962 -0.9118057
vn -0.395155 -0.1101387 -0.911988
vn 0.3959363 0.1097837 0.9116918
vn 0.3955049 0.1099602 0.9118579
vn 0.3955049 0.1099602 0.9118579
vn 0.3950717 0.1101374 0.9120241
vn -0.4056123 -0.110344 -0.9073604
vn -0.4059223 -0.1102268 -0.907236
vn -0.4056123 -0.110344 -0.9073604
vn -0.4053015 -0.1104615 -0.9074849
vn 0.4058245 0.1102254 0.9072798
vn 0.4055391 0.1103431 0.9073932
vn 0.4055391 0.1103431 0.9073932
vn 0.4052531 0.110461 0.9075066
vn -0.4157608 -0.1105966 -0.9027244
vn -0.4159522 -0.1105226 -0.9026452
vn -0.4157608 -0.1105966 -0.9027244
vn -0.415569 -0.1106707 -0.9028037
vn 0.4158932 0.1105221 0.9026725
vn 0.4157171 0.1105963 0.9027446
vn 0.4157171 0.1105963 0.9027446
vn 0.4155405 0.1106705 0.9028168
vn -0.4258124 -0.1107481 -0.8980082
vn -0.4259166 -0.1107079 -0.8979638
vn -0.4258124 -0.1107481 -0.8980082
vn -0.4257081 -0.1107883 -0.8980527
vn 0.4258856 0.1107078 0.8979784
vn 0.4257902 0.1107479 0.8980187
vn 0.4257902 0.1107479 0.8980187
vn 0.4256946 0.1107881 0.898059
vn -0.4357039 -0.110821 -0.8932417
vn -0.4357408 -0.1108062 -0.8932256
vn -0.4357039 -0.110821 -0.8932417
vn -0.435667 -0.1108357 -0.8932579
vn 0.4356328 0.1108059 0.8932782
vn 0.4355977 0.1108207 0.8932935
vn 0.4355977 0.1108207 0.8932935
vn 0.4355626 0.1108355 0.8933088
vn -0.4408135 -0.1108392 -0.890729
vn -0.4408194 -0.1108386 -0.8907261
vn -0.4408135 -0.1108392 -0.890729
vn -0.4408076 -0.1108397 -0.8907319
vn 0.4421173 0.1108386 0.8900826
vn 0.4421092 0.1108392 0.8900865
vn 0.4421092 0.1108392 0.8900865
vn 0.4421012 0.1108398 0.8900905

vt 0 0
vt 0 0
vt 0 0
vt 0 0
vt 0 0
vt 0 0
vt 0 0
vt 0 0
vt 0 0
vt 0 0
vt 0 0
vt 0 0
vt 0 0
vt 0 0
vt 0 0
vt 0 0
vt 0 0
vt 0 0
vt 0 0
vt 0 0
vt 0 0
vt 0 0
vt 0 0
vt 0 0
vt 0 0
vt 0 0
vt 0 0
vt 0 0
vt 0 0
vt 0 0
vt 0 0
vt 0 0
vt 0 0
vt 0 0
vt 0 0
vt 0 0
vt 0 0
vt 0 0
vt 0 0
vt 0 0
vt 0 0
vt 0 0
vt 0 0
vt 0 0
vt 0 0
vt 0 0
vt 0 0
vt 0 0
vt 0 0
vt 0 0
vt 0 0
vt 0 0
vt 0 0
vt 0 0
vt 0 0
vt 0 0
vt 0 0
vt 0 0
vt 0 0
vt 0 0
vt 0 0
vt 0 0
vt 0 0
vt 0 0
vt 0 0
vt 0 0
vt 0 0
vt 0 0
vt 0 0
vt 0 0
vt 0 0
vt 0 0
vt 0 0
vt 0 0
vt 0 0
vt 0 0
vt 0 0
vt 0 0
vt 0 0
vt 0 0
vt 0 0
vt 0 0
vt 0 0
vt 0 0
vt 0 0
vt 0 0
vt 0 0
vt 0 0
vt 0 0
vt 0 0
vt 0 0
vt 0 0
vt 0 0
vt 0 0
vt 0 0
vt 0 0
vt 0 0
vt 0 0
vt 0 0
vt 0 0
vt 0 0
vt 0 0
vt 0 0
vt 0 0
vt 0 0
vt 0 0
vt 0 0
vt 0 0
vt 0 0
vt 0 0
vt 0 0
vt 0 0
vt 0 0
vt 0 0
vt 0 0
vt 0 0
vt 0 0
vt 0 0
vt 0 0
vt 0 0
vt 0 0
vt 0 0
vt 0 0
vt 0 0
vt 0 0
vt 0 0
vt 0 0
vt 0 0
vt 0 0
vt 0 0
vt 0 0
vt 0 0
vt 0 0
vt 0 0
vt 0 0
vt 0 0
vt 0 0
vt 0 0
vt 0 0
vt 0 0
vt 0 0
vt 0 0
vt 0 0
vt 0 0
vt 0 0
vt 0 0
vt 0 0
vt 0 0
vt 0 0
vt 0 0
vt 0 0
vt 0 0
vt 0 0
vt 0 0
vt 0 0
vt 0 0
vt 0 0
vt 0 0
vt 0 0
vt 0 0
vt 0 0
vt 0 0
vt 0 0
vt 0 0
vt 0 0
vt 0 0
vt 0 0
vt 0 0
vt 0 0
vt 0 0
vt 0 0
vt 0 0
vt 0 0
vt 0 0
vt 0 0
vt 0 0
vt 0 0
vt 0 0
vt 0 0
vt 0 0
vt 0 0
vt 0 0
vt 0 0
vt 0 0
vt 0 0
vt 0 0
vt 0 0
vt 0 0
vt 0 0
vt 0 0
vt 0 0
vt 0 0
vt 0 0
vt 0 0
vt 0 0
vt 0 0
vt 0 0
vt 0 0
vt 0 0
vt 0 0
vt 0 0
vt 0 0
vt 0 0
vt 0 0
vt 0 0
vt 0 0
vt 0 0
vt 0 0
vt 0 0
vt 0 0
vt 0 0
vt 0 0
vt 0 0
vt 0 0
vt 0 0
vt 0 0

g Track Texture
usemtl Track Texture
usemap Track Texture
f 2/2/2 1/1/1 3/3/3
f 3/3/3 1/1/1 4/4/4
f 6/6/6 5/5/5 7/7/7
f 6/6/6 7/7/7 8/8/8
f 10/10/10 9/9/9 11/11/11
f 11/11/11 9/9/9 12/12/12
f 14/14/14 13/13/13 15/15/15
f 14/14/14 15/15/15 16/16/16
f 18/18/18 17/17/17 19/19/19
f 19/19/19 17/17/17 20/20/20
f 22/22/22 21/21/21 23/23/23
f 22/22/22 23/23/23 24/24/24
f 26/26/26 25/25/25 27/27/27
f 27/27/27 25/25/25 28/28/28
f 30/30/30 29/29/29 31/31/31
f 30/30/30 31/31/31 32/32/32
f 34/34/34 33/33/33 35/35/35
f 35/35/35 33/33/33 36/36/36
f 38/38/38 37/37/37 39/39/39
f 38/38/38 39/39/39 40/40/40
f 42/42/42 41/41/41 43/43/43
f 43/43/43 41/41/41 44/44/44
f 46/46/46 45/45/45 47/47/47
f 46/46/46 47/47/47 48/48/48
f 50/50/50 49/49/49 51/51/51
f 51/51/51 49/49/49 52/52/52
f 54/54/54 53/53/53 55/55/55
f 54/54/54 55/55/55 56/56/56
f 58/58/58 57/57/57 59/59/59
f 59/59/59 57/57/57 60/60/60
f 62/62/62 61/61/61 63/63/63
f 62/62/62 63/63/63 64/64/64
f 66/66/66 65/65/65 67/67/67
f 67/67/67 65/65/65 68/68/68
f 70/70/70 69/69/69 71/71/71
f 70/70/70 71/71/71 72/72/72
f 74/74/74 73/73/73 75/75/75
f 75/75/75 73/73/73 76/76/76
f 78/78/78 77/77/77 79/79/79
f 78/78/78 79/79/79 80/80/80
f 82/82/82 81/81/81 83/83/83
f 83/83/83 81/81/81 84/84/84
f 86/86/86 85/85/85 87/87/87
f 86/86/86 87/87/87 88/88/88
f 90/90/90 89/89/89 91/91/91
f 91/91/91 89/89/89 92/92/92
f 94/94/94 93/93/93 95/95/95
f 94/94/94 95/95/95 96/96/96
f 98/98/98 97/97/97 99/99/99
f 99/99/99 97/97/97 100/100/100
f 102/102/102 101/101/101 103/103/103
f 102/102/102 103/103/103 104/104/104
f 106/106/106 105/105/105 107/107/107
f 107/107/107 105/105/105 108/108/108
f 110/110/110 109/109/109 111/111/111
f 110/110/110 111/111/111 112/112/112
f 114/114/114 113/113/113 115/115/115
f 115/115/115 113/113/113 116/116/116
f 118/118/118 117/117/117 119/119/119
f 118/118/118 119/119/119 120/120/120
f 122/122/122 121/121/121 123/123/123
f 123/123/123 121/121/121 124/124/124
f 126/126/126 125/125/125 127/127/127
f 126/126/126 127/127/127 128/128/128
f 130/130/130 129/129/129 131/131/131
f 131/131/131 129/129/129 132/132/132
f 134/134/134 133/133/133 135/135/135
f 134/134/134 135/135/135 136/136/136
f 138/138/138 137/137/137 139/139/139
f 139/139/139 137/137/137 140/140/140
f 142/142/142 141/141/141 143/143/143
f 142/142/142 143/143/143 144/144/144
f 146/146/146 145/145/145 147/147/147
f 147/147/147 145/145/145 148/148/148
f 150/150/150 149/149/149 151/151/151
f 150/150/150 151/151/151 152/152/152
f 154/154/154 153/153/153 155/155/155
f 155/155/155 153/153/153 156/156/156
f 158/158/158 157/157/157 159/159/159
f 158/158/158 159/159/159 160/160/160
f 162/162/162 161/161/161 163/163/163
f 163/163/163 161/161/161 164/164/164
f 166/166/166 165/165/165 167/167/167
f 166/166/166 167/167/167 168/168/168
f 170/170/170 169/169/169 171/171/171
f 171/171/171 169/169/169 172/172/172
f 174/174/174 173/173/173 175/175/175
f 174/174/174 175/175/175 176/176/176
f 178/178/178 177/177/177 179/179/179
f 179/179/179 177/177/177 180/180/180
f 182/182/182 181/181/181 183/183/183
f 182/182/182 183/183/183 184/184/184
f 186/186/186 185/185/185 187/187/187
f 187/187/187 185/185/185 188/188/188
f 190/190/190 189/189/189 191/191/191
f 190/190/190 191/191/191 192/192/192
f 194/194/194 193/193/193 195/195/195
f 195/195/195 193/193/193 196/196/196
f 198/198/198 197/197/197 199/199/199
f 198/198/198 199/199/199 200/200/200
f 202/202/202 201/201/201 203/203/203
f 203/203/203 201/201/201 204/204/204
f 206/206/206 205/205/205 207/207/207
f 206/206/206 207/207/207 208/208/208
f 210/210/210 209/209/209 211/211/211
f 211/211/211 209/209/209 212/212/212
f 214/214/214 213/213/213 215/215/215
f 214/214/214 215/215/215 216/216/216
