mtllib ./Track1_trackCollider_8.mtl
# Unity Asset Buildr OBJ Exporter
 http://buildr.jasperstocker.com
g Track1_trackCollider_8
v 138.4251 0.0009850976 -59.18209
v 136.6102 -9.142578E-06 -60.1292
v 136.6102 4.999991 -60.12921
v 138.4242 5.000986 -59.1818
v 129.7622 9.142578E-06 -46.78358
v 131.3743 -0.0009839595 -45.94252
v 129.7622 5.00001 -46.78359
v 131.3734 4.999016 -45.94223
v 140.211 0.004166304 -58.21088
v 138.4251 0.0009850976 -59.18209
v 138.4242 5.000986 -59.1818
v 140.2074 5.004166 -58.20968
v 131.3743 -0.0009839595 -45.94252
v 132.8988 -0.00416396 -45.11389
v 131.3734 4.999016 -45.94223
v 132.8952 4.995836 -45.11269
v 142.0261 0.01014268 -57.17028
v 140.211 0.004166304 -58.21088
v 140.2074 5.004166 -58.20968
v 142.0176 5.010135 -57.16747
v 132.8988 -0.00416396 -45.11389
v 134.37 -0.01013901 -44.27131
v 132.8952 4.995836 -45.11269
v 134.3615 4.989853 -44.26849
v 143.8756 0.01977248 -56.03297
v 142.0261 0.01014268 -57.17028
v 142.0176 5.010135 -57.16747
v 143.8594 5.019744 -56.02776
v 134.37 -0.01013901 -44.27131
v 135.7538 -0.01976734 -43.42209
v 134.3615 4.989853 -44.26849
v 135.7376 4.980205 -43.41687
v 145.7643 0.03431076 -54.75644
v 143.8756 0.01977248 -56.03297
v 143.8594 5.019744 -56.02776
v 145.7369 5.034228 -54.74804
v 135.7538 -0.01976734 -43.42209
v 136.9969 -0.03430399 -42.58578
v 135.7376 4.980205 -43.41687
v 136.9695 4.965613 -42.57738
v 147.7196 0.056014 -53.24939
v 145.7643 0.03431076 -54.75644
v 145.7369 5.034228 -54.74804
v 147.6763 5.055811 -53.23708
v 136.9969 -0.03430399 -42.58578
v 138.053 -0.05600539 -41.78032
v 136.9695 4.965613 -42.57738
v 138.0097 4.943792 -41.76801
v 149.7276 0.08805576 -51.38058
v 147.7196 0.056014 -53.24939
v 147.6763 5.055811 -53.23708
v 149.6625 5.087606 -51.36395
v 138.053 -0.05600539 -41.78032
v 138.8245 -0.08804508 -41.08096
v 138.0097 4.943792 -41.76801
v 138.7594 4.911505 -41.06433
v 151.6964 0.1342698 -48.9631
v 149.7276 0.08805576 -51.38058
v 149.6625 5.087606 -51.36395
v 151.6023 5.133342 -48.94255
v 138.8245 -0.08804508 -41.08096
v 139.2655 -0.1342568 -40.57327
v 138.7594 4.911505 -41.06433
v 139.1714 4.864816 -40.55272
v 153.3289 0.1943805 -45.93615
v 151.6964 0.1342698 -48.9631
v 151.6023 5.133342 -48.94255
v 153.1981 5.192619 -45.91361
v 139.2655 -0.1342568 -40.57327
v 139.4472 -0.1943649 -40.26686
v 139.1714 4.864816 -40.55272
v 139.3164 4.803874 -40.24433
v 154.2795 0.2592653 -42.62747
v 153.3289 0.1943805 -45.93615
v 153.1981 5.192619 -45.91361
v 154.1076 5.256266 -42.60657
v 139.4472 -0.1943649 -40.26686
v 139.5338 -0.2592472 -39.92701
v 139.3164 4.803874 -40.24433
v 139.3619 4.737753 -39.90611
v 154.5594 0.3189522 -39.55044
v 154.2795 0.2592653 -42.62747
v 154.1076 5.256266 -42.60657
v 154.3471 5.314417 -39.53521
v 139.5338 -0.2592472 -39.92701
v 139.5766 -0.3189318 -39.22642
v 139.3619 4.737753 -39.90611
v 139.3642 4.676534 -39.21119
v 154.457 0.3713944 -36.9145
v 154.5594 0.3189522 -39.55044
v 154.3471 5.314417 -39.53521
v 154.2082 5.365195 -36.90796
v 139.5766 -0.3189318 -39.22642
v 139.5201 -0.371372 -38.06773
v 139.3642 4.676534 -39.21119
v 139.2712 4.622428 -38.06119
v 154.2019 0.4178708 -34.63831
v 154.457 0.3713944 -36.9145
v 154.2082 5.365195 -36.90796
v 153.9215 5.410002 -34.6422
v 139.5201 -0.371372 -38.06773
v 139.3485 -0.4178468 -36.55332
v 139.2712 4.622428 -38.06119
v 139.0681 4.574285 -36.55721
v 153.9049 0.4585079 -32.60637
v 154.2019 0.4178708 -34.63831
v 153.9215 5.410002 -34.6422
v 153.598 5.449061 -32.62128
v 139.3485 -0.4178468 -36.55332
v 139.0994 -0.4584826 -34.83095
v 139.0681 4.574285 -36.55721
v 138.7926 4.53207 -34.84587
v 153.6087 0.4937236 -30.71007
v 153.9049 0.4585079 -32.60637
v 153.598 5.449061 -32.62128
v 153.2797 5.48282 -30.73594
v 139.0994 -0.4584826 -34.83095
v 138.8133 -0.4936971 -32.97191
v 138.7926 4.53207 -34.84587
v 138.4843 4.495399 -32.99778
v 153.3325 0.5235323 -28.89117
v 153.6087 0.4937236 -30.71007
v 153.2797 5.48282 -30.73594
v 152.9851 5.511318 -28.92744
v 138.8133 -0.4936971 -32.97191
v 138.5227 -0.5235049 -31.02929
v 138.4843 4.495399 -32.99778
v 138.1753 4.464281 -31.06556
v 153.0847 0.5481895 -27.11047
v 153.3325 0.5235323 -28.89117
v 152.9851 5.511318 -28.92744
v 152.7222 5.534817 -27.1563
v 138.5227 -0.5235049 -31.02929
v 138.2485 -0.5481614 -29.02983
v 138.1753 4.464281 -31.06556
v 137.8859 4.438466 -29.07566
v 152.8712 0.5679578 -25.35428
v 153.0847 0.5481895 -27.11047
v 152.7222 5.534817 -27.1563
v 152.4963 5.553585 -25.40861
v 138.2485 -0.5481614 -29.02983
v 138.0051 -0.5679291 -27.00012
v 137.8859 4.438466 -29.07566
v 137.6302 4.417697 -27.05445
v 152.6945 0.5832902 -23.61304
v 152.8712 0.5679578 -25.35428
v 152.4963 5.553585 -25.40861
v 152.3096 5.568075 -23.6747
v 138.0051 -0.5679291 -27.00012
v 137.8006 -0.5832609 -24.95626
v 137.6302 4.417697 -27.05445
v 137.4157 4.401524 -25.01792
v 152.5552 0.5947191 -21.87802
v 152.6945 0.5832902 -23.61304
v 152.3096 5.568075 -23.6747
v 152.1625 5.57881 -21.94582
v 137.8006 -0.5832609 -24.95626
v 137.6383 -0.5946894 -22.90536
v 137.4157 4.401524 -25.01792
v 137.2456 4.389401 -22.97316
v 152.4533 0.6027833 -20.13838
v 152.5552 0.5947191 -21.87802
v 152.1625 5.57881 -21.94582
v 152.0544 5.586319 -20.21116
v 137.6383 -0.5946894 -22.90536
v 137.5195 -0.6027534 -20.84789
v 137.2456 4.389401 -22.97316
v 137.1207 4.380782 -20.92068
v 152.3889 0.607883 -18.40701
v 152.4533 0.6027833 -20.13838
v 152.0544 5.586319 -20.21116
v 151.9855 5.590999 -18.48361
v 137.5195 -0.6027534 -20.84789
v 137.4448 -0.6078529 -18.80196
v 137.1207 4.380782 -20.92068
v 137.0414 4.375263 -18.87856
v 152.3606 0.6104937 -16.67113
v 152.3889 0.607883 -18.40701
v 151.9855 5.590999 -18.48361
v 151.9541 5.593309 -16.75047
v 137.4448 -0.6078529 -18.80196
v 137.4124 -0.6104633 -16.75874
v 137.0414 4.375263 -18.87856
v 137.0059 4.372352 -16.83808
v 152.3678 0.6110082 -14.91281
v 152.3606 0.6104937 -16.67113
v 151.9541 5.593309 -16.75047
v 151.9593 5.593634 -14.99388
v 137.4124 -0.6104633 -16.75874
v 137.4214 -0.6109777 -14.70459
v 137.0059 4.372352 -16.83808
v 137.0129 4.371648 -14.78566
v 152.4104 0.6104888 -13.12729
v 152.3678 0.6110082 -14.91281
v 151.9593 5.593634 -14.99388
v 152.001 5.593032 -13.20913
v 137.4214 -0.6109777 -14.70459
v 137.4683 -0.6104583 -12.72086
v 137.0129 4.371648 -14.78566
v 137.0589 4.372085 -12.8027
v 152.4328 0.6089112 -12.5221
v 152.4104 0.6104888 -13.12729
v 152.001 5.593032 -13.20913
v 152.0234 5.591447 -12.60399
v 137.4683 -0.6104583 -12.72086
v 137.4965 -0.6088806 -11.941
v 137.0589 4.372085 -12.8027
v 137.0871 4.373656 -12.02289

vn -0.4627859 -6.422555E-05 0.8864701
vn -0.462644 1.362608E-06 0.8865442
vn -0.4627859 -6.422555E-05 0.8864701
vn -0.4629279 -0.0001298336 0.8863959
vn 0.4625614 -1.352825E-06 -0.8865872
vn 0.4627213 6.422754E-05 -0.8865038
vn 0.4627213 6.422754E-05 -0.8865038
vn 0.4628812 0.0001298303 -0.8864203
vn -0.4781981 -0.0003412016 0.878252
vn -0.4777464 -0.0001319161 0.8784978
vn -0.4781981 -0.0003412016 0.878252
vn -0.4786501 -0.0005506864 0.8780056
vn 0.4775586 0.0001318879 -0.8785999
vn 0.4780884 0.0003411601 -0.8783116
vn 0.4780884 0.0003411601 -0.8783116
vn 0.4786187 0.0005506661 -0.8780227
vn -0.4981637 -0.0009484776 0.8670825
vn -0.4973636 -0.0005614915 0.867542
vn -0.4981637 -0.0009484776 0.8670825
vn -0.4989645 -0.001336107 0.8666213
vn 0.4969838 0.0005612682 -0.8677596
vn 0.4979735 0.0009482921 -0.8671917
vn 0.4979735 0.0009482921 -0.8671917
vn 0.4989645 0.001336112 -0.8666213
vn -0.5249985 -0.001982793 0.8511007
vn -0.523803 -0.001370002 0.8518384
vn -0.5249985 -0.001982793 0.8511007
vn -0.5261959 -0.002597088 0.8503595
vn 0.5230345 0.001368964 -0.8523105
vn 0.5246396 0.001982084 -0.8513221
vn 0.5246396 0.001982084 -0.8513221
vn 0.526248 0.002597224 -0.8503272
vn -0.5615675 -0.003581213 0.8274232
vn -0.559952 -0.002684039 0.8285207
vn -0.5615675 -0.003581213 0.8274232
vn -0.5631858 -0.004481324 0.8263181
vn 0.5582232 0.00267962 -0.8296865
vn 0.5606971 0.003578208 -0.8280133
vn 0.5606971 0.003578208 -0.8280133
vn 0.5631779 0.004481299 -0.8263235
vn -0.6124792 -0.005972993 0.7904641
vn -0.6104393 -0.00468336 0.7920491
vn -0.6124792 -0.005972993 0.7904641
vn -0.6145224 -0.007267876 0.7888659
vn 0.6064864 0.004666729 -0.7950802
vn 0.6103181 0.005961152 -0.7921339
vn 0.6103181 0.005961152 -0.7921339
vn 0.6141641 0.007265463 -0.7891449
vn -0.6835694 -0.009519818 0.7298235
vn -0.6811984 -0.007705621 0.7320583
vn -0.6835694 -0.009519818 0.7298235
vn -0.6859419 -0.01134242 0.727568
vn 0.6717899 0.007645401 -0.7407022
vn 0.6781609 0.009475769 -0.7348524
vn 0.6781609 0.009475769 -0.7348524
vn 0.6845592 0.01132877 -0.7288692
vn -0.7777008 -0.01471557 0.6284623
vn -0.7752157 -0.01218442 0.6315792
vn -0.7777008 -0.01471557 0.6284623
vn -0.7801807 -0.01725875 0.6253162
vn 0.7554219 0.01200528 -0.6551286
vn 0.767482 0.01459918 -0.6409042
vn 0.767482 0.01459918 -0.6409042
vn 0.7795503 0.01725011 -0.6261021
vn -0.8820544 -0.02186973 0.4706397
vn -0.8798537 -0.01851691 0.4748839
vn -0.8820544 -0.02186973 0.4706397
vn -0.8842348 -0.02523687 0.4663603
vn 0.861595 0.01830625 -0.5072664
vn 0.8846344 0.02190677 -0.4657703
vn 0.8846344 0.02190677 -0.4657703
vn 0.9065794 0.0256181 -0.421257
vn -0.9620723 -0.03030985 0.2711055
vn -0.9606418 -0.02637996 0.2765345
vn -0.9620723 -0.03030985 0.2711055
vn -0.9634627 -0.03425274 0.2656437
vn 0.9698977 0.02646672 -0.2420702
vn 0.9821895 0.03054654 -0.1853932
vn 0.9821895 0.03054654 -0.1853932
vn 0.9913605 0.03463056 -0.1265115
vn -0.9956462 -0.0385915 0.08484817
vn -0.99523 -0.03461603 0.09120917
vn -0.9956462 -0.0385915 0.08484817
vn -0.9960074 -0.04257635 0.07846387
vn 0.9977175 0.03456276 -0.05800889
vn 0.9988378 0.03851222 -0.02898005
vn 0.9988378 0.03851222 -0.02898005
vn 0.9990978 0.04246735 0.0003627811
vn -0.9979345 -0.04597304 -0.04486534
vn -0.9983826 -0.04232232 -0.03796077
vn -0.9979345 -0.04597304 -0.04486534
vn -0.9974242 -0.04963061 -0.05178542
vn 0.9978253 0.04226013 0.05058479
vn 0.9967202 0.04586945 0.06666918
vn 0.9967202 0.04586945 0.06666918
vn 0.9953349 0.04948584 0.08282296
vn -0.9917153 -0.05252491 -0.1172261
vn -0.9926809 -0.04931769 -0.1102377
vn -0.9917153 -0.05252491 -0.1172261
vn -0.990687 -0.0557382 -0.1242275
vn 0.9922643 0.04929208 0.1139377
vn 0.9908119 0.05247507 0.1246517
vn 0.9908119 0.05247507 0.1246517
vn 0.9892267 0.05566489 0.1353953
vn -0.9869671 -0.05834119 -0.1499738
vn -0.9881105 -0.0556084 -0.1433366
vn -0.9869671 -0.05834119 -0.1499738
vn -0.9857675 -0.06108002 -0.1566254
vn 0.9879901 0.05560227 0.144166
vn 0.9866378 0.05832588 0.152131
vn 0.9866378 0.05832588 0.152131
vn 0.985208 0.06105606 0.1601166
vn -0.9852498 -0.06342582 -0.1589344
vn -0.9863492 -0.06110468 -0.15291
vn -0.9852498 -0.06342582 -0.1589344
vn -0.9841036 -0.06575299 -0.1649746
vn 0.9863413 0.06110435 0.1529611
vn 0.9852077 0.06342422 0.1591953
vn 0.9852077 0.06342422 0.1591953
vn 0.9840246 0.06575024 0.1654465
vn -0.9857368 -0.0677899 -0.1540368
vn -0.9866784 -0.06583875 -0.1487646
vn -0.9857368 -0.0677899 -0.1540368
vn -0.9847593 -0.06974671 -0.1593253
vn 0.9866988 0.06583939 0.1486295
vn 0.9858011 0.0677917 0.1536247
vn 0.9858011 0.0677917 0.1536247
vn 0.9848707 0.06974945 0.1586343
vn -0.9874279 -0.07144408 -0.1410028
vn -0.9881736 -0.06981868 -0.1365221
vn -0.9874279 -0.07144408 -0.1410028
vn -0.9866561 -0.0730744 -0.1454985
vn 0.9881942 0.06981903 0.1363719
vn 0.9875137 0.07144523 0.1404005
vn 0.9875137 0.07144523 0.1404005
vn 0.9868113 0.07307597 0.144441
vn -0.9895769 -0.07442143 -0.1232845
vn -0.9901325 -0.0730888 -0.1195655
vn -0.9895769 -0.07442143 -0.1232845
vn -0.9890034 -0.07575807 -0.1270161
vn 0.9901496 0.07308874 0.1194232
vn 0.9896539 0.0744209 0.1226649
vn 0.9896539 0.0744209 0.1226649
vn 0.9891441 0.07575667 0.1259162
vn -0.9917085 -0.07677212 -0.1030549
vn -0.9921002 -0.07569695 -0.1000355
vn -0.9917085 -0.07677212 -0.1030549
vn -0.9913049 -0.07785038 -0.1060841
vn 0.9921168 0.0756964 0.09987126
vn 0.9917705 0.07676992 0.1024581
vn 0.9917705 0.07676992 0.1024581
vn 0.9914153 0.07784613 0.105052
vn -0.9935621 -0.07856248 -0.08162242
vn -0.9938222 -0.07771259 -0.07923432
vn -0.9935621 -0.07856248 -0.08162242
vn -0.9932947 -0.07941454 -0.08401753
vn 0.993836 0.07771154 0.07906275
vn 0.9936059 0.078559 0.08109123
vn 0.9936059 0.078559 0.08109123
vn 0.9933704 0.07940836 0.08312476
vn -0.9950113 -0.07986218 -0.05978629
vn -0.9951717 -0.07920793 -0.05795931
vn -0.9950113 -0.07986218 -0.05978629
vn -0.9948468 -0.08051787 -0.06161791
vn 0.9951826 0.0792063 0.05777558
vn 0.9950393 0.07985789 0.05932461
vn 0.9950393 0.07985789 0.05932461
vn 0.994893 0.08051074 0.06087698
vn -0.9960049 -0.08073871 -0.03815149
vn -0.9960948 -0.0802553 -0.0368009
vn -0.9960049 -0.08073871 -0.03815149
vn -0.9959127 -0.08122297 -0.03950486
vn 0.996103 0.08025272 0.0365801
vn 0.9960216 0.08073366 0.03772492
vn 0.9960216 0.08073366 0.03772492
vn 0.9959382 0.08121531 0.03887172
vn -0.996548 -0.08125198 -0.01703701
vn -0.9965906 -0.08091824 -0.01611109
vn -0.996548 -0.08125198 -0.01703701
vn -0.9965044 -0.08158617 -0.01796436
vn 0.9965946 0.08091492 0.0158742
vn 0.9965547 0.08124667 0.0166614
vn 0.9965547 0.08124667 0.0166614
vn 0.9965141 0.08157878 0.01744964
vn -0.9966708 -0.08145534 0.003528413
vn -0.9966854 -0.08124981 0.004088945
vn -0.9966708 -0.08145534 0.003528413
vn -0.9966558 -0.08166103 0.002967321
vn 0.9966847 0.0812461 -0.004318189
vn 0.99667 0.08145028 -0.003838401
vn 0.99667 0.08145028 -0.003838401
vn 0.996655 0.08165462 -0.003358202
vn -0.9964048 -0.08139203 0.02351105
vn -0.9964064 -0.08130244 0.02375063
vn -0.9964048 -0.08139203 0.02351105
vn -0.9964032 -0.08148167 0.02327136
vn 0.9964103 0.08130551 -0.02358155
vn 0.996408 0.08139468 -0.0233659
vn 0.996408 0.08139468 -0.0233659
vn 0.9964058 0.08148387 -0.02315017
vn -0.9960198 -0.08123588 0.03668013
vn -0.9960185 -0.08122903 0.03672903
vn -0.9960198 -0.08123588 0.03668013
vn -0.996021 -0.08124273 0.03663122
vn 0.9960358 0.08123852 -0.03623718
vn 0.9960365 0.08124515 -0.03619926
vn 0.9960365 0.08124515 -0.03619926
vn 0.9960374 0.08125179 -0.03616133

vt 0 0
vt 0 0
vt 0 0
vt 0 0
vt 0 0
vt 0 0
vt 0 0
vt 0 0
vt 0 0
vt 0 0
vt 0 0
vt 0 0
vt 0 0
vt 0 0
vt 0 0
vt 0 0
vt 0 0
vt 0 0
vt 0 0
vt 0 0
vt 0 0
vt 0 0
vt 0 0
vt 0 0
vt 0 0
vt 0 0
vt 0 0
vt 0 0
vt 0 0
vt 0 0
vt 0 0
vt 0 0
vt 0 0
vt 0 0
vt 0 0
vt 0 0
vt 0 0
vt 0 0
vt 0 0
vt 0 0
vt 0 0
vt 0 0
vt 0 0
vt 0 0
vt 0 0
vt 0 0
vt 0 0
vt 0 0
vt 0 0
vt 0 0
vt 0 0
vt 0 0
vt 0 0
vt 0 0
vt 0 0
vt 0 0
vt 0 0
vt 0 0
vt 0 0
vt 0 0
vt 0 0
vt 0 0
vt 0 0
vt 0 0
vt 0 0
vt 0 0
vt 0 0
vt 0 0
vt 0 0
vt 0 0
vt 0 0
vt 0 0
vt 0 0
vt 0 0
vt 0 0
vt 0 0
vt 0 0
vt 0 0
vt 0 0
vt 0 0
vt 0 0
vt 0 0
vt 0 0
vt 0 0
vt 0 0
vt 0 0
vt 0 0
vt 0 0
vt 0 0
vt 0 0
vt 0 0
vt 0 0
vt 0 0
vt 0 0
vt 0 0
vt 0 0
vt 0 0
vt 0 0
vt 0 0
vt 0 0
vt 0 0
vt 0 0
vt 0 0
vt 0 0
vt 0 0
vt 0 0
vt 0 0
vt 0 0
vt 0 0
vt 0 0
vt 0 0
vt 0 0
vt 0 0
vt 0 0
vt 0 0
vt 0 0
vt 0 0
vt 0 0
vt 0 0
vt 0 0
vt 0 0
vt 0 0
vt 0 0
vt 0 0
vt 0 0
vt 0 0
vt 0 0
vt 0 0
vt 0 0
vt 0 0
vt 0 0
vt 0 0
vt 0 0
vt 0 0
vt 0 0
vt 0 0
vt 0 0
vt 0 0
vt 0 0
vt 0 0
vt 0 0
vt 0 0
vt 0 0
vt 0 0
vt 0 0
vt 0 0
vt 0 0
vt 0 0
vt 0 0
vt 0 0
vt 0 0
vt 0 0
vt 0 0
vt 0 0
vt 0 0
vt 0 0
vt 0 0
vt 0 0
vt 0 0
vt 0 0
vt 0 0
vt 0 0
vt 0 0
vt 0 0
vt 0 0
vt 0 0
vt 0 0
vt 0 0
vt 0 0
vt 0 0
vt 0 0
vt 0 0
vt 0 0
vt 0 0
vt 0 0
vt 0 0
vt 0 0
vt 0 0
vt 0 0
vt 0 0
vt 0 0
vt 0 0
vt 0 0
vt 0 0
vt 0 0
vt 0 0
vt 0 0
vt 0 0
vt 0 0
vt 0 0
vt 0 0
vt 0 0
vt 0 0
vt 0 0
vt 0 0
vt 0 0
vt 0 0
vt 0 0
vt 0 0
vt 0 0
vt 0 0
vt 0 0
vt 0 0
vt 0 0
vt 0 0
vt 0 0
vt 0 0
vt 0 0

g Track Texture
usemtl Track Texture
usemap Track Texture
f 2/2/2 1/1/1 3/3/3
f 3/3/3 1/1/1 4/4/4
f 6/6/6 5/5/5 7/7/7
f 6/6/6 7/7/7 8/8/8
f 10/10/10 9/9/9 11/11/11
f 11/11/11 9/9/9 12/12/12
f 14/14/14 13/13/13 15/15/15
f 14/14/14 15/15/15 16/16/16
f 18/18/18 17/17/17 19/19/19
f 19/19/19 17/17/17 20/20/20
f 22/22/22 21/21/21 23/23/23
f 22/22/22 23/23/23 24/24/24
f 26/26/26 25/25/25 27/27/27
f 27/27/27 25/25/25 28/28/28
f 30/30/30 29/29/29 31/31/31
f 30/30/30 31/31/31 32/32/32
f 34/34/34 33/33/33 35/35/35
f 35/35/35 33/33/33 36/36/36
f 38/38/38 37/37/37 39/39/39
f 38/38/38 39/39/39 40/40/40
f 42/42/42 41/41/41 43/43/43
f 43/43/43 41/41/41 44/44/44
f 46/46/46 45/45/45 47/47/47
f 46/46/46 47/47/47 48/48/48
f 50/50/50 49/49/49 51/51/51
f 51/51/51 49/49/49 52/52/52
f 54/54/54 53/53/53 55/55/55
f 54/54/54 55/55/55 56/56/56
f 58/58/58 57/57/57 59/59/59
f 59/59/59 57/57/57 60/60/60
f 62/62/62 61/61/61 63/63/63
f 62/62/62 63/63/63 64/64/64
f 66/66/66 65/65/65 67/67/67
f 67/67/67 65/65/65 68/68/68
f 70/70/70 69/69/69 71/71/71
f 70/70/70 71/71/71 72/72/72
f 74/74/74 73/73/73 75/75/75
f 75/75/75 73/73/73 76/76/76
f 78/78/78 77/77/77 79/79/79
f 78/78/78 79/79/79 80/80/80
f 82/82/82 81/81/81 83/83/83
f 83/83/83 81/81/81 84/84/84
f 86/86/86 85/85/85 87/87/87
f 86/86/86 87/87/87 88/88/88
f 90/90/90 89/89/89 91/91/91
f 91/91/91 89/89/89 92/92/92
f 94/94/94 93/93/93 95/95/95
f 94/94/94 95/95/95 96/96/96
f 98/98/98 97/97/97 99/99/99
f 99/99/99 97/97/97 100/100/100
f 102/102/102 101/101/101 103/103/103
f 102/102/102 103/103/103 104/104/104
f 106/106/106 105/105/105 107/107/107
f 107/107/107 105/105/105 108/108/108
f 110/110/110 109/109/109 111/111/111
f 110/110/110 111/111/111 112/112/112
f 114/114/114 113/113/113 115/115/115
f 115/115/115 113/113/113 116/116/116
f 118/118/118 117/117/117 119/119/119
f 118/118/118 119/119/119 120/120/120
f 122/122/122 121/121/121 123/123/123
f 123/123/123 121/121/121 124/124/124
f 126/126/126 125/125/125 127/127/127
f 126/126/126 127/127/127 128/128/128
f 130/130/130 129/129/129 131/131/131
f 131/131/131 129/129/129 132/132/132
f 134/134/134 133/133/133 135/135/135
f 134/134/134 135/135/135 136/136/136
f 138/138/138 137/137/137 139/139/139
f 139/139/139 137/137/137 140/140/140
f 142/142/142 141/141/141 143/143/143
f 142/142/142 143/143/143 144/144/144
f 146/146/146 145/145/145 147/147/147
f 147/147/147 145/145/145 148/148/148
f 150/150/150 149/149/149 151/151/151
f 150/150/150 151/151/151 152/152/152
f 154/154/154 153/153/153 155/155/155
f 155/155/155 153/153/153 156/156/156
f 158/158/158 157/157/157 159/159/159
f 158/158/158 159/159/159 160/160/160
f 162/162/162 161/161/161 163/163/163
f 163/163/163 161/161/161 164/164/164
f 166/166/166 165/165/165 167/167/167
f 166/166/166 167/167/167 168/168/168
f 170/170/170 169/169/169 171/171/171
f 171/171/171 169/169/169 172/172/172
f 174/174/174 173/173/173 175/175/175
f 174/174/174 175/175/175 176/176/176
f 178/178/178 177/177/177 179/179/179
f 179/179/179 177/177/177 180/180/180
f 182/182/182 181/181/181 183/183/183
f 182/182/182 183/183/183 184/184/184
f 186/186/186 185/185/185 187/187/187
f 187/187/187 185/185/185 188/188/188
f 190/190/190 189/189/189 191/191/191
f 190/190/190 191/191/191 192/192/192
f 194/194/194 193/193/193 195/195/195
f 195/195/195 193/193/193 196/196/196
f 198/198/198 197/197/197 199/199/199
f 198/198/198 199/199/199 200/200/200
f 202/202/202 201/201/201 203/203/203
f 203/203/203 201/201/201 204/204/204
f 206/206/206 205/205/205 207/207/207
f 206/206/206 207/207/207 208/208/208
