mtllib ./Track1_trackCollider_13.mtl
# Unity Asset Buildr OBJ Exporter
 http://buildr.jasperstocker.com
g Track1_trackCollider_13
v 13.34126 -0.02101145 96.23553
v 15.96568 1.045878E-05 95.45208
v 15.96568 5.00001 95.45207
v 13.34126 4.978989 96.23553
v 11.21196 -1.045878E-05 81.22579
v 10.18631 -0.02103357 81.57512
v 11.21196 4.99999 81.22578
v 10.18631 4.978966 81.57511
v 10.05901 -0.08706839 96.62695
v 13.34126 -0.02101145 96.23553
v 13.34126 4.978989 96.23553
v 10.059 4.912931 96.62695
v 10.18631 -0.02103357 81.57512
v 9.699463 -0.08709165 81.64754
v 10.18631 4.978966 81.57511
v 9.699462 4.912909 81.64753
v 6.740116 -0.1968168 96.37337
v 10.05901 -0.08706839 96.62695
v 10.059 4.912931 96.62695
v 6.740115 4.803183 96.37337
v 9.699463 -0.08709165 81.64754
v 9.245326 -0.1968393 81.61831
v 9.699462 4.912909 81.64753
v 9.245325 4.803161 81.6183
v 3.691146 -0.3400909 95.56024
v 6.740116 -0.1968168 96.37337
v 6.740115 4.803183 96.37337
v 3.691145 4.659909 95.56023
v 9.245326 -0.1968393 81.61831
v 8.645007 -0.340113 81.45404
v 9.245325 4.803161 81.6183
v 8.645006 4.659887 81.45403
v 1.060702 -0.5027432 94.41147
v 3.691146 -0.3400909 95.56024
v 3.691145 4.659909 95.56023
v 1.060701 4.497257 94.41146
v 8.645007 -0.340113 81.45404
v 7.816811 -0.5027651 81.08403
v 8.645006 4.659887 81.45403
v 7.81681 4.497235 81.08402
v -1.178972 -0.6730903 93.12216
v 1.060702 -0.5027432 94.41147
v 1.060701 4.497257 94.41146
v -1.178973 4.32691 93.12215
v 7.816811 -0.5027651 81.08403
v 6.775406 -0.6731137 80.47554
v 7.81681 4.497235 81.08402
v 6.775405 4.326886 80.47553
v -3.116149 -0.8420465 91.80677
v -1.178972 -0.6730903 93.12216
v -1.178973 4.32691 93.12215
v -3.11615 4.157953 91.80676
v 6.775406 -0.6731137 80.47554
v 5.580883 -0.8420678 79.65527
v 6.775405 4.326886 80.47553
v 5.580882 4.157932 79.65526
v -4.840685 -1.004104 90.51786
v -3.116149 -0.8420465 91.80677
v -3.11615 4.157953 91.80676
v -4.840686 3.995895 90.51785
v 5.580883 -0.8420678 79.65527
v 4.271936 -1.004126 78.66732
v 5.580882 4.157932 79.65526
v 4.271935 3.995874 78.66731
v -6.419096 -1.155302 89.28004
v -4.840685 -1.004104 90.51786
v -4.840686 3.995895 90.51785
v -6.419096 3.844698 89.28003
v 4.271936 -1.004126 78.66732
v 2.871212 -1.155325 77.55853
v 4.271935 3.995874 78.66731
v 2.871212 3.844675 77.55852
v -7.894832 -1.292438 88.10847
v -6.419096 -1.155302 89.28004
v -6.419096 3.844698 89.28003
v -7.894833 3.707562 88.10846
v 2.871212 -1.155325 77.55853
v 1.389588 -1.292463 76.37152
v 2.871212 3.844675 77.55852
v 1.389587 3.707537 76.37151
v -9.305382 -1.41363 87.00684
v -7.894832 -1.292438 88.10847
v -7.894833 3.707562 88.10846
v -9.305383 3.58637 87.00683
v 1.389588 -1.292463 76.37152
v -0.1790776 -1.413655 75.13564
v 1.389587 3.707537 76.37151
v -0.179079 3.586345 75.13563
v -10.67225 -1.516612 85.98188
v -9.305382 -1.41363 87.00684
v -9.305383 3.58637 87.00683
v -10.67225 3.483387 85.98186
v -0.1790776 -1.413655 75.13564
v -1.839383 -1.516637 73.88055
v -0.179079 3.586345 75.13563
v -1.839384 3.483362 73.88053
v -12.01293 -1.599371 85.03754
v -10.67225 -1.516612 85.98188
v -10.67225 3.483387 85.98186
v -12.01293 3.40063 85.03753
v -1.839383 -1.516637 73.88055
v -3.599063 -1.599402 72.63241
v -1.839384 3.483362 73.88053
v -3.599064 3.400599 72.63239
v -13.33279 -1.659694 84.18223
v -12.01293 -1.599371 85.03754
v -12.01293 3.40063 85.03753
v -13.33279 3.340306 84.18221
v -3.599063 -1.599402 72.63241
v -5.458837 -1.659727 71.42075
v -3.599064 3.400599 72.63239
v -5.458838 3.340273 71.42074
v -14.64838 -1.696029 83.41402
v -13.33279 -1.659694 84.18223
v -13.33279 3.340306 84.18221
v -14.64838 3.303971 83.41401
v -5.458837 -1.659727 71.42075
v -7.425822 -1.696063 70.26868
v -5.458838 3.340273 71.42074
v -7.425823 3.303936 70.26867
v -15.95386 -1.706732 82.74197
v -14.64838 -1.696029 83.41402
v -14.64838 3.303971 83.41401
v -15.95386 3.293267 82.74195
v -7.425822 -1.696063 70.26868
v -9.488038 -1.706768 69.2071
v -7.425823 3.303936 70.26867
v -9.48804 3.293231 69.20708
v -17.26931 -1.690908 82.15934
v -15.95386 -1.706732 82.74197
v -15.95386 3.293267 82.74195
v -17.26931 3.309092 82.15932
v -9.488038 -1.706768 69.2071
v -11.64665 -1.690947 68.25495
v -9.48804 3.293231 69.20708
v -11.64665 3.309053 68.25494
v -18.59126 -1.648139 81.6702
v -17.26931 -1.690908 82.15934
v -17.26931 3.309092 82.15932
v -18.59126 3.351861 81.67018
v -11.64665 -1.690947 68.25495
v -13.88168 -1.64818 67.43565
v -11.64665 3.309053 68.25494
v -13.88168 3.35182 67.43564
v -19.93044 -1.578559 81.27146
v -18.59126 -1.648139 81.6702
v -18.59126 3.351861 81.67018
v -19.93044 3.421441 81.27145
v -13.88168 -1.64818 67.43565
v -16.17841 -1.578604 66.76302
v -13.88168 3.35182 67.43564
v -16.17841 3.421396 66.76301
v -21.29829 -1.482635 80.96096
v -19.93044 -1.578559 81.27146
v -19.93044 3.421441 81.27145
v -21.29829 3.517365 80.96095
v -16.17841 -1.578604 66.76302
v -18.52076 -1.482682 66.24511
v -16.17841 3.421396 66.76301
v -18.52076 3.517318 66.24509
v -22.69212 -1.362034 80.73978
v -21.29829 -1.482635 80.96096
v -21.29829 3.517365 80.96095
v -22.69212 3.637966 80.73977
v -18.52076 -1.482682 66.24511
v -20.87941 -1.362083 65.88616
v -18.52076 3.517318 66.24509
v -20.87941 3.637918 65.88615
v -24.10323 -1.219435 80.60733
v -22.69212 -1.362034 80.73978
v -22.69212 3.637966 80.73977
v -24.10323 3.780564 80.60732
v -20.87941 -1.362083 65.88616
v -23.22566 -1.219482 65.68225
v -20.87941 3.637918 65.88615
v -23.22566 3.780518 65.68224
v -25.5512 -1.055739 80.56017
v -24.10323 -1.219435 80.60733
v -24.10323 3.780564 80.60732
v -25.5512 3.944261 80.56015
v -23.22566 -1.219482 65.68225
v -25.55701 -1.055787 65.62263
v -23.22566 3.780518 65.68224
v -25.55701 3.944212 65.62262
v -27.0172 -0.8743082 80.59673
v -25.5512 -1.055739 80.56017
v -25.5512 3.944261 80.56015
v -27.0172 4.125691 80.59671
v -25.55701 -1.055787 65.62263
v -27.85147 -0.8743582 65.69579
v -25.55701 3.944212 65.62262
v -27.85148 4.125641 65.69577
v -28.51471 -0.675877 80.7147
v -27.0172 -0.8743082 80.59673
v -27.0172 4.125691 80.59671
v -28.51471 4.324123 80.71468
v -27.85147 -0.8743582 65.69579
v -30.11359 -0.6759284 65.88914
v -27.85148 4.125641 65.69577
v -30.11359 4.324072 65.88912
v -30.03754 -0.462441 80.91147
v -28.51471 -0.675877 80.7147
v -28.51471 4.324123 80.71468
v -30.03754 4.537559 80.91145
v -30.11359 -0.6759284 65.88914
v -32.33816 -0.4624918 66.19064
v -30.11359 4.324072 65.88912
v -32.33816 4.537508 66.19063
v -31.57996 -0.2360838 81.18343
v -30.03754 -0.462441 80.91147
v -30.03754 4.537559 80.91145
v -31.57996 4.763916 81.18342
v -32.33816 -0.4624918 66.19064
v -34.51863 -0.2361338 66.58788
v -32.33816 4.537508 66.19063
v -34.51863 4.763866 66.58787
v -33.21593 2.474709E-05 81.54551
v -31.57996 -0.2360838 81.18343
v -31.57996 4.763916 81.18342
v -33.21593 5.000025 81.54549
v -34.51863 -0.2361338 66.58788
v -36.5528 -2.474709E-05 67.04511
v -34.51863 4.763866 66.58787
v -36.5528 4.999975 67.0451

vn -0.2860513 -1.488397E-06 -0.9582143
vn -0.2860513 -1.514674E-06 -0.9582143
vn -0.2860513 -1.488397E-06 -0.9582143
vn -0.2860514 -1.462119E-06 -0.9582143
vn 0.3224052 1.505894E-06 0.9466018
vn 0.3224053 1.476343E-06 0.9466017
vn 0.3224053 1.476343E-06 0.9466017
vn 0.3224054 1.446792E-06 0.9466017
vn -0.1184139 -1.526204E-06 -0.9929643
vn -0.1184139 -1.51468E-06 -0.9929643
vn -0.1184139 -1.526204E-06 -0.9929643
vn -0.1184138 -1.537729E-06 -0.9929643
vn 0.1471301 1.509273E-06 0.9891171
vn 0.14713 1.522846E-06 0.9891171
vn 0.14713 1.522846E-06 0.9891171
vn 0.1471298 1.536419E-06 0.9891171
vn 0.07618254 -1.507343E-06 -0.997094
vn 0.07618254 -1.507771E-06 -0.997094
vn 0.07618254 -1.507343E-06 -0.997094
vn 0.07618253 -1.506914E-06 -0.997094
vn -0.0642274 1.510478E-06 0.9979353
vn -0.0642274 1.510405E-06 0.9979353
vn -0.0642274 1.510405E-06 0.9979353
vn -0.0642274 1.510331E-06 0.9979353
vn 0.2576847 -1.428966E-06 -0.966229
vn 0.2576847 -1.420446E-06 -0.966229
vn 0.2576847 -1.428966E-06 -0.966229
vn 0.2576848 -1.437486E-06 -0.966229
vn -0.2639329 1.421432E-06 0.964541
vn -0.2639329 1.42179E-06 0.964541
vn -0.2639329 1.42179E-06 0.964541
vn -0.2639329 1.422149E-06 0.964541
vn 0.4002205 -1.325504E-06 -0.9164188
vn 0.4002205 -1.329E-06 -0.9164188
vn 0.4002205 -1.325504E-06 -0.9164188
vn 0.4002205 -1.322008E-06 -0.9164189
vn -0.4079084 1.31536E-06 0.9130228
vn -0.4079084 1.314776E-06 0.9130228
vn -0.4079084 1.314776E-06 0.9130228
vn -0.4079084 1.314191E-06 0.9130228
vn 0.4989056 -1.243648E-06 -0.8666563
vn 0.4989056 -1.236252E-06 -0.8666564
vn 0.4989056 -1.243648E-06 -0.8666563
vn 0.4989056 -1.251043E-06 -0.8666563
vn -0.504492 1.221245E-06 0.8634163
vn -0.504492 1.218458E-06 0.8634163
vn -0.504492 1.218458E-06 0.8634163
vn -0.504492 1.215671E-06 0.8634163
vn 0.5617585 -1.168166E-06 -0.8273014
vn 0.5617584 -1.181116E-06 -0.8273013
vn 0.5617585 -1.168166E-06 -0.8273014
vn 0.5617584 -1.155215E-06 -0.8273013
vn -0.5660788 1.149889E-06 0.8243512
vn -0.5660788 1.146703E-06 0.8243512
vn -0.5660788 1.146703E-06 0.8243512
vn -0.5660788 1.143517E-06 0.8243512
vn 0.5986639 -1.107717E-06 -0.8010003
vn 0.5986639 -1.10739E-06 -0.8010003
vn 0.5986639 -1.107717E-06 -0.8010003
vn 0.5986639 -1.108043E-06 -0.8010003
vn -0.6024309 1.103008E-06 0.7981712
vn -0.6024308 1.096691E-06 0.7981712
vn -0.6024308 1.096691E-06 0.7981712
vn -0.6024308 1.090374E-06 0.7981712
vn 0.617095 -1.082308E-06 -0.7868887
vn 0.617095 -1.08162E-06 -0.7868887
vn 0.617095 -1.082308E-06 -0.7868887
vn 0.6170951 -1.082995E-06 -0.7868887
vn -0.6206647 1.078023E-06 0.784076
vn -0.6206647 1.079518E-06 0.784076
vn -0.6206647 1.079518E-06 0.784076
vn -0.6206647 1.081013E-06 0.784076
vn 0.6217709 -1.673535E-06 -0.7831992
vn 0.6217697 -1.075531E-06 -0.7832003
vn 0.6217709 -1.673535E-06 -0.7831992
vn 0.6217722 -2.271538E-06 -0.7831982
vn -0.6252424 1.071587E-06 0.7804307
vn -0.6252435 1.659773E-06 0.7804297
vn -0.6252435 1.659773E-06 0.7804297
vn -0.6252447 2.247957E-06 0.7804286
vn 0.6155189 -2.289506E-06 -0.7881222
vn 0.6155189 -2.291256E-06 -0.7881222
vn 0.6155189 -2.289506E-06 -0.7881222
vn 0.6155189 -2.287757E-06 -0.7881222
vn -0.6188599 2.264367E-06 0.7855014
vn -0.6188599 2.248451E-06 0.7855014
vn -0.6188599 2.248451E-06 0.7855014
vn -0.6188599 2.232535E-06 0.7855014
vn 0.599931 -2.271606E-06 -0.8000517
vn 0.5999312 -2.330502E-06 -0.8000517
vn 0.599931 -2.271606E-06 -0.8000517
vn 0.5999309 -2.212709E-06 -0.8000519
vn -0.6030301 2.272698E-06 0.7977185
vn -0.60303 2.270412E-06 0.7977185
vn -0.60303 2.270412E-06 0.7977185
vn -0.60303 2.268125E-06 0.7977185
vn 0.5758581 -2.33386E-06 -0.8175496
vn 0.5758579 -2.282593E-06 -0.8175498
vn 0.5758581 -2.33386E-06 -0.8175496
vn 0.5758582 -2.385127E-06 -0.8175496
vn -0.5785414 2.323654E-06 0.815653
vn -0.5785415 2.355363E-06 0.815653
vn -0.5785415 2.355363E-06 0.815653
vn -0.5785415 2.387072E-06 0.8156529
vn 0.5438291 -2.456541E-06 -0.8391959
vn 0.5438291 -2.455787E-06 -0.839196
vn 0.5438291 -2.456541E-06 -0.8391959
vn 0.5438291 -2.457296E-06 -0.839196
vn -0.5458756 2.452847E-06 0.8378663
vn -0.5458755 2.429444E-06 0.8378664
vn -0.5458755 2.429444E-06 0.8378664
vn -0.5458755 2.40604E-06 0.8378664
vn 0.5042504 -2.537232E-06 -0.8635575
vn 0.5042504 -2.535274E-06 -0.8635575
vn 0.5042504 -2.537232E-06 -0.8635575
vn 0.5042504 -2.539191E-06 -0.8635575
vn -0.5053959 2.488729E-06 0.8628876
vn -0.5053958 2.488994E-06 0.8628876
vn -0.5053958 2.488994E-06 0.8628876
vn -0.5053958 2.489259E-06 0.8628876
vn 0.4577079 -2.584608E-06 -0.8891026
vn 0.457708 -2.630491E-06 -0.8891026
vn 0.4577079 -2.584608E-06 -0.8891026
vn 0.4577078 -2.538725E-06 -0.8891028
vn -0.4576944 2.5824E-06 0.8891096
vn -0.4576944 2.555547E-06 0.8891096
vn -0.4576944 2.555547E-06 0.8891096
vn -0.4576944 2.528694E-06 0.8891096
vn 0.4049659 -2.635373E-06 -0.9143318
vn 0.4049659 -2.634909E-06 -0.9143318
vn 0.4049659 -2.635373E-06 -0.9143318
vn 0.4049658 -2.635837E-06 -0.9143318
vn -0.4035761 2.638242E-06 0.9149461
vn -0.4035761 2.632846E-06 0.9149461
vn -0.4035761 2.632846E-06 0.9149461
vn -0.4035762 2.627449E-06 0.9149461
vn 0.3470235 -2.730724E-06 -0.9378563
vn 0.3470235 -2.731716E-06 -0.9378564
vn 0.3470235 -2.730724E-06 -0.9378563
vn 0.3470235 -2.729732E-06 -0.9378564
vn -0.3441755 2.73402E-06 0.9389054
vn -0.3441755 2.734143E-06 0.9389054
vn -0.3441755 2.734143E-06 0.9389054
vn -0.3441755 2.734268E-06 0.9389054
vn 0.2853646 -2.815701E-06 -0.958419
vn 0.2853646 -2.815399E-06 -0.958419
vn 0.2853646 -2.815701E-06 -0.958419
vn 0.2853646 -2.816005E-06 -0.9584191
vn -0.2810593 2.821527E-06 0.9596905
vn -0.2810593 2.825417E-06 0.9596905
vn -0.2810593 2.825417E-06 0.9596905
vn -0.2810593 2.829307E-06 0.9596905
vn 0.2213672 -2.892731E-06 -0.9751905
vn 0.2213672 -2.893862E-06 -0.9751905
vn 0.2213672 -2.892731E-06 -0.9751905
vn 0.2213672 -2.8916E-06 -0.9751905
vn -0.2158941 2.89743E-06 0.9764168
vn -0.2158941 2.894776E-06 0.9764168
vn -0.2158941 2.894776E-06 0.9764168
vn -0.2158941 2.892122E-06 0.9764168
vn 0.1567213 -2.955349E-06 -0.9876428
vn 0.1567212 -2.956436E-06 -0.9876428
vn 0.1567213 -2.955349E-06 -0.9876428
vn 0.1567213 -2.954262E-06 -0.9876429
vn -0.1504512 2.959628E-06 0.9886174
vn -0.1504512 2.961307E-06 0.9886174
vn -0.1504512 2.961307E-06 0.9886174
vn -0.1504512 2.962985E-06 0.9886174
vn 0.09345397 -3.002729E-06 -0.9956236
vn 0.09345395 -3.002704E-06 -0.9956235
vn 0.09345397 -3.002729E-06 -0.9956236
vn 0.09345397 -3.002753E-06 -0.9956236
vn -0.08658275 3.007268E-06 0.9962447
vn -0.08658274 3.006979E-06 0.9962447
vn -0.08658274 3.006979E-06 0.9962447
vn -0.08658275 3.00669E-06 0.9962447
vn 0.03255554 -3.037533E-06 -0.99947
vn 0.03255554 -3.037344E-06 -0.9994699
vn 0.03255554 -3.037533E-06 -0.99947
vn 0.03255554 -3.037722E-06 -0.99947
vn -0.02556291 3.041009E-06 0.9996732
vn -0.02556291 3.041219E-06 0.9996732
vn -0.02556291 3.041219E-06 0.9996732
vn -0.02556291 3.041428E-06 0.9996732
vn -0.02493132 -3.060461E-06 -0.9996892
vn -0.02493132 -3.060602E-06 -0.9996892
vn -0.02493132 -3.060461E-06 -0.9996892
vn -0.02493132 -3.06032E-06 -0.9996892
vn 0.03186538 3.062364E-06 0.9994922
vn 0.03186539 3.062431E-06 0.9994922
vn 0.03186539 3.062431E-06 0.9994922
vn 0.03186538 3.062499E-06 0.9994922
vn -0.0785365 -3.07174E-06 -0.9969113
vn -0.07853649 -3.071189E-06 -0.9969112
vn -0.0785365 -3.07174E-06 -0.9969113
vn -0.0785365 -3.072291E-06 -0.9969113
vn 0.08516353 3.073158E-06 0.996367
vn 0.08516353 3.072399E-06 0.9963671
vn 0.08516353 3.072399E-06 0.9963671
vn 0.08516354 3.071639E-06 0.9963671
vn -0.1281487 -3.074938E-06 -0.9917549
vn -0.1281487 -3.074394E-06 -0.9917549
vn -0.1281487 -3.074938E-06 -0.9917549
vn -0.1281487 -3.075481E-06 -0.991755
vn 0.1343069 3.075342E-06 0.9909397
vn 0.1343069 3.048426E-06 0.9909397
vn 0.1343069 3.048426E-06 0.9909397
vn 0.134307 3.02151E-06 0.9909397
vn -0.1736448 -3.071394E-06 -0.9848084
vn -0.1736448 -3.071152E-06 -0.9848084
vn -0.1736448 -3.071394E-06 -0.9848084
vn -0.1736448 -3.071637E-06 -0.9848084
vn 0.1792314 3.00234E-06 0.9838069
vn 0.1792314 3.004494E-06 0.9838069
vn 0.1792314 3.004494E-06 0.9838069
vn 0.1792314 3.006647E-06 0.9838069
vn -0.2160928 -3.023021E-06 -0.9763728
vn -0.2160926 -3.066387E-06 -0.9763729
vn -0.2160928 -3.023021E-06 -0.9763728
vn -0.2160929 -2.979653E-06 -0.9763728
vn 0.2193025 2.977469E-06 0.9756569
vn 0.2193025 2.978186E-06 0.9756569
vn 0.2193025 2.978186E-06 0.9756569
vn 0.2193025 2.978904E-06 0.9756569

vt 0 0
vt 0 0
vt 0 0
vt 0 0
vt 0 0
vt 0 0
vt 0 0
vt 0 0
vt 0 0
vt 0 0
vt 0 0
vt 0 0
vt 0 0
vt 0 0
vt 0 0
vt 0 0
vt 0 0
vt 0 0
vt 0 0
vt 0 0
vt 0 0
vt 0 0
vt 0 0
vt 0 0
vt 0 0
vt 0 0
vt 0 0
vt 0 0
vt 0 0
vt 0 0
vt 0 0
vt 0 0
vt 0 0
vt 0 0
vt 0 0
vt 0 0
vt 0 0
vt 0 0
vt 0 0
vt 0 0
vt 0 0
vt 0 0
vt 0 0
vt 0 0
vt 0 0
vt 0 0
vt 0 0
vt 0 0
vt 0 0
vt 0 0
vt 0 0
vt 0 0
vt 0 0
vt 0 0
vt 0 0
vt 0 0
vt 0 0
vt 0 0
vt 0 0
vt 0 0
vt 0 0
vt 0 0
vt 0 0
vt 0 0
vt 0 0
vt 0 0
vt 0 0
vt 0 0
vt 0 0
vt 0 0
vt 0 0
vt 0 0
vt 0 0
vt 0 0
vt 0 0
vt 0 0
vt 0 0
vt 0 0
vt 0 0
vt 0 0
vt 0 0
vt 0 0
vt 0 0
vt 0 0
vt 0 0
vt 0 0
vt 0 0
vt 0 0
vt 0 0
vt 0 0
vt 0 0
vt 0 0
vt 0 0
vt 0 0
vt 0 0
vt 0 0
vt 0 0
vt 0 0
vt 0 0
vt 0 0
vt 0 0
vt 0 0
vt 0 0
vt 0 0
vt 0 0
vt 0 0
vt 0 0
vt 0 0
vt 0 0
vt 0 0
vt 0 0
vt 0 0
vt 0 0
vt 0 0
vt 0 0
vt 0 0
vt 0 0
vt 0 0
vt 0 0
vt 0 0
vt 0 0
vt 0 0
vt 0 0
vt 0 0
vt 0 0
vt 0 0
vt 0 0
vt 0 0
vt 0 0
vt 0 0
vt 0 0
vt 0 0
vt 0 0
vt 0 0
vt 0 0
vt 0 0
vt 0 0
vt 0 0
vt 0 0
vt 0 0
vt 0 0
vt 0 0
vt 0 0
vt 0 0
vt 0 0
vt 0 0
vt 0 0
vt 0 0
vt 0 0
vt 0 0
vt 0 0
vt 0 0
vt 0 0
vt 0 0
vt 0 0
vt 0 0
vt 0 0
vt 0 0
vt 0 0
vt 0 0
vt 0 0
vt 0 0
vt 0 0
vt 0 0
vt 0 0
vt 0 0
vt 0 0
vt 0 0
vt 0 0
vt 0 0
vt 0 0
vt 0 0
vt 0 0
vt 0 0
vt 0 0
vt 0 0
vt 0 0
vt 0 0
vt 0 0
vt 0 0
vt 0 0
vt 0 0
vt 0 0
vt 0 0
vt 0 0
vt 0 0
vt 0 0
vt 0 0
vt 0 0
vt 0 0
vt 0 0
vt 0 0
vt 0 0
vt 0 0
vt 0 0
vt 0 0
vt 0 0
vt 0 0
vt 0 0
vt 0 0
vt 0 0
vt 0 0
vt 0 0
vt 0 0
vt 0 0
vt 0 0
vt 0 0
vt 0 0
vt 0 0
vt 0 0
vt 0 0
vt 0 0
vt 0 0
vt 0 0
vt 0 0
vt 0 0
vt 0 0
vt 0 0
vt 0 0
vt 0 0
vt 0 0
vt 0 0
vt 0 0
vt 0 0

g Track Texture
usemtl Track Texture
usemap Track Texture
f 2/2/2 1/1/1 3/3/3
f 3/3/3 1/1/1 4/4/4
f 6/6/6 5/5/5 7/7/7
f 6/6/6 7/7/7 8/8/8
f 10/10/10 9/9/9 11/11/11
f 11/11/11 9/9/9 12/12/12
f 14/14/14 13/13/13 15/15/15
f 14/14/14 15/15/15 16/16/16
f 18/18/18 17/17/17 19/19/19
f 19/19/19 17/17/17 20/20/20
f 22/22/22 21/21/21 23/23/23
f 22/22/22 23/23/23 24/24/24
f 26/26/26 25/25/25 27/27/27
f 27/27/27 25/25/25 28/28/28
f 30/30/30 29/29/29 31/31/31
f 30/30/30 31/31/31 32/32/32
f 34/34/34 33/33/33 35/35/35
f 35/35/35 33/33/33 36/36/36
f 38/38/38 37/37/37 39/39/39
f 38/38/38 39/39/39 40/40/40
f 42/42/42 41/41/41 43/43/43
f 43/43/43 41/41/41 44/44/44
f 46/46/46 45/45/45 47/47/47
f 46/46/46 47/47/47 48/48/48
f 50/50/50 49/49/49 51/51/51
f 51/51/51 49/49/49 52/52/52
f 54/54/54 53/53/53 55/55/55
f 54/54/54 55/55/55 56/56/56
f 58/58/58 57/57/57 59/59/59
f 59/59/59 57/57/57 60/60/60
f 62/62/62 61/61/61 63/63/63
f 62/62/62 63/63/63 64/64/64
f 66/66/66 65/65/65 67/67/67
f 67/67/67 65/65/65 68/68/68
f 70/70/70 69/69/69 71/71/71
f 70/70/70 71/71/71 72/72/72
f 74/74/74 73/73/73 75/75/75
f 75/75/75 73/73/73 76/76/76
f 78/78/78 77/77/77 79/79/79
f 78/78/78 79/79/79 80/80/80
f 82/82/82 81/81/81 83/83/83
f 83/83/83 81/81/81 84/84/84
f 86/86/86 85/85/85 87/87/87
f 86/86/86 87/87/87 88/88/88
f 90/90/90 89/89/89 91/91/91
f 91/91/91 89/89/89 92/92/92
f 94/94/94 93/93/93 95/95/95
f 94/94/94 95/95/95 96/96/96
f 98/98/98 97/97/97 99/99/99
f 99/99/99 97/97/97 100/100/100
f 102/102/102 101/101/101 103/103/103
f 102/102/102 103/103/103 104/104/104
f 106/106/106 105/105/105 107/107/107
f 107/107/107 105/105/105 108/108/108
f 110/110/110 109/109/109 111/111/111
f 110/110/110 111/111/111 112/112/112
f 114/114/114 113/113/113 115/115/115
f 115/115/115 113/113/113 116/116/116
f 118/118/118 117/117/117 119/119/119
f 118/118/118 119/119/119 120/120/120
f 122/122/122 121/121/121 123/123/123
f 123/123/123 121/121/121 124/124/124
f 126/126/126 125/125/125 127/127/127
f 126/126/126 127/127/127 128/128/128
f 130/130/130 129/129/129 131/131/131
f 131/131/131 129/129/129 132/132/132
f 134/134/134 133/133/133 135/135/135
f 134/134/134 135/135/135 136/136/136
f 138/138/138 137/137/137 139/139/139
f 139/139/139 137/137/137 140/140/140
f 142/142/142 141/141/141 143/143/143
f 142/142/142 143/143/143 144/144/144
f 146/146/146 145/145/145 147/147/147
f 147/147/147 145/145/145 148/148/148
f 150/150/150 149/149/149 151/151/151
f 150/150/150 151/151/151 152/152/152
f 154/154/154 153/153/153 155/155/155
f 155/155/155 153/153/153 156/156/156
f 158/158/158 157/157/157 159/159/159
f 158/158/158 159/159/159 160/160/160
f 162/162/162 161/161/161 163/163/163
f 163/163/163 161/161/161 164/164/164
f 166/166/166 165/165/165 167/167/167
f 166/166/166 167/167/167 168/168/168
f 170/170/170 169/169/169 171/171/171
f 171/171/171 169/169/169 172/172/172
f 174/174/174 173/173/173 175/175/175
f 174/174/174 175/175/175 176/176/176
f 178/178/178 177/177/177 179/179/179
f 179/179/179 177/177/177 180/180/180
f 182/182/182 181/181/181 183/183/183
f 182/182/182 183/183/183 184/184/184
f 186/186/186 185/185/185 187/187/187
f 187/187/187 185/185/185 188/188/188
f 190/190/190 189/189/189 191/191/191
f 190/190/190 191/191/191 192/192/192
f 194/194/194 193/193/193 195/195/195
f 195/195/195 193/193/193 196/196/196
f 198/198/198 197/197/197 199/199/199
f 198/198/198 199/199/199 200/200/200
f 202/202/202 201/201/201 203/203/203
f 203/203/203 201/201/201 204/204/204
f 206/206/206 205/205/205 207/207/207
f 206/206/206 207/207/207 208/208/208
f 210/210/210 209/209/209 211/211/211
f 211/211/211 209/209/209 212/212/212
f 214/214/214 213/213/213 215/215/215
f 214/214/214 215/215/215 216/216/216
f 218/218/218 217/217/217 219/219/219
f 219/219/219 217/217/217 220/220/220
f 222/222/222 221/221/221 223/223/223
f 222/222/222 223/223/223 224/224/224
