mtllib ./Track1_track_17.mtl
# Unity Asset Buildr OBJ Exporter
 http://buildr.jasperstocker.com
g Track1_track_17
v -135.7346 2.341066 -8.627835
v -133.7042 2.283133 -9.880576
v -131.3728 0.7660264 -5.77874
v -133.132 0.7803554 -4.688026
v -129.0414 -0.7510805 -1.676904
v -130.5294 -0.7803556 -0.7482166
v -126.7099 -2.268187 2.424932
v -127.9269 -2.341066 3.191592
v -133.7042 2.283133 -9.880576
v -131.4462 2.19209 -11.02579
v -129.4956 0.7514878 -6.734048
v -131.3728 0.7660264 -5.77874
v -127.5451 -0.6891143 -2.442302
v -129.0414 -0.7510805 -1.676904
v -125.5945 -2.129716 1.849444
v -126.7099 -2.268187 2.424932
v -131.4462 2.19209 -11.02579
v -128.9753 2.066497 -11.98139
v -127.4959 0.7377679 -7.509853
v -129.4956 0.7514878 -6.734048
v -126.0165 -0.5909615 -3.038314
v -127.5451 -0.6891143 -2.442302
v -124.537 -1.919691 1.433226
v -125.5945 -2.129716 1.849444
v -128.9753 2.066497 -11.98139
v -126.2964 1.903346 -12.67185
v -125.3782 0.7250851 -8.05629
v -127.4959 0.7377679 -7.509853
v -124.4601 -0.4531758 -3.440732
v -126.0165 -0.5909615 -3.038314
v -123.5419 -1.631437 1.174826
v -124.537 -1.919691 1.433226
v -126.2964 1.903346 -12.67185
v -123.4757 1.710597 -13.01946
v -123.1854 0.7159618 -8.32394
v -125.3782 0.7250851 -8.05629
v -122.8952 -0.2786736 -3.628422
v -124.4601 -0.4531758 -3.440732
v -122.605 -1.273309 1.067095
v -123.5419 -1.631437 1.174826
v -123.4757 1.710597 -13.01946
v -120.6209 1.512808 -12.98663
v -120.9705 0.7172812 -8.2908
v -123.1854 0.7159618 -8.32394
v -121.3201 -0.07824557 -3.594967
v -122.8952 -0.2786736 -3.628422
v -121.6698 -0.8737723 1.100866
v -122.605 -1.273309 1.067095
v -120.6209 1.512808 -12.98663
v -117.8613 1.340148 -12.59926
v -118.8031 0.7358838 -7.97263
v -120.9705 0.7172812 -8.2908
v -119.7449 0.1316192 -3.345996
v -121.3201 -0.07824557 -3.594967
v -120.6867 -0.4726454 1.280638
v -121.6698 -0.8737723 1.100866
v -117.8613 1.340148 -12.59926
v -115.2877 1.216981 -11.93771
v -118.8031 0.7358838 -7.97263
v -116.7276 0.7761894 -7.418782
v -119.7449 0.1316192 -3.345996
v -118.1675 0.3353977 -2.899852
v -120.6867 -0.4726454 1.280638
v -119.6074 -0.1053941 1.619078
v -115.2877 1.216981 -11.93771
v -112.936 1.151601 -11.09957
v -116.7276 0.7761894 -7.418782
v -114.7623 0.8372083 -6.692287
v -118.1675 0.3353977 -2.899852
v -116.5886 0.5228159 -2.285002
v -119.6074 -0.1053941 1.619078
v -118.4148 0.2084236 2.122283
v -112.936 1.151601 -11.09957
v -110.799 1.139467 -10.17033
v -114.7623 0.8372083 -6.692287
v -112.9013 0.9142669 -5.852427
v -116.5886 0.5228159 -2.285002
v -115.0036 0.6890672 -1.534521
v -118.4148 0.2084236 2.122283
v -117.1059 0.4638676 2.783385
v -110.799 1.139467 -10.17033
v -108.8534 1.168683 -9.216867
v -112.9013 0.9142669 -5.852427
v -111.1312 1.000535 -4.951157
v -115.0036 0.6890672 -1.534521
v -113.409 0.8323874 -0.6854468
v -117.1059 0.4638676 2.783385
v -115.6867 0.6642399 3.580263
v -108.8534 1.168683 -9.216867
v -107.0699 1.225729 -8.287625
v -111.1312 1.000535 -4.951157
v -109.4312 1.089181 -4.029944
v -113.409 0.8323874 -0.6854468
v -111.7926 0.9526331 0.2277377
v -115.6867 0.6642399 3.580263
v -114.1539 0.8160851 4.485419
v -107.0699 1.225729 -8.287625
v -105.4238 1.297391 -7.419586
v -109.4312 1.089181 -4.029944
v -107.7806 1.173627 -3.123683
v -111.7926 0.9526331 0.2277377
v -110.1375 1.049864 1.17222
v -114.1539 0.8160851 4.485419
v -112.4944 0.9261 5.468122
v -105.4238 1.297391 -7.419586
v -103.8961 1.371198 -6.641838
v -107.7806 1.173627 -3.123683
v -106.1578 1.247514 -2.262676
v -110.1375 1.049864 1.17222
v -108.4195 1.123831 2.116487
v -112.4944 0.9261 5.468122
v -110.6812 1.000148 6.495649
v -103.8961 1.371198 -6.641838
v -102.4837 1.434422 -5.982369
v -106.1578 1.247514 -2.262676
v -104.5512 1.303863 -1.480486
v -108.4195 1.123831 2.116487
v -106.6187 1.173304 3.021397
v -110.6812 1.000148 6.495649
v -108.6862 1.042745 7.523279
v -102.4837 1.434422 -5.982369
v -101.198 1.474317 -5.465336
v -104.5512 1.303863 -1.480486
v -102.9595 1.335369 -0.8131639
v -106.6187 1.173304 3.021397
v -104.7209 1.196422 3.839008
v -108.6862 1.042745 7.523279
v -106.4824 1.057474 8.491179
v -101.198 1.474317 -5.465336
v -100.0329 1.477582 -5.095794
v -102.9595 1.335369 -0.8131639
v -101.3687 1.334533 -0.2887976
v -104.7209 1.196422 3.839008
v -102.7045 1.191484 4.518198
v -106.4824 1.057474 8.491179
v -104.0403 1.048435 9.325194
v -100.0329 1.477582 -5.095794
v -98.99567 1.433499 -4.873065
v -101.3687 1.334533 -0.2887976
v -99.7888 1.294905 0.06054353
v -102.7045 1.191484 4.518198
v -100.5819 1.15631 4.994152
v -104.0403 1.048435 9.325194
v -101.375 1.017716 9.92776
v -98.99567 1.433499 -4.873065
v -98.04646 1.335773 -4.779723
v -99.7888 1.294905 0.06054353
v -98.21217 1.212553 0.2154539
v -100.5819 1.15631 4.994152
v -98.37788 1.089333 5.210631
v -101.375 1.017716 9.92776
v -98.5436 0.9661131 10.20581
v -98.04646 1.335773 -4.779723
v -97.14208 1.188146 -4.80544
v -96.64845 1.089193 0.1637107
v -98.21217 1.212553 0.2154539
v -96.15481 0.9902399 5.132862
v -98.37788 1.089333 5.210631
v -95.66117 0.8912866 10.10201
v -98.5436 0.9661131 10.20581
v -97.14208 1.188146 -4.80544
v -96.21155 1.000952 -4.954719
v -95.09124 0.930473 -0.09554689
v -96.64845 1.089193 0.1637107
v -93.97092 0.8599936 4.763625
v -96.15481 0.9902399 5.132862
v -92.85062 0.7895143 9.622797
v -95.66117 0.8912866 10.10201
v -96.21155 1.000952 -4.954719
v -95.22888 0.7895198 -5.24035
v -93.55645 0.7459573 -0.5501561
v -95.09124 0.930473 -0.09554689
v -91.88401 0.7023948 4.140038
v -93.97092 0.8599936 4.763625
v -90.21158 0.6588323 8.830231
v -92.85062 0.7895143 9.622797
v -95.22888 0.7895198 -5.24035
v -94.17593 0.5653544 -5.676296
v -92.04436 0.5433578 -1.182823
v -93.55645 0.7459573 -0.5501561
v -89.9128 0.5213612 3.31065
v -91.88401 0.7023948 4.140038
v -87.78123 0.4993646 7.804123
v -90.21158 0.6588323 8.830231
v -94.17593 0.5653544 -5.676296
v -93.06702 0.3368297 -6.262212
v -90.56414 0.3291986 -1.969697
v -92.04436 0.5433578 -1.182823
v -88.06126 0.3215674 2.322818
v -89.9128 0.5213612 3.31065
v -85.55837 0.3139364 6.615333
v -87.78123 0.4993646 7.804123
v -93.06702 0.3368297 -6.262212
v -91.81667 0.1082749 -7.058801
v -89.08455 0.1075316 -2.911427
v -90.56414 0.3291986 -1.969697
v -86.35243 0.1067883 1.235947
v -88.06126 0.3215674 2.322818
v -83.62032 0.1060451 5.383321
v -85.55837 0.3139364 6.615333
v -91.81667 0.1082749 -7.058801
v -91.41822 -3.494585E-05 -7.342753
v -88.46054 -1.164862E-05 -3.353628
v -89.08455 0.1075316 -2.911427
v -85.50285 1.164862E-05 0.635498
v -86.35243 0.1067883 1.235947
v -82.54517 3.494585E-05 4.624623
v -83.62032 0.1060451 5.383321

vn 0.1762386 0.9505616 0.2556804
vn 0.1808499 0.9514406 0.2491066
vn 0.1733535 0.9509743 0.2561179
vn 0.1642431 0.9502746 0.2645793
vn 0.1567761 0.9511141 0.2660891
vn 0.1437764 0.949956 0.2773298
vn 0.138726 0.9503326 0.2786088
vn 0.1269782 0.9480504 0.2916795
vn 0.1549431 0.9538872 0.2570836
vn 0.1634666 0.9552916 0.2463667
vn 0.1498744 0.9546236 0.2573546
vn 0.132332 0.9533356 0.2713659
vn 0.1179621 0.9547337 0.2730722
vn 0.08964054 0.9517769 0.293403
vn 0.07859762 0.9521312 0.2954127
vn 0.0487517 0.9454875 0.3219884
vn 0.1278696 0.9589781 0.2530029
vn 0.1411832 0.9607556 0.2387798
vn 0.1205674 0.9600437 0.2525459
vn 0.09290809 0.9581712 0.2706957
vn 0.07079111 0.9599757 0.2709893
vn 0.02242636 0.9541614 0.2984512
vn 0.003743088 0.9539342 0.2999926
vn -0.05297296 0.9391758 0.3393269
vn 0.09746959 0.9656924 0.2407029
vn 0.1166152 0.967629 0.2238191
vn 0.08795956 0.9670755 0.2388053
vn 0.04817488 0.9646427 0.2591208
vn 0.01748469 0.9665906 0.2557282
vn -0.05701352 0.9562823 0.2868336
vn -0.08534357 0.9544693 0.2858408
vn -0.1809792 0.9247891 0.3346813
vn 0.06603165 0.9735711 0.2186298
vn 0.09141117 0.9753272 0.2009502
vn 0.05485111 0.9751481 0.214657
vn 0.002842424 0.972343 0.2335403
vn -0.03512977 0.9739526 0.2240139
vn -0.1367386 0.9581648 0.2514417
vn -0.1740951 0.9537227 0.2451608
vn -0.3118321 0.9039032 0.2927794
vn 0.03560461 0.9816486 0.1873453
vn 0.0661319 0.9829707 0.1714502
vn 0.02387365 0.9831653 0.1811522
vn -0.0363771 0.9802516 0.1943795
vn -0.07685757 0.9810535 0.1778397
vn -0.1932201 0.9619206 0.1933255
vn -0.2332029 0.955499 0.1806602
vn -0.390294 0.895518 0.2138179
vn 0.009468018 0.9886765 0.1497638
vn 0.04255556 0.9895313 0.1379009
vn -0.001584937 0.9898711 0.1419602
vn -0.06331151 0.987083 0.1471693
vn -0.1006397 0.9869527 0.1256825
vn -0.2131637 0.9687589 0.1267571
vn -0.248302 0.9624041 0.1101107
vn -0.3943294 0.9104447 0.1248794
vn 0.01345448 0.9911335 0.1321864
vn -0.01121165 0.9937972 0.1106407
vn -0.02351725 0.9932849 0.113278
vn -0.07307973 0.9934725 0.08758956
vn -0.110161 0.9896527 0.09193423
vn -0.1944047 0.9795346 0.05214246
vn -0.2246936 0.973005 0.05266951
vn -0.3194864 0.9475445 -0.009374375
vn -0.006224378 0.9954467 0.09511592
vn -0.02609882 0.9968579 0.07478733
vn -0.0366357 0.9964488 0.07581306
vn -0.07514572 0.995858 0.05118467
vn -0.1042918 0.9931946 0.05184253
vn -0.1628972 0.9864979 0.016919
vn -0.1841049 0.9827799 0.01578046
vn -0.2420541 0.9697635 -0.03112353
vn -0.02142438 0.9978274 0.06230197
vn -0.03629772 0.9983094 0.04539516
vn -0.0444143 0.9979796 0.04543408
vn -0.07176759 0.9971009 0.02528189
vn -0.09232738 0.9954329 0.02427233
vn -0.1293575 0.9915966 -0.001669359
vn -0.1427301 0.9897569 -0.003055622
vn -0.1749282 0.9839992 -0.03384874
vn -0.03272101 0.9988101 0.03616156
vn -0.04295011 0.9987924 0.02385334
vn -0.0485266 0.9985456 0.02349183
vn -0.06618267 0.9977641 0.009308376
vn -0.07915848 0.9968297 0.008018535
vn -0.1004894 0.9949011 -0.008592674
vn -0.1081164 0.9940917 -0.009615265
vn -0.1246245 0.9918242 -0.02744965
vn -0.04105012 0.9990045 0.01745963
vn -0.0471196 0.9988386 0.0100604
vn -0.05033648 0.9986852 0.009699665
vn -0.06006543 0.9981932 0.001561743
vn -0.0669537 0.9977558 0.0006780303
vn -0.07748106 0.9969615 -0.008019626
vn -0.08117438 0.9966632 -0.008552667
vn -0.08852849 0.9959259 -0.01715827
vn -0.04671585 0.9988894 0.006126365
vn -0.0490828 0.9987891 0.003321825
vn -0.05027203 0.9987305 0.00315756
vn -0.05375483 0.9985542 0.0002490684
vn -0.05609482 0.9984254 -6.96074E-05
vn -0.05947558 0.9982255 -0.002910669
vn -0.06062679 0.9981558 -0.003065169
vn -0.06278754 0.9980107 -0.005694794
vn -0.04916995 0.9987888 0.001798657
vn -0.04827492 0.9988302 0.002789221
vn -0.04785849 0.99885 0.002848669
vn -0.04666625 0.9989033 0.003803159
vn -0.04591801 0.9989376 0.003894749
vn -0.04488178 0.9989811 0.004745897
vn -0.04454346 0.998996 0.004780559
vn -0.04393049 0.9990193 0.00552717
vn -0.04664139 0.9989032 0.004123802
vn -0.04317659 0.9990388 0.007552901
vn -0.0417195 0.9990993 0.00773867
vn -0.03761496 0.9992344 0.01075212
vn -0.03525231 0.9993183 0.01095936
vn -0.03207322 0.9993956 0.01340553
vn -0.03109286 0.999426 0.01345437
vn -0.02933246 0.9994493 0.01551396
vn -0.03601127 0.9992739 0.01244162
vn -0.03148825 0.999372 0.01625186
vn -0.02981086 0.9994209 0.01640717
vn -0.02515284 0.9994957 0.01938501
vn -0.02274244 0.9995519 0.01946306
vn -0.01955307 0.9995742 0.02165479
vn -0.01864019 0.9995921 0.02163241
vn -0.01697016 0.9995815 0.02342938
vn -0.01095545 0.9996094 0.02570754
vn -0.009534674 0.9995986 0.02667808
vn -0.009076304 0.9996025 0.02669331
vn -0.007821324 0.9995953 0.02735156
vn -0.007244127 0.9996004 0.02732407
vn -0.006482237 0.9995934 0.0277676
vn -0.006282447 0.9995953 0.02774287
vn -0.005899302 0.9995875 0.02810693
vn 0.03403077 0.9986527 0.03917502
vn 0.02447358 0.999114 0.03423771
vn 0.02181843 0.9991711 0.03436545
vn 0.01463725 0.9993954 0.0315352
vn 0.01172741 0.99942 0.0319694
vn 0.0078288 0.9995137 0.03018285
vn 0.006905885 0.9995137 0.03040968
vn 0.004991239 0.9995703 0.02888223
vn 0.09806307 0.9942206 0.04369407
vn 0.06786311 0.9971537 0.03284782
vn 0.06047311 0.9975904 0.03400464
vn 0.04036261 0.9987696 0.02880937
vn 0.03307965 0.9989777 0.03081289
vn 0.02291299 0.9993589 0.02750972
vn 0.0207495 0.9993824 0.02835675
vn 0.01574425 0.999559 0.02517921
vn 0.1096958 0.9937922 0.01854842
vn 0.1612033 0.9869145 0.003638939
vn 0.09783937 0.9950734 0.01601527
vn 0.06523388 0.9976202 0.02232623
vn 0.05405336 0.9983668 0.01849492
vn 0.03801826 0.9990202 0.02265366
vn 0.03478841 0.9991713 0.02113351
vn 0.02686142 0.9993128 0.02554196
vn 0.1368511 0.9905769 -0.005396059
vn 0.1924768 0.9808383 -0.03015008
vn 0.1227157 0.9924197 -0.006634445
vn 0.08518274 0.9963476 0.00593854
vn 0.07108925 0.9974653 0.00305888
vn 0.0522058 0.9985792 0.01067591
vn 0.04798627 0.9988043 0.009338601
vn 0.03891194 0.999114 0.01603035
vn 0.1463933 0.9887404 -0.03100526
vn 0.1933175 0.9793099 -0.05983744
vn 0.1328561 0.9906599 -0.03069574
vn 0.09754623 0.995136 -0.01374746
vn 0.08277635 0.9964563 -0.01492785
vn 0.06393951 0.9979432 -0.004584583
vn 0.05926957 0.9982274 -0.005412377
vn 0.050322 0.9987289 0.002883952
vn 0.1427515 0.9883878 -0.05207388
vn 0.1762586 0.981184 -0.07880868
vn 0.1316291 0.9899973 -0.05078639
vn 0.1029129 0.9941493 -0.03280357
vn 0.08942696 0.9954651 -0.0324367
vn 0.07280041 0.9971277 -0.02089389
vn 0.06824656 0.9974444 -0.02114824
vn 0.0603232 0.9981039 -0.01223969
vn 0.1334919 0.9887771 -0.06708033
vn 0.1556957 0.9837844 -0.08903427
vn 0.1250693 0.989988 -0.06543379
vn 0.1036214 0.9934124 -0.04893417
vn 0.09240136 0.9945838 -0.04759275
vn 0.07893816 0.9962166 -0.03634693
vn 0.0749064 0.9965349 -0.03615133
vn 0.06843944 0.9972739 -0.02758372
vn 0.1175457 0.9904593 -0.07192719
vn 0.1273306 0.9883221 -0.08370295
vn 0.1130744 0.991057 -0.07085267
vn 0.1015283 0.9929941 -0.06045371
vn 0.09453923 0.9937642 -0.05911883
vn 0.08598965 0.9949893 -0.05100786
vn 0.08317302 0.9952495 -0.05060212
vn 0.07876141 0.9959153 -0.04415378
vn 0.1390548 0.9855076 -0.09715283
vn 0.1736472 0.9763551 -0.1287539
vn 0.1288035 0.9874119 -0.09180047
vn 0.1025617 0.9922466 -0.07019888
vn 0.09132174 0.9936932 -0.06506971
vn 0.07732029 0.9956023 -0.05289276
vn 0.0737503 0.9959469 -0.05148493
vn 0.06717899 0.996767 -0.04407608

vt 0 772.6895
vt 0 774.4816
vt 0.3333333 774.4816
vt 0.3333333 772.6895
vt 0.6666667 774.4816
vt 0.6666667 772.6895
vt 1 774.4816
vt 1 772.6895
vt 0 774.4816
vt 0 776.2737
vt 0.3333333 776.2737
vt 0.3333333 774.4816
vt 0.6666667 776.2737
vt 0.6666667 774.4816
vt 1 776.2737
vt 1 774.4816
vt 0 776.2737
vt 0 778.0659
vt 0.3333333 778.0659
vt 0.3333333 776.2737
vt 0.6666667 778.0659
vt 0.6666667 776.2737
vt 1 778.0659
vt 1 776.2737
vt 0 778.0659
vt 0 779.858
vt 0.3333333 779.858
vt 0.3333333 778.0659
vt 0.6666667 779.858
vt 0.6666667 778.0659
vt 1 779.858
vt 1 778.0659
vt 0 779.858
vt 0 781.65
vt 0.3333333 781.65
vt 0.3333333 779.858
vt 0.6666667 781.65
vt 0.6666667 779.858
vt 1 781.65
vt 1 779.858
vt 0 781.65
vt 0 783.4421
vt 0.3333333 783.4421
vt 0.3333333 781.65
vt 0.6666667 783.4421
vt 0.6666667 781.65
vt 1 783.4421
vt 1 781.65
vt 0 783.4421
vt 0 785.2343
vt 0.3333333 785.2343
vt 0.3333333 783.4421
vt 0.6666667 785.2343
vt 0.6666667 783.4421
vt 1 785.2343
vt 1 783.4421
vt 0 785.2343
vt 0 787.0264
vt 0.3333333 785.2343
vt 0.3333333 787.0264
vt 0.6666667 785.2343
vt 0.6666667 787.0264
vt 1 785.2343
vt 1 787.0264
vt 0 787.0264
vt 0 788.8185
vt 0.3333333 787.0264
vt 0.3333333 788.8185
vt 0.6666667 787.0264
vt 0.6666667 788.8185
vt 1 787.0264
vt 1 788.8185
vt 0 788.8185
vt 0 790.6106
vt 0.3333333 788.8185
vt 0.3333333 790.6106
vt 0.6666667 788.8185
vt 0.6666667 790.6106
vt 1 788.8185
vt 1 790.6106
vt 0 790.6106
vt 0 792.4027
vt 0.3333333 790.6106
vt 0.3333333 792.4027
vt 0.6666667 790.6106
vt 0.6666667 792.4027
vt 1 790.6106
vt 1 792.4027
vt 0 792.4027
vt 0 794.1948
vt 0.3333333 792.4027
vt 0.3333333 794.1948
vt 0.6666667 792.4027
vt 0.6666667 794.1948
vt 1 792.4027
vt 1 794.1948
vt 0 794.1948
vt 0 795.9869
vt 0.3333333 794.1948
vt 0.3333333 795.9869
vt 0.6666667 794.1948
vt 0.6666667 795.9869
vt 1 794.1948
vt 1 795.9869
vt 0 795.9869
vt 0 797.779
vt 0.3333333 795.9869
vt 0.3333333 797.779
vt 0.6666667 795.9869
vt 0.6666667 797.779
vt 1 795.9869
vt 1 797.779
vt 0 797.779
vt 0 799.5711
vt 0.3333333 797.779
vt 0.3333333 799.5711
vt 0.6666667 797.779
vt 0.6666667 799.5711
vt 1 797.779
vt 1 799.5711
vt 0 799.5711
vt 0 801.3632
vt 0.3333333 799.5711
vt 0.3333333 801.3632
vt 0.6666667 799.5711
vt 0.6666667 801.3632
vt 1 799.5711
vt 1 801.3632
vt 0 801.3632
vt 0 803.1553
vt 0.3333333 801.3632
vt 0.3333333 803.1553
vt 0.6666667 801.3632
vt 0.6666667 803.1553
vt 1 801.3632
vt 1 803.1553
vt 0 803.1553
vt 0 804.9474
vt 0.3333333 803.1553
vt 0.3333333 804.9474
vt 0.6666667 803.1553
vt 0.6666667 804.9474
vt 1 803.1553
vt 1 804.9474
vt 0 804.9474
vt 0 806.7396
vt 0.3333333 804.9474
vt 0.3333333 806.7396
vt 0.6666667 804.9474
vt 0.6666667 806.7396
vt 1 804.9474
vt 1 806.7396
vt 0 806.7396
vt 0 808.5317
vt 0.3333333 808.5317
vt 0.3333333 806.7396
vt 0.6666667 808.5317
vt 0.6666667 806.7396
vt 1 808.5317
vt 1 806.7396
vt 0 808.5317
vt 0 810.3238
vt 0.3333333 810.3238
vt 0.3333333 808.5317
vt 0.6666667 810.3238
vt 0.6666667 808.5317
vt 1 810.3238
vt 1 808.5317
vt 0 810.3238
vt 0 812.1158
vt 0.3333333 812.1158
vt 0.3333333 810.3238
vt 0.6666667 812.1158
vt 0.6666667 810.3238
vt 1 812.1158
vt 1 810.3238
vt 0 812.1158
vt 0 813.908
vt 0.3333333 813.908
vt 0.3333333 812.1158
vt 0.6666667 813.908
vt 0.6666667 812.1158
vt 1 813.908
vt 1 812.1158
vt 0 813.908
vt 0 815.7001
vt 0.3333333 815.7001
vt 0.3333333 813.908
vt 0.6666667 815.7001
vt 0.6666667 813.908
vt 1 815.7001
vt 1 813.908
vt 0 815.7001
vt 0 817.4922
vt 0.3333333 817.4922
vt 0.3333333 815.7001
vt 0.6666667 817.4922
vt 0.6666667 815.7001
vt 1 817.4922
vt 1 815.7001
vt 0 817.4922
vt 0 819.2843
vt 0.3333333 819.2843
vt 0.3333333 817.4922
vt 0.6666667 819.2843
vt 0.6666667 817.4922
vt 1 819.2843
vt 1 817.4922

g Track Texture
usemtl Track Texture
usemap Track Texture
f 2/2/2 1/1/1 3/3/3
f 3/3/3 1/1/1 4/4/4
f 3/3/3 4/4/4 5/5/5
f 5/5/5 4/4/4 6/6/6
f 5/5/5 6/6/6 7/7/7
f 7/7/7 6/6/6 8/8/8
f 10/10/10 9/9/9 11/11/11
f 11/11/11 9/9/9 12/12/12
f 11/11/11 12/12/12 13/13/13
f 13/13/13 12/12/12 14/14/14
f 13/13/13 14/14/14 15/15/15
f 15/15/15 14/14/14 16/16/16
f 18/18/18 17/17/17 19/19/19
f 19/19/19 17/17/17 20/20/20
f 19/19/19 20/20/20 21/21/21
f 21/21/21 20/20/20 22/22/22
f 21/21/21 22/22/22 23/23/23
f 23/23/23 22/22/22 24/24/24
f 26/26/26 25/25/25 27/27/27
f 27/27/27 25/25/25 28/28/28
f 27/27/27 28/28/28 29/29/29
f 29/29/29 28/28/28 30/30/30
f 29/29/29 30/30/30 31/31/31
f 31/31/31 30/30/30 32/32/32
f 34/34/34 33/33/33 35/35/35
f 35/35/35 33/33/33 36/36/36
f 35/35/35 36/36/36 37/37/37
f 37/37/37 36/36/36 38/38/38
f 37/37/37 38/38/38 39/39/39
f 39/39/39 38/38/38 40/40/40
f 42/42/42 41/41/41 43/43/43
f 43/43/43 41/41/41 44/44/44
f 43/43/43 44/44/44 45/45/45
f 45/45/45 44/44/44 46/46/46
f 45/45/45 46/46/46 47/47/47
f 47/47/47 46/46/46 48/48/48
f 50/50/50 49/49/49 51/51/51
f 51/51/51 49/49/49 52/52/52
f 51/51/51 52/52/52 53/53/53
f 53/53/53 52/52/52 54/54/54
f 53/53/53 54/54/54 55/55/55
f 55/55/55 54/54/54 56/56/56
f 58/58/58 57/57/57 59/59/59
f 58/58/58 59/59/59 60/60/60
f 60/60/60 59/59/59 61/61/61
f 60/60/60 61/61/61 62/62/62
f 62/62/62 61/61/61 63/63/63
f 62/62/62 63/63/63 64/64/64
f 66/66/66 65/65/65 67/67/67
f 66/66/66 67/67/67 68/68/68
f 68/68/68 67/67/67 69/69/69
f 68/68/68 69/69/69 70/70/70
f 70/70/70 69/69/69 71/71/71
f 70/70/70 71/71/71 72/72/72
f 74/74/74 73/73/73 75/75/75
f 74/74/74 75/75/75 76/76/76
f 76/76/76 75/75/75 77/77/77
f 76/76/76 77/77/77 78/78/78
f 78/78/78 77/77/77 79/79/79
f 78/78/78 79/79/79 80/80/80
f 82/82/82 81/81/81 83/83/83
f 82/82/82 83/83/83 84/84/84
f 84/84/84 83/83/83 85/85/85
f 84/84/84 85/85/85 86/86/86
f 86/86/86 85/85/85 87/87/87
f 86/86/86 87/87/87 88/88/88
f 90/90/90 89/89/89 91/91/91
f 90/90/90 91/91/91 92/92/92
f 92/92/92 91/91/91 93/93/93
f 92/92/92 93/93/93 94/94/94
f 94/94/94 93/93/93 95/95/95
f 94/94/94 95/95/95 96/96/96
f 98/98/98 97/97/97 99/99/99
f 98/98/98 99/99/99 100/100/100
f 100/100/100 99/99/99 101/101/101
f 100/100/100 101/101/101 102/102/102
f 102/102/102 101/101/101 103/103/103
f 102/102/102 103/103/103 104/104/104
f 106/106/106 105/105/105 107/107/107
f 106/106/106 107/107/107 108/108/108
f 108/108/108 107/107/107 109/109/109
f 108/108/108 109/109/109 110/110/110
f 110/110/110 109/109/109 111/111/111
f 110/110/110 111/111/111 112/112/112
f 114/114/114 113/113/113 115/115/115
f 114/114/114 115/115/115 116/116/116
f 116/116/116 115/115/115 117/117/117
f 116/116/116 117/117/117 118/118/118
f 118/118/118 117/117/117 119/119/119
f 118/118/118 119/119/119 120/120/120
f 122/122/122 121/121/121 123/123/123
f 122/122/122 123/123/123 124/124/124
f 124/124/124 123/123/123 125/125/125
f 124/124/124 125/125/125 126/126/126
f 126/126/126 125/125/125 127/127/127
f 126/126/126 127/127/127 128/128/128
f 130/130/130 129/129/129 131/131/131
f 130/130/130 131/131/131 132/132/132
f 132/132/132 131/131/131 133/133/133
f 132/132/132 133/133/133 134/134/134
f 134/134/134 133/133/133 135/135/135
f 134/134/134 135/135/135 136/136/136
f 138/138/138 137/137/137 139/139/139
f 138/138/138 139/139/139 140/140/140
f 140/140/140 139/139/139 141/141/141
f 140/140/140 141/141/141 142/142/142
f 142/142/142 141/141/141 143/143/143
f 142/142/142 143/143/143 144/144/144
f 146/146/146 145/145/145 147/147/147
f 146/146/146 147/147/147 148/148/148
f 148/148/148 147/147/147 149/149/149
f 148/148/148 149/149/149 150/150/150
f 150/150/150 149/149/149 151/151/151
f 150/150/150 151/151/151 152/152/152
f 154/154/154 153/153/153 155/155/155
f 155/155/155 153/153/153 156/156/156
f 155/155/155 156/156/156 157/157/157
f 157/157/157 156/156/156 158/158/158
f 157/157/157 158/158/158 159/159/159
f 159/159/159 158/158/158 160/160/160
f 162/162/162 161/161/161 163/163/163
f 163/163/163 161/161/161 164/164/164
f 163/163/163 164/164/164 165/165/165
f 165/165/165 164/164/164 166/166/166
f 165/165/165 166/166/166 167/167/167
f 167/167/167 166/166/166 168/168/168
f 170/170/170 169/169/169 171/171/171
f 171/171/171 169/169/169 172/172/172
f 171/171/171 172/172/172 173/173/173
f 173/173/173 172/172/172 174/174/174
f 173/173/173 174/174/174 175/175/175
f 175/175/175 174/174/174 176/176/176
f 178/178/178 177/177/177 179/179/179
f 179/179/179 177/177/177 180/180/180
f 179/179/179 180/180/180 181/181/181
f 181/181/181 180/180/180 182/182/182
f 181/181/181 182/182/182 183/183/183
f 183/183/183 182/182/182 184/184/184
f 186/186/186 185/185/185 187/187/187
f 187/187/187 185/185/185 188/188/188
f 187/187/187 188/188/188 189/189/189
f 189/189/189 188/188/188 190/190/190
f 189/189/189 190/190/190 191/191/191
f 191/191/191 190/190/190 192/192/192
f 194/194/194 193/193/193 195/195/195
f 195/195/195 193/193/193 196/196/196
f 195/195/195 196/196/196 197/197/197
f 197/197/197 196/196/196 198/198/198
f 197/197/197 198/198/198 199/199/199
f 199/199/199 198/198/198 200/200/200
f 202/202/202 201/201/201 203/203/203
f 203/203/203 201/201/201 204/204/204
f 203/203/203 204/204/204 205/205/205
f 205/205/205 204/204/204 206/206/206
f 205/205/205 206/206/206 207/207/207
f 207/207/207 206/206/206 208/208/208
